%TF.GenerationSoftware,KiCad,Pcbnew,(6.0.11)*%
%TF.CreationDate,2023-05-09T17:29:38+10:00*%
%TF.ProjectId,LV_MASTER_A_SAMPLE,4c565f4d-4153-4544-9552-5f415f53414d,1*%
%TF.SameCoordinates,Original*%
%TF.FileFunction,Copper,L2,Inr*%
%TF.FilePolarity,Positive*%
%FSLAX46Y46*%
G04 Gerber Fmt 4.6, Leading zero omitted, Abs format (unit mm)*
G04 Created by KiCad (PCBNEW (6.0.11)) date 2023-05-09 17:29:38*
%MOMM*%
%LPD*%
G01*
G04 APERTURE LIST*
G04 Aperture macros list*
%AMRoundRect*
0 Rectangle with rounded corners*
0 $1 Rounding radius*
0 $2 $3 $4 $5 $6 $7 $8 $9 X,Y pos of 4 corners*
0 Add a 4 corners polygon primitive as box body*
4,1,4,$2,$3,$4,$5,$6,$7,$8,$9,$2,$3,0*
0 Add four circle primitives for the rounded corners*
1,1,$1+$1,$2,$3*
1,1,$1+$1,$4,$5*
1,1,$1+$1,$6,$7*
1,1,$1+$1,$8,$9*
0 Add four rect primitives between the rounded corners*
20,1,$1+$1,$2,$3,$4,$5,0*
20,1,$1+$1,$4,$5,$6,$7,0*
20,1,$1+$1,$6,$7,$8,$9,0*
20,1,$1+$1,$8,$9,$2,$3,0*%
G04 Aperture macros list end*
%TA.AperFunction,ComponentPad*%
%ADD10C,2.000000*%
%TD*%
%TA.AperFunction,ComponentPad*%
%ADD11R,1.700000X1.700000*%
%TD*%
%TA.AperFunction,ComponentPad*%
%ADD12O,1.700000X1.700000*%
%TD*%
%TA.AperFunction,ComponentPad*%
%ADD13RoundRect,0.250001X-1.399999X1.099999X-1.399999X-1.099999X1.399999X-1.099999X1.399999X1.099999X0*%
%TD*%
%TA.AperFunction,ComponentPad*%
%ADD14O,3.300000X2.700000*%
%TD*%
%TA.AperFunction,ComponentPad*%
%ADD15RoundRect,0.250001X1.399999X-1.099999X1.399999X1.099999X-1.399999X1.099999X-1.399999X-1.099999X0*%
%TD*%
%TA.AperFunction,ViaPad*%
%ADD16C,0.500000*%
%TD*%
G04 APERTURE END LIST*
D10*
%TO.N,GND*%
%TO.C,J1*%
X172567600Y-102006400D03*
%TO.N,unconnected-(J1-Pad2)*%
X172567600Y-97566400D03*
%TO.N,unconnected-(J1-Pad3)*%
X172567600Y-93116400D03*
%TO.N,/CAN1_H*%
X172567600Y-88676400D03*
%TO.N,/CAN1_L*%
X172567600Y-84226400D03*
%TO.N,unconnected-(J1-Pad6)*%
X172567600Y-79786400D03*
%TO.N,unconnected-(J1-Pad7)*%
X181687600Y-102006400D03*
%TO.N,unconnected-(J1-Pad8)*%
X181687600Y-97566400D03*
%TO.N,unconnected-(J1-Pad9)*%
X181687600Y-93116400D03*
%TO.N,unconnected-(J1-Pad10)*%
X181687600Y-88676400D03*
%TO.N,GND*%
X181687600Y-84226400D03*
%TO.N,/GLV+*%
X181687600Y-79786400D03*
%TD*%
D11*
%TO.N,3.3V_(ISO)*%
%TO.C,J2*%
X131966400Y-74894400D03*
D12*
%TO.N,/Microcontroller/UART_TX*%
X129426400Y-74894400D03*
%TO.N,/Microcontroller/UART_RX*%
X126886400Y-74894400D03*
%TO.N,0V_(ISO)*%
X124346400Y-74894400D03*
%TD*%
D13*
%TO.N,/BLUE_LOOP_RLY*%
%TO.C,J7*%
X168213400Y-110304700D03*
D14*
%TO.N,/AUX_OUTPUT*%
X168213400Y-114504700D03*
%TO.N,GND*%
X173713400Y-110304700D03*
X173713400Y-114504700D03*
%TD*%
D11*
%TO.N,3.3V_(ISO)*%
%TO.C,J3*%
X118397400Y-98653800D03*
D12*
%TO.N,/Microcontroller/BOOT1*%
X115857400Y-98653800D03*
%TO.N,0V_(ISO)*%
X118397400Y-96113800D03*
X115857400Y-96113800D03*
%TO.N,/Microcontroller/BOOT0*%
X118397400Y-93573800D03*
%TO.N,3.3V_(ISO)*%
X115857400Y-93573800D03*
%TD*%
D13*
%TO.N,/IMA*%
%TO.C,J5*%
X117946800Y-116118600D03*
D14*
%TO.N,/IPA*%
X123446800Y-116118600D03*
%TD*%
D15*
%TO.N,/CS1A*%
%TO.C,J6*%
X160565600Y-114504700D03*
D14*
%TO.N,/CS2B*%
X160565600Y-110304700D03*
%TO.N,/CS1B*%
X155065600Y-114504700D03*
%TO.N,/CS2A*%
X155065600Y-110304700D03*
%TD*%
D16*
%TO.N,GND*%
X181852000Y-95443000D03*
X184874600Y-93258600D03*
X162421000Y-92217200D03*
X175832200Y-101132600D03*
X184874600Y-81625400D03*
X140246800Y-104333000D03*
X172047600Y-95316000D03*
X175425800Y-73903800D03*
X185103200Y-104587000D03*
X156680600Y-93868200D03*
X152972200Y-112511800D03*
X151448200Y-102936000D03*
X184874600Y-101107200D03*
X163843400Y-99684800D03*
X185103200Y-108701800D03*
X178397600Y-115509000D03*
X142329600Y-118836400D03*
X146876200Y-99354600D03*
X150610000Y-118811000D03*
X179642200Y-117058400D03*
X169863200Y-107787400D03*
X151245000Y-93411000D03*
X184874600Y-97322600D03*
X178397600Y-108701800D03*
X145453800Y-104917200D03*
X135624000Y-117896600D03*
X131509200Y-116753600D03*
X164834000Y-107787400D03*
X184874600Y-85105200D03*
X160414400Y-81320600D03*
X160922400Y-107787400D03*
X128766000Y-116702800D03*
X160947800Y-104587000D03*
X151676800Y-112511800D03*
X166332600Y-94173000D03*
X175832200Y-97348000D03*
X169685400Y-78247200D03*
X129934400Y-117896600D03*
X161608200Y-118760200D03*
X150178200Y-92750600D03*
X158611000Y-73548200D03*
X175654400Y-106288800D03*
X171209400Y-117058400D03*
X180937600Y-118709400D03*
X178804000Y-89220000D03*
X178423000Y-75605600D03*
X156172600Y-73573600D03*
X169583800Y-88432600D03*
X138418000Y-117871200D03*
X178423000Y-73903800D03*
X134328600Y-118861800D03*
X147765200Y-118811000D03*
X151270400Y-108092200D03*
X166535800Y-97373400D03*
X155791600Y-83403400D03*
X134531800Y-112842000D03*
X162421000Y-94706400D03*
X146723800Y-104053600D03*
X156045600Y-118785600D03*
X147536600Y-96535200D03*
X178804000Y-85130600D03*
X160744600Y-87111800D03*
X157341000Y-74411800D03*
X181648800Y-115509000D03*
X164580000Y-91937800D03*
X143777400Y-112867400D03*
X150178200Y-91226600D03*
X167120000Y-118760200D03*
X181674200Y-104587000D03*
X170828400Y-102123200D03*
X162421000Y-74284800D03*
X181979000Y-81904800D03*
X142329600Y-112232400D03*
X182410800Y-117058400D03*
X178397600Y-106288800D03*
X137173400Y-112816600D03*
X178092800Y-118709400D03*
X156452000Y-108168400D03*
X181344000Y-75605600D03*
X149136800Y-93741200D03*
X185103200Y-113578600D03*
X173698600Y-99659400D03*
X164275200Y-118760200D03*
X165265800Y-98491000D03*
X145095500Y-110304700D03*
X137097200Y-118836400D03*
X155791600Y-85765600D03*
X170828400Y-103672600D03*
X178804000Y-81650800D03*
X175832200Y-81650800D03*
X153912000Y-73573600D03*
X165291200Y-101183400D03*
X149594000Y-114340600D03*
X162573400Y-98491000D03*
X175832200Y-89220000D03*
X165824600Y-117058400D03*
X173292200Y-86400600D03*
X159931800Y-117058400D03*
X185103200Y-106288800D03*
X159652400Y-106288800D03*
X181648800Y-113578600D03*
X178397600Y-104587000D03*
X176822800Y-117058400D03*
X175425800Y-75605600D03*
X149949600Y-76342200D03*
X181344000Y-73903800D03*
X160084200Y-98491000D03*
X183731600Y-118684000D03*
X141212000Y-115356600D03*
X133338000Y-112791200D03*
X160947800Y-106288800D03*
X181648800Y-106288800D03*
X128740600Y-118811000D03*
X175832200Y-85130600D03*
X168415400Y-107787400D03*
X139764200Y-118836400D03*
X178397600Y-111267200D03*
X159627000Y-107787400D03*
X156680600Y-86934000D03*
X166281800Y-107787400D03*
X164300600Y-115636000D03*
X181648800Y-108701800D03*
X169406000Y-73903800D03*
X156883800Y-98440200D03*
X165646800Y-82006400D03*
X164046600Y-97373400D03*
X167628000Y-98491000D03*
X153378600Y-118785600D03*
X158255400Y-75656400D03*
X173495400Y-95316000D03*
X181928200Y-91048800D03*
X181909803Y-99837067D03*
X170955400Y-114518400D03*
X175832200Y-78501200D03*
X162421000Y-85130600D03*
X153708800Y-108117600D03*
X181648800Y-111267200D03*
X182842600Y-77231200D03*
X132779200Y-117896600D03*
X149771800Y-98745000D03*
X152642000Y-104790200D03*
X171234800Y-78247200D03*
X185204800Y-117058400D03*
X172250800Y-75605600D03*
X172758800Y-104587000D03*
X172733400Y-118734800D03*
X184874600Y-78475800D03*
X174054200Y-117058400D03*
X182029800Y-86375200D03*
X171844400Y-86400600D03*
X162929000Y-117058400D03*
X165646800Y-80228400D03*
X175502000Y-118709400D03*
X144437800Y-102682000D03*
X169914000Y-118734800D03*
X157747400Y-113070600D03*
X160084200Y-95087400D03*
X148298600Y-114340600D03*
X163132200Y-90540800D03*
X159855600Y-88051600D03*
X178804000Y-97348000D03*
X175654400Y-104587000D03*
X161354200Y-99684800D03*
X148044600Y-105272800D03*
X131483800Y-118861800D03*
X164453000Y-75478600D03*
X178804000Y-101132600D03*
X164453000Y-78196400D03*
X157823600Y-109413000D03*
X178804000Y-93284000D03*
X170828400Y-100827800D03*
X130086800Y-115585200D03*
X173393800Y-90921800D03*
X170853800Y-99659400D03*
X171031600Y-110251200D03*
X154343800Y-86883200D03*
X172403200Y-99659400D03*
X164326000Y-112689600D03*
X165646800Y-84470200D03*
X165646800Y-87188000D03*
X145098200Y-118811000D03*
X157645800Y-85765600D03*
X184874600Y-89194600D03*
X142355000Y-102199400D03*
X171946000Y-90921800D03*
X166866000Y-88432600D03*
X153175400Y-95697000D03*
X160414400Y-80050600D03*
X184519000Y-75605600D03*
X140678600Y-112054600D03*
X172250800Y-73903800D03*
X151600600Y-98643400D03*
X153353200Y-75783400D03*
X185103200Y-115509000D03*
X149721000Y-89677200D03*
X165215000Y-103901200D03*
X178804000Y-78501200D03*
X149136800Y-101767600D03*
X128766000Y-114645400D03*
X162421000Y-76926400D03*
X169406000Y-75605600D03*
X168593200Y-117058400D03*
X172758800Y-106288800D03*
X185103200Y-111267200D03*
X166332600Y-92496600D03*
X152642000Y-101767600D03*
X131610800Y-111724400D03*
X156680600Y-92776000D03*
X160084200Y-96179600D03*
X157747400Y-111775200D03*
X158839600Y-118785600D03*
X178397600Y-113578600D03*
X162395600Y-81701600D03*
X184519000Y-73903800D03*
X175832200Y-93284000D03*
X158560200Y-87111800D03*
%TO.N,/CAN1_L*%
X167145400Y-84810650D03*
%TO.N,/CAN1_H*%
X167145400Y-82057200D03*
%TO.N,+5V*%
X141694600Y-108016000D03*
X137797790Y-111521200D03*
X133270826Y-111479426D03*
X143904400Y-106288800D03*
X166366600Y-95891600D03*
X148070000Y-99100600D03*
%TO.N,/Microcontroller/CAN_RX_IND*%
X127648400Y-84601100D03*
%TO.N,/Microcontroller/CAN_TX_IND*%
X130565400Y-84652000D03*
%TO.N,/Microcontroller/BOOT1*%
X128943800Y-90769400D03*
%TO.N,/Microcontroller/BOOT0*%
X124981400Y-79568000D03*
%TO.N,/Microcontroller/NRST*%
X123101800Y-82907400D03*
%TO.N,/Microcontroller/SWDIO*%
X140932600Y-81193600D03*
%TO.N,/Microcontroller/SWCLK*%
X138392600Y-77688400D03*
%TO.N,/isoSPI/ISO_SPI_P*%
X123457400Y-101656300D03*
%TO.N,/isoSPI/ISO_SPI_N*%
X122207950Y-100767300D03*
%TO.N,/Microcontroller/SCL_(ISO)*%
X125337000Y-87975400D03*
X127529167Y-96248033D03*
%TO.N,/Microcontroller/SDA_(ISO)*%
X128080367Y-96941767D03*
X124651137Y-88112862D03*
%TO.N,5V_(ISO)*%
X143396400Y-93258600D03*
X121229300Y-99539500D03*
X131585400Y-97602000D03*
X136335200Y-97602000D03*
X140907200Y-86781600D03*
X128156400Y-105653800D03*
X137097200Y-95722400D03*
X143955200Y-86934000D03*
X124622843Y-98916654D03*
%TO.N,/Blue Loop/VOB*%
X145796700Y-102491500D03*
%TO.N,/Blue Loop/AUX_OUTPUT(ISO)*%
X139256200Y-94376200D03*
X131204400Y-87416600D03*
%TO.N,3.3V_(ISO)*%
X133642800Y-89880400D03*
X133439600Y-88762800D03*
X139789600Y-78704400D03*
X119418800Y-90641300D03*
X113297400Y-100192800D03*
X133592000Y-91531400D03*
X119926800Y-87950000D03*
X121440000Y-77982400D03*
X138164000Y-82895400D03*
X121516200Y-79009200D03*
%TO.N,0V_(ISO)*%
X111976600Y-91683800D03*
X113043400Y-101640600D03*
X125616400Y-76367600D03*
X132118800Y-76901000D03*
X122111200Y-74335600D03*
X110300200Y-103571000D03*
X133820600Y-73599000D03*
X122619200Y-99151400D03*
X127496000Y-90972600D03*
X138951400Y-95874800D03*
X120384000Y-74310200D03*
X113043400Y-103621800D03*
X126683200Y-85206800D03*
X129934400Y-87518200D03*
X113068800Y-98338600D03*
X118606000Y-88661200D03*
X134709600Y-86324400D03*
X122898600Y-91286300D03*
X134023800Y-100472200D03*
X126607000Y-104993400D03*
X122850400Y-94703800D03*
X129096200Y-81015800D03*
X110401800Y-81041200D03*
X109944600Y-91633000D03*
X126886400Y-94249200D03*
X138494200Y-73776800D03*
X136563800Y-83759000D03*
X130493200Y-103240800D03*
X128004000Y-95290600D03*
X131349801Y-90883967D03*
X125565600Y-73599000D03*
X116167600Y-91658400D03*
X110300200Y-95087400D03*
X110401800Y-79771200D03*
X122136600Y-92979200D03*
X143777400Y-75885000D03*
X113094200Y-96128800D03*
X143777400Y-74361000D03*
X135014400Y-98922800D03*
X114262600Y-91683800D03*
X134938200Y-83784400D03*
X118580600Y-89829600D03*
X132830000Y-78501200D03*
X129096200Y-79923600D03*
X135776400Y-95849400D03*
X137884600Y-79847400D03*
X118580600Y-90718600D03*
X141212000Y-90744000D03*
X129731200Y-95697000D03*
X137681400Y-97119400D03*
X110401800Y-74818200D03*
X138494200Y-75631000D03*
X125146667Y-98453067D03*
X136538400Y-86324400D03*
X110401800Y-73726000D03*
X129959800Y-86273600D03*
X110274800Y-101259600D03*
X130899600Y-103926600D03*
X139891200Y-91252000D03*
X127699200Y-82336100D03*
X128435800Y-86273600D03*
X120485600Y-78526600D03*
X126124400Y-83911400D03*
X134557200Y-96535200D03*
X137935400Y-94096800D03*
X142634400Y-90718600D03*
X110401800Y-77129600D03*
X140958000Y-89093000D03*
X123048400Y-85407400D03*
X130899600Y-105222000D03*
X110401800Y-78679000D03*
X122162000Y-97449600D03*
X143752000Y-77485200D03*
X132550600Y-92852200D03*
X110300200Y-98338600D03*
X117793200Y-91709200D03*
X125006800Y-103850400D03*
X126607000Y-103850400D03*
X135979600Y-100472200D03*
X140932600Y-85943400D03*
X126683200Y-86299000D03*
X126657800Y-87543600D03*
X128334200Y-101234200D03*
X128994600Y-107609600D03*
X118606000Y-87746800D03*
X110401800Y-76037400D03*
X128410400Y-87518200D03*
X144107600Y-93893600D03*
X141491400Y-93334800D03*
%TO.N,/Blue Loop/BLUE_LOOP_RLY(ISO)*%
X140170600Y-93512600D03*
X131204400Y-86400600D03*
%TO.N,+24V*%
X167907400Y-93030000D03*
%TD*%
%TA.AperFunction,Conductor*%
%TO.N,GND*%
G36*
X186060821Y-73175002D02*
G01*
X186107314Y-73228658D01*
X186118700Y-73281000D01*
X186118700Y-118925800D01*
X186098698Y-118993921D01*
X186045042Y-119040414D01*
X185992700Y-119051800D01*
X128282400Y-119051800D01*
X128214279Y-119031798D01*
X128167786Y-118978142D01*
X128156400Y-118925800D01*
X128156400Y-114546977D01*
X152902609Y-114546977D01*
X152928225Y-114815469D01*
X152929310Y-114819903D01*
X152929311Y-114819909D01*
X152991207Y-115072858D01*
X152992331Y-115077450D01*
X153093585Y-115327433D01*
X153229865Y-115560182D01*
X153232718Y-115563749D01*
X153390356Y-115760865D01*
X153398316Y-115770819D01*
X153595409Y-115954934D01*
X153817016Y-116108668D01*
X153821099Y-116110699D01*
X153821102Y-116110701D01*
X153936613Y-116168166D01*
X154058494Y-116228801D01*
X154062828Y-116230222D01*
X154062831Y-116230223D01*
X154310453Y-116311398D01*
X154310459Y-116311399D01*
X154314786Y-116312818D01*
X154319277Y-116313598D01*
X154319278Y-116313598D01*
X154576740Y-116358301D01*
X154576748Y-116358302D01*
X154580521Y-116358957D01*
X154584358Y-116359148D01*
X154664178Y-116363122D01*
X154664186Y-116363122D01*
X154665749Y-116363200D01*
X155434112Y-116363200D01*
X155436380Y-116363035D01*
X155436392Y-116363035D01*
X155571963Y-116353198D01*
X155634604Y-116348653D01*
X155639059Y-116347669D01*
X155639062Y-116347669D01*
X155893512Y-116291491D01*
X155893516Y-116291490D01*
X155897972Y-116290506D01*
X156024080Y-116242728D01*
X156145918Y-116196568D01*
X156145921Y-116196567D01*
X156150188Y-116194950D01*
X156385968Y-116063986D01*
X156563307Y-115928645D01*
X156596741Y-115903129D01*
X156596742Y-115903128D01*
X156600373Y-115900357D01*
X156603935Y-115896714D01*
X156743440Y-115754007D01*
X156788912Y-115707492D01*
X156827047Y-115655100D01*
X158407100Y-115655100D01*
X158407437Y-115658346D01*
X158407437Y-115658350D01*
X158412842Y-115710436D01*
X158418074Y-115760865D01*
X158474050Y-115928645D01*
X158567122Y-116079048D01*
X158692297Y-116204005D01*
X158698527Y-116207845D01*
X158698528Y-116207846D01*
X158835690Y-116292394D01*
X158842862Y-116296815D01*
X158922605Y-116323264D01*
X159004211Y-116350332D01*
X159004213Y-116350332D01*
X159010739Y-116352497D01*
X159017575Y-116353197D01*
X159017578Y-116353198D01*
X159060631Y-116357609D01*
X159115200Y-116363200D01*
X162016000Y-116363200D01*
X162019246Y-116362863D01*
X162019250Y-116362863D01*
X162114907Y-116352938D01*
X162114911Y-116352937D01*
X162121765Y-116352226D01*
X162128301Y-116350045D01*
X162128303Y-116350045D01*
X162260405Y-116305972D01*
X162289545Y-116296250D01*
X162439948Y-116203178D01*
X162446547Y-116196568D01*
X162559734Y-116083183D01*
X162564905Y-116078003D01*
X162639161Y-115957538D01*
X162653875Y-115933668D01*
X162653876Y-115933666D01*
X162657715Y-115927438D01*
X162710846Y-115767253D01*
X162711232Y-115766089D01*
X162711232Y-115766087D01*
X162713397Y-115759561D01*
X162724100Y-115655100D01*
X162724100Y-114546977D01*
X166050409Y-114546977D01*
X166076025Y-114815469D01*
X166077110Y-114819903D01*
X166077111Y-114819909D01*
X166139007Y-115072858D01*
X166140131Y-115077450D01*
X166241385Y-115327433D01*
X166377665Y-115560182D01*
X166380518Y-115563749D01*
X166538156Y-115760865D01*
X166546116Y-115770819D01*
X166743209Y-115954934D01*
X166964816Y-116108668D01*
X166968899Y-116110699D01*
X166968902Y-116110701D01*
X167084413Y-116168166D01*
X167206294Y-116228801D01*
X167210628Y-116230222D01*
X167210631Y-116230223D01*
X167458253Y-116311398D01*
X167458259Y-116311399D01*
X167462586Y-116312818D01*
X167467077Y-116313598D01*
X167467078Y-116313598D01*
X167724540Y-116358301D01*
X167724548Y-116358302D01*
X167728321Y-116358957D01*
X167732158Y-116359148D01*
X167811978Y-116363122D01*
X167811986Y-116363122D01*
X167813549Y-116363200D01*
X168581912Y-116363200D01*
X168584180Y-116363035D01*
X168584192Y-116363035D01*
X168719763Y-116353198D01*
X168782404Y-116348653D01*
X168786859Y-116347669D01*
X168786862Y-116347669D01*
X169041312Y-116291491D01*
X169041316Y-116291490D01*
X169045772Y-116290506D01*
X169171880Y-116242728D01*
X169293718Y-116196568D01*
X169293721Y-116196567D01*
X169297988Y-116194950D01*
X169533768Y-116063986D01*
X169711107Y-115928645D01*
X169744541Y-115903129D01*
X169744542Y-115903128D01*
X169748173Y-115900357D01*
X169751735Y-115896714D01*
X169891240Y-115754007D01*
X169936712Y-115707492D01*
X170095434Y-115489430D01*
X170178706Y-115331155D01*
X170218890Y-115254779D01*
X170218893Y-115254773D01*
X170221015Y-115250739D01*
X170280771Y-115081527D01*
X170309302Y-115000733D01*
X170309302Y-115000732D01*
X170310825Y-114996420D01*
X170345615Y-114819909D01*
X170354425Y-114775212D01*
X171572686Y-114775212D01*
X171576085Y-114810833D01*
X171577605Y-114819825D01*
X171639522Y-115072858D01*
X171642322Y-115081527D01*
X171740122Y-115322982D01*
X171744144Y-115331155D01*
X171875768Y-115555953D01*
X171880931Y-115563465D01*
X172043631Y-115766913D01*
X172049820Y-115773596D01*
X172240194Y-115951433D01*
X172247271Y-115957143D01*
X172461318Y-116105634D01*
X172469159Y-116110271D01*
X172702397Y-116226304D01*
X172710822Y-116229760D01*
X172958374Y-116310912D01*
X172967199Y-116313112D01*
X173224589Y-116357803D01*
X173232207Y-116358650D01*
X173311992Y-116362622D01*
X173315133Y-116362700D01*
X173441285Y-116362700D01*
X173456524Y-116358225D01*
X173457729Y-116356835D01*
X173459400Y-116349152D01*
X173459400Y-116344585D01*
X173967400Y-116344585D01*
X173971875Y-116359824D01*
X173973265Y-116361029D01*
X173980948Y-116362700D01*
X174079606Y-116362700D01*
X174084177Y-116362535D01*
X174277780Y-116348487D01*
X174286789Y-116347173D01*
X174541169Y-116291011D01*
X174549899Y-116288408D01*
X174793507Y-116196114D01*
X174801768Y-116192279D01*
X175029501Y-116065785D01*
X175037126Y-116060795D01*
X175244209Y-115902754D01*
X175251036Y-115896714D01*
X175433135Y-115710436D01*
X175439018Y-115703474D01*
X175592322Y-115492857D01*
X175597133Y-115485127D01*
X175718431Y-115254578D01*
X175722078Y-115246228D01*
X175808819Y-115000601D01*
X175811225Y-114991806D01*
X175853667Y-114776475D01*
X175852488Y-114763563D01*
X175837385Y-114758700D01*
X173985515Y-114758700D01*
X173970276Y-114763175D01*
X173969071Y-114764565D01*
X173967400Y-114772248D01*
X173967400Y-116344585D01*
X173459400Y-116344585D01*
X173459400Y-114776815D01*
X173454925Y-114761576D01*
X173453535Y-114760371D01*
X173445852Y-114758700D01*
X171589226Y-114758700D01*
X171574749Y-114762951D01*
X171572686Y-114775212D01*
X170354425Y-114775212D01*
X170362100Y-114736272D01*
X170362101Y-114736266D01*
X170362981Y-114731800D01*
X170372182Y-114546977D01*
X170376164Y-114466992D01*
X170376164Y-114466986D01*
X170376391Y-114462423D01*
X170354495Y-114232925D01*
X171573133Y-114232925D01*
X171574312Y-114245837D01*
X171589415Y-114250700D01*
X173441285Y-114250700D01*
X173456524Y-114246225D01*
X173457729Y-114244835D01*
X173459400Y-114237152D01*
X173459400Y-114232585D01*
X173967400Y-114232585D01*
X173971875Y-114247824D01*
X173973265Y-114249029D01*
X173980948Y-114250700D01*
X175837574Y-114250700D01*
X175852051Y-114246449D01*
X175854114Y-114234188D01*
X175850715Y-114198567D01*
X175849195Y-114189575D01*
X175787278Y-113936542D01*
X175784478Y-113927873D01*
X175686678Y-113686418D01*
X175682656Y-113678245D01*
X175551032Y-113453447D01*
X175545869Y-113445935D01*
X175383169Y-113242487D01*
X175376980Y-113235804D01*
X175186606Y-113057967D01*
X175179529Y-113052257D01*
X174965482Y-112903766D01*
X174957641Y-112899129D01*
X174724403Y-112783096D01*
X174715978Y-112779640D01*
X174468426Y-112698488D01*
X174459601Y-112696288D01*
X174202211Y-112651597D01*
X174194593Y-112650750D01*
X174114808Y-112646778D01*
X174111667Y-112646700D01*
X173985515Y-112646700D01*
X173970276Y-112651175D01*
X173969071Y-112652565D01*
X173967400Y-112660248D01*
X173967400Y-114232585D01*
X173459400Y-114232585D01*
X173459400Y-112664815D01*
X173454925Y-112649576D01*
X173453535Y-112648371D01*
X173445852Y-112646700D01*
X173347194Y-112646700D01*
X173342623Y-112646865D01*
X173149020Y-112660913D01*
X173140011Y-112662227D01*
X172885631Y-112718389D01*
X172876901Y-112720992D01*
X172633293Y-112813286D01*
X172625032Y-112817121D01*
X172397299Y-112943615D01*
X172389674Y-112948605D01*
X172182591Y-113106646D01*
X172175764Y-113112686D01*
X171993665Y-113298964D01*
X171987782Y-113305926D01*
X171834478Y-113516543D01*
X171829667Y-113524273D01*
X171708369Y-113754822D01*
X171704722Y-113763172D01*
X171617981Y-114008799D01*
X171615575Y-114017594D01*
X171573133Y-114232925D01*
X170354495Y-114232925D01*
X170350775Y-114193931D01*
X170305442Y-114008667D01*
X170287755Y-113936388D01*
X170286669Y-113931950D01*
X170185415Y-113681967D01*
X170049135Y-113449218D01*
X169928974Y-113298964D01*
X169883536Y-113242147D01*
X169883535Y-113242145D01*
X169880684Y-113238581D01*
X169683591Y-113054466D01*
X169461984Y-112900732D01*
X169457901Y-112898701D01*
X169457898Y-112898699D01*
X169293006Y-112816667D01*
X169220506Y-112780599D01*
X169216172Y-112779178D01*
X169216169Y-112779177D01*
X168968547Y-112698002D01*
X168968541Y-112698001D01*
X168964214Y-112696582D01*
X168959722Y-112695802D01*
X168702260Y-112651099D01*
X168702252Y-112651098D01*
X168698479Y-112650443D01*
X168681064Y-112649576D01*
X168614822Y-112646278D01*
X168614814Y-112646278D01*
X168613251Y-112646200D01*
X167844888Y-112646200D01*
X167842620Y-112646365D01*
X167842608Y-112646365D01*
X167711516Y-112655877D01*
X167644396Y-112660747D01*
X167639941Y-112661731D01*
X167639938Y-112661731D01*
X167385488Y-112717909D01*
X167385484Y-112717910D01*
X167381028Y-112718894D01*
X167254920Y-112766672D01*
X167133082Y-112812832D01*
X167133079Y-112812833D01*
X167128812Y-112814450D01*
X166893032Y-112945414D01*
X166889400Y-112948186D01*
X166714112Y-113081962D01*
X166678627Y-113109043D01*
X166675434Y-113112309D01*
X166675432Y-113112311D01*
X166584357Y-113205476D01*
X166490088Y-113301908D01*
X166331366Y-113519970D01*
X166329244Y-113524004D01*
X166207910Y-113754621D01*
X166207907Y-113754627D01*
X166205785Y-113758661D01*
X166204265Y-113762966D01*
X166204263Y-113762970D01*
X166142968Y-113936542D01*
X166115975Y-114012980D01*
X166115092Y-114017462D01*
X166069688Y-114247824D01*
X166063819Y-114277600D01*
X166063592Y-114282153D01*
X166063592Y-114282156D01*
X166054285Y-114469126D01*
X166050409Y-114546977D01*
X162724100Y-114546977D01*
X162724100Y-113354300D01*
X162718664Y-113301908D01*
X162713838Y-113255393D01*
X162713837Y-113255389D01*
X162713126Y-113248535D01*
X162657150Y-113080755D01*
X162564078Y-112930352D01*
X162438903Y-112805395D01*
X162432672Y-112801554D01*
X162294568Y-112716425D01*
X162294566Y-112716424D01*
X162288338Y-112712585D01*
X162208595Y-112686136D01*
X162126989Y-112659068D01*
X162126987Y-112659068D01*
X162120461Y-112656903D01*
X162113625Y-112656203D01*
X162113622Y-112656202D01*
X162070569Y-112651791D01*
X162016000Y-112646200D01*
X159115200Y-112646200D01*
X159111954Y-112646537D01*
X159111950Y-112646537D01*
X159016293Y-112656462D01*
X159016289Y-112656463D01*
X159009435Y-112657174D01*
X159002899Y-112659355D01*
X159002897Y-112659355D01*
X158994289Y-112662227D01*
X158841655Y-112713150D01*
X158691252Y-112806222D01*
X158686079Y-112811404D01*
X158684200Y-112813286D01*
X158566295Y-112931397D01*
X158562455Y-112937627D01*
X158562454Y-112937628D01*
X158491796Y-113052257D01*
X158473485Y-113081962D01*
X158471181Y-113088909D01*
X158420242Y-113242487D01*
X158417803Y-113249839D01*
X158407100Y-113354300D01*
X158407100Y-115655100D01*
X156827047Y-115655100D01*
X156947634Y-115489430D01*
X157030906Y-115331155D01*
X157071090Y-115254779D01*
X157071093Y-115254773D01*
X157073215Y-115250739D01*
X157132971Y-115081527D01*
X157161502Y-115000733D01*
X157161502Y-115000732D01*
X157163025Y-114996420D01*
X157197815Y-114819909D01*
X157214300Y-114736272D01*
X157214301Y-114736266D01*
X157215181Y-114731800D01*
X157224382Y-114546977D01*
X157228364Y-114466992D01*
X157228364Y-114466986D01*
X157228591Y-114462423D01*
X157202975Y-114193931D01*
X157157642Y-114008667D01*
X157139955Y-113936388D01*
X157138869Y-113931950D01*
X157037615Y-113681967D01*
X156901335Y-113449218D01*
X156781174Y-113298964D01*
X156735736Y-113242147D01*
X156735735Y-113242145D01*
X156732884Y-113238581D01*
X156535791Y-113054466D01*
X156314184Y-112900732D01*
X156310101Y-112898701D01*
X156310098Y-112898699D01*
X156145206Y-112816667D01*
X156072706Y-112780599D01*
X156068372Y-112779178D01*
X156068369Y-112779177D01*
X155820747Y-112698002D01*
X155820741Y-112698001D01*
X155816414Y-112696582D01*
X155811922Y-112695802D01*
X155554460Y-112651099D01*
X155554452Y-112651098D01*
X155550679Y-112650443D01*
X155533264Y-112649576D01*
X155467022Y-112646278D01*
X155467014Y-112646278D01*
X155465451Y-112646200D01*
X154697088Y-112646200D01*
X154694820Y-112646365D01*
X154694808Y-112646365D01*
X154563716Y-112655877D01*
X154496596Y-112660747D01*
X154492141Y-112661731D01*
X154492138Y-112661731D01*
X154237688Y-112717909D01*
X154237684Y-112717910D01*
X154233228Y-112718894D01*
X154107120Y-112766672D01*
X153985282Y-112812832D01*
X153985279Y-112812833D01*
X153981012Y-112814450D01*
X153745232Y-112945414D01*
X153741600Y-112948186D01*
X153566312Y-113081962D01*
X153530827Y-113109043D01*
X153527634Y-113112309D01*
X153527632Y-113112311D01*
X153436557Y-113205476D01*
X153342288Y-113301908D01*
X153183566Y-113519970D01*
X153181444Y-113524004D01*
X153060110Y-113754621D01*
X153060107Y-113754627D01*
X153057985Y-113758661D01*
X153056465Y-113762966D01*
X153056463Y-113762970D01*
X152995168Y-113936542D01*
X152968175Y-114012980D01*
X152967292Y-114017462D01*
X152921888Y-114247824D01*
X152916019Y-114277600D01*
X152915792Y-114282153D01*
X152915792Y-114282156D01*
X152906485Y-114469126D01*
X152902609Y-114546977D01*
X128156400Y-114546977D01*
X128156400Y-114469126D01*
X128176402Y-114401005D01*
X128193467Y-114379868D01*
X131115191Y-111468769D01*
X132507601Y-111468769D01*
X132524207Y-111638125D01*
X132577920Y-111799593D01*
X132581567Y-111805615D01*
X132581568Y-111805617D01*
X132645210Y-111910701D01*
X132666072Y-111945149D01*
X132784281Y-112067558D01*
X132831669Y-112098568D01*
X132920711Y-112156835D01*
X132926672Y-112160736D01*
X132933276Y-112163192D01*
X132933278Y-112163193D01*
X132969670Y-112176727D01*
X133086167Y-112220052D01*
X133254841Y-112242558D01*
X133261852Y-112241920D01*
X133261856Y-112241920D01*
X133417288Y-112227774D01*
X133424309Y-112227135D01*
X133431011Y-112224957D01*
X133431013Y-112224957D01*
X133579449Y-112176727D01*
X133579452Y-112176726D01*
X133586148Y-112174550D01*
X133732316Y-112087416D01*
X133737410Y-112082565D01*
X133737414Y-112082562D01*
X133832220Y-111992279D01*
X133855547Y-111970065D01*
X133949717Y-111828328D01*
X134010145Y-111669251D01*
X134032449Y-111510543D01*
X137034565Y-111510543D01*
X137051171Y-111679899D01*
X137053395Y-111686584D01*
X137053395Y-111686585D01*
X137059203Y-111704045D01*
X137104884Y-111841367D01*
X137108531Y-111847389D01*
X137108532Y-111847391D01*
X137179271Y-111964194D01*
X137193036Y-111986923D01*
X137311245Y-112109332D01*
X137317141Y-112113190D01*
X137410909Y-112174550D01*
X137453636Y-112202510D01*
X137460240Y-112204966D01*
X137460242Y-112204967D01*
X137503311Y-112220984D01*
X137613131Y-112261826D01*
X137781805Y-112284332D01*
X137788816Y-112283694D01*
X137788820Y-112283694D01*
X137944252Y-112269548D01*
X137951273Y-112268909D01*
X137957975Y-112266731D01*
X137957977Y-112266731D01*
X138106413Y-112218501D01*
X138106416Y-112218500D01*
X138113112Y-112216324D01*
X138259280Y-112129190D01*
X138264374Y-112124339D01*
X138264378Y-112124336D01*
X138331623Y-112060299D01*
X138382511Y-112011839D01*
X138388266Y-112003178D01*
X138451058Y-111908668D01*
X138476681Y-111870102D01*
X138537109Y-111711025D01*
X138560791Y-111542513D01*
X138561089Y-111521200D01*
X138542121Y-111352092D01*
X138525257Y-111303664D01*
X138488476Y-111198046D01*
X138486158Y-111191389D01*
X138480173Y-111181810D01*
X138454069Y-111140036D01*
X138395982Y-111047079D01*
X138276076Y-110926332D01*
X138259829Y-110916021D01*
X138192057Y-110873012D01*
X138132398Y-110835151D01*
X137972090Y-110778068D01*
X137803119Y-110757920D01*
X137796116Y-110758656D01*
X137796115Y-110758656D01*
X137640891Y-110774970D01*
X137640887Y-110774971D01*
X137633883Y-110775707D01*
X137627212Y-110777978D01*
X137479463Y-110828275D01*
X137479460Y-110828276D01*
X137472793Y-110830546D01*
X137466795Y-110834236D01*
X137466793Y-110834237D01*
X137333855Y-110916021D01*
X137333853Y-110916023D01*
X137327856Y-110919712D01*
X137206276Y-111038773D01*
X137202465Y-111044687D01*
X137202463Y-111044689D01*
X137152006Y-111122982D01*
X137114094Y-111181810D01*
X137111684Y-111188432D01*
X137064774Y-111317317D01*
X137055893Y-111341716D01*
X137034565Y-111510543D01*
X134032449Y-111510543D01*
X134033827Y-111500739D01*
X134034125Y-111479426D01*
X134015157Y-111310318D01*
X134009077Y-111292857D01*
X133990009Y-111238104D01*
X133959194Y-111149615D01*
X133953209Y-111140036D01*
X133899933Y-111054779D01*
X133869018Y-111005305D01*
X133749112Y-110884558D01*
X133732865Y-110874247D01*
X133669819Y-110834237D01*
X133605434Y-110793377D01*
X133445126Y-110736294D01*
X133276155Y-110716146D01*
X133269152Y-110716882D01*
X133269151Y-110716882D01*
X133113927Y-110733196D01*
X133113923Y-110733197D01*
X133106919Y-110733933D01*
X133100248Y-110736204D01*
X132952499Y-110786501D01*
X132952496Y-110786502D01*
X132945829Y-110788772D01*
X132939831Y-110792462D01*
X132939829Y-110792463D01*
X132806891Y-110874247D01*
X132806889Y-110874249D01*
X132800892Y-110877938D01*
X132679312Y-110996999D01*
X132675501Y-111002913D01*
X132675499Y-111002915D01*
X132597978Y-111123203D01*
X132587130Y-111140036D01*
X132528929Y-111299942D01*
X132507601Y-111468769D01*
X131115191Y-111468769D01*
X132241077Y-110346977D01*
X152902609Y-110346977D01*
X152928225Y-110615469D01*
X152929310Y-110619903D01*
X152929311Y-110619909D01*
X152982905Y-110838930D01*
X152992331Y-110877450D01*
X153093585Y-111127433D01*
X153131033Y-111191389D01*
X153223146Y-111348706D01*
X153229865Y-111360182D01*
X153232718Y-111363749D01*
X153390356Y-111560865D01*
X153398316Y-111570819D01*
X153595409Y-111754934D01*
X153817016Y-111908668D01*
X153821099Y-111910699D01*
X153821102Y-111910701D01*
X153878239Y-111939126D01*
X154058494Y-112028801D01*
X154062828Y-112030222D01*
X154062831Y-112030223D01*
X154310453Y-112111398D01*
X154310459Y-112111399D01*
X154314786Y-112112818D01*
X154319277Y-112113598D01*
X154319278Y-112113598D01*
X154576740Y-112158301D01*
X154576748Y-112158302D01*
X154580521Y-112158957D01*
X154584358Y-112159148D01*
X154664178Y-112163122D01*
X154664186Y-112163122D01*
X154665749Y-112163200D01*
X155434112Y-112163200D01*
X155436380Y-112163035D01*
X155436392Y-112163035D01*
X155571963Y-112153198D01*
X155634604Y-112148653D01*
X155639059Y-112147669D01*
X155639062Y-112147669D01*
X155893512Y-112091491D01*
X155893516Y-112091490D01*
X155897972Y-112090506D01*
X156024080Y-112042728D01*
X156145918Y-111996568D01*
X156145921Y-111996567D01*
X156150188Y-111994950D01*
X156385968Y-111863986D01*
X156563307Y-111728645D01*
X156596741Y-111703129D01*
X156596742Y-111703128D01*
X156600373Y-111700357D01*
X156603935Y-111696714D01*
X156743440Y-111554007D01*
X156788912Y-111507492D01*
X156947634Y-111289430D01*
X157030906Y-111131155D01*
X157071090Y-111054779D01*
X157071093Y-111054773D01*
X157073215Y-111050739D01*
X157075352Y-111044689D01*
X157161502Y-110800733D01*
X157161502Y-110800732D01*
X157163025Y-110796420D01*
X157197815Y-110619909D01*
X157214300Y-110536272D01*
X157214301Y-110536266D01*
X157215181Y-110531800D01*
X157224382Y-110346977D01*
X158402609Y-110346977D01*
X158428225Y-110615469D01*
X158429310Y-110619903D01*
X158429311Y-110619909D01*
X158482905Y-110838930D01*
X158492331Y-110877450D01*
X158593585Y-111127433D01*
X158631033Y-111191389D01*
X158723146Y-111348706D01*
X158729865Y-111360182D01*
X158732718Y-111363749D01*
X158890356Y-111560865D01*
X158898316Y-111570819D01*
X159095409Y-111754934D01*
X159317016Y-111908668D01*
X159321099Y-111910699D01*
X159321102Y-111910701D01*
X159378239Y-111939126D01*
X159558494Y-112028801D01*
X159562828Y-112030222D01*
X159562831Y-112030223D01*
X159810453Y-112111398D01*
X159810459Y-112111399D01*
X159814786Y-112112818D01*
X159819277Y-112113598D01*
X159819278Y-112113598D01*
X160076740Y-112158301D01*
X160076748Y-112158302D01*
X160080521Y-112158957D01*
X160084358Y-112159148D01*
X160164178Y-112163122D01*
X160164186Y-112163122D01*
X160165749Y-112163200D01*
X160934112Y-112163200D01*
X160936380Y-112163035D01*
X160936392Y-112163035D01*
X161071963Y-112153198D01*
X161134604Y-112148653D01*
X161139059Y-112147669D01*
X161139062Y-112147669D01*
X161393512Y-112091491D01*
X161393516Y-112091490D01*
X161397972Y-112090506D01*
X161524080Y-112042728D01*
X161645918Y-111996568D01*
X161645921Y-111996567D01*
X161650188Y-111994950D01*
X161885968Y-111863986D01*
X162063307Y-111728645D01*
X162096741Y-111703129D01*
X162096742Y-111703128D01*
X162100373Y-111700357D01*
X162103935Y-111696714D01*
X162243440Y-111554007D01*
X162288912Y-111507492D01*
X162327047Y-111455100D01*
X166054900Y-111455100D01*
X166055237Y-111458346D01*
X166055237Y-111458350D01*
X166064376Y-111546423D01*
X166065874Y-111560865D01*
X166068055Y-111567401D01*
X166068055Y-111567403D01*
X166103249Y-111672890D01*
X166121850Y-111728645D01*
X166214922Y-111879048D01*
X166340097Y-112004005D01*
X166346327Y-112007845D01*
X166346328Y-112007846D01*
X166483490Y-112092394D01*
X166490662Y-112096815D01*
X166570405Y-112123264D01*
X166652011Y-112150332D01*
X166652013Y-112150332D01*
X166658539Y-112152497D01*
X166665375Y-112153197D01*
X166665378Y-112153198D01*
X166701297Y-112156878D01*
X166763000Y-112163200D01*
X169663800Y-112163200D01*
X169667046Y-112162863D01*
X169667050Y-112162863D01*
X169762707Y-112152938D01*
X169762711Y-112152937D01*
X169769565Y-112152226D01*
X169776101Y-112150045D01*
X169776103Y-112150045D01*
X169913324Y-112104264D01*
X169937345Y-112096250D01*
X170087748Y-112003178D01*
X170094347Y-111996568D01*
X170207534Y-111883183D01*
X170212705Y-111878003D01*
X170261038Y-111799593D01*
X170301675Y-111733668D01*
X170301676Y-111733666D01*
X170305515Y-111727438D01*
X170358646Y-111567253D01*
X170359032Y-111566089D01*
X170359032Y-111566087D01*
X170361197Y-111559561D01*
X170365128Y-111521200D01*
X170369002Y-111483387D01*
X170371900Y-111455100D01*
X170371900Y-110575212D01*
X171572686Y-110575212D01*
X171576085Y-110610833D01*
X171577605Y-110619825D01*
X171639522Y-110872858D01*
X171642322Y-110881527D01*
X171740122Y-111122982D01*
X171744144Y-111131155D01*
X171875768Y-111355953D01*
X171880931Y-111363465D01*
X172043631Y-111566913D01*
X172049820Y-111573596D01*
X172240194Y-111751433D01*
X172247271Y-111757143D01*
X172461318Y-111905634D01*
X172469159Y-111910271D01*
X172702397Y-112026304D01*
X172710822Y-112029760D01*
X172958374Y-112110912D01*
X172967199Y-112113112D01*
X173224589Y-112157803D01*
X173232207Y-112158650D01*
X173311992Y-112162622D01*
X173315133Y-112162700D01*
X173441285Y-112162700D01*
X173456524Y-112158225D01*
X173457729Y-112156835D01*
X173459400Y-112149152D01*
X173459400Y-112144585D01*
X173967400Y-112144585D01*
X173971875Y-112159824D01*
X173973265Y-112161029D01*
X173980948Y-112162700D01*
X174079606Y-112162700D01*
X174084177Y-112162535D01*
X174277780Y-112148487D01*
X174286789Y-112147173D01*
X174541169Y-112091011D01*
X174549899Y-112088408D01*
X174793507Y-111996114D01*
X174801768Y-111992279D01*
X175029501Y-111865785D01*
X175037126Y-111860795D01*
X175244209Y-111702754D01*
X175251036Y-111696714D01*
X175433135Y-111510436D01*
X175439018Y-111503474D01*
X175592322Y-111292857D01*
X175597133Y-111285127D01*
X175718431Y-111054578D01*
X175722078Y-111046228D01*
X175808819Y-110800601D01*
X175811225Y-110791806D01*
X175853667Y-110576475D01*
X175852488Y-110563563D01*
X175837385Y-110558700D01*
X173985515Y-110558700D01*
X173970276Y-110563175D01*
X173969071Y-110564565D01*
X173967400Y-110572248D01*
X173967400Y-112144585D01*
X173459400Y-112144585D01*
X173459400Y-110576815D01*
X173454925Y-110561576D01*
X173453535Y-110560371D01*
X173445852Y-110558700D01*
X171589226Y-110558700D01*
X171574749Y-110562951D01*
X171572686Y-110575212D01*
X170371900Y-110575212D01*
X170371900Y-110032925D01*
X171573133Y-110032925D01*
X171574312Y-110045837D01*
X171589415Y-110050700D01*
X173441285Y-110050700D01*
X173456524Y-110046225D01*
X173457729Y-110044835D01*
X173459400Y-110037152D01*
X173459400Y-110032585D01*
X173967400Y-110032585D01*
X173971875Y-110047824D01*
X173973265Y-110049029D01*
X173980948Y-110050700D01*
X175837574Y-110050700D01*
X175852051Y-110046449D01*
X175854114Y-110034188D01*
X175850715Y-109998567D01*
X175849195Y-109989575D01*
X175787278Y-109736542D01*
X175784478Y-109727873D01*
X175686678Y-109486418D01*
X175682656Y-109478245D01*
X175551032Y-109253447D01*
X175545869Y-109245935D01*
X175383169Y-109042487D01*
X175376980Y-109035804D01*
X175186606Y-108857967D01*
X175179529Y-108852257D01*
X174965482Y-108703766D01*
X174957641Y-108699129D01*
X174724403Y-108583096D01*
X174715978Y-108579640D01*
X174468426Y-108498488D01*
X174459601Y-108496288D01*
X174202211Y-108451597D01*
X174194593Y-108450750D01*
X174114808Y-108446778D01*
X174111667Y-108446700D01*
X173985515Y-108446700D01*
X173970276Y-108451175D01*
X173969071Y-108452565D01*
X173967400Y-108460248D01*
X173967400Y-110032585D01*
X173459400Y-110032585D01*
X173459400Y-108464815D01*
X173454925Y-108449576D01*
X173453535Y-108448371D01*
X173445852Y-108446700D01*
X173347194Y-108446700D01*
X173342623Y-108446865D01*
X173149020Y-108460913D01*
X173140011Y-108462227D01*
X172885631Y-108518389D01*
X172876901Y-108520992D01*
X172633293Y-108613286D01*
X172625032Y-108617121D01*
X172397299Y-108743615D01*
X172389674Y-108748605D01*
X172182591Y-108906646D01*
X172175764Y-108912686D01*
X171993665Y-109098964D01*
X171987782Y-109105926D01*
X171834478Y-109316543D01*
X171829667Y-109324273D01*
X171708369Y-109554822D01*
X171704722Y-109563172D01*
X171617981Y-109808799D01*
X171615575Y-109817594D01*
X171573133Y-110032925D01*
X170371900Y-110032925D01*
X170371900Y-109154300D01*
X170366464Y-109101908D01*
X170361638Y-109055393D01*
X170361637Y-109055389D01*
X170360926Y-109048535D01*
X170304950Y-108880755D01*
X170211878Y-108730352D01*
X170086703Y-108605395D01*
X170076432Y-108599064D01*
X169942368Y-108516425D01*
X169942366Y-108516424D01*
X169936138Y-108512585D01*
X169856395Y-108486136D01*
X169774789Y-108459068D01*
X169774787Y-108459068D01*
X169768261Y-108456903D01*
X169761425Y-108456203D01*
X169761422Y-108456202D01*
X169718369Y-108451791D01*
X169663800Y-108446200D01*
X166763000Y-108446200D01*
X166759754Y-108446537D01*
X166759750Y-108446537D01*
X166664093Y-108456462D01*
X166664089Y-108456463D01*
X166657235Y-108457174D01*
X166650699Y-108459355D01*
X166650697Y-108459355D01*
X166642089Y-108462227D01*
X166489455Y-108513150D01*
X166339052Y-108606222D01*
X166333879Y-108611404D01*
X166332000Y-108613286D01*
X166214095Y-108731397D01*
X166210255Y-108737627D01*
X166210254Y-108737628D01*
X166139596Y-108852257D01*
X166121285Y-108881962D01*
X166118981Y-108888909D01*
X166068042Y-109042487D01*
X166065603Y-109049839D01*
X166054900Y-109154300D01*
X166054900Y-111455100D01*
X162327047Y-111455100D01*
X162447634Y-111289430D01*
X162530906Y-111131155D01*
X162571090Y-111054779D01*
X162571093Y-111054773D01*
X162573215Y-111050739D01*
X162575352Y-111044689D01*
X162661502Y-110800733D01*
X162661502Y-110800732D01*
X162663025Y-110796420D01*
X162697815Y-110619909D01*
X162714300Y-110536272D01*
X162714301Y-110536266D01*
X162715181Y-110531800D01*
X162724382Y-110346977D01*
X162728364Y-110266992D01*
X162728364Y-110266986D01*
X162728591Y-110262423D01*
X162702975Y-109993931D01*
X162657642Y-109808667D01*
X162639955Y-109736388D01*
X162638869Y-109731950D01*
X162537615Y-109481967D01*
X162401335Y-109249218D01*
X162281174Y-109098964D01*
X162235736Y-109042147D01*
X162235735Y-109042145D01*
X162232884Y-109038581D01*
X162035791Y-108854466D01*
X161814184Y-108700732D01*
X161810101Y-108698701D01*
X161810098Y-108698699D01*
X161645206Y-108616667D01*
X161572706Y-108580599D01*
X161568372Y-108579178D01*
X161568369Y-108579177D01*
X161320747Y-108498002D01*
X161320741Y-108498001D01*
X161316414Y-108496582D01*
X161311922Y-108495802D01*
X161054460Y-108451099D01*
X161054452Y-108451098D01*
X161050679Y-108450443D01*
X161033264Y-108449576D01*
X160967022Y-108446278D01*
X160967014Y-108446278D01*
X160965451Y-108446200D01*
X160197088Y-108446200D01*
X160194820Y-108446365D01*
X160194808Y-108446365D01*
X160063716Y-108455877D01*
X159996596Y-108460747D01*
X159992141Y-108461731D01*
X159992138Y-108461731D01*
X159737688Y-108517909D01*
X159737684Y-108517910D01*
X159733228Y-108518894D01*
X159607120Y-108566672D01*
X159485282Y-108612832D01*
X159485279Y-108612833D01*
X159481012Y-108614450D01*
X159245232Y-108745414D01*
X159241600Y-108748186D01*
X159066312Y-108881962D01*
X159030827Y-108909043D01*
X159027634Y-108912309D01*
X159027632Y-108912311D01*
X158936558Y-109005475D01*
X158842288Y-109101908D01*
X158683566Y-109319970D01*
X158681444Y-109324004D01*
X158560110Y-109554621D01*
X158560107Y-109554627D01*
X158557985Y-109558661D01*
X158556465Y-109562966D01*
X158556463Y-109562970D01*
X158495168Y-109736542D01*
X158468175Y-109812980D01*
X158467292Y-109817462D01*
X158421888Y-110047824D01*
X158416019Y-110077600D01*
X158415792Y-110082153D01*
X158415792Y-110082156D01*
X158406591Y-110266992D01*
X158402609Y-110346977D01*
X157224382Y-110346977D01*
X157228364Y-110266992D01*
X157228364Y-110266986D01*
X157228591Y-110262423D01*
X157202975Y-109993931D01*
X157157642Y-109808667D01*
X157139955Y-109736388D01*
X157138869Y-109731950D01*
X157037615Y-109481967D01*
X156901335Y-109249218D01*
X156781174Y-109098964D01*
X156735736Y-109042147D01*
X156735735Y-109042145D01*
X156732884Y-109038581D01*
X156535791Y-108854466D01*
X156314184Y-108700732D01*
X156310101Y-108698701D01*
X156310098Y-108698699D01*
X156145206Y-108616667D01*
X156072706Y-108580599D01*
X156068372Y-108579178D01*
X156068369Y-108579177D01*
X155820747Y-108498002D01*
X155820741Y-108498001D01*
X155816414Y-108496582D01*
X155811922Y-108495802D01*
X155554460Y-108451099D01*
X155554452Y-108451098D01*
X155550679Y-108450443D01*
X155533264Y-108449576D01*
X155467022Y-108446278D01*
X155467014Y-108446278D01*
X155465451Y-108446200D01*
X154697088Y-108446200D01*
X154694820Y-108446365D01*
X154694808Y-108446365D01*
X154563716Y-108455877D01*
X154496596Y-108460747D01*
X154492141Y-108461731D01*
X154492138Y-108461731D01*
X154237688Y-108517909D01*
X154237684Y-108517910D01*
X154233228Y-108518894D01*
X154107120Y-108566672D01*
X153985282Y-108612832D01*
X153985279Y-108612833D01*
X153981012Y-108614450D01*
X153745232Y-108745414D01*
X153741600Y-108748186D01*
X153566312Y-108881962D01*
X153530827Y-108909043D01*
X153527634Y-108912309D01*
X153527632Y-108912311D01*
X153436558Y-109005475D01*
X153342288Y-109101908D01*
X153183566Y-109319970D01*
X153181444Y-109324004D01*
X153060110Y-109554621D01*
X153060107Y-109554627D01*
X153057985Y-109558661D01*
X153056465Y-109562966D01*
X153056463Y-109562970D01*
X152995168Y-109736542D01*
X152968175Y-109812980D01*
X152967292Y-109817462D01*
X152921888Y-110047824D01*
X152916019Y-110077600D01*
X152915792Y-110082153D01*
X152915792Y-110082156D01*
X152906591Y-110266992D01*
X152902609Y-110346977D01*
X132241077Y-110346977D01*
X134591257Y-108005343D01*
X140931375Y-108005343D01*
X140947981Y-108174699D01*
X141001694Y-108336167D01*
X141005341Y-108342189D01*
X141005342Y-108342191D01*
X141078039Y-108462227D01*
X141089846Y-108481723D01*
X141208055Y-108604132D01*
X141350446Y-108697310D01*
X141357050Y-108699766D01*
X141357052Y-108699767D01*
X141393444Y-108713301D01*
X141509941Y-108756626D01*
X141678615Y-108779132D01*
X141685626Y-108778494D01*
X141685630Y-108778494D01*
X141841062Y-108764348D01*
X141848083Y-108763709D01*
X141854785Y-108761531D01*
X141854787Y-108761531D01*
X142003223Y-108713301D01*
X142003226Y-108713300D01*
X142009922Y-108711124D01*
X142156090Y-108623990D01*
X142161184Y-108619139D01*
X142161188Y-108619136D01*
X142228433Y-108555099D01*
X142279321Y-108506639D01*
X142285060Y-108498002D01*
X142326406Y-108435771D01*
X142373491Y-108364902D01*
X142433919Y-108205825D01*
X142457601Y-108037313D01*
X142457899Y-108016000D01*
X142438931Y-107846892D01*
X142382968Y-107686189D01*
X142376983Y-107676610D01*
X142328450Y-107598943D01*
X142292792Y-107541879D01*
X142172886Y-107421132D01*
X142156639Y-107410821D01*
X142118006Y-107386304D01*
X142029208Y-107329951D01*
X141868900Y-107272868D01*
X141699929Y-107252720D01*
X141692926Y-107253456D01*
X141692925Y-107253456D01*
X141537701Y-107269770D01*
X141537697Y-107269771D01*
X141530693Y-107270507D01*
X141524022Y-107272778D01*
X141376273Y-107323075D01*
X141376270Y-107323076D01*
X141369603Y-107325346D01*
X141363605Y-107329036D01*
X141363603Y-107329037D01*
X141230665Y-107410821D01*
X141230663Y-107410823D01*
X141224666Y-107414512D01*
X141103086Y-107533573D01*
X141010904Y-107676610D01*
X140952703Y-107836516D01*
X140931375Y-108005343D01*
X134591257Y-108005343D01*
X136324761Y-106278143D01*
X143141175Y-106278143D01*
X143157781Y-106447499D01*
X143211494Y-106608967D01*
X143215141Y-106614989D01*
X143215142Y-106614991D01*
X143228897Y-106637702D01*
X143299646Y-106754523D01*
X143417855Y-106876932D01*
X143560246Y-106970110D01*
X143566850Y-106972566D01*
X143566852Y-106972567D01*
X143603244Y-106986101D01*
X143719741Y-107029426D01*
X143888415Y-107051932D01*
X143895426Y-107051294D01*
X143895430Y-107051294D01*
X144050862Y-107037148D01*
X144057883Y-107036509D01*
X144064585Y-107034331D01*
X144064587Y-107034331D01*
X144213023Y-106986101D01*
X144213026Y-106986100D01*
X144219722Y-106983924D01*
X144365890Y-106896790D01*
X144370984Y-106891939D01*
X144370988Y-106891936D01*
X144438233Y-106827899D01*
X144489121Y-106779439D01*
X144583291Y-106637702D01*
X144643719Y-106478625D01*
X144667401Y-106310113D01*
X144667699Y-106288800D01*
X144648731Y-106119692D01*
X144592768Y-105958989D01*
X144586783Y-105949410D01*
X144557975Y-105903310D01*
X144502592Y-105814679D01*
X144382686Y-105693932D01*
X144372903Y-105687723D01*
X144302655Y-105643143D01*
X144239008Y-105602751D01*
X144078700Y-105545668D01*
X143909729Y-105525520D01*
X143902726Y-105526256D01*
X143902725Y-105526256D01*
X143747501Y-105542570D01*
X143747497Y-105542571D01*
X143740493Y-105543307D01*
X143733822Y-105545578D01*
X143586073Y-105595875D01*
X143586070Y-105595876D01*
X143579403Y-105598146D01*
X143573405Y-105601836D01*
X143573403Y-105601837D01*
X143440465Y-105683621D01*
X143440463Y-105683623D01*
X143434466Y-105687312D01*
X143312886Y-105806373D01*
X143309075Y-105812287D01*
X143309073Y-105812289D01*
X143288878Y-105843625D01*
X143220704Y-105949410D01*
X143162503Y-106109316D01*
X143141175Y-106278143D01*
X136324761Y-106278143D01*
X140135920Y-102480843D01*
X145033475Y-102480843D01*
X145050081Y-102650199D01*
X145103794Y-102811667D01*
X145107441Y-102817689D01*
X145107442Y-102817691D01*
X145163946Y-102910989D01*
X145191946Y-102957223D01*
X145310155Y-103079632D01*
X145452546Y-103172810D01*
X145459150Y-103175266D01*
X145459152Y-103175267D01*
X145495544Y-103188801D01*
X145612041Y-103232126D01*
X145780715Y-103254632D01*
X145787726Y-103253994D01*
X145787730Y-103253994D01*
X145943162Y-103239848D01*
X145950183Y-103239209D01*
X145950611Y-103239070D01*
X171699760Y-103239070D01*
X171705487Y-103246720D01*
X171876642Y-103351605D01*
X171885437Y-103356087D01*
X172095588Y-103443134D01*
X172104973Y-103446183D01*
X172326154Y-103499285D01*
X172335901Y-103500828D01*
X172562670Y-103518675D01*
X172572530Y-103518675D01*
X172799299Y-103500828D01*
X172809046Y-103499285D01*
X173030227Y-103446183D01*
X173039612Y-103443134D01*
X173249763Y-103356087D01*
X173258558Y-103351605D01*
X173426045Y-103248968D01*
X173435507Y-103238510D01*
X173431724Y-103229734D01*
X172580412Y-102378422D01*
X172566468Y-102370808D01*
X172564635Y-102370939D01*
X172558020Y-102375190D01*
X171706520Y-103226690D01*
X171699760Y-103239070D01*
X145950611Y-103239070D01*
X145956885Y-103237031D01*
X145956887Y-103237031D01*
X146105323Y-103188801D01*
X146105326Y-103188800D01*
X146112022Y-103186624D01*
X146258190Y-103099490D01*
X146263284Y-103094639D01*
X146263288Y-103094636D01*
X146330533Y-103030599D01*
X146381421Y-102982139D01*
X146475591Y-102840402D01*
X146536019Y-102681325D01*
X146559701Y-102512813D01*
X146559999Y-102491500D01*
X146541031Y-102322392D01*
X146485068Y-102161689D01*
X146479083Y-102152110D01*
X146457120Y-102116964D01*
X146394892Y-102017379D01*
X146388885Y-102011330D01*
X171055325Y-102011330D01*
X171073172Y-102238099D01*
X171074715Y-102247846D01*
X171127817Y-102469027D01*
X171130866Y-102478412D01*
X171217913Y-102688563D01*
X171222395Y-102697358D01*
X171325032Y-102864845D01*
X171335490Y-102874307D01*
X171344266Y-102870524D01*
X172195578Y-102019212D01*
X172201956Y-102007532D01*
X172932008Y-102007532D01*
X172932139Y-102009365D01*
X172936390Y-102015980D01*
X173787890Y-102867480D01*
X173800270Y-102874240D01*
X173807920Y-102868513D01*
X173912805Y-102697358D01*
X173917287Y-102688563D01*
X174004334Y-102478412D01*
X174007383Y-102469027D01*
X174060485Y-102247846D01*
X174062028Y-102238099D01*
X174079875Y-102011330D01*
X174079875Y-102006400D01*
X180174435Y-102006400D01*
X180193065Y-102243111D01*
X180194219Y-102247918D01*
X180194220Y-102247924D01*
X180213779Y-102329391D01*
X180248495Y-102473994D01*
X180250388Y-102478565D01*
X180250389Y-102478567D01*
X180337372Y-102688563D01*
X180339360Y-102693363D01*
X180341946Y-102697583D01*
X180460841Y-102891602D01*
X180460845Y-102891608D01*
X180463424Y-102895816D01*
X180515871Y-102957223D01*
X180604775Y-103061316D01*
X180617631Y-103076369D01*
X180798184Y-103230576D01*
X180802392Y-103233155D01*
X180802398Y-103233159D01*
X180963255Y-103331732D01*
X181000637Y-103354640D01*
X181005207Y-103356533D01*
X181005211Y-103356535D01*
X181215433Y-103443611D01*
X181220006Y-103445505D01*
X181300209Y-103464760D01*
X181446076Y-103499780D01*
X181446082Y-103499781D01*
X181450889Y-103500935D01*
X181687600Y-103519565D01*
X181924311Y-103500935D01*
X181929118Y-103499781D01*
X181929124Y-103499780D01*
X182074991Y-103464760D01*
X182155194Y-103445505D01*
X182159767Y-103443611D01*
X182369989Y-103356535D01*
X182369993Y-103356533D01*
X182374563Y-103354640D01*
X182411945Y-103331732D01*
X182572802Y-103233159D01*
X182572808Y-103233155D01*
X182577016Y-103230576D01*
X182757569Y-103076369D01*
X182770426Y-103061316D01*
X182859329Y-102957223D01*
X182911776Y-102895816D01*
X182914355Y-102891608D01*
X182914359Y-102891602D01*
X183033254Y-102697583D01*
X183035840Y-102693363D01*
X183037829Y-102688563D01*
X183124811Y-102478567D01*
X183124812Y-102478565D01*
X183126705Y-102473994D01*
X183161421Y-102329391D01*
X183180980Y-102247924D01*
X183180981Y-102247918D01*
X183182135Y-102243111D01*
X183200765Y-102006400D01*
X183182135Y-101769689D01*
X183177585Y-101750733D01*
X183145960Y-101619009D01*
X183126705Y-101538806D01*
X183124811Y-101534233D01*
X183037735Y-101324011D01*
X183037733Y-101324007D01*
X183035840Y-101319437D01*
X182984300Y-101235332D01*
X182914359Y-101121198D01*
X182914355Y-101121192D01*
X182911776Y-101116984D01*
X182757569Y-100936431D01*
X182577016Y-100782224D01*
X182572808Y-100779645D01*
X182572802Y-100779641D01*
X182378783Y-100660746D01*
X182374563Y-100658160D01*
X182369993Y-100656267D01*
X182369989Y-100656265D01*
X182159767Y-100569189D01*
X182159765Y-100569188D01*
X182155194Y-100567295D01*
X182056272Y-100543546D01*
X181929124Y-100513020D01*
X181929118Y-100513019D01*
X181924311Y-100511865D01*
X181687600Y-100493235D01*
X181450889Y-100511865D01*
X181446082Y-100513019D01*
X181446076Y-100513020D01*
X181318928Y-100543546D01*
X181220006Y-100567295D01*
X181215435Y-100569188D01*
X181215433Y-100569189D01*
X181005211Y-100656265D01*
X181005207Y-100656267D01*
X181000637Y-100658160D01*
X180996417Y-100660746D01*
X180802398Y-100779641D01*
X180802392Y-100779645D01*
X180798184Y-100782224D01*
X180617631Y-100936431D01*
X180463424Y-101116984D01*
X180460845Y-101121192D01*
X180460841Y-101121198D01*
X180390900Y-101235332D01*
X180339360Y-101319437D01*
X180337467Y-101324007D01*
X180337465Y-101324011D01*
X180250389Y-101534233D01*
X180248495Y-101538806D01*
X180229240Y-101619009D01*
X180197616Y-101750733D01*
X180193065Y-101769689D01*
X180174435Y-102006400D01*
X174079875Y-102006400D01*
X174079875Y-102001470D01*
X174062028Y-101774701D01*
X174060485Y-101764954D01*
X174007383Y-101543773D01*
X174004334Y-101534388D01*
X173917287Y-101324237D01*
X173912805Y-101315442D01*
X173810168Y-101147955D01*
X173799710Y-101138493D01*
X173790934Y-101142276D01*
X172939622Y-101993588D01*
X172932008Y-102007532D01*
X172201956Y-102007532D01*
X172203192Y-102005268D01*
X172203061Y-102003435D01*
X172198810Y-101996820D01*
X171347310Y-101145320D01*
X171334930Y-101138560D01*
X171327280Y-101144287D01*
X171222395Y-101315442D01*
X171217913Y-101324237D01*
X171130866Y-101534388D01*
X171127817Y-101543773D01*
X171074715Y-101764954D01*
X171073172Y-101774701D01*
X171055325Y-102001470D01*
X171055325Y-102011330D01*
X146388885Y-102011330D01*
X146383990Y-102006400D01*
X146307450Y-101929324D01*
X146274986Y-101896632D01*
X146258739Y-101886321D01*
X146157908Y-101822332D01*
X146131308Y-101805451D01*
X145971000Y-101748368D01*
X145802029Y-101728220D01*
X145795026Y-101728956D01*
X145795025Y-101728956D01*
X145639801Y-101745270D01*
X145639797Y-101745271D01*
X145632793Y-101746007D01*
X145626122Y-101748278D01*
X145478373Y-101798575D01*
X145478370Y-101798576D01*
X145471703Y-101800846D01*
X145465705Y-101804536D01*
X145465703Y-101804537D01*
X145332765Y-101886321D01*
X145332763Y-101886323D01*
X145326766Y-101890012D01*
X145321733Y-101894941D01*
X145220999Y-101993588D01*
X145205186Y-102009073D01*
X145201375Y-102014987D01*
X145201373Y-102014989D01*
X145195982Y-102023354D01*
X145113004Y-102152110D01*
X145054803Y-102312016D01*
X145033475Y-102480843D01*
X140135920Y-102480843D01*
X141848701Y-100774290D01*
X171699693Y-100774290D01*
X171703476Y-100783066D01*
X172554788Y-101634378D01*
X172568732Y-101641992D01*
X172570565Y-101641861D01*
X172577180Y-101637610D01*
X173428680Y-100786110D01*
X173435440Y-100773730D01*
X173429713Y-100766080D01*
X173258558Y-100661195D01*
X173249763Y-100656713D01*
X173039612Y-100569666D01*
X173030227Y-100566617D01*
X172809046Y-100513515D01*
X172799299Y-100511972D01*
X172572530Y-100494125D01*
X172562670Y-100494125D01*
X172335901Y-100511972D01*
X172326154Y-100513515D01*
X172104973Y-100566617D01*
X172095588Y-100569666D01*
X171885437Y-100656713D01*
X171876642Y-100661195D01*
X171709155Y-100763832D01*
X171699693Y-100774290D01*
X141848701Y-100774290D01*
X143539195Y-99089943D01*
X147306775Y-99089943D01*
X147323381Y-99259299D01*
X147377094Y-99420767D01*
X147380741Y-99426789D01*
X147380742Y-99426791D01*
X147394497Y-99449502D01*
X147465246Y-99566323D01*
X147583455Y-99688732D01*
X147725846Y-99781910D01*
X147732450Y-99784366D01*
X147732452Y-99784367D01*
X147768844Y-99797901D01*
X147885341Y-99841226D01*
X148054015Y-99863732D01*
X148061026Y-99863094D01*
X148061030Y-99863094D01*
X148216462Y-99848948D01*
X148223483Y-99848309D01*
X148230185Y-99846131D01*
X148230187Y-99846131D01*
X148378623Y-99797901D01*
X148378626Y-99797900D01*
X148385322Y-99795724D01*
X148531490Y-99708590D01*
X148536584Y-99703739D01*
X148536588Y-99703736D01*
X148641205Y-99604110D01*
X148654721Y-99591239D01*
X148748891Y-99449502D01*
X148809319Y-99290425D01*
X148833001Y-99121913D01*
X148833299Y-99100600D01*
X148814331Y-98931492D01*
X148809123Y-98916535D01*
X148766158Y-98793159D01*
X148758368Y-98770789D01*
X148752383Y-98761210D01*
X148730420Y-98726064D01*
X148668192Y-98626479D01*
X148548286Y-98505732D01*
X148532039Y-98495421D01*
X148458385Y-98448679D01*
X148404608Y-98414551D01*
X148244300Y-98357468D01*
X148075329Y-98337320D01*
X148068326Y-98338056D01*
X148068325Y-98338056D01*
X147913101Y-98354370D01*
X147913097Y-98354371D01*
X147906093Y-98355107D01*
X147899422Y-98357378D01*
X147751673Y-98407675D01*
X147751670Y-98407676D01*
X147745003Y-98409946D01*
X147739005Y-98413636D01*
X147739003Y-98413637D01*
X147606065Y-98495421D01*
X147606063Y-98495423D01*
X147600066Y-98499112D01*
X147478486Y-98618173D01*
X147386304Y-98761210D01*
X147328103Y-98921116D01*
X147306775Y-99089943D01*
X143539195Y-99089943D01*
X145068299Y-97566400D01*
X171054435Y-97566400D01*
X171073065Y-97803111D01*
X171074219Y-97807918D01*
X171074220Y-97807924D01*
X171092132Y-97882532D01*
X171128495Y-98033994D01*
X171130388Y-98038565D01*
X171130389Y-98038567D01*
X171210572Y-98232146D01*
X171219360Y-98253363D01*
X171221946Y-98257583D01*
X171340841Y-98451602D01*
X171340845Y-98451608D01*
X171343424Y-98455816D01*
X171497631Y-98636369D01*
X171678184Y-98790576D01*
X171682392Y-98793155D01*
X171682398Y-98793159D01*
X171876417Y-98912054D01*
X171880637Y-98914640D01*
X171885207Y-98916533D01*
X171885211Y-98916535D01*
X172095433Y-99003611D01*
X172100006Y-99005505D01*
X172180209Y-99024760D01*
X172326076Y-99059780D01*
X172326082Y-99059781D01*
X172330889Y-99060935D01*
X172567600Y-99079565D01*
X172804311Y-99060935D01*
X172809118Y-99059781D01*
X172809124Y-99059780D01*
X172954991Y-99024760D01*
X173035194Y-99005505D01*
X173039767Y-99003611D01*
X173249989Y-98916535D01*
X173249993Y-98916533D01*
X173254563Y-98914640D01*
X173258783Y-98912054D01*
X173452802Y-98793159D01*
X173452808Y-98793155D01*
X173457016Y-98790576D01*
X173637569Y-98636369D01*
X173791776Y-98455816D01*
X173794355Y-98451608D01*
X173794359Y-98451602D01*
X173913254Y-98257583D01*
X173915840Y-98253363D01*
X173924629Y-98232146D01*
X174004811Y-98038567D01*
X174004812Y-98038565D01*
X174006705Y-98033994D01*
X174043068Y-97882532D01*
X174060980Y-97807924D01*
X174060981Y-97807918D01*
X174062135Y-97803111D01*
X174080765Y-97566400D01*
X180174435Y-97566400D01*
X180193065Y-97803111D01*
X180194219Y-97807918D01*
X180194220Y-97807924D01*
X180212132Y-97882532D01*
X180248495Y-98033994D01*
X180250388Y-98038565D01*
X180250389Y-98038567D01*
X180330572Y-98232146D01*
X180339360Y-98253363D01*
X180341946Y-98257583D01*
X180460841Y-98451602D01*
X180460845Y-98451608D01*
X180463424Y-98455816D01*
X180617631Y-98636369D01*
X180798184Y-98790576D01*
X180802392Y-98793155D01*
X180802398Y-98793159D01*
X180996417Y-98912054D01*
X181000637Y-98914640D01*
X181005207Y-98916533D01*
X181005211Y-98916535D01*
X181215433Y-99003611D01*
X181220006Y-99005505D01*
X181300209Y-99024760D01*
X181446076Y-99059780D01*
X181446082Y-99059781D01*
X181450889Y-99060935D01*
X181687600Y-99079565D01*
X181924311Y-99060935D01*
X181929118Y-99059781D01*
X181929124Y-99059780D01*
X182074991Y-99024760D01*
X182155194Y-99005505D01*
X182159767Y-99003611D01*
X182369989Y-98916535D01*
X182369993Y-98916533D01*
X182374563Y-98914640D01*
X182378783Y-98912054D01*
X182572802Y-98793159D01*
X182572808Y-98793155D01*
X182577016Y-98790576D01*
X182757569Y-98636369D01*
X182911776Y-98455816D01*
X182914355Y-98451608D01*
X182914359Y-98451602D01*
X183033254Y-98257583D01*
X183035840Y-98253363D01*
X183044629Y-98232146D01*
X183124811Y-98038567D01*
X183124812Y-98038565D01*
X183126705Y-98033994D01*
X183163068Y-97882532D01*
X183180980Y-97807924D01*
X183180981Y-97807918D01*
X183182135Y-97803111D01*
X183200765Y-97566400D01*
X183182135Y-97329689D01*
X183172768Y-97290669D01*
X183130106Y-97112973D01*
X183126705Y-97098806D01*
X183124811Y-97094233D01*
X183037735Y-96884011D01*
X183037733Y-96884007D01*
X183035840Y-96879437D01*
X183021090Y-96855367D01*
X182914359Y-96681198D01*
X182914355Y-96681192D01*
X182911776Y-96676984D01*
X182757569Y-96496431D01*
X182577016Y-96342224D01*
X182572808Y-96339645D01*
X182572802Y-96339641D01*
X182378783Y-96220746D01*
X182374563Y-96218160D01*
X182369993Y-96216267D01*
X182369989Y-96216265D01*
X182159767Y-96129189D01*
X182159765Y-96129188D01*
X182155194Y-96127295D01*
X182074991Y-96108040D01*
X181929124Y-96073020D01*
X181929118Y-96073019D01*
X181924311Y-96071865D01*
X181687600Y-96053235D01*
X181450889Y-96071865D01*
X181446082Y-96073019D01*
X181446076Y-96073020D01*
X181300209Y-96108040D01*
X181220006Y-96127295D01*
X181215435Y-96129188D01*
X181215433Y-96129189D01*
X181005211Y-96216265D01*
X181005207Y-96216267D01*
X181000637Y-96218160D01*
X180996417Y-96220746D01*
X180802398Y-96339641D01*
X180802392Y-96339645D01*
X180798184Y-96342224D01*
X180617631Y-96496431D01*
X180463424Y-96676984D01*
X180460845Y-96681192D01*
X180460841Y-96681198D01*
X180354110Y-96855367D01*
X180339360Y-96879437D01*
X180337467Y-96884007D01*
X180337465Y-96884011D01*
X180250389Y-97094233D01*
X180248495Y-97098806D01*
X180245094Y-97112973D01*
X180202433Y-97290669D01*
X180193065Y-97329689D01*
X180174435Y-97566400D01*
X174080765Y-97566400D01*
X174062135Y-97329689D01*
X174052768Y-97290669D01*
X174010106Y-97112973D01*
X174006705Y-97098806D01*
X174004811Y-97094233D01*
X173917735Y-96884011D01*
X173917733Y-96884007D01*
X173915840Y-96879437D01*
X173901090Y-96855367D01*
X173794359Y-96681198D01*
X173794355Y-96681192D01*
X173791776Y-96676984D01*
X173637569Y-96496431D01*
X173457016Y-96342224D01*
X173452808Y-96339645D01*
X173452802Y-96339641D01*
X173258783Y-96220746D01*
X173254563Y-96218160D01*
X173249993Y-96216267D01*
X173249989Y-96216265D01*
X173039767Y-96129189D01*
X173039765Y-96129188D01*
X173035194Y-96127295D01*
X172954991Y-96108040D01*
X172809124Y-96073020D01*
X172809118Y-96073019D01*
X172804311Y-96071865D01*
X172567600Y-96053235D01*
X172330889Y-96071865D01*
X172326082Y-96073019D01*
X172326076Y-96073020D01*
X172180209Y-96108040D01*
X172100006Y-96127295D01*
X172095435Y-96129188D01*
X172095433Y-96129189D01*
X171885211Y-96216265D01*
X171885207Y-96216267D01*
X171880637Y-96218160D01*
X171876417Y-96220746D01*
X171682398Y-96339641D01*
X171682392Y-96339645D01*
X171678184Y-96342224D01*
X171497631Y-96496431D01*
X171343424Y-96676984D01*
X171340845Y-96681192D01*
X171340841Y-96681198D01*
X171234110Y-96855367D01*
X171219360Y-96879437D01*
X171217467Y-96884007D01*
X171217465Y-96884011D01*
X171130389Y-97094233D01*
X171128495Y-97098806D01*
X171125094Y-97112973D01*
X171082433Y-97290669D01*
X171073065Y-97329689D01*
X171054435Y-97566400D01*
X145068299Y-97566400D01*
X146759907Y-95880943D01*
X165603375Y-95880943D01*
X165619981Y-96050299D01*
X165622205Y-96056984D01*
X165622205Y-96056985D01*
X165630335Y-96081425D01*
X165673694Y-96211767D01*
X165677341Y-96217789D01*
X165677342Y-96217791D01*
X165752702Y-96342224D01*
X165761846Y-96357323D01*
X165880055Y-96479732D01*
X165902984Y-96494736D01*
X165997389Y-96556513D01*
X166022446Y-96572910D01*
X166029050Y-96575366D01*
X166029052Y-96575367D01*
X166065444Y-96588901D01*
X166181941Y-96632226D01*
X166350615Y-96654732D01*
X166357626Y-96654094D01*
X166357630Y-96654094D01*
X166513062Y-96639948D01*
X166520083Y-96639309D01*
X166526785Y-96637131D01*
X166526787Y-96637131D01*
X166675223Y-96588901D01*
X166675226Y-96588900D01*
X166681922Y-96586724D01*
X166828090Y-96499590D01*
X166833184Y-96494739D01*
X166833188Y-96494736D01*
X166900433Y-96430699D01*
X166951321Y-96382239D01*
X166968675Y-96356120D01*
X167041590Y-96246373D01*
X167045491Y-96240502D01*
X167105919Y-96081425D01*
X167129601Y-95912913D01*
X167129718Y-95904564D01*
X167129844Y-95895561D01*
X167129844Y-95895555D01*
X167129899Y-95891600D01*
X167110931Y-95722492D01*
X167054968Y-95561789D01*
X167049659Y-95553292D01*
X167022612Y-95510010D01*
X166964792Y-95417479D01*
X166844886Y-95296732D01*
X166828639Y-95286421D01*
X166790006Y-95261904D01*
X166701208Y-95205551D01*
X166540900Y-95148468D01*
X166371929Y-95128320D01*
X166364926Y-95129056D01*
X166364925Y-95129056D01*
X166209701Y-95145370D01*
X166209697Y-95145371D01*
X166202693Y-95146107D01*
X166196022Y-95148378D01*
X166048273Y-95198675D01*
X166048270Y-95198676D01*
X166041603Y-95200946D01*
X166035605Y-95204636D01*
X166035603Y-95204637D01*
X165902665Y-95286421D01*
X165902663Y-95286423D01*
X165896666Y-95290112D01*
X165891633Y-95295041D01*
X165801803Y-95383010D01*
X165775086Y-95409173D01*
X165771275Y-95415087D01*
X165771273Y-95415089D01*
X165710100Y-95510010D01*
X165682904Y-95552210D01*
X165680494Y-95558832D01*
X165640063Y-95669916D01*
X165624703Y-95712116D01*
X165603375Y-95880943D01*
X146759907Y-95880943D01*
X149098568Y-93550786D01*
X149098569Y-93550785D01*
X149111400Y-93538000D01*
X149111400Y-93019343D01*
X167144175Y-93019343D01*
X167160781Y-93188699D01*
X167214494Y-93350167D01*
X167218141Y-93356189D01*
X167218142Y-93356191D01*
X167255151Y-93417299D01*
X167302646Y-93495723D01*
X167420855Y-93618132D01*
X167426751Y-93621990D01*
X167521057Y-93683702D01*
X167563246Y-93711310D01*
X167569850Y-93713766D01*
X167569852Y-93713767D01*
X167606244Y-93727301D01*
X167722741Y-93770626D01*
X167891415Y-93793132D01*
X167898426Y-93792494D01*
X167898430Y-93792494D01*
X168053862Y-93778348D01*
X168060883Y-93777709D01*
X168067585Y-93775531D01*
X168067587Y-93775531D01*
X168216023Y-93727301D01*
X168216026Y-93727300D01*
X168222722Y-93725124D01*
X168368890Y-93637990D01*
X168373984Y-93633139D01*
X168373988Y-93633136D01*
X168460463Y-93550786D01*
X168492121Y-93520639D01*
X168586291Y-93378902D01*
X168646719Y-93219825D01*
X168661254Y-93116400D01*
X171054435Y-93116400D01*
X171073065Y-93353111D01*
X171074219Y-93357918D01*
X171074220Y-93357924D01*
X171094005Y-93440332D01*
X171128495Y-93583994D01*
X171130388Y-93588565D01*
X171130389Y-93588567D01*
X171208999Y-93778348D01*
X171219360Y-93803363D01*
X171221946Y-93807583D01*
X171340841Y-94001602D01*
X171340845Y-94001608D01*
X171343424Y-94005816D01*
X171497631Y-94186369D01*
X171678184Y-94340576D01*
X171682392Y-94343155D01*
X171682398Y-94343159D01*
X171771096Y-94397513D01*
X171880637Y-94464640D01*
X171885207Y-94466533D01*
X171885211Y-94466535D01*
X172095433Y-94553611D01*
X172100006Y-94555505D01*
X172180209Y-94574760D01*
X172326076Y-94609780D01*
X172326082Y-94609781D01*
X172330889Y-94610935D01*
X172567600Y-94629565D01*
X172804311Y-94610935D01*
X172809118Y-94609781D01*
X172809124Y-94609780D01*
X172954991Y-94574760D01*
X173035194Y-94555505D01*
X173039767Y-94553611D01*
X173249989Y-94466535D01*
X173249993Y-94466533D01*
X173254563Y-94464640D01*
X173364104Y-94397513D01*
X173452802Y-94343159D01*
X173452808Y-94343155D01*
X173457016Y-94340576D01*
X173637569Y-94186369D01*
X173791776Y-94005816D01*
X173794355Y-94001608D01*
X173794359Y-94001602D01*
X173913254Y-93807583D01*
X173915840Y-93803363D01*
X173926202Y-93778348D01*
X174004811Y-93588567D01*
X174004812Y-93588565D01*
X174006705Y-93583994D01*
X174041195Y-93440332D01*
X174060980Y-93357924D01*
X174060981Y-93357918D01*
X174062135Y-93353111D01*
X174080765Y-93116400D01*
X180174435Y-93116400D01*
X180193065Y-93353111D01*
X180194219Y-93357918D01*
X180194220Y-93357924D01*
X180214005Y-93440332D01*
X180248495Y-93583994D01*
X180250388Y-93588565D01*
X180250389Y-93588567D01*
X180328999Y-93778348D01*
X180339360Y-93803363D01*
X180341946Y-93807583D01*
X180460841Y-94001602D01*
X180460845Y-94001608D01*
X180463424Y-94005816D01*
X180617631Y-94186369D01*
X180798184Y-94340576D01*
X180802392Y-94343155D01*
X180802398Y-94343159D01*
X180891096Y-94397513D01*
X181000637Y-94464640D01*
X181005207Y-94466533D01*
X181005211Y-94466535D01*
X181215433Y-94553611D01*
X181220006Y-94555505D01*
X181300209Y-94574760D01*
X181446076Y-94609780D01*
X181446082Y-94609781D01*
X181450889Y-94610935D01*
X181687600Y-94629565D01*
X181924311Y-94610935D01*
X181929118Y-94609781D01*
X181929124Y-94609780D01*
X182074991Y-94574760D01*
X182155194Y-94555505D01*
X182159767Y-94553611D01*
X182369989Y-94466535D01*
X182369993Y-94466533D01*
X182374563Y-94464640D01*
X182484104Y-94397513D01*
X182572802Y-94343159D01*
X182572808Y-94343155D01*
X182577016Y-94340576D01*
X182757569Y-94186369D01*
X182911776Y-94005816D01*
X182914355Y-94001608D01*
X182914359Y-94001602D01*
X183033254Y-93807583D01*
X183035840Y-93803363D01*
X183046202Y-93778348D01*
X183124811Y-93588567D01*
X183124812Y-93588565D01*
X183126705Y-93583994D01*
X183161195Y-93440332D01*
X183180980Y-93357924D01*
X183180981Y-93357918D01*
X183182135Y-93353111D01*
X183200765Y-93116400D01*
X183182135Y-92879689D01*
X183180653Y-92873513D01*
X183127860Y-92653618D01*
X183126705Y-92648806D01*
X183102060Y-92589307D01*
X183037735Y-92434011D01*
X183037733Y-92434007D01*
X183035840Y-92429437D01*
X182980632Y-92339346D01*
X182914359Y-92231198D01*
X182914355Y-92231192D01*
X182911776Y-92226984D01*
X182757569Y-92046431D01*
X182577016Y-91892224D01*
X182572808Y-91889645D01*
X182572802Y-91889641D01*
X182378783Y-91770746D01*
X182374563Y-91768160D01*
X182369993Y-91766267D01*
X182369989Y-91766265D01*
X182159767Y-91679189D01*
X182159765Y-91679188D01*
X182155194Y-91677295D01*
X182074991Y-91658040D01*
X181929124Y-91623020D01*
X181929118Y-91623019D01*
X181924311Y-91621865D01*
X181687600Y-91603235D01*
X181450889Y-91621865D01*
X181446082Y-91623019D01*
X181446076Y-91623020D01*
X181300209Y-91658040D01*
X181220006Y-91677295D01*
X181215435Y-91679188D01*
X181215433Y-91679189D01*
X181005211Y-91766265D01*
X181005207Y-91766267D01*
X181000637Y-91768160D01*
X180996417Y-91770746D01*
X180802398Y-91889641D01*
X180802392Y-91889645D01*
X180798184Y-91892224D01*
X180617631Y-92046431D01*
X180463424Y-92226984D01*
X180460845Y-92231192D01*
X180460841Y-92231198D01*
X180394568Y-92339346D01*
X180339360Y-92429437D01*
X180337467Y-92434007D01*
X180337465Y-92434011D01*
X180273140Y-92589307D01*
X180248495Y-92648806D01*
X180247340Y-92653618D01*
X180194548Y-92873513D01*
X180193065Y-92879689D01*
X180174435Y-93116400D01*
X174080765Y-93116400D01*
X174062135Y-92879689D01*
X174060653Y-92873513D01*
X174007860Y-92653618D01*
X174006705Y-92648806D01*
X173982060Y-92589307D01*
X173917735Y-92434011D01*
X173917733Y-92434007D01*
X173915840Y-92429437D01*
X173860632Y-92339346D01*
X173794359Y-92231198D01*
X173794355Y-92231192D01*
X173791776Y-92226984D01*
X173637569Y-92046431D01*
X173457016Y-91892224D01*
X173452808Y-91889645D01*
X173452802Y-91889641D01*
X173258783Y-91770746D01*
X173254563Y-91768160D01*
X173249993Y-91766267D01*
X173249989Y-91766265D01*
X173039767Y-91679189D01*
X173039765Y-91679188D01*
X173035194Y-91677295D01*
X172954991Y-91658040D01*
X172809124Y-91623020D01*
X172809118Y-91623019D01*
X172804311Y-91621865D01*
X172567600Y-91603235D01*
X172330889Y-91621865D01*
X172326082Y-91623019D01*
X172326076Y-91623020D01*
X172180209Y-91658040D01*
X172100006Y-91677295D01*
X172095435Y-91679188D01*
X172095433Y-91679189D01*
X171885211Y-91766265D01*
X171885207Y-91766267D01*
X171880637Y-91768160D01*
X171876417Y-91770746D01*
X171682398Y-91889641D01*
X171682392Y-91889645D01*
X171678184Y-91892224D01*
X171497631Y-92046431D01*
X171343424Y-92226984D01*
X171340845Y-92231192D01*
X171340841Y-92231198D01*
X171274568Y-92339346D01*
X171219360Y-92429437D01*
X171217467Y-92434007D01*
X171217465Y-92434011D01*
X171153140Y-92589307D01*
X171128495Y-92648806D01*
X171127340Y-92653618D01*
X171074548Y-92873513D01*
X171073065Y-92879689D01*
X171054435Y-93116400D01*
X168661254Y-93116400D01*
X168670401Y-93051313D01*
X168670531Y-93042025D01*
X168670644Y-93033961D01*
X168670644Y-93033955D01*
X168670699Y-93030000D01*
X168651731Y-92860892D01*
X168648765Y-92852373D01*
X168598086Y-92706846D01*
X168595768Y-92700189D01*
X168589783Y-92690610D01*
X168560748Y-92644146D01*
X168505592Y-92555879D01*
X168465463Y-92515468D01*
X168390648Y-92440129D01*
X168385686Y-92435132D01*
X168376713Y-92429437D01*
X168295785Y-92378079D01*
X168242008Y-92343951D01*
X168081700Y-92286868D01*
X167912729Y-92266720D01*
X167905726Y-92267456D01*
X167905725Y-92267456D01*
X167750501Y-92283770D01*
X167750497Y-92283771D01*
X167743493Y-92284507D01*
X167736822Y-92286778D01*
X167589073Y-92337075D01*
X167589070Y-92337076D01*
X167582403Y-92339346D01*
X167576405Y-92343036D01*
X167576403Y-92343037D01*
X167443465Y-92424821D01*
X167443463Y-92424823D01*
X167437466Y-92428512D01*
X167315886Y-92547573D01*
X167312075Y-92553487D01*
X167312073Y-92553489D01*
X167250645Y-92648806D01*
X167223704Y-92690610D01*
X167187121Y-92791122D01*
X167174226Y-92826551D01*
X167165503Y-92850516D01*
X167144175Y-93019343D01*
X149111400Y-93019343D01*
X149111400Y-88676400D01*
X171054435Y-88676400D01*
X171073065Y-88913111D01*
X171074219Y-88917918D01*
X171074220Y-88917924D01*
X171075653Y-88923892D01*
X171128495Y-89143994D01*
X171130388Y-89148565D01*
X171130389Y-89148567D01*
X171187122Y-89285532D01*
X171219360Y-89363363D01*
X171221946Y-89367583D01*
X171340841Y-89561602D01*
X171340845Y-89561608D01*
X171343424Y-89565816D01*
X171497631Y-89746369D01*
X171678184Y-89900576D01*
X171682392Y-89903155D01*
X171682398Y-89903159D01*
X171796543Y-89973107D01*
X171880637Y-90024640D01*
X171885207Y-90026533D01*
X171885211Y-90026535D01*
X172095433Y-90113611D01*
X172100006Y-90115505D01*
X172180209Y-90134760D01*
X172326076Y-90169780D01*
X172326082Y-90169781D01*
X172330889Y-90170935D01*
X172567600Y-90189565D01*
X172804311Y-90170935D01*
X172809118Y-90169781D01*
X172809124Y-90169780D01*
X172954991Y-90134760D01*
X173035194Y-90115505D01*
X173039767Y-90113611D01*
X173249989Y-90026535D01*
X173249993Y-90026533D01*
X173254563Y-90024640D01*
X173338657Y-89973107D01*
X173452802Y-89903159D01*
X173452808Y-89903155D01*
X173457016Y-89900576D01*
X173637569Y-89746369D01*
X173791776Y-89565816D01*
X173794355Y-89561608D01*
X173794359Y-89561602D01*
X173913254Y-89367583D01*
X173915840Y-89363363D01*
X173948079Y-89285532D01*
X174004811Y-89148567D01*
X174004812Y-89148565D01*
X174006705Y-89143994D01*
X174059547Y-88923892D01*
X174060980Y-88917924D01*
X174060981Y-88917918D01*
X174062135Y-88913111D01*
X174080765Y-88676400D01*
X180174435Y-88676400D01*
X180193065Y-88913111D01*
X180194219Y-88917918D01*
X180194220Y-88917924D01*
X180195653Y-88923892D01*
X180248495Y-89143994D01*
X180250388Y-89148565D01*
X180250389Y-89148567D01*
X180307122Y-89285532D01*
X180339360Y-89363363D01*
X180341946Y-89367583D01*
X180460841Y-89561602D01*
X180460845Y-89561608D01*
X180463424Y-89565816D01*
X180617631Y-89746369D01*
X180798184Y-89900576D01*
X180802392Y-89903155D01*
X180802398Y-89903159D01*
X180916543Y-89973107D01*
X181000637Y-90024640D01*
X181005207Y-90026533D01*
X181005211Y-90026535D01*
X181215433Y-90113611D01*
X181220006Y-90115505D01*
X181300209Y-90134760D01*
X181446076Y-90169780D01*
X181446082Y-90169781D01*
X181450889Y-90170935D01*
X181687600Y-90189565D01*
X181924311Y-90170935D01*
X181929118Y-90169781D01*
X181929124Y-90169780D01*
X182074991Y-90134760D01*
X182155194Y-90115505D01*
X182159767Y-90113611D01*
X182369989Y-90026535D01*
X182369993Y-90026533D01*
X182374563Y-90024640D01*
X182458657Y-89973107D01*
X182572802Y-89903159D01*
X182572808Y-89903155D01*
X182577016Y-89900576D01*
X182757569Y-89746369D01*
X182911776Y-89565816D01*
X182914355Y-89561608D01*
X182914359Y-89561602D01*
X183033254Y-89367583D01*
X183035840Y-89363363D01*
X183068079Y-89285532D01*
X183124811Y-89148567D01*
X183124812Y-89148565D01*
X183126705Y-89143994D01*
X183179547Y-88923892D01*
X183180980Y-88917924D01*
X183180981Y-88917918D01*
X183182135Y-88913111D01*
X183200765Y-88676400D01*
X183182135Y-88439689D01*
X183180527Y-88432989D01*
X183127860Y-88213618D01*
X183126705Y-88208806D01*
X183124811Y-88204233D01*
X183037735Y-87994011D01*
X183037733Y-87994007D01*
X183035840Y-87989437D01*
X182943264Y-87838367D01*
X182914359Y-87791198D01*
X182914355Y-87791192D01*
X182911776Y-87786984D01*
X182757569Y-87606431D01*
X182577016Y-87452224D01*
X182572808Y-87449645D01*
X182572802Y-87449641D01*
X182378783Y-87330746D01*
X182374563Y-87328160D01*
X182369993Y-87326267D01*
X182369989Y-87326265D01*
X182159767Y-87239189D01*
X182159765Y-87239188D01*
X182155194Y-87237295D01*
X182074991Y-87218040D01*
X181929124Y-87183020D01*
X181929118Y-87183019D01*
X181924311Y-87181865D01*
X181687600Y-87163235D01*
X181450889Y-87181865D01*
X181446082Y-87183019D01*
X181446076Y-87183020D01*
X181300209Y-87218040D01*
X181220006Y-87237295D01*
X181215435Y-87239188D01*
X181215433Y-87239189D01*
X181005211Y-87326265D01*
X181005207Y-87326267D01*
X181000637Y-87328160D01*
X180996417Y-87330746D01*
X180802398Y-87449641D01*
X180802392Y-87449645D01*
X180798184Y-87452224D01*
X180617631Y-87606431D01*
X180463424Y-87786984D01*
X180460845Y-87791192D01*
X180460841Y-87791198D01*
X180431936Y-87838367D01*
X180339360Y-87989437D01*
X180337467Y-87994007D01*
X180337465Y-87994011D01*
X180250389Y-88204233D01*
X180248495Y-88208806D01*
X180247340Y-88213618D01*
X180194674Y-88432989D01*
X180193065Y-88439689D01*
X180174435Y-88676400D01*
X174080765Y-88676400D01*
X174062135Y-88439689D01*
X174060527Y-88432989D01*
X174007860Y-88213618D01*
X174006705Y-88208806D01*
X174004811Y-88204233D01*
X173917735Y-87994011D01*
X173917733Y-87994007D01*
X173915840Y-87989437D01*
X173823264Y-87838367D01*
X173794359Y-87791198D01*
X173794355Y-87791192D01*
X173791776Y-87786984D01*
X173637569Y-87606431D01*
X173457016Y-87452224D01*
X173452808Y-87449645D01*
X173452802Y-87449641D01*
X173258783Y-87330746D01*
X173254563Y-87328160D01*
X173249993Y-87326267D01*
X173249989Y-87326265D01*
X173039767Y-87239189D01*
X173039765Y-87239188D01*
X173035194Y-87237295D01*
X172954991Y-87218040D01*
X172809124Y-87183020D01*
X172809118Y-87183019D01*
X172804311Y-87181865D01*
X172567600Y-87163235D01*
X172330889Y-87181865D01*
X172326082Y-87183019D01*
X172326076Y-87183020D01*
X172180209Y-87218040D01*
X172100006Y-87237295D01*
X172095435Y-87239188D01*
X172095433Y-87239189D01*
X171885211Y-87326265D01*
X171885207Y-87326267D01*
X171880637Y-87328160D01*
X171876417Y-87330746D01*
X171682398Y-87449641D01*
X171682392Y-87449645D01*
X171678184Y-87452224D01*
X171497631Y-87606431D01*
X171343424Y-87786984D01*
X171340845Y-87791192D01*
X171340841Y-87791198D01*
X171311936Y-87838367D01*
X171219360Y-87989437D01*
X171217467Y-87994007D01*
X171217465Y-87994011D01*
X171130389Y-88204233D01*
X171128495Y-88208806D01*
X171127340Y-88213618D01*
X171074674Y-88432989D01*
X171073065Y-88439689D01*
X171054435Y-88676400D01*
X149111400Y-88676400D01*
X149111400Y-84799993D01*
X166382175Y-84799993D01*
X166398781Y-84969349D01*
X166452494Y-85130817D01*
X166456141Y-85136839D01*
X166456142Y-85136841D01*
X166518698Y-85240132D01*
X166540646Y-85276373D01*
X166658855Y-85398782D01*
X166689201Y-85418640D01*
X166766111Y-85468968D01*
X166801246Y-85491960D01*
X166807850Y-85494416D01*
X166807852Y-85494417D01*
X166844244Y-85507951D01*
X166960741Y-85551276D01*
X167129415Y-85573782D01*
X167136426Y-85573144D01*
X167136430Y-85573144D01*
X167291862Y-85558998D01*
X167298883Y-85558359D01*
X167305585Y-85556181D01*
X167305587Y-85556181D01*
X167454023Y-85507951D01*
X167454026Y-85507950D01*
X167460722Y-85505774D01*
X167606890Y-85418640D01*
X167611984Y-85413789D01*
X167611988Y-85413786D01*
X167681989Y-85347124D01*
X167730121Y-85301289D01*
X167735886Y-85292613D01*
X167798808Y-85197907D01*
X167824291Y-85159552D01*
X167884719Y-85000475D01*
X167908401Y-84831963D01*
X167908699Y-84810650D01*
X167889731Y-84641542D01*
X167873590Y-84595190D01*
X167836086Y-84487496D01*
X167833768Y-84480839D01*
X167827783Y-84471260D01*
X167762626Y-84366990D01*
X167743592Y-84336529D01*
X167634230Y-84226400D01*
X171054435Y-84226400D01*
X171073065Y-84463111D01*
X171074219Y-84467918D01*
X171074220Y-84467924D01*
X171103635Y-84590443D01*
X171128495Y-84693994D01*
X171130388Y-84698565D01*
X171130389Y-84698567D01*
X171217372Y-84908563D01*
X171219360Y-84913363D01*
X171221946Y-84917583D01*
X171340841Y-85111602D01*
X171340845Y-85111608D01*
X171343424Y-85115816D01*
X171497631Y-85296369D01*
X171678184Y-85450576D01*
X171682392Y-85453155D01*
X171682398Y-85453159D01*
X171844031Y-85552208D01*
X171880637Y-85574640D01*
X171885207Y-85576533D01*
X171885211Y-85576535D01*
X172095433Y-85663611D01*
X172100006Y-85665505D01*
X172155101Y-85678732D01*
X172326076Y-85719780D01*
X172326082Y-85719781D01*
X172330889Y-85720935D01*
X172567600Y-85739565D01*
X172804311Y-85720935D01*
X172809118Y-85719781D01*
X172809124Y-85719780D01*
X172980099Y-85678732D01*
X173035194Y-85665505D01*
X173039767Y-85663611D01*
X173249989Y-85576535D01*
X173249993Y-85576533D01*
X173254563Y-85574640D01*
X173291169Y-85552208D01*
X173443156Y-85459070D01*
X180819760Y-85459070D01*
X180825487Y-85466720D01*
X180996642Y-85571605D01*
X181005437Y-85576087D01*
X181215588Y-85663134D01*
X181224973Y-85666183D01*
X181446154Y-85719285D01*
X181455901Y-85720828D01*
X181682670Y-85738675D01*
X181692530Y-85738675D01*
X181919299Y-85720828D01*
X181929046Y-85719285D01*
X182150227Y-85666183D01*
X182159612Y-85663134D01*
X182369763Y-85576087D01*
X182378558Y-85571605D01*
X182546045Y-85468968D01*
X182555507Y-85458510D01*
X182551724Y-85449734D01*
X181700412Y-84598422D01*
X181686468Y-84590808D01*
X181684635Y-84590939D01*
X181678020Y-84595190D01*
X180826520Y-85446690D01*
X180819760Y-85459070D01*
X173443156Y-85459070D01*
X173452802Y-85453159D01*
X173452808Y-85453155D01*
X173457016Y-85450576D01*
X173637569Y-85296369D01*
X173791776Y-85115816D01*
X173794355Y-85111608D01*
X173794359Y-85111602D01*
X173913254Y-84917583D01*
X173915840Y-84913363D01*
X173917829Y-84908563D01*
X174004811Y-84698567D01*
X174004812Y-84698565D01*
X174006705Y-84693994D01*
X174031565Y-84590443D01*
X174060980Y-84467924D01*
X174060981Y-84467918D01*
X174062135Y-84463111D01*
X174080377Y-84231330D01*
X180175325Y-84231330D01*
X180193172Y-84458099D01*
X180194715Y-84467846D01*
X180247817Y-84689027D01*
X180250866Y-84698412D01*
X180337913Y-84908563D01*
X180342395Y-84917358D01*
X180445032Y-85084845D01*
X180455490Y-85094307D01*
X180464266Y-85090524D01*
X181315578Y-84239212D01*
X181321956Y-84227532D01*
X182052008Y-84227532D01*
X182052139Y-84229365D01*
X182056390Y-84235980D01*
X182907890Y-85087480D01*
X182920270Y-85094240D01*
X182927920Y-85088513D01*
X183032805Y-84917358D01*
X183037287Y-84908563D01*
X183124334Y-84698412D01*
X183127383Y-84689027D01*
X183180485Y-84467846D01*
X183182028Y-84458099D01*
X183199875Y-84231330D01*
X183199875Y-84221470D01*
X183182028Y-83994701D01*
X183180485Y-83984954D01*
X183127383Y-83763773D01*
X183124334Y-83754388D01*
X183037287Y-83544237D01*
X183032805Y-83535442D01*
X182930168Y-83367955D01*
X182919710Y-83358493D01*
X182910934Y-83362276D01*
X182059622Y-84213588D01*
X182052008Y-84227532D01*
X181321956Y-84227532D01*
X181323192Y-84225268D01*
X181323061Y-84223435D01*
X181318810Y-84216820D01*
X180467310Y-83365320D01*
X180454930Y-83358560D01*
X180447280Y-83364287D01*
X180342395Y-83535442D01*
X180337913Y-83544237D01*
X180250866Y-83754388D01*
X180247817Y-83763773D01*
X180194715Y-83984954D01*
X180193172Y-83994701D01*
X180175325Y-84221470D01*
X180175325Y-84231330D01*
X174080377Y-84231330D01*
X174080765Y-84226400D01*
X174062135Y-83989689D01*
X174058423Y-83974225D01*
X174017966Y-83805713D01*
X174006705Y-83758806D01*
X174002371Y-83748343D01*
X173917735Y-83544011D01*
X173917733Y-83544007D01*
X173915840Y-83539437D01*
X173842410Y-83419610D01*
X173794359Y-83341198D01*
X173794355Y-83341192D01*
X173791776Y-83336984D01*
X173637569Y-83156431D01*
X173457016Y-83002224D01*
X173452808Y-82999645D01*
X173452802Y-82999641D01*
X173444070Y-82994290D01*
X180819693Y-82994290D01*
X180823476Y-83003066D01*
X181674788Y-83854378D01*
X181688732Y-83861992D01*
X181690565Y-83861861D01*
X181697180Y-83857610D01*
X182548680Y-83006110D01*
X182555440Y-82993730D01*
X182549713Y-82986080D01*
X182378558Y-82881195D01*
X182369763Y-82876713D01*
X182159612Y-82789666D01*
X182150227Y-82786617D01*
X181929046Y-82733515D01*
X181919299Y-82731972D01*
X181692530Y-82714125D01*
X181682670Y-82714125D01*
X181455901Y-82731972D01*
X181446154Y-82733515D01*
X181224973Y-82786617D01*
X181215588Y-82789666D01*
X181005437Y-82876713D01*
X180996642Y-82881195D01*
X180829155Y-82983832D01*
X180819693Y-82994290D01*
X173444070Y-82994290D01*
X173258783Y-82880746D01*
X173254563Y-82878160D01*
X173249993Y-82876267D01*
X173249989Y-82876265D01*
X173039767Y-82789189D01*
X173039765Y-82789188D01*
X173035194Y-82787295D01*
X172954991Y-82768040D01*
X172809124Y-82733020D01*
X172809118Y-82733019D01*
X172804311Y-82731865D01*
X172567600Y-82713235D01*
X172330889Y-82731865D01*
X172326082Y-82733019D01*
X172326076Y-82733020D01*
X172180209Y-82768040D01*
X172100006Y-82787295D01*
X172095435Y-82789188D01*
X172095433Y-82789189D01*
X171885211Y-82876265D01*
X171885207Y-82876267D01*
X171880637Y-82878160D01*
X171876417Y-82880746D01*
X171682398Y-82999641D01*
X171682392Y-82999645D01*
X171678184Y-83002224D01*
X171497631Y-83156431D01*
X171343424Y-83336984D01*
X171340845Y-83341192D01*
X171340841Y-83341198D01*
X171292790Y-83419610D01*
X171219360Y-83539437D01*
X171217467Y-83544007D01*
X171217465Y-83544011D01*
X171132829Y-83748343D01*
X171128495Y-83758806D01*
X171117234Y-83805713D01*
X171076778Y-83974225D01*
X171073065Y-83989689D01*
X171054435Y-84226400D01*
X167634230Y-84226400D01*
X167623686Y-84215782D01*
X167607439Y-84205471D01*
X167568806Y-84180954D01*
X167480008Y-84124601D01*
X167319700Y-84067518D01*
X167150729Y-84047370D01*
X167143726Y-84048106D01*
X167143725Y-84048106D01*
X166988501Y-84064420D01*
X166988497Y-84064421D01*
X166981493Y-84065157D01*
X166974822Y-84067428D01*
X166827073Y-84117725D01*
X166827070Y-84117726D01*
X166820403Y-84119996D01*
X166814405Y-84123686D01*
X166814403Y-84123687D01*
X166681465Y-84205471D01*
X166681463Y-84205473D01*
X166675466Y-84209162D01*
X166621806Y-84261710D01*
X166560048Y-84322189D01*
X166553886Y-84328223D01*
X166550075Y-84334137D01*
X166550073Y-84334139D01*
X166466956Y-84463111D01*
X166461704Y-84471260D01*
X166403503Y-84631166D01*
X166382175Y-84799993D01*
X149111400Y-84799993D01*
X149111400Y-82046543D01*
X166382175Y-82046543D01*
X166398781Y-82215899D01*
X166452494Y-82377367D01*
X166456141Y-82383389D01*
X166456142Y-82383391D01*
X166469897Y-82406102D01*
X166540646Y-82522923D01*
X166658855Y-82645332D01*
X166681784Y-82660336D01*
X166793613Y-82733515D01*
X166801246Y-82738510D01*
X166807850Y-82740966D01*
X166807852Y-82740967D01*
X166844244Y-82754501D01*
X166960741Y-82797826D01*
X167129415Y-82820332D01*
X167136426Y-82819694D01*
X167136430Y-82819694D01*
X167291862Y-82805548D01*
X167298883Y-82804909D01*
X167305585Y-82802731D01*
X167305587Y-82802731D01*
X167454023Y-82754501D01*
X167454026Y-82754500D01*
X167460722Y-82752324D01*
X167606890Y-82665190D01*
X167611984Y-82660339D01*
X167611988Y-82660336D01*
X167679233Y-82596299D01*
X167730121Y-82547839D01*
X167824291Y-82406102D01*
X167884719Y-82247025D01*
X167908401Y-82078513D01*
X167908699Y-82057200D01*
X167889731Y-81888092D01*
X167880638Y-81861979D01*
X167843880Y-81756426D01*
X167833768Y-81727389D01*
X167827783Y-81717810D01*
X167785441Y-81650051D01*
X167743592Y-81583079D01*
X167733405Y-81572820D01*
X167628648Y-81467329D01*
X167623686Y-81462332D01*
X167607439Y-81452021D01*
X167568806Y-81427504D01*
X167480008Y-81371151D01*
X167319700Y-81314068D01*
X167150729Y-81293920D01*
X167143726Y-81294656D01*
X167143725Y-81294656D01*
X166988501Y-81310970D01*
X166988497Y-81310971D01*
X166981493Y-81311707D01*
X166974822Y-81313978D01*
X166827073Y-81364275D01*
X166827070Y-81364276D01*
X166820403Y-81366546D01*
X166814405Y-81370236D01*
X166814403Y-81370237D01*
X166681465Y-81452021D01*
X166681463Y-81452023D01*
X166675466Y-81455712D01*
X166553886Y-81574773D01*
X166550075Y-81580687D01*
X166550073Y-81580689D01*
X166483339Y-81684239D01*
X166461704Y-81717810D01*
X166403503Y-81877716D01*
X166382175Y-82046543D01*
X149111400Y-82046543D01*
X149111400Y-79786400D01*
X171054435Y-79786400D01*
X171073065Y-80023111D01*
X171074219Y-80027918D01*
X171074220Y-80027924D01*
X171094747Y-80113425D01*
X171128495Y-80253994D01*
X171130388Y-80258565D01*
X171130389Y-80258567D01*
X171209877Y-80450468D01*
X171219360Y-80473363D01*
X171221946Y-80477583D01*
X171340841Y-80671602D01*
X171340845Y-80671608D01*
X171343424Y-80675816D01*
X171497631Y-80856369D01*
X171678184Y-81010576D01*
X171682392Y-81013155D01*
X171682398Y-81013159D01*
X171876417Y-81132054D01*
X171880637Y-81134640D01*
X171885207Y-81136533D01*
X171885211Y-81136535D01*
X172052011Y-81205625D01*
X172100006Y-81225505D01*
X172180209Y-81244760D01*
X172326076Y-81279780D01*
X172326082Y-81279781D01*
X172330889Y-81280935D01*
X172567600Y-81299565D01*
X172804311Y-81280935D01*
X172809118Y-81279781D01*
X172809124Y-81279780D01*
X172954991Y-81244760D01*
X173035194Y-81225505D01*
X173083189Y-81205625D01*
X173249989Y-81136535D01*
X173249993Y-81136533D01*
X173254563Y-81134640D01*
X173258783Y-81132054D01*
X173452802Y-81013159D01*
X173452808Y-81013155D01*
X173457016Y-81010576D01*
X173637569Y-80856369D01*
X173791776Y-80675816D01*
X173794355Y-80671608D01*
X173794359Y-80671602D01*
X173913254Y-80477583D01*
X173915840Y-80473363D01*
X173925324Y-80450468D01*
X174004811Y-80258567D01*
X174004812Y-80258565D01*
X174006705Y-80253994D01*
X174040453Y-80113425D01*
X174060980Y-80027924D01*
X174060981Y-80027918D01*
X174062135Y-80023111D01*
X174080765Y-79786400D01*
X180174435Y-79786400D01*
X180193065Y-80023111D01*
X180194219Y-80027918D01*
X180194220Y-80027924D01*
X180214747Y-80113425D01*
X180248495Y-80253994D01*
X180250388Y-80258565D01*
X180250389Y-80258567D01*
X180329877Y-80450468D01*
X180339360Y-80473363D01*
X180341946Y-80477583D01*
X180460841Y-80671602D01*
X180460845Y-80671608D01*
X180463424Y-80675816D01*
X180617631Y-80856369D01*
X180798184Y-81010576D01*
X180802392Y-81013155D01*
X180802398Y-81013159D01*
X180996417Y-81132054D01*
X181000637Y-81134640D01*
X181005207Y-81136533D01*
X181005211Y-81136535D01*
X181172011Y-81205625D01*
X181220006Y-81225505D01*
X181300209Y-81244760D01*
X181446076Y-81279780D01*
X181446082Y-81279781D01*
X181450889Y-81280935D01*
X181687600Y-81299565D01*
X181924311Y-81280935D01*
X181929118Y-81279781D01*
X181929124Y-81279780D01*
X182074991Y-81244760D01*
X182155194Y-81225505D01*
X182203189Y-81205625D01*
X182369989Y-81136535D01*
X182369993Y-81136533D01*
X182374563Y-81134640D01*
X182378783Y-81132054D01*
X182572802Y-81013159D01*
X182572808Y-81013155D01*
X182577016Y-81010576D01*
X182757569Y-80856369D01*
X182911776Y-80675816D01*
X182914355Y-80671608D01*
X182914359Y-80671602D01*
X183033254Y-80477583D01*
X183035840Y-80473363D01*
X183045324Y-80450468D01*
X183124811Y-80258567D01*
X183124812Y-80258565D01*
X183126705Y-80253994D01*
X183160453Y-80113425D01*
X183180980Y-80027924D01*
X183180981Y-80027918D01*
X183182135Y-80023111D01*
X183200765Y-79786400D01*
X183182135Y-79549689D01*
X183174429Y-79517589D01*
X183127860Y-79323618D01*
X183126705Y-79318806D01*
X183124811Y-79314233D01*
X183037735Y-79104011D01*
X183037733Y-79104007D01*
X183035840Y-79099437D01*
X183007568Y-79053302D01*
X182914359Y-78901198D01*
X182914355Y-78901192D01*
X182911776Y-78896984D01*
X182757569Y-78716431D01*
X182577016Y-78562224D01*
X182572808Y-78559645D01*
X182572802Y-78559641D01*
X182378783Y-78440746D01*
X182374563Y-78438160D01*
X182369993Y-78436267D01*
X182369989Y-78436265D01*
X182159767Y-78349189D01*
X182159765Y-78349188D01*
X182155194Y-78347295D01*
X182048650Y-78321716D01*
X181929124Y-78293020D01*
X181929118Y-78293019D01*
X181924311Y-78291865D01*
X181687600Y-78273235D01*
X181450889Y-78291865D01*
X181446082Y-78293019D01*
X181446076Y-78293020D01*
X181326550Y-78321716D01*
X181220006Y-78347295D01*
X181215435Y-78349188D01*
X181215433Y-78349189D01*
X181005211Y-78436265D01*
X181005207Y-78436267D01*
X181000637Y-78438160D01*
X180996417Y-78440746D01*
X180802398Y-78559641D01*
X180802392Y-78559645D01*
X180798184Y-78562224D01*
X180617631Y-78716431D01*
X180463424Y-78896984D01*
X180460845Y-78901192D01*
X180460841Y-78901198D01*
X180367632Y-79053302D01*
X180339360Y-79099437D01*
X180337467Y-79104007D01*
X180337465Y-79104011D01*
X180250389Y-79314233D01*
X180248495Y-79318806D01*
X180247340Y-79323618D01*
X180200772Y-79517589D01*
X180193065Y-79549689D01*
X180174435Y-79786400D01*
X174080765Y-79786400D01*
X174062135Y-79549689D01*
X174054429Y-79517589D01*
X174007860Y-79323618D01*
X174006705Y-79318806D01*
X174004811Y-79314233D01*
X173917735Y-79104011D01*
X173917733Y-79104007D01*
X173915840Y-79099437D01*
X173887568Y-79053302D01*
X173794359Y-78901198D01*
X173794355Y-78901192D01*
X173791776Y-78896984D01*
X173637569Y-78716431D01*
X173457016Y-78562224D01*
X173452808Y-78559645D01*
X173452802Y-78559641D01*
X173258783Y-78440746D01*
X173254563Y-78438160D01*
X173249993Y-78436267D01*
X173249989Y-78436265D01*
X173039767Y-78349189D01*
X173039765Y-78349188D01*
X173035194Y-78347295D01*
X172928650Y-78321716D01*
X172809124Y-78293020D01*
X172809118Y-78293019D01*
X172804311Y-78291865D01*
X172567600Y-78273235D01*
X172330889Y-78291865D01*
X172326082Y-78293019D01*
X172326076Y-78293020D01*
X172206550Y-78321716D01*
X172100006Y-78347295D01*
X172095435Y-78349188D01*
X172095433Y-78349189D01*
X171885211Y-78436265D01*
X171885207Y-78436267D01*
X171880637Y-78438160D01*
X171876417Y-78440746D01*
X171682398Y-78559641D01*
X171682392Y-78559645D01*
X171678184Y-78562224D01*
X171497631Y-78716431D01*
X171343424Y-78896984D01*
X171340845Y-78901192D01*
X171340841Y-78901198D01*
X171247632Y-79053302D01*
X171219360Y-79099437D01*
X171217467Y-79104007D01*
X171217465Y-79104011D01*
X171130389Y-79314233D01*
X171128495Y-79318806D01*
X171127340Y-79323618D01*
X171080772Y-79517589D01*
X171073065Y-79549689D01*
X171054435Y-79786400D01*
X149111400Y-79786400D01*
X149111400Y-73281000D01*
X149131402Y-73212879D01*
X149185058Y-73166386D01*
X149237400Y-73155000D01*
X185992700Y-73155000D01*
X186060821Y-73175002D01*
G37*
%TD.AperFunction*%
%TD*%
%TA.AperFunction,Conductor*%
%TO.N,0V_(ISO)*%
G36*
X144481521Y-73175002D02*
G01*
X144528014Y-73228658D01*
X144539400Y-73281000D01*
X144539400Y-86177154D01*
X144519398Y-86245275D01*
X144465742Y-86291768D01*
X144395468Y-86301872D01*
X144345886Y-86283539D01*
X144328623Y-86272584D01*
X144289808Y-86247951D01*
X144129500Y-86190868D01*
X143960529Y-86170720D01*
X143953526Y-86171456D01*
X143953525Y-86171456D01*
X143798301Y-86187770D01*
X143798297Y-86187771D01*
X143791293Y-86188507D01*
X143784622Y-86190778D01*
X143636873Y-86241075D01*
X143636870Y-86241076D01*
X143630203Y-86243346D01*
X143624205Y-86247036D01*
X143624203Y-86247037D01*
X143491265Y-86328821D01*
X143491263Y-86328823D01*
X143485266Y-86332512D01*
X143480233Y-86337441D01*
X143393974Y-86421913D01*
X143363686Y-86451573D01*
X143359875Y-86457487D01*
X143359873Y-86457489D01*
X143289952Y-86565985D01*
X143271504Y-86594610D01*
X143213303Y-86754516D01*
X143191975Y-86923343D01*
X143208581Y-87092699D01*
X143210805Y-87099384D01*
X143210805Y-87099385D01*
X143213601Y-87107791D01*
X143262294Y-87254167D01*
X143265941Y-87260189D01*
X143265942Y-87260191D01*
X143341850Y-87385529D01*
X143350446Y-87399723D01*
X143468655Y-87522132D01*
X143533724Y-87564712D01*
X143603864Y-87610610D01*
X143611046Y-87615310D01*
X143617650Y-87617766D01*
X143617652Y-87617767D01*
X143654044Y-87631301D01*
X143770541Y-87674626D01*
X143939215Y-87697132D01*
X143946226Y-87696494D01*
X143946230Y-87696494D01*
X144101662Y-87682348D01*
X144108683Y-87681709D01*
X144115385Y-87679531D01*
X144115387Y-87679531D01*
X144263823Y-87631301D01*
X144263826Y-87631300D01*
X144270522Y-87629124D01*
X144276573Y-87625517D01*
X144276575Y-87625516D01*
X144348883Y-87582412D01*
X144417637Y-87564712D01*
X144485047Y-87586994D01*
X144529709Y-87642183D01*
X144539400Y-87690641D01*
X144539400Y-94679610D01*
X144519398Y-94747731D01*
X144502495Y-94768705D01*
X131241305Y-108029895D01*
X131178993Y-108063921D01*
X131152210Y-108066800D01*
X128589590Y-108066800D01*
X128521469Y-108046798D01*
X128500495Y-108029895D01*
X126113743Y-105643143D01*
X127393175Y-105643143D01*
X127409781Y-105812499D01*
X127463494Y-105973967D01*
X127467141Y-105979989D01*
X127467142Y-105979991D01*
X127480897Y-106002702D01*
X127551646Y-106119523D01*
X127669855Y-106241932D01*
X127675751Y-106245790D01*
X127774047Y-106310113D01*
X127812246Y-106335110D01*
X127818850Y-106337566D01*
X127818852Y-106337567D01*
X127855244Y-106351101D01*
X127971741Y-106394426D01*
X128140415Y-106416932D01*
X128147426Y-106416294D01*
X128147430Y-106416294D01*
X128302862Y-106402148D01*
X128309883Y-106401509D01*
X128316585Y-106399331D01*
X128316587Y-106399331D01*
X128465023Y-106351101D01*
X128465026Y-106351100D01*
X128471722Y-106348924D01*
X128617890Y-106261790D01*
X128622984Y-106256939D01*
X128622988Y-106256936D01*
X128690233Y-106192899D01*
X128741121Y-106144439D01*
X128835291Y-106002702D01*
X128895719Y-105843625D01*
X128919401Y-105675113D01*
X128919699Y-105653800D01*
X128900731Y-105484692D01*
X128844768Y-105323989D01*
X128838783Y-105314410D01*
X128816820Y-105279264D01*
X128754592Y-105179679D01*
X128634686Y-105058932D01*
X128618439Y-105048621D01*
X128564373Y-105014310D01*
X128491008Y-104967751D01*
X128330700Y-104910668D01*
X128161729Y-104890520D01*
X128154726Y-104891256D01*
X128154725Y-104891256D01*
X127999501Y-104907570D01*
X127999497Y-104907571D01*
X127992493Y-104908307D01*
X127985822Y-104910578D01*
X127838073Y-104960875D01*
X127838070Y-104960876D01*
X127831403Y-104963146D01*
X127825405Y-104966836D01*
X127825403Y-104966837D01*
X127692465Y-105048621D01*
X127692463Y-105048623D01*
X127686466Y-105052312D01*
X127564886Y-105171373D01*
X127472704Y-105314410D01*
X127414503Y-105474316D01*
X127393175Y-105643143D01*
X126113743Y-105643143D01*
X124854400Y-104383800D01*
X109740900Y-104383800D01*
X109672779Y-104363798D01*
X109626286Y-104310142D01*
X109614900Y-104257800D01*
X109614900Y-100182143D01*
X112534175Y-100182143D01*
X112550781Y-100351499D01*
X112604494Y-100512967D01*
X112608141Y-100518989D01*
X112608142Y-100518991D01*
X112654058Y-100594806D01*
X112692646Y-100658523D01*
X112810855Y-100780932D01*
X112953246Y-100874110D01*
X112959850Y-100876566D01*
X112959852Y-100876567D01*
X113032994Y-100903768D01*
X113112741Y-100933426D01*
X113281415Y-100955932D01*
X113288426Y-100955294D01*
X113288430Y-100955294D01*
X113443862Y-100941148D01*
X113450883Y-100940509D01*
X113457585Y-100938331D01*
X113457587Y-100938331D01*
X113606023Y-100890101D01*
X113606026Y-100890100D01*
X113612722Y-100887924D01*
X113758890Y-100800790D01*
X113763984Y-100795939D01*
X113763988Y-100795936D01*
X113831233Y-100731899D01*
X113882121Y-100683439D01*
X113976291Y-100541702D01*
X114036719Y-100382625D01*
X114060401Y-100214113D01*
X114060699Y-100192800D01*
X114041731Y-100023692D01*
X114037636Y-100011931D01*
X113993426Y-99884981D01*
X113985768Y-99862989D01*
X113979783Y-99853410D01*
X113925866Y-99767127D01*
X113895592Y-99718679D01*
X113868433Y-99691329D01*
X113805284Y-99627738D01*
X113775686Y-99597932D01*
X113769658Y-99594106D01*
X113703205Y-99551934D01*
X113632008Y-99506751D01*
X113471700Y-99449668D01*
X113302729Y-99429520D01*
X113295726Y-99430256D01*
X113295725Y-99430256D01*
X113140501Y-99446570D01*
X113140497Y-99446571D01*
X113133493Y-99447307D01*
X113126822Y-99449578D01*
X112979073Y-99499875D01*
X112979070Y-99499876D01*
X112972403Y-99502146D01*
X112966405Y-99505836D01*
X112966403Y-99505837D01*
X112833465Y-99587621D01*
X112833463Y-99587623D01*
X112827466Y-99591312D01*
X112785773Y-99632141D01*
X112718318Y-99698199D01*
X112705886Y-99710373D01*
X112702075Y-99716287D01*
X112702073Y-99716289D01*
X112617521Y-99847487D01*
X112613704Y-99853410D01*
X112607795Y-99869646D01*
X112558449Y-100005223D01*
X112555503Y-100013316D01*
X112534175Y-100182143D01*
X109614900Y-100182143D01*
X109614900Y-98620495D01*
X114494651Y-98620495D01*
X114494948Y-98625648D01*
X114494948Y-98625651D01*
X114502380Y-98754545D01*
X114507510Y-98843515D01*
X114508647Y-98848561D01*
X114508648Y-98848567D01*
X114520015Y-98899003D01*
X114556622Y-99061439D01*
X114610525Y-99194187D01*
X114636830Y-99258968D01*
X114640666Y-99268416D01*
X114643365Y-99272820D01*
X114749839Y-99446570D01*
X114757387Y-99458888D01*
X114903650Y-99627738D01*
X115075526Y-99770432D01*
X115268400Y-99883138D01*
X115477092Y-99962830D01*
X115482160Y-99963861D01*
X115482163Y-99963862D01*
X115589417Y-99985683D01*
X115695997Y-100007367D01*
X115701172Y-100007557D01*
X115701174Y-100007557D01*
X115914073Y-100015364D01*
X115914077Y-100015364D01*
X115919237Y-100015553D01*
X115924357Y-100014897D01*
X115924359Y-100014897D01*
X116135688Y-99987825D01*
X116135689Y-99987825D01*
X116140816Y-99987168D01*
X116145766Y-99985683D01*
X116349829Y-99924461D01*
X116349834Y-99924459D01*
X116354784Y-99922974D01*
X116555394Y-99824696D01*
X116737260Y-99694973D01*
X116845491Y-99587119D01*
X116907862Y-99553204D01*
X116978668Y-99558392D01*
X117035430Y-99601038D01*
X117052412Y-99632141D01*
X117074549Y-99691190D01*
X117096785Y-99750505D01*
X117184139Y-99867061D01*
X117300695Y-99954415D01*
X117437084Y-100005545D01*
X117499266Y-100012300D01*
X119295534Y-100012300D01*
X119357716Y-100005545D01*
X119494105Y-99954415D01*
X119610661Y-99867061D01*
X119698015Y-99750505D01*
X119749145Y-99614116D01*
X119755900Y-99551934D01*
X119755900Y-99528843D01*
X120466075Y-99528843D01*
X120482681Y-99698199D01*
X120536394Y-99859667D01*
X120540041Y-99865689D01*
X120540042Y-99865691D01*
X120593776Y-99954415D01*
X120624546Y-100005223D01*
X120742755Y-100127632D01*
X120885146Y-100220810D01*
X120891750Y-100223266D01*
X120891752Y-100223267D01*
X120964894Y-100250468D01*
X121044641Y-100280126D01*
X121213315Y-100302632D01*
X121220326Y-100301994D01*
X121220330Y-100301994D01*
X121382783Y-100287209D01*
X121383035Y-100289978D01*
X121441229Y-100294819D01*
X121497567Y-100338023D01*
X121521604Y-100404826D01*
X121514230Y-100455451D01*
X121466053Y-100587816D01*
X121444725Y-100756643D01*
X121461331Y-100925999D01*
X121463555Y-100932684D01*
X121463555Y-100932685D01*
X121470978Y-100955000D01*
X121515044Y-101087467D01*
X121518691Y-101093489D01*
X121518692Y-101093491D01*
X121572404Y-101182179D01*
X121603196Y-101233023D01*
X121721405Y-101355432D01*
X121863796Y-101448610D01*
X121870400Y-101451066D01*
X121870402Y-101451067D01*
X121906794Y-101464601D01*
X122023291Y-101507926D01*
X122191965Y-101530432D01*
X122198976Y-101529794D01*
X122198980Y-101529794D01*
X122354412Y-101515648D01*
X122361433Y-101515009D01*
X122368135Y-101512831D01*
X122368137Y-101512831D01*
X122516572Y-101464601D01*
X122523272Y-101462424D01*
X122525611Y-101461030D01*
X122594216Y-101451342D01*
X122658722Y-101480998D01*
X122696955Y-101540821D01*
X122700977Y-101591802D01*
X122694175Y-101645643D01*
X122710781Y-101814999D01*
X122764494Y-101976467D01*
X122768141Y-101982489D01*
X122768142Y-101982491D01*
X122797092Y-102030292D01*
X122852646Y-102122023D01*
X122970855Y-102244432D01*
X123113246Y-102337610D01*
X123119850Y-102340066D01*
X123119852Y-102340067D01*
X123156244Y-102353601D01*
X123272741Y-102396926D01*
X123441415Y-102419432D01*
X123448426Y-102418794D01*
X123448430Y-102418794D01*
X123603862Y-102404648D01*
X123610883Y-102404009D01*
X123617585Y-102401831D01*
X123617587Y-102401831D01*
X123766023Y-102353601D01*
X123766026Y-102353600D01*
X123772722Y-102351424D01*
X123918890Y-102264290D01*
X123923984Y-102259439D01*
X123923988Y-102259436D01*
X123998222Y-102188743D01*
X124042121Y-102146939D01*
X124136291Y-102005202D01*
X124196719Y-101846125D01*
X124220401Y-101677613D01*
X124220699Y-101656300D01*
X124201731Y-101487192D01*
X124145768Y-101326489D01*
X124139783Y-101316910D01*
X124102933Y-101257939D01*
X124055592Y-101182179D01*
X123935686Y-101061432D01*
X123792008Y-100970251D01*
X123631700Y-100913168D01*
X123462729Y-100893020D01*
X123455726Y-100893756D01*
X123455725Y-100893756D01*
X123300501Y-100910070D01*
X123300497Y-100910071D01*
X123293493Y-100910807D01*
X123132403Y-100965646D01*
X123131545Y-100963126D01*
X123073411Y-100972147D01*
X123008505Y-100943376D01*
X122969457Y-100884082D01*
X122965176Y-100829704D01*
X122970951Y-100788613D01*
X122971249Y-100767300D01*
X122952281Y-100598192D01*
X122896318Y-100437489D01*
X122890333Y-100427910D01*
X122834164Y-100338023D01*
X122806142Y-100293179D01*
X122794106Y-100281058D01*
X122723707Y-100210166D01*
X122686236Y-100172432D01*
X122542558Y-100081251D01*
X122382250Y-100024168D01*
X122213279Y-100004020D01*
X122206276Y-100004756D01*
X122206275Y-100004756D01*
X122156143Y-100010025D01*
X122053445Y-100020819D01*
X121983608Y-100008047D01*
X121931761Y-99959545D01*
X121914367Y-99890712D01*
X121922488Y-99850765D01*
X121966116Y-99735914D01*
X121968619Y-99729325D01*
X121992301Y-99560813D01*
X121992599Y-99539500D01*
X121973631Y-99370392D01*
X121917668Y-99209689D01*
X121911683Y-99200110D01*
X121889720Y-99164964D01*
X121827492Y-99065379D01*
X121707586Y-98944632D01*
X121691339Y-98934321D01*
X121646707Y-98905997D01*
X123859618Y-98905997D01*
X123876224Y-99075353D01*
X123929937Y-99236821D01*
X123933584Y-99242843D01*
X123933585Y-99242845D01*
X124010831Y-99370392D01*
X124018089Y-99382377D01*
X124136298Y-99504786D01*
X124185968Y-99537289D01*
X124268524Y-99591312D01*
X124278689Y-99597964D01*
X124285293Y-99600420D01*
X124285295Y-99600421D01*
X124321687Y-99613955D01*
X124438184Y-99657280D01*
X124606858Y-99679786D01*
X124613869Y-99679148D01*
X124613873Y-99679148D01*
X124769305Y-99665002D01*
X124776326Y-99664363D01*
X124783028Y-99662185D01*
X124783030Y-99662185D01*
X124931466Y-99613955D01*
X124931469Y-99613954D01*
X124938165Y-99611778D01*
X125084333Y-99524644D01*
X125089427Y-99519793D01*
X125089431Y-99519790D01*
X125163160Y-99449578D01*
X125207564Y-99407293D01*
X125243373Y-99353397D01*
X125259264Y-99329478D01*
X125301734Y-99265556D01*
X125362162Y-99106479D01*
X125385844Y-98937967D01*
X125386142Y-98916654D01*
X125367174Y-98747546D01*
X125311211Y-98586843D01*
X125305226Y-98577264D01*
X125283263Y-98542118D01*
X125221035Y-98442533D01*
X125101129Y-98321786D01*
X125084882Y-98311475D01*
X125034421Y-98279452D01*
X124957451Y-98230605D01*
X124797143Y-98173522D01*
X124628172Y-98153374D01*
X124621169Y-98154110D01*
X124621168Y-98154110D01*
X124465944Y-98170424D01*
X124465940Y-98170425D01*
X124458936Y-98171161D01*
X124452265Y-98173432D01*
X124304516Y-98223729D01*
X124304513Y-98223730D01*
X124297846Y-98226000D01*
X124291848Y-98229690D01*
X124291846Y-98229691D01*
X124158908Y-98311475D01*
X124158906Y-98311477D01*
X124152909Y-98315166D01*
X124031329Y-98434227D01*
X123939147Y-98577264D01*
X123880946Y-98737170D01*
X123859618Y-98905997D01*
X121646707Y-98905997D01*
X121635686Y-98899003D01*
X121563908Y-98853451D01*
X121403600Y-98796368D01*
X121234629Y-98776220D01*
X121227626Y-98776956D01*
X121227625Y-98776956D01*
X121072401Y-98793270D01*
X121072397Y-98793271D01*
X121065393Y-98794007D01*
X121058722Y-98796278D01*
X120910973Y-98846575D01*
X120910970Y-98846576D01*
X120904303Y-98848846D01*
X120898305Y-98852536D01*
X120898303Y-98852537D01*
X120765365Y-98934321D01*
X120765363Y-98934323D01*
X120759366Y-98938012D01*
X120637786Y-99057073D01*
X120633975Y-99062987D01*
X120633973Y-99062989D01*
X120601699Y-99113068D01*
X120545604Y-99200110D01*
X120487403Y-99360016D01*
X120466075Y-99528843D01*
X119755900Y-99528843D01*
X119755900Y-97755666D01*
X119749145Y-97693484D01*
X119698015Y-97557095D01*
X119610661Y-97440539D01*
X119494105Y-97353185D01*
X119375087Y-97308567D01*
X119318323Y-97265925D01*
X119293623Y-97199364D01*
X119308830Y-97130015D01*
X119330377Y-97101335D01*
X119431452Y-97000612D01*
X119438130Y-96992765D01*
X119562403Y-96819820D01*
X119567713Y-96810983D01*
X119662070Y-96620067D01*
X119665869Y-96610472D01*
X119727777Y-96406710D01*
X119729955Y-96396637D01*
X119731386Y-96385762D01*
X119729175Y-96371578D01*
X119716017Y-96367800D01*
X114540625Y-96367800D01*
X114527094Y-96371773D01*
X114525657Y-96381766D01*
X114555965Y-96516246D01*
X114559045Y-96526075D01*
X114639170Y-96723403D01*
X114643813Y-96732594D01*
X114755094Y-96914188D01*
X114761177Y-96922499D01*
X114900613Y-97083467D01*
X114907980Y-97090683D01*
X115071834Y-97226716D01*
X115080281Y-97232631D01*
X115149369Y-97273003D01*
X115198093Y-97324642D01*
X115211164Y-97394425D01*
X115184433Y-97460196D01*
X115143984Y-97493552D01*
X115131007Y-97500307D01*
X115126874Y-97503410D01*
X115126871Y-97503412D01*
X114972435Y-97619366D01*
X114952365Y-97634435D01*
X114912925Y-97675707D01*
X114858680Y-97732471D01*
X114798029Y-97795938D01*
X114672143Y-97980480D01*
X114669964Y-97985175D01*
X114591889Y-98153374D01*
X114578088Y-98183105D01*
X114518389Y-98398370D01*
X114494651Y-98620495D01*
X109614900Y-98620495D01*
X109614900Y-96237376D01*
X126765942Y-96237376D01*
X126782548Y-96406732D01*
X126836261Y-96568200D01*
X126839908Y-96574222D01*
X126839909Y-96574224D01*
X126862761Y-96611956D01*
X126924413Y-96713756D01*
X127042622Y-96836165D01*
X127185013Y-96929343D01*
X127191617Y-96931799D01*
X127191625Y-96931803D01*
X127248167Y-96952831D01*
X127305044Y-96995323D01*
X127329646Y-97058632D01*
X127333748Y-97100466D01*
X127387461Y-97261934D01*
X127391108Y-97267956D01*
X127391109Y-97267958D01*
X127467701Y-97394425D01*
X127475613Y-97407490D01*
X127593822Y-97529899D01*
X127736213Y-97623077D01*
X127742817Y-97625533D01*
X127742819Y-97625534D01*
X127779211Y-97639068D01*
X127895708Y-97682393D01*
X128064382Y-97704899D01*
X128071393Y-97704261D01*
X128071397Y-97704261D01*
X128226829Y-97690115D01*
X128233850Y-97689476D01*
X128240552Y-97687298D01*
X128240554Y-97687298D01*
X128388990Y-97639068D01*
X128388993Y-97639067D01*
X128395689Y-97636891D01*
X128472096Y-97591343D01*
X130822175Y-97591343D01*
X130838781Y-97760699D01*
X130892494Y-97922167D01*
X130896141Y-97928189D01*
X130896142Y-97928191D01*
X130927810Y-97980480D01*
X130980646Y-98067723D01*
X131098855Y-98190132D01*
X131241246Y-98283310D01*
X131247850Y-98285766D01*
X131247852Y-98285767D01*
X131284244Y-98299301D01*
X131400741Y-98342626D01*
X131569415Y-98365132D01*
X131576426Y-98364494D01*
X131576430Y-98364494D01*
X131731862Y-98350348D01*
X131738883Y-98349709D01*
X131745585Y-98347531D01*
X131745587Y-98347531D01*
X131894023Y-98299301D01*
X131894026Y-98299300D01*
X131900722Y-98297124D01*
X132046890Y-98209990D01*
X132051984Y-98205139D01*
X132051988Y-98205136D01*
X132119233Y-98141099D01*
X132170121Y-98092639D01*
X132264291Y-97950902D01*
X132324719Y-97791825D01*
X132348401Y-97623313D01*
X132348699Y-97602000D01*
X132347504Y-97591343D01*
X135571975Y-97591343D01*
X135588581Y-97760699D01*
X135642294Y-97922167D01*
X135645941Y-97928189D01*
X135645942Y-97928191D01*
X135677610Y-97980480D01*
X135730446Y-98067723D01*
X135848655Y-98190132D01*
X135991046Y-98283310D01*
X135997650Y-98285766D01*
X135997652Y-98285767D01*
X136034044Y-98299301D01*
X136150541Y-98342626D01*
X136319215Y-98365132D01*
X136326226Y-98364494D01*
X136326230Y-98364494D01*
X136481662Y-98350348D01*
X136488683Y-98349709D01*
X136495385Y-98347531D01*
X136495387Y-98347531D01*
X136643823Y-98299301D01*
X136643826Y-98299300D01*
X136650522Y-98297124D01*
X136796690Y-98209990D01*
X136801784Y-98205139D01*
X136801788Y-98205136D01*
X136869033Y-98141099D01*
X136919921Y-98092639D01*
X137014091Y-97950902D01*
X137074519Y-97791825D01*
X137098201Y-97623313D01*
X137098499Y-97602000D01*
X137079531Y-97432892D01*
X137023568Y-97272189D01*
X137017583Y-97262610D01*
X136978061Y-97199364D01*
X136933392Y-97127879D01*
X136900529Y-97094785D01*
X136818448Y-97012129D01*
X136813486Y-97007132D01*
X136803213Y-97000612D01*
X136704282Y-96937829D01*
X136669808Y-96915951D01*
X136509500Y-96858868D01*
X136340529Y-96838720D01*
X136333526Y-96839456D01*
X136333525Y-96839456D01*
X136178301Y-96855770D01*
X136178297Y-96855771D01*
X136171293Y-96856507D01*
X136164622Y-96858778D01*
X136016873Y-96909075D01*
X136016870Y-96909076D01*
X136010203Y-96911346D01*
X136004205Y-96915036D01*
X136004203Y-96915037D01*
X135871265Y-96996821D01*
X135871263Y-96996823D01*
X135865266Y-97000512D01*
X135860233Y-97005441D01*
X135770355Y-97093457D01*
X135743686Y-97119573D01*
X135739875Y-97125487D01*
X135739873Y-97125489D01*
X135655321Y-97256687D01*
X135651504Y-97262610D01*
X135593303Y-97422516D01*
X135571975Y-97591343D01*
X132347504Y-97591343D01*
X132329731Y-97432892D01*
X132273768Y-97272189D01*
X132267783Y-97262610D01*
X132228261Y-97199364D01*
X132183592Y-97127879D01*
X132150729Y-97094785D01*
X132068648Y-97012129D01*
X132063686Y-97007132D01*
X132053413Y-97000612D01*
X131954482Y-96937829D01*
X131920008Y-96915951D01*
X131759700Y-96858868D01*
X131590729Y-96838720D01*
X131583726Y-96839456D01*
X131583725Y-96839456D01*
X131428501Y-96855770D01*
X131428497Y-96855771D01*
X131421493Y-96856507D01*
X131414822Y-96858778D01*
X131267073Y-96909075D01*
X131267070Y-96909076D01*
X131260403Y-96911346D01*
X131254405Y-96915036D01*
X131254403Y-96915037D01*
X131121465Y-96996821D01*
X131121463Y-96996823D01*
X131115466Y-97000512D01*
X131110433Y-97005441D01*
X131020555Y-97093457D01*
X130993886Y-97119573D01*
X130990075Y-97125487D01*
X130990073Y-97125489D01*
X130905521Y-97256687D01*
X130901704Y-97262610D01*
X130843503Y-97422516D01*
X130822175Y-97591343D01*
X128472096Y-97591343D01*
X128541857Y-97549757D01*
X128546951Y-97544906D01*
X128546955Y-97544903D01*
X128614200Y-97480866D01*
X128665088Y-97432406D01*
X128688508Y-97397157D01*
X128747047Y-97309048D01*
X128759258Y-97290669D01*
X128819686Y-97131592D01*
X128843368Y-96963080D01*
X128843666Y-96941767D01*
X128824698Y-96772659D01*
X128768735Y-96611956D01*
X128678559Y-96467646D01*
X128558653Y-96346899D01*
X128524991Y-96325536D01*
X128493362Y-96305464D01*
X128414975Y-96255718D01*
X128362440Y-96237011D01*
X128304975Y-96195317D01*
X128279491Y-96132356D01*
X128274283Y-96085924D01*
X128273498Y-96078925D01*
X128270844Y-96071302D01*
X128219853Y-95924879D01*
X128217535Y-95918222D01*
X128211550Y-95908643D01*
X128172872Y-95846747D01*
X128127359Y-95773912D01*
X128065623Y-95711743D01*
X136333975Y-95711743D01*
X136350581Y-95881099D01*
X136404294Y-96042567D01*
X136407941Y-96048589D01*
X136407942Y-96048591D01*
X136424263Y-96075539D01*
X136492446Y-96188123D01*
X136610655Y-96310532D01*
X136616551Y-96314390D01*
X136725619Y-96385762D01*
X136753046Y-96403710D01*
X136759650Y-96406166D01*
X136759652Y-96406167D01*
X136796044Y-96419701D01*
X136912541Y-96463026D01*
X137081215Y-96485532D01*
X137088226Y-96484894D01*
X137088230Y-96484894D01*
X137243662Y-96470748D01*
X137250683Y-96470109D01*
X137257385Y-96467931D01*
X137257387Y-96467931D01*
X137405823Y-96419701D01*
X137405826Y-96419700D01*
X137412522Y-96417524D01*
X137558690Y-96330390D01*
X137563784Y-96325539D01*
X137563788Y-96325536D01*
X137633135Y-96259497D01*
X137681921Y-96213039D01*
X137693696Y-96195317D01*
X137772190Y-96077173D01*
X137776091Y-96071302D01*
X137836519Y-95912225D01*
X137860201Y-95743713D01*
X137860499Y-95722400D01*
X137841531Y-95553292D01*
X137785568Y-95392589D01*
X137779583Y-95383010D01*
X137757620Y-95347864D01*
X137695392Y-95248279D01*
X137575486Y-95127532D01*
X137566346Y-95121731D01*
X137490347Y-95073501D01*
X137431808Y-95036351D01*
X137271500Y-94979268D01*
X137102529Y-94959120D01*
X137095526Y-94959856D01*
X137095525Y-94959856D01*
X136940301Y-94976170D01*
X136940297Y-94976171D01*
X136933293Y-94976907D01*
X136926622Y-94979178D01*
X136778873Y-95029475D01*
X136778870Y-95029476D01*
X136772203Y-95031746D01*
X136766205Y-95035436D01*
X136766203Y-95035437D01*
X136633265Y-95117221D01*
X136633263Y-95117223D01*
X136627266Y-95120912D01*
X136505686Y-95239973D01*
X136501875Y-95245887D01*
X136501873Y-95245889D01*
X136480820Y-95278557D01*
X136413504Y-95383010D01*
X136411094Y-95389632D01*
X136368279Y-95507266D01*
X136355303Y-95542916D01*
X136333975Y-95711743D01*
X128065623Y-95711743D01*
X128007453Y-95653165D01*
X127991206Y-95642854D01*
X127952573Y-95618337D01*
X127863775Y-95561984D01*
X127703467Y-95504901D01*
X127534496Y-95484753D01*
X127527493Y-95485489D01*
X127527492Y-95485489D01*
X127372268Y-95501803D01*
X127372264Y-95501804D01*
X127365260Y-95502540D01*
X127358589Y-95504811D01*
X127210840Y-95555108D01*
X127210837Y-95555109D01*
X127204170Y-95557379D01*
X127198172Y-95561069D01*
X127198170Y-95561070D01*
X127065232Y-95642854D01*
X127065230Y-95642856D01*
X127059233Y-95646545D01*
X126937653Y-95765606D01*
X126933842Y-95771520D01*
X126933840Y-95771522D01*
X126884564Y-95847983D01*
X126845471Y-95908643D01*
X126787270Y-96068549D01*
X126765942Y-96237376D01*
X109614900Y-96237376D01*
X109614900Y-93540495D01*
X114494651Y-93540495D01*
X114494948Y-93545648D01*
X114494948Y-93545651D01*
X114504903Y-93718300D01*
X114507510Y-93763515D01*
X114508647Y-93768561D01*
X114508648Y-93768567D01*
X114510033Y-93774712D01*
X114556622Y-93981439D01*
X114640666Y-94188416D01*
X114682022Y-94255903D01*
X114754691Y-94374488D01*
X114757387Y-94378888D01*
X114903650Y-94547738D01*
X115075526Y-94690432D01*
X115123583Y-94718514D01*
X115149355Y-94733574D01*
X115198079Y-94785212D01*
X115211150Y-94854995D01*
X115184419Y-94920767D01*
X115143962Y-94954127D01*
X115135857Y-94958346D01*
X115127138Y-94963836D01*
X114956833Y-95091705D01*
X114949126Y-95098548D01*
X114801990Y-95252517D01*
X114795504Y-95260527D01*
X114675498Y-95436449D01*
X114670400Y-95445423D01*
X114580738Y-95638583D01*
X114577175Y-95648270D01*
X114521789Y-95847983D01*
X114523312Y-95856407D01*
X114535692Y-95859800D01*
X119715744Y-95859800D01*
X119729275Y-95855827D01*
X119730580Y-95846747D01*
X119688614Y-95679675D01*
X119685294Y-95669924D01*
X119600372Y-95474614D01*
X119595505Y-95465539D01*
X119479826Y-95286726D01*
X119473536Y-95278557D01*
X119330206Y-95121040D01*
X119322673Y-95114015D01*
X119155539Y-94982022D01*
X119146956Y-94976320D01*
X119110002Y-94955920D01*
X119060031Y-94905487D01*
X119045259Y-94836045D01*
X119070375Y-94769639D01*
X119097727Y-94743032D01*
X119163149Y-94696367D01*
X119277260Y-94614973D01*
X119435496Y-94457289D01*
X119494994Y-94374489D01*
X119501422Y-94365543D01*
X138492975Y-94365543D01*
X138509581Y-94534899D01*
X138563294Y-94696367D01*
X138566941Y-94702389D01*
X138566942Y-94702391D01*
X138617101Y-94785212D01*
X138651446Y-94841923D01*
X138769655Y-94964332D01*
X138787975Y-94976320D01*
X138885487Y-95040130D01*
X138912046Y-95057510D01*
X138918650Y-95059966D01*
X138918652Y-95059967D01*
X138955044Y-95073501D01*
X139071541Y-95116826D01*
X139240215Y-95139332D01*
X139247226Y-95138694D01*
X139247230Y-95138694D01*
X139402662Y-95124548D01*
X139409683Y-95123909D01*
X139416385Y-95121731D01*
X139416387Y-95121731D01*
X139564823Y-95073501D01*
X139564826Y-95073500D01*
X139571522Y-95071324D01*
X139717690Y-94984190D01*
X139722784Y-94979339D01*
X139722788Y-94979336D01*
X139800336Y-94905487D01*
X139840921Y-94866839D01*
X139935091Y-94725102D01*
X139995519Y-94566025D01*
X140019201Y-94397513D01*
X140019256Y-94393567D01*
X140019446Y-94391101D01*
X140044618Y-94324717D01*
X140101685Y-94282480D01*
X140147682Y-94274807D01*
X140154615Y-94275732D01*
X140161626Y-94275094D01*
X140161631Y-94275094D01*
X140317062Y-94260948D01*
X140324083Y-94260309D01*
X140330785Y-94258131D01*
X140330787Y-94258131D01*
X140479223Y-94209901D01*
X140479226Y-94209900D01*
X140485922Y-94207724D01*
X140632090Y-94120590D01*
X140637184Y-94115739D01*
X140637188Y-94115736D01*
X140720068Y-94036810D01*
X140755321Y-94003239D01*
X140773156Y-93976396D01*
X140802406Y-93932371D01*
X140849491Y-93861502D01*
X140909919Y-93702425D01*
X140933601Y-93533913D01*
X140933899Y-93512600D01*
X140914931Y-93343492D01*
X140907972Y-93323507D01*
X140881657Y-93247943D01*
X142633175Y-93247943D01*
X142649781Y-93417299D01*
X142703494Y-93578767D01*
X142707141Y-93584789D01*
X142707142Y-93584791D01*
X142782375Y-93709014D01*
X142791646Y-93724323D01*
X142909855Y-93846732D01*
X143052246Y-93939910D01*
X143058850Y-93942366D01*
X143058852Y-93942367D01*
X143095244Y-93955901D01*
X143211741Y-93999226D01*
X143380415Y-94021732D01*
X143387426Y-94021094D01*
X143387430Y-94021094D01*
X143542862Y-94006948D01*
X143549883Y-94006309D01*
X143556585Y-94004131D01*
X143556587Y-94004131D01*
X143705023Y-93955901D01*
X143705026Y-93955900D01*
X143711722Y-93953724D01*
X143857890Y-93866590D01*
X143862984Y-93861739D01*
X143862988Y-93861736D01*
X143930233Y-93797699D01*
X143981121Y-93749239D01*
X144007847Y-93709014D01*
X144059128Y-93631829D01*
X144075291Y-93607502D01*
X144135719Y-93448425D01*
X144159401Y-93279913D01*
X144159699Y-93258600D01*
X144140731Y-93089492D01*
X144084768Y-92928789D01*
X144080982Y-92922729D01*
X144023243Y-92830330D01*
X143994592Y-92784479D01*
X143978858Y-92768634D01*
X143879648Y-92668729D01*
X143874686Y-92663732D01*
X143858439Y-92653421D01*
X143743801Y-92580670D01*
X143731008Y-92572551D01*
X143570700Y-92515468D01*
X143401729Y-92495320D01*
X143394726Y-92496056D01*
X143394725Y-92496056D01*
X143239501Y-92512370D01*
X143239497Y-92512371D01*
X143232493Y-92513107D01*
X143225822Y-92515378D01*
X143078073Y-92565675D01*
X143078070Y-92565676D01*
X143071403Y-92567946D01*
X143065405Y-92571636D01*
X143065403Y-92571637D01*
X142932465Y-92653421D01*
X142932463Y-92653423D01*
X142926466Y-92657112D01*
X142866395Y-92715938D01*
X142812585Y-92768634D01*
X142804886Y-92776173D01*
X142801075Y-92782087D01*
X142801073Y-92782089D01*
X142717923Y-92911112D01*
X142712704Y-92919210D01*
X142654503Y-93079116D01*
X142633175Y-93247943D01*
X140881657Y-93247943D01*
X140858968Y-93182789D01*
X140852983Y-93173210D01*
X140825828Y-93129754D01*
X140768792Y-93038479D01*
X140648886Y-92917732D01*
X140632639Y-92907421D01*
X140575018Y-92870854D01*
X140505208Y-92826551D01*
X140344900Y-92769468D01*
X140175929Y-92749320D01*
X140168926Y-92750056D01*
X140168925Y-92750056D01*
X140013701Y-92766370D01*
X140013697Y-92766371D01*
X140006693Y-92767107D01*
X140000022Y-92769378D01*
X139852273Y-92819675D01*
X139852270Y-92819676D01*
X139845603Y-92821946D01*
X139839605Y-92825636D01*
X139839603Y-92825637D01*
X139706665Y-92907421D01*
X139706663Y-92907423D01*
X139700666Y-92911112D01*
X139579086Y-93030173D01*
X139575275Y-93036087D01*
X139575273Y-93036089D01*
X139535110Y-93098410D01*
X139486904Y-93173210D01*
X139428703Y-93333116D01*
X139407375Y-93501943D01*
X139404819Y-93501620D01*
X139387370Y-93558106D01*
X139333069Y-93603843D01*
X139275578Y-93612407D01*
X139275568Y-93613803D01*
X139268522Y-93613754D01*
X139261529Y-93612920D01*
X139254526Y-93613656D01*
X139254525Y-93613656D01*
X139099301Y-93629970D01*
X139099297Y-93629971D01*
X139092293Y-93630707D01*
X139085622Y-93632978D01*
X138937873Y-93683275D01*
X138937870Y-93683276D01*
X138931203Y-93685546D01*
X138925205Y-93689236D01*
X138925203Y-93689237D01*
X138792265Y-93771021D01*
X138792263Y-93771023D01*
X138786266Y-93774712D01*
X138781233Y-93779641D01*
X138691645Y-93867373D01*
X138664686Y-93893773D01*
X138660875Y-93899687D01*
X138660873Y-93899689D01*
X138605104Y-93986225D01*
X138572504Y-94036810D01*
X138514303Y-94196716D01*
X138492975Y-94365543D01*
X119501422Y-94365543D01*
X119562835Y-94280077D01*
X119565853Y-94275877D01*
X119573232Y-94260948D01*
X119662536Y-94080253D01*
X119662537Y-94080251D01*
X119664830Y-94075611D01*
X119729770Y-93861869D01*
X119758929Y-93640390D01*
X119759894Y-93600914D01*
X119760474Y-93577165D01*
X119760474Y-93577161D01*
X119760556Y-93573800D01*
X119742252Y-93351161D01*
X119687831Y-93134502D01*
X119598754Y-92929640D01*
X119559306Y-92868662D01*
X119480222Y-92746417D01*
X119480220Y-92746414D01*
X119477414Y-92742077D01*
X119327070Y-92576851D01*
X119323019Y-92573652D01*
X119323015Y-92573648D01*
X119155814Y-92441600D01*
X119155810Y-92441598D01*
X119151759Y-92438398D01*
X118956189Y-92330438D01*
X118951320Y-92328714D01*
X118951316Y-92328712D01*
X118750487Y-92257595D01*
X118750483Y-92257594D01*
X118745612Y-92255869D01*
X118740519Y-92254962D01*
X118740516Y-92254961D01*
X118530773Y-92217600D01*
X118530767Y-92217599D01*
X118525684Y-92216694D01*
X118451852Y-92215792D01*
X118307481Y-92214028D01*
X118307479Y-92214028D01*
X118302311Y-92213965D01*
X118081491Y-92247755D01*
X117869156Y-92317157D01*
X117671007Y-92420307D01*
X117666874Y-92423410D01*
X117666871Y-92423412D01*
X117545375Y-92514634D01*
X117492365Y-92554435D01*
X117338029Y-92715938D01*
X117230601Y-92873421D01*
X117175693Y-92918421D01*
X117105168Y-92926592D01*
X117041421Y-92895338D01*
X117020724Y-92870854D01*
X116940222Y-92746417D01*
X116940220Y-92746414D01*
X116937414Y-92742077D01*
X116787070Y-92576851D01*
X116783019Y-92573652D01*
X116783015Y-92573648D01*
X116615814Y-92441600D01*
X116615810Y-92441598D01*
X116611759Y-92438398D01*
X116416189Y-92330438D01*
X116411320Y-92328714D01*
X116411316Y-92328712D01*
X116210487Y-92257595D01*
X116210483Y-92257594D01*
X116205612Y-92255869D01*
X116200519Y-92254962D01*
X116200516Y-92254961D01*
X115990773Y-92217600D01*
X115990767Y-92217599D01*
X115985684Y-92216694D01*
X115911852Y-92215792D01*
X115767481Y-92214028D01*
X115767479Y-92214028D01*
X115762311Y-92213965D01*
X115541491Y-92247755D01*
X115329156Y-92317157D01*
X115131007Y-92420307D01*
X115126874Y-92423410D01*
X115126871Y-92423412D01*
X115005375Y-92514634D01*
X114952365Y-92554435D01*
X114798029Y-92715938D01*
X114795120Y-92720203D01*
X114795114Y-92720211D01*
X114747198Y-92790454D01*
X114672143Y-92900480D01*
X114625116Y-93001792D01*
X114585979Y-93086106D01*
X114578088Y-93103105D01*
X114518389Y-93318370D01*
X114494651Y-93540495D01*
X109614900Y-93540495D01*
X109614900Y-90630643D01*
X118655575Y-90630643D01*
X118672181Y-90799999D01*
X118674405Y-90806684D01*
X118674405Y-90806685D01*
X118688525Y-90849130D01*
X118725894Y-90961467D01*
X118729541Y-90967489D01*
X118729542Y-90967491D01*
X118807123Y-91095591D01*
X118814046Y-91107023D01*
X118932255Y-91229432D01*
X119074646Y-91322610D01*
X119081250Y-91325066D01*
X119081252Y-91325067D01*
X119117644Y-91338601D01*
X119234141Y-91381926D01*
X119402815Y-91404432D01*
X119409826Y-91403794D01*
X119409830Y-91403794D01*
X119565262Y-91389648D01*
X119572283Y-91389009D01*
X119578985Y-91386831D01*
X119578987Y-91386831D01*
X119727423Y-91338601D01*
X119727426Y-91338600D01*
X119734122Y-91336424D01*
X119880290Y-91249290D01*
X119885384Y-91244439D01*
X119885388Y-91244436D01*
X119952633Y-91180399D01*
X120003521Y-91131939D01*
X120012582Y-91118302D01*
X120093790Y-90996073D01*
X120097691Y-90990202D01*
X120158119Y-90831125D01*
X120168291Y-90758743D01*
X128180575Y-90758743D01*
X128197181Y-90928099D01*
X128199405Y-90934784D01*
X128199405Y-90934785D01*
X128205213Y-90952245D01*
X128250894Y-91089567D01*
X128254541Y-91095589D01*
X128254542Y-91095591D01*
X128322769Y-91208246D01*
X128339046Y-91235123D01*
X128457255Y-91357532D01*
X128599646Y-91450710D01*
X128606250Y-91453166D01*
X128606252Y-91453167D01*
X128642644Y-91466701D01*
X128759141Y-91510026D01*
X128927815Y-91532532D01*
X128934826Y-91531894D01*
X128934830Y-91531894D01*
X129090262Y-91517748D01*
X129097283Y-91517109D01*
X129103985Y-91514931D01*
X129103987Y-91514931D01*
X129252423Y-91466701D01*
X129252426Y-91466700D01*
X129259122Y-91464524D01*
X129405290Y-91377390D01*
X129410384Y-91372539D01*
X129410388Y-91372536D01*
X129477633Y-91308499D01*
X129528521Y-91260039D01*
X129552224Y-91224364D01*
X129610402Y-91136798D01*
X129622691Y-91118302D01*
X129683119Y-90959225D01*
X129706801Y-90790713D01*
X129707099Y-90769400D01*
X129688131Y-90600292D01*
X129675550Y-90564163D01*
X129645959Y-90479191D01*
X129632168Y-90439589D01*
X129626183Y-90430010D01*
X129585664Y-90365168D01*
X129541992Y-90295279D01*
X129422086Y-90174532D01*
X129405839Y-90164221D01*
X129367206Y-90139704D01*
X129278408Y-90083351D01*
X129118100Y-90026268D01*
X128949129Y-90006120D01*
X128942126Y-90006856D01*
X128942125Y-90006856D01*
X128786901Y-90023170D01*
X128786897Y-90023171D01*
X128779893Y-90023907D01*
X128773222Y-90026178D01*
X128625473Y-90076475D01*
X128625470Y-90076476D01*
X128618803Y-90078746D01*
X128612805Y-90082436D01*
X128612803Y-90082437D01*
X128479865Y-90164221D01*
X128479863Y-90164223D01*
X128473866Y-90167912D01*
X128352286Y-90286973D01*
X128348475Y-90292887D01*
X128348473Y-90292889D01*
X128294977Y-90375898D01*
X128260104Y-90430010D01*
X128201903Y-90589916D01*
X128180575Y-90758743D01*
X120168291Y-90758743D01*
X120181801Y-90662613D01*
X120182099Y-90641300D01*
X120163131Y-90472192D01*
X120107168Y-90311489D01*
X120101183Y-90301910D01*
X120055811Y-90229302D01*
X120016992Y-90167179D01*
X119897086Y-90046432D01*
X119880839Y-90036121D01*
X119834724Y-90006856D01*
X119753408Y-89955251D01*
X119593100Y-89898168D01*
X119424129Y-89878020D01*
X119417126Y-89878756D01*
X119417125Y-89878756D01*
X119261901Y-89895070D01*
X119261897Y-89895071D01*
X119254893Y-89895807D01*
X119248222Y-89898078D01*
X119100473Y-89948375D01*
X119100470Y-89948376D01*
X119093803Y-89950646D01*
X119087805Y-89954336D01*
X119087803Y-89954337D01*
X118954865Y-90036121D01*
X118954863Y-90036123D01*
X118948866Y-90039812D01*
X118827286Y-90158873D01*
X118823475Y-90164787D01*
X118823473Y-90164789D01*
X118747904Y-90282048D01*
X118735104Y-90301910D01*
X118676903Y-90461816D01*
X118655575Y-90630643D01*
X109614900Y-90630643D01*
X109614900Y-87939343D01*
X119163575Y-87939343D01*
X119180181Y-88108699D01*
X119233894Y-88270167D01*
X119237541Y-88276189D01*
X119237542Y-88276191D01*
X119262690Y-88317714D01*
X119322046Y-88415723D01*
X119440255Y-88538132D01*
X119582646Y-88631310D01*
X119589250Y-88633766D01*
X119589252Y-88633767D01*
X119625644Y-88647301D01*
X119742141Y-88690626D01*
X119910815Y-88713132D01*
X119917826Y-88712494D01*
X119917830Y-88712494D01*
X120073262Y-88698348D01*
X120080283Y-88697709D01*
X120086985Y-88695531D01*
X120086987Y-88695531D01*
X120235423Y-88647301D01*
X120235426Y-88647300D01*
X120242122Y-88645124D01*
X120388290Y-88557990D01*
X120393384Y-88553139D01*
X120393388Y-88553136D01*
X120491013Y-88460168D01*
X120511521Y-88440639D01*
X120518569Y-88430032D01*
X120558606Y-88369770D01*
X120605691Y-88298902D01*
X120666119Y-88139825D01*
X120671406Y-88102205D01*
X123887912Y-88102205D01*
X123904518Y-88271561D01*
X123906742Y-88278246D01*
X123906742Y-88278247D01*
X123931177Y-88351701D01*
X123958231Y-88433029D01*
X123961878Y-88439051D01*
X123961879Y-88439053D01*
X124030971Y-88553136D01*
X124046383Y-88578585D01*
X124164592Y-88700994D01*
X124191164Y-88718382D01*
X124285580Y-88780166D01*
X124306983Y-88794172D01*
X124313587Y-88796628D01*
X124313589Y-88796629D01*
X124349981Y-88810163D01*
X124466478Y-88853488D01*
X124635152Y-88875994D01*
X124642163Y-88875356D01*
X124642167Y-88875356D01*
X124797599Y-88861210D01*
X124804620Y-88860571D01*
X124811322Y-88858393D01*
X124811324Y-88858393D01*
X124959760Y-88810163D01*
X124959763Y-88810162D01*
X124966459Y-88807986D01*
X125060137Y-88752143D01*
X132676375Y-88752143D01*
X132692981Y-88921499D01*
X132746694Y-89082967D01*
X132750341Y-89088989D01*
X132750342Y-89088991D01*
X132764097Y-89111702D01*
X132834846Y-89228523D01*
X132952521Y-89350379D01*
X132953055Y-89350932D01*
X132952958Y-89351026D01*
X132990870Y-89407154D01*
X132992493Y-89478132D01*
X132976728Y-89513662D01*
X132962924Y-89535082D01*
X132959104Y-89541010D01*
X132900903Y-89700916D01*
X132879575Y-89869743D01*
X132896181Y-90039099D01*
X132949894Y-90200567D01*
X132953541Y-90206589D01*
X132953542Y-90206591D01*
X133013452Y-90305513D01*
X133038046Y-90346123D01*
X133156255Y-90468532D01*
X133298646Y-90561710D01*
X133343597Y-90578427D01*
X133400470Y-90620918D01*
X133425344Y-90687415D01*
X133410319Y-90756803D01*
X133360165Y-90807053D01*
X133340279Y-90815801D01*
X133273673Y-90838475D01*
X133273670Y-90838476D01*
X133267003Y-90840746D01*
X133261005Y-90844436D01*
X133261003Y-90844437D01*
X133128065Y-90926221D01*
X133128063Y-90926223D01*
X133122066Y-90929912D01*
X133000486Y-91048973D01*
X132996675Y-91054887D01*
X132996673Y-91054889D01*
X132943886Y-91136798D01*
X132908304Y-91192010D01*
X132881775Y-91264898D01*
X132860770Y-91322610D01*
X132850103Y-91351916D01*
X132828775Y-91520743D01*
X132845381Y-91690099D01*
X132899094Y-91851567D01*
X132902741Y-91857589D01*
X132902742Y-91857591D01*
X132916497Y-91880302D01*
X132987246Y-91997123D01*
X133105455Y-92119532D01*
X133247846Y-92212710D01*
X133254450Y-92215166D01*
X133254452Y-92215167D01*
X133290844Y-92228701D01*
X133407341Y-92272026D01*
X133576015Y-92294532D01*
X133583026Y-92293894D01*
X133583030Y-92293894D01*
X133738462Y-92279748D01*
X133745483Y-92279109D01*
X133752185Y-92276931D01*
X133752187Y-92276931D01*
X133900623Y-92228701D01*
X133900626Y-92228700D01*
X133907322Y-92226524D01*
X134053490Y-92139390D01*
X134058584Y-92134539D01*
X134058588Y-92134536D01*
X134125833Y-92070499D01*
X134176721Y-92022039D01*
X134270891Y-91880302D01*
X134331319Y-91721225D01*
X134355001Y-91552713D01*
X134355299Y-91531400D01*
X134336331Y-91362292D01*
X134280368Y-91201589D01*
X134274383Y-91192010D01*
X134252420Y-91156864D01*
X134190192Y-91057279D01*
X134070286Y-90936532D01*
X134054039Y-90926221D01*
X134015406Y-90901704D01*
X133926608Y-90845351D01*
X133894102Y-90833776D01*
X133836638Y-90792083D01*
X133810837Y-90725940D01*
X133824892Y-90656348D01*
X133874339Y-90605403D01*
X133897431Y-90595244D01*
X133951425Y-90577700D01*
X133958122Y-90575524D01*
X134104290Y-90488390D01*
X134109384Y-90483539D01*
X134109388Y-90483536D01*
X134176633Y-90419499D01*
X134227521Y-90371039D01*
X134321691Y-90229302D01*
X134382119Y-90070225D01*
X134405801Y-89901713D01*
X134406099Y-89880400D01*
X134387131Y-89711292D01*
X134331168Y-89550589D01*
X134325183Y-89541010D01*
X134285891Y-89478132D01*
X134240992Y-89406279D01*
X134122745Y-89287202D01*
X134088938Y-89224772D01*
X134094250Y-89153974D01*
X134107203Y-89128692D01*
X134114590Y-89117573D01*
X134118491Y-89111702D01*
X134178919Y-88952625D01*
X134202601Y-88784113D01*
X134202899Y-88762800D01*
X134183931Y-88593692D01*
X134181599Y-88586994D01*
X134130286Y-88439646D01*
X134127968Y-88432989D01*
X134121983Y-88423410D01*
X134100020Y-88388264D01*
X134037792Y-88288679D01*
X134012773Y-88263484D01*
X133922848Y-88172929D01*
X133917886Y-88167932D01*
X133908746Y-88162131D01*
X133832747Y-88113901D01*
X133774208Y-88076751D01*
X133613900Y-88019668D01*
X133444929Y-87999520D01*
X133437926Y-88000256D01*
X133437925Y-88000256D01*
X133282701Y-88016570D01*
X133282697Y-88016571D01*
X133275693Y-88017307D01*
X133269022Y-88019578D01*
X133121273Y-88069875D01*
X133121270Y-88069876D01*
X133114603Y-88072146D01*
X133108605Y-88075836D01*
X133108603Y-88075837D01*
X132975665Y-88157621D01*
X132975663Y-88157623D01*
X132969666Y-88161312D01*
X132848086Y-88280373D01*
X132844275Y-88286287D01*
X132844273Y-88286289D01*
X132760858Y-88415723D01*
X132755904Y-88423410D01*
X132697703Y-88583316D01*
X132676375Y-88752143D01*
X125060137Y-88752143D01*
X125088817Y-88735046D01*
X125157571Y-88717346D01*
X125169999Y-88718382D01*
X125321015Y-88738532D01*
X125328026Y-88737894D01*
X125328030Y-88737894D01*
X125483462Y-88723748D01*
X125490483Y-88723109D01*
X125497185Y-88720931D01*
X125497187Y-88720931D01*
X125645623Y-88672701D01*
X125645626Y-88672700D01*
X125652322Y-88670524D01*
X125798490Y-88583390D01*
X125803584Y-88578539D01*
X125803588Y-88578536D01*
X125870833Y-88514499D01*
X125921721Y-88466039D01*
X125935369Y-88445498D01*
X126011990Y-88330173D01*
X126015891Y-88324302D01*
X126076319Y-88165225D01*
X126100001Y-87996713D01*
X126100299Y-87975400D01*
X126081331Y-87806292D01*
X126068873Y-87770516D01*
X126027686Y-87652246D01*
X126025368Y-87645589D01*
X126019596Y-87636351D01*
X125981445Y-87575299D01*
X125935192Y-87501279D01*
X125840520Y-87405943D01*
X130441175Y-87405943D01*
X130457781Y-87575299D01*
X130511494Y-87736767D01*
X130515141Y-87742789D01*
X130515142Y-87742791D01*
X130557839Y-87813291D01*
X130599646Y-87882323D01*
X130717855Y-88004732D01*
X130737072Y-88017307D01*
X130833687Y-88080530D01*
X130860246Y-88097910D01*
X130866850Y-88100366D01*
X130866852Y-88100367D01*
X130939993Y-88127568D01*
X131019741Y-88157226D01*
X131188415Y-88179732D01*
X131195426Y-88179094D01*
X131195430Y-88179094D01*
X131350862Y-88164948D01*
X131357883Y-88164309D01*
X131364585Y-88162131D01*
X131364587Y-88162131D01*
X131513023Y-88113901D01*
X131513026Y-88113900D01*
X131519722Y-88111724D01*
X131665890Y-88024590D01*
X131670984Y-88019739D01*
X131670988Y-88019736D01*
X131768623Y-87926759D01*
X131789121Y-87907239D01*
X131883291Y-87765502D01*
X131943719Y-87606425D01*
X131967401Y-87437913D01*
X131967699Y-87416600D01*
X131948731Y-87247492D01*
X131943430Y-87232268D01*
X131910035Y-87136373D01*
X131892768Y-87086789D01*
X131886783Y-87077210D01*
X131822593Y-86974487D01*
X131803457Y-86906118D01*
X131824498Y-86837993D01*
X131869046Y-86770943D01*
X140143975Y-86770943D01*
X140160581Y-86940299D01*
X140214294Y-87101767D01*
X140217941Y-87107789D01*
X140217942Y-87107791D01*
X140298519Y-87240838D01*
X140302446Y-87247323D01*
X140420655Y-87369732D01*
X140451001Y-87389590D01*
X140530822Y-87441823D01*
X140563046Y-87462910D01*
X140569650Y-87465366D01*
X140569652Y-87465367D01*
X140642793Y-87492568D01*
X140722541Y-87522226D01*
X140891215Y-87544732D01*
X140898226Y-87544094D01*
X140898230Y-87544094D01*
X141053662Y-87529948D01*
X141060683Y-87529309D01*
X141067385Y-87527131D01*
X141067387Y-87527131D01*
X141215823Y-87478901D01*
X141215826Y-87478900D01*
X141222522Y-87476724D01*
X141368690Y-87389590D01*
X141373784Y-87384739D01*
X141373788Y-87384736D01*
X141469983Y-87293130D01*
X141491921Y-87272239D01*
X141516907Y-87234633D01*
X141582190Y-87136373D01*
X141586091Y-87130502D01*
X141646519Y-86971425D01*
X141670201Y-86802913D01*
X141670499Y-86781600D01*
X141651531Y-86612492D01*
X141643847Y-86590425D01*
X141597886Y-86458446D01*
X141595568Y-86451789D01*
X141589583Y-86442210D01*
X141525171Y-86339132D01*
X141505392Y-86307479D01*
X141489791Y-86291768D01*
X141441706Y-86243346D01*
X141385486Y-86186732D01*
X141369239Y-86176421D01*
X141330606Y-86151904D01*
X141241808Y-86095551D01*
X141081500Y-86038468D01*
X140912529Y-86018320D01*
X140905526Y-86019056D01*
X140905525Y-86019056D01*
X140750301Y-86035370D01*
X140750297Y-86035371D01*
X140743293Y-86036107D01*
X140736622Y-86038378D01*
X140588873Y-86088675D01*
X140588870Y-86088676D01*
X140582203Y-86090946D01*
X140576205Y-86094636D01*
X140576203Y-86094637D01*
X140443265Y-86176421D01*
X140443263Y-86176423D01*
X140437266Y-86180112D01*
X140391594Y-86224838D01*
X140323248Y-86291768D01*
X140315686Y-86299173D01*
X140311875Y-86305087D01*
X140311873Y-86305089D01*
X140234065Y-86425823D01*
X140223504Y-86442210D01*
X140165303Y-86602116D01*
X140143975Y-86770943D01*
X131869046Y-86770943D01*
X131883291Y-86749502D01*
X131943719Y-86590425D01*
X131967401Y-86421913D01*
X131967699Y-86400600D01*
X131948731Y-86231492D01*
X131930839Y-86180112D01*
X131901073Y-86094637D01*
X131892768Y-86070789D01*
X131886783Y-86061210D01*
X131859981Y-86018320D01*
X131802592Y-85926479D01*
X131682686Y-85805732D01*
X131666439Y-85795421D01*
X131627806Y-85770904D01*
X131539008Y-85714551D01*
X131378700Y-85657468D01*
X131209729Y-85637320D01*
X131202726Y-85638056D01*
X131202725Y-85638056D01*
X131047501Y-85654370D01*
X131047497Y-85654371D01*
X131040493Y-85655107D01*
X131033822Y-85657378D01*
X130886073Y-85707675D01*
X130886070Y-85707676D01*
X130879403Y-85709946D01*
X130873405Y-85713636D01*
X130873403Y-85713637D01*
X130740465Y-85795421D01*
X130740463Y-85795423D01*
X130734466Y-85799112D01*
X130612886Y-85918173D01*
X130609075Y-85924087D01*
X130609073Y-85924089D01*
X130537357Y-86035370D01*
X130520704Y-86061210D01*
X130462503Y-86221116D01*
X130441175Y-86389943D01*
X130457781Y-86559299D01*
X130460005Y-86565984D01*
X130460005Y-86565985D01*
X130475476Y-86612492D01*
X130511494Y-86720767D01*
X130586458Y-86844548D01*
X130604637Y-86913176D01*
X130584593Y-86978073D01*
X130524524Y-87071282D01*
X130520704Y-87077210D01*
X130462503Y-87237116D01*
X130441175Y-87405943D01*
X125840520Y-87405943D01*
X125815286Y-87380532D01*
X125804348Y-87373590D01*
X125759015Y-87344821D01*
X125671608Y-87289351D01*
X125511300Y-87232268D01*
X125342329Y-87212120D01*
X125335326Y-87212856D01*
X125335325Y-87212856D01*
X125180101Y-87229170D01*
X125180097Y-87229171D01*
X125173093Y-87229907D01*
X125166422Y-87232178D01*
X125018673Y-87282475D01*
X125018670Y-87282476D01*
X125012003Y-87284746D01*
X125006007Y-87288435D01*
X125005996Y-87288440D01*
X124903373Y-87351575D01*
X124834872Y-87370234D01*
X124822438Y-87369372D01*
X124656466Y-87349582D01*
X124649463Y-87350318D01*
X124649462Y-87350318D01*
X124494238Y-87366632D01*
X124494234Y-87366633D01*
X124487230Y-87367369D01*
X124480559Y-87369640D01*
X124332810Y-87419937D01*
X124332807Y-87419938D01*
X124326140Y-87422208D01*
X124320142Y-87425898D01*
X124320140Y-87425899D01*
X124187202Y-87507683D01*
X124187200Y-87507685D01*
X124181203Y-87511374D01*
X124169170Y-87523158D01*
X124077413Y-87613014D01*
X124059623Y-87630435D01*
X124055812Y-87636349D01*
X124055810Y-87636351D01*
X124030543Y-87675558D01*
X123967441Y-87773472D01*
X123909240Y-87933378D01*
X123887912Y-88102205D01*
X120671406Y-88102205D01*
X120689801Y-87971313D01*
X120690099Y-87950000D01*
X120671131Y-87780892D01*
X120666485Y-87767549D01*
X120645983Y-87708678D01*
X120615168Y-87620189D01*
X120609709Y-87611452D01*
X120587117Y-87575299D01*
X120524992Y-87475879D01*
X120487291Y-87437913D01*
X120416506Y-87366632D01*
X120405086Y-87355132D01*
X120397501Y-87350318D01*
X120350206Y-87320304D01*
X120261408Y-87263951D01*
X120101100Y-87206868D01*
X119932129Y-87186720D01*
X119925126Y-87187456D01*
X119925125Y-87187456D01*
X119769901Y-87203770D01*
X119769897Y-87203771D01*
X119762893Y-87204507D01*
X119756222Y-87206778D01*
X119608473Y-87257075D01*
X119608470Y-87257076D01*
X119601803Y-87259346D01*
X119595805Y-87263036D01*
X119595803Y-87263037D01*
X119462865Y-87344821D01*
X119462863Y-87344823D01*
X119456866Y-87348512D01*
X119419876Y-87384736D01*
X119365574Y-87437913D01*
X119335286Y-87467573D01*
X119331475Y-87473487D01*
X119331473Y-87473489D01*
X119250299Y-87599445D01*
X119243104Y-87610610D01*
X119184903Y-87770516D01*
X119163575Y-87939343D01*
X109614900Y-87939343D01*
X109614900Y-84590443D01*
X126885175Y-84590443D01*
X126901781Y-84759799D01*
X126904005Y-84766484D01*
X126904005Y-84766485D01*
X126918713Y-84810699D01*
X126955494Y-84921267D01*
X126959141Y-84927289D01*
X126959142Y-84927291D01*
X127003723Y-85000902D01*
X127043646Y-85066823D01*
X127161855Y-85189232D01*
X127167751Y-85193090D01*
X127269985Y-85259990D01*
X127304246Y-85282410D01*
X127310850Y-85284866D01*
X127310852Y-85284867D01*
X127347244Y-85298401D01*
X127463741Y-85341726D01*
X127632415Y-85364232D01*
X127639426Y-85363594D01*
X127639430Y-85363594D01*
X127794862Y-85349448D01*
X127801883Y-85348809D01*
X127808585Y-85346631D01*
X127808587Y-85346631D01*
X127957023Y-85298401D01*
X127957026Y-85298400D01*
X127963722Y-85296224D01*
X128109890Y-85209090D01*
X128114984Y-85204239D01*
X128114988Y-85204236D01*
X128205835Y-85117723D01*
X128233121Y-85091739D01*
X128327291Y-84950002D01*
X128387719Y-84790925D01*
X128408741Y-84641343D01*
X129802175Y-84641343D01*
X129818781Y-84810699D01*
X129872494Y-84972167D01*
X129876141Y-84978189D01*
X129876142Y-84978191D01*
X129944910Y-85091739D01*
X129960646Y-85117723D01*
X130078855Y-85240132D01*
X130221246Y-85333310D01*
X130227850Y-85335766D01*
X130227852Y-85335767D01*
X130300993Y-85362968D01*
X130380741Y-85392626D01*
X130549415Y-85415132D01*
X130556426Y-85414494D01*
X130556430Y-85414494D01*
X130711862Y-85400348D01*
X130718883Y-85399709D01*
X130725585Y-85397531D01*
X130725587Y-85397531D01*
X130874023Y-85349301D01*
X130874026Y-85349300D01*
X130880722Y-85347124D01*
X131026890Y-85259990D01*
X131031984Y-85255139D01*
X131031988Y-85255136D01*
X131106515Y-85184164D01*
X131150121Y-85142639D01*
X131244291Y-85000902D01*
X131304719Y-84841825D01*
X131328401Y-84673313D01*
X131328699Y-84652000D01*
X131309731Y-84482892D01*
X131289689Y-84425338D01*
X131256086Y-84328846D01*
X131253768Y-84322189D01*
X131247783Y-84312610D01*
X131212275Y-84255787D01*
X131163592Y-84177879D01*
X131043686Y-84057132D01*
X131027439Y-84046821D01*
X130988806Y-84022304D01*
X130900008Y-83965951D01*
X130739700Y-83908868D01*
X130570729Y-83888720D01*
X130563726Y-83889456D01*
X130563725Y-83889456D01*
X130408501Y-83905770D01*
X130408497Y-83905771D01*
X130401493Y-83906507D01*
X130394822Y-83908778D01*
X130247073Y-83959075D01*
X130247070Y-83959076D01*
X130240403Y-83961346D01*
X130234405Y-83965036D01*
X130234403Y-83965037D01*
X130101465Y-84046821D01*
X130101463Y-84046823D01*
X130095466Y-84050512D01*
X129973886Y-84169573D01*
X129970075Y-84175487D01*
X129970073Y-84175489D01*
X129885521Y-84306687D01*
X129881704Y-84312610D01*
X129879294Y-84319232D01*
X129838253Y-84431992D01*
X129823503Y-84472516D01*
X129802175Y-84641343D01*
X128408741Y-84641343D01*
X128411401Y-84622413D01*
X128411699Y-84601100D01*
X128392731Y-84431992D01*
X128336768Y-84271289D01*
X128330783Y-84261710D01*
X128278398Y-84177879D01*
X128246592Y-84126979D01*
X128126686Y-84006232D01*
X128110439Y-83995921D01*
X128055957Y-83961346D01*
X127983008Y-83915051D01*
X127822700Y-83857968D01*
X127653729Y-83837820D01*
X127646726Y-83838556D01*
X127646725Y-83838556D01*
X127491501Y-83854870D01*
X127491497Y-83854871D01*
X127484493Y-83855607D01*
X127477822Y-83857878D01*
X127330073Y-83908175D01*
X127330070Y-83908176D01*
X127323403Y-83910446D01*
X127317405Y-83914136D01*
X127317403Y-83914137D01*
X127184465Y-83995921D01*
X127184463Y-83995923D01*
X127178466Y-83999612D01*
X127056886Y-84118673D01*
X127053075Y-84124587D01*
X127053073Y-84124589D01*
X127020270Y-84175489D01*
X126964704Y-84261710D01*
X126906503Y-84421616D01*
X126885175Y-84590443D01*
X109614900Y-84590443D01*
X109614900Y-82896743D01*
X122338575Y-82896743D01*
X122355181Y-83066099D01*
X122408894Y-83227567D01*
X122412541Y-83233589D01*
X122412542Y-83233591D01*
X122489779Y-83361123D01*
X122497046Y-83373123D01*
X122615255Y-83495532D01*
X122632771Y-83506994D01*
X122743063Y-83579167D01*
X122757646Y-83588710D01*
X122764250Y-83591166D01*
X122764252Y-83591167D01*
X122800644Y-83604701D01*
X122917141Y-83648026D01*
X123085815Y-83670532D01*
X123092826Y-83669894D01*
X123092830Y-83669894D01*
X123248262Y-83655748D01*
X123255283Y-83655109D01*
X123261985Y-83652931D01*
X123261987Y-83652931D01*
X123410423Y-83604701D01*
X123410426Y-83604700D01*
X123417122Y-83602524D01*
X123563290Y-83515390D01*
X123568384Y-83510539D01*
X123568388Y-83510536D01*
X123635633Y-83446499D01*
X123686521Y-83398039D01*
X123691266Y-83390898D01*
X123776790Y-83262173D01*
X123780691Y-83256302D01*
X123841119Y-83097225D01*
X123864801Y-82928713D01*
X123865099Y-82907400D01*
X123862558Y-82884743D01*
X137400775Y-82884743D01*
X137417381Y-83054099D01*
X137471094Y-83215567D01*
X137474741Y-83221589D01*
X137474742Y-83221591D01*
X137499320Y-83262173D01*
X137559246Y-83361123D01*
X137677455Y-83483532D01*
X137819846Y-83576710D01*
X137826450Y-83579166D01*
X137826452Y-83579167D01*
X137858719Y-83591167D01*
X137979341Y-83636026D01*
X138148015Y-83658532D01*
X138155026Y-83657894D01*
X138155030Y-83657894D01*
X138310462Y-83643748D01*
X138317483Y-83643109D01*
X138324185Y-83640931D01*
X138324187Y-83640931D01*
X138472623Y-83592701D01*
X138472626Y-83592700D01*
X138479322Y-83590524D01*
X138625490Y-83503390D01*
X138630584Y-83498539D01*
X138630588Y-83498536D01*
X138731017Y-83402898D01*
X138748721Y-83386039D01*
X138757303Y-83373123D01*
X138795806Y-83315170D01*
X138842891Y-83244302D01*
X138903319Y-83085225D01*
X138927001Y-82916713D01*
X138927299Y-82895400D01*
X138908331Y-82726292D01*
X138852368Y-82565589D01*
X138846383Y-82556010D01*
X138773424Y-82439254D01*
X138762192Y-82421279D01*
X138642286Y-82300532D01*
X138626039Y-82290221D01*
X138587406Y-82265704D01*
X138498608Y-82209351D01*
X138338300Y-82152268D01*
X138169329Y-82132120D01*
X138162326Y-82132856D01*
X138162325Y-82132856D01*
X138007101Y-82149170D01*
X138007097Y-82149171D01*
X138000093Y-82149907D01*
X137993422Y-82152178D01*
X137845673Y-82202475D01*
X137845670Y-82202476D01*
X137839003Y-82204746D01*
X137833005Y-82208436D01*
X137833003Y-82208437D01*
X137700065Y-82290221D01*
X137700063Y-82290223D01*
X137694066Y-82293912D01*
X137572486Y-82412973D01*
X137568675Y-82418887D01*
X137568673Y-82418889D01*
X137555549Y-82439254D01*
X137480304Y-82556010D01*
X137422103Y-82715916D01*
X137400775Y-82884743D01*
X123862558Y-82884743D01*
X123846131Y-82738292D01*
X123790168Y-82577589D01*
X123784183Y-82568010D01*
X123762220Y-82532864D01*
X123699992Y-82433279D01*
X123683112Y-82416280D01*
X123585048Y-82317529D01*
X123580086Y-82312532D01*
X123563839Y-82302221D01*
X123525206Y-82277704D01*
X123436408Y-82221351D01*
X123276100Y-82164268D01*
X123107129Y-82144120D01*
X123100126Y-82144856D01*
X123100125Y-82144856D01*
X122944901Y-82161170D01*
X122944897Y-82161171D01*
X122937893Y-82161907D01*
X122931222Y-82164178D01*
X122783473Y-82214475D01*
X122783470Y-82214476D01*
X122776803Y-82216746D01*
X122770805Y-82220436D01*
X122770803Y-82220437D01*
X122637865Y-82302221D01*
X122637863Y-82302223D01*
X122631866Y-82305912D01*
X122510286Y-82424973D01*
X122506475Y-82430887D01*
X122506473Y-82430889D01*
X122421921Y-82562087D01*
X122418104Y-82568010D01*
X122359903Y-82727916D01*
X122338575Y-82896743D01*
X109614900Y-82896743D01*
X109614900Y-81182943D01*
X140169375Y-81182943D01*
X140185981Y-81352299D01*
X140239694Y-81513767D01*
X140243341Y-81519789D01*
X140243342Y-81519791D01*
X140257097Y-81542502D01*
X140327846Y-81659323D01*
X140446055Y-81781732D01*
X140588446Y-81874910D01*
X140595050Y-81877366D01*
X140595052Y-81877367D01*
X140631444Y-81890901D01*
X140747941Y-81934226D01*
X140916615Y-81956732D01*
X140923626Y-81956094D01*
X140923630Y-81956094D01*
X141079062Y-81941948D01*
X141086083Y-81941309D01*
X141092785Y-81939131D01*
X141092787Y-81939131D01*
X141241223Y-81890901D01*
X141241226Y-81890900D01*
X141247922Y-81888724D01*
X141394090Y-81801590D01*
X141399184Y-81796739D01*
X141399188Y-81796736D01*
X141466433Y-81732699D01*
X141517321Y-81684239D01*
X141611491Y-81542502D01*
X141671919Y-81383425D01*
X141695601Y-81214913D01*
X141695899Y-81193600D01*
X141676931Y-81024492D01*
X141620968Y-80863789D01*
X141614983Y-80854210D01*
X141593020Y-80819064D01*
X141530792Y-80719479D01*
X141410886Y-80598732D01*
X141394639Y-80588421D01*
X141356006Y-80563904D01*
X141267208Y-80507551D01*
X141106900Y-80450468D01*
X140937929Y-80430320D01*
X140930926Y-80431056D01*
X140930925Y-80431056D01*
X140775701Y-80447370D01*
X140775697Y-80447371D01*
X140768693Y-80448107D01*
X140762022Y-80450378D01*
X140614273Y-80500675D01*
X140614270Y-80500676D01*
X140607603Y-80502946D01*
X140601605Y-80506636D01*
X140601603Y-80506637D01*
X140468665Y-80588421D01*
X140468663Y-80588423D01*
X140462666Y-80592112D01*
X140341086Y-80711173D01*
X140248904Y-80854210D01*
X140190703Y-81014116D01*
X140169375Y-81182943D01*
X109614900Y-81182943D01*
X109614900Y-77971743D01*
X120676775Y-77971743D01*
X120693381Y-78141099D01*
X120747094Y-78302567D01*
X120750741Y-78308589D01*
X120750742Y-78308591D01*
X120804764Y-78397791D01*
X120835246Y-78448123D01*
X120840136Y-78453186D01*
X120840140Y-78453192D01*
X120849913Y-78463312D01*
X120882846Y-78526208D01*
X120876546Y-78596925D01*
X120865189Y-78619093D01*
X120832504Y-78669810D01*
X120774303Y-78829716D01*
X120752975Y-78998543D01*
X120769581Y-79167899D01*
X120823294Y-79329367D01*
X120826941Y-79335389D01*
X120826942Y-79335391D01*
X120893340Y-79445026D01*
X120911446Y-79474923D01*
X121029655Y-79597332D01*
X121172046Y-79690510D01*
X121178650Y-79692966D01*
X121178652Y-79692967D01*
X121215044Y-79706501D01*
X121331541Y-79749826D01*
X121500215Y-79772332D01*
X121507226Y-79771694D01*
X121507230Y-79771694D01*
X121662662Y-79757548D01*
X121669683Y-79756909D01*
X121676385Y-79754731D01*
X121676387Y-79754731D01*
X121824823Y-79706501D01*
X121824826Y-79706500D01*
X121831522Y-79704324D01*
X121977690Y-79617190D01*
X121982784Y-79612339D01*
X121982788Y-79612336D01*
X122040536Y-79557343D01*
X124218175Y-79557343D01*
X124234781Y-79726699D01*
X124288494Y-79888167D01*
X124292141Y-79894189D01*
X124292142Y-79894191D01*
X124305897Y-79916902D01*
X124376646Y-80033723D01*
X124494855Y-80156132D01*
X124637246Y-80249310D01*
X124643850Y-80251766D01*
X124643852Y-80251767D01*
X124680244Y-80265301D01*
X124796741Y-80308626D01*
X124965415Y-80331132D01*
X124972426Y-80330494D01*
X124972430Y-80330494D01*
X125127862Y-80316348D01*
X125134883Y-80315709D01*
X125141585Y-80313531D01*
X125141587Y-80313531D01*
X125290023Y-80265301D01*
X125290026Y-80265300D01*
X125296722Y-80263124D01*
X125442890Y-80175990D01*
X125447984Y-80171139D01*
X125447988Y-80171136D01*
X125515233Y-80107099D01*
X125566121Y-80058639D01*
X125660291Y-79916902D01*
X125720719Y-79757825D01*
X125744401Y-79589313D01*
X125744699Y-79568000D01*
X125725731Y-79398892D01*
X125703618Y-79335391D01*
X125672086Y-79244846D01*
X125669768Y-79238189D01*
X125663783Y-79228610D01*
X125623471Y-79164100D01*
X125579592Y-79093879D01*
X125459686Y-78973132D01*
X125443439Y-78962821D01*
X125345731Y-78900814D01*
X125316008Y-78881951D01*
X125155700Y-78824868D01*
X124986729Y-78804720D01*
X124979726Y-78805456D01*
X124979725Y-78805456D01*
X124824501Y-78821770D01*
X124824497Y-78821771D01*
X124817493Y-78822507D01*
X124810822Y-78824778D01*
X124663073Y-78875075D01*
X124663070Y-78875076D01*
X124656403Y-78877346D01*
X124650405Y-78881036D01*
X124650403Y-78881037D01*
X124517465Y-78962821D01*
X124517463Y-78962823D01*
X124511466Y-78966512D01*
X124506433Y-78971441D01*
X124416845Y-79059173D01*
X124389886Y-79085573D01*
X124386075Y-79091487D01*
X124386073Y-79091489D01*
X124332521Y-79174585D01*
X124297704Y-79228610D01*
X124239503Y-79388516D01*
X124218175Y-79557343D01*
X122040536Y-79557343D01*
X122050033Y-79548299D01*
X122100921Y-79499839D01*
X122195091Y-79358102D01*
X122255519Y-79199025D01*
X122279201Y-79030513D01*
X122279499Y-79009200D01*
X122260531Y-78840092D01*
X122255230Y-78824868D01*
X122211906Y-78700462D01*
X122204568Y-78679389D01*
X122198583Y-78669810D01*
X122153038Y-78596925D01*
X122114392Y-78535079D01*
X122108382Y-78529027D01*
X122107926Y-78528185D01*
X122105052Y-78524559D01*
X122105689Y-78524054D01*
X122074574Y-78466596D01*
X122079885Y-78395799D01*
X122092838Y-78370515D01*
X122107278Y-78348781D01*
X122118891Y-78331302D01*
X122129807Y-78302567D01*
X122176816Y-78178814D01*
X122179319Y-78172225D01*
X122203001Y-78003713D01*
X122203299Y-77982400D01*
X122184331Y-77813292D01*
X122137128Y-77677743D01*
X137629375Y-77677743D01*
X137645981Y-77847099D01*
X137699694Y-78008567D01*
X137703341Y-78014589D01*
X137703342Y-78014591D01*
X137784008Y-78147785D01*
X137787846Y-78154123D01*
X137906055Y-78276532D01*
X137911951Y-78280390D01*
X138041264Y-78365010D01*
X138048446Y-78369710D01*
X138055050Y-78372166D01*
X138055052Y-78372167D01*
X138091444Y-78385701D01*
X138207941Y-78429026D01*
X138376615Y-78451532D01*
X138383626Y-78450894D01*
X138383630Y-78450894D01*
X138539062Y-78436748D01*
X138546083Y-78436109D01*
X138552785Y-78433931D01*
X138552787Y-78433931D01*
X138701223Y-78385701D01*
X138701226Y-78385700D01*
X138707922Y-78383524D01*
X138854090Y-78296390D01*
X138859184Y-78291539D01*
X138859188Y-78291536D01*
X138888678Y-78263452D01*
X138951803Y-78230959D01*
X139022474Y-78237752D01*
X139078254Y-78281674D01*
X139101432Y-78348781D01*
X139093972Y-78397791D01*
X139050113Y-78518294D01*
X139047703Y-78524916D01*
X139026375Y-78693743D01*
X139042981Y-78863099D01*
X139096694Y-79024567D01*
X139100341Y-79030589D01*
X139100342Y-79030591D01*
X139142290Y-79099854D01*
X139184846Y-79170123D01*
X139303055Y-79292532D01*
X139308951Y-79296390D01*
X139403257Y-79358102D01*
X139445446Y-79385710D01*
X139452050Y-79388166D01*
X139452052Y-79388167D01*
X139488444Y-79401701D01*
X139604941Y-79445026D01*
X139773615Y-79467532D01*
X139780626Y-79466894D01*
X139780630Y-79466894D01*
X139936062Y-79452748D01*
X139943083Y-79452109D01*
X139949785Y-79449931D01*
X139949787Y-79449931D01*
X140098223Y-79401701D01*
X140098226Y-79401700D01*
X140104922Y-79399524D01*
X140251090Y-79312390D01*
X140256184Y-79307539D01*
X140256188Y-79307536D01*
X140339068Y-79228610D01*
X140374321Y-79195039D01*
X140468491Y-79053302D01*
X140528919Y-78894225D01*
X140552601Y-78725713D01*
X140552899Y-78704400D01*
X140533931Y-78535292D01*
X140530194Y-78524559D01*
X140505341Y-78453192D01*
X140477968Y-78374589D01*
X140472509Y-78365852D01*
X140450020Y-78329864D01*
X140387792Y-78230279D01*
X140267886Y-78109532D01*
X140251639Y-78099221D01*
X140166901Y-78045445D01*
X140124208Y-78018351D01*
X139963900Y-77961268D01*
X139794929Y-77941120D01*
X139787926Y-77941856D01*
X139787925Y-77941856D01*
X139632701Y-77958170D01*
X139632697Y-77958171D01*
X139625693Y-77958907D01*
X139619022Y-77961178D01*
X139471273Y-78011475D01*
X139471270Y-78011476D01*
X139464603Y-78013746D01*
X139458605Y-78017436D01*
X139458603Y-78017437D01*
X139325665Y-78099221D01*
X139325663Y-78099223D01*
X139319666Y-78102912D01*
X139314636Y-78107838D01*
X139314632Y-78107841D01*
X139294253Y-78127798D01*
X139231588Y-78161168D01*
X139160829Y-78155362D01*
X139104442Y-78112222D01*
X139080330Y-78045445D01*
X139088308Y-77993030D01*
X139090842Y-77986361D01*
X139131919Y-77878225D01*
X139155601Y-77709713D01*
X139155899Y-77688400D01*
X139136931Y-77519292D01*
X139130204Y-77499973D01*
X139083286Y-77365246D01*
X139080968Y-77358589D01*
X139074983Y-77349010D01*
X139037780Y-77289475D01*
X138990792Y-77214279D01*
X138870886Y-77093532D01*
X138854639Y-77083221D01*
X138816006Y-77058704D01*
X138727208Y-77002351D01*
X138566900Y-76945268D01*
X138397929Y-76925120D01*
X138390926Y-76925856D01*
X138390925Y-76925856D01*
X138235701Y-76942170D01*
X138235697Y-76942171D01*
X138228693Y-76942907D01*
X138222022Y-76945178D01*
X138074273Y-76995475D01*
X138074270Y-76995476D01*
X138067603Y-76997746D01*
X138061605Y-77001436D01*
X138061603Y-77001437D01*
X137928665Y-77083221D01*
X137928663Y-77083223D01*
X137922666Y-77086912D01*
X137801086Y-77205973D01*
X137797275Y-77211887D01*
X137797273Y-77211889D01*
X137744365Y-77293986D01*
X137708904Y-77349010D01*
X137672321Y-77449522D01*
X137655751Y-77495048D01*
X137650703Y-77508916D01*
X137629375Y-77677743D01*
X122137128Y-77677743D01*
X122128368Y-77652589D01*
X122122383Y-77643010D01*
X122049447Y-77526291D01*
X122038192Y-77508279D01*
X121918286Y-77387532D01*
X121902039Y-77377221D01*
X121848252Y-77343087D01*
X121774608Y-77296351D01*
X121614300Y-77239268D01*
X121445329Y-77219120D01*
X121438326Y-77219856D01*
X121438325Y-77219856D01*
X121283101Y-77236170D01*
X121283097Y-77236171D01*
X121276093Y-77236907D01*
X121269422Y-77239178D01*
X121121673Y-77289475D01*
X121121670Y-77289476D01*
X121115003Y-77291746D01*
X121109005Y-77295436D01*
X121109003Y-77295437D01*
X120976065Y-77377221D01*
X120976063Y-77377223D01*
X120970066Y-77380912D01*
X120848486Y-77499973D01*
X120844675Y-77505887D01*
X120844673Y-77505889D01*
X120831525Y-77526291D01*
X120756304Y-77643010D01*
X120698103Y-77802916D01*
X120676775Y-77971743D01*
X109614900Y-77971743D01*
X109614900Y-75162366D01*
X123014657Y-75162366D01*
X123044965Y-75296846D01*
X123048045Y-75306675D01*
X123128170Y-75504003D01*
X123132813Y-75513194D01*
X123244094Y-75694788D01*
X123250177Y-75703099D01*
X123389613Y-75864067D01*
X123396980Y-75871283D01*
X123560834Y-76007316D01*
X123569281Y-76013231D01*
X123753156Y-76120679D01*
X123762442Y-76125129D01*
X123961401Y-76201103D01*
X123971299Y-76203979D01*
X124074650Y-76225006D01*
X124088699Y-76223810D01*
X124092400Y-76213465D01*
X124092400Y-76212917D01*
X124600400Y-76212917D01*
X124604464Y-76226759D01*
X124617878Y-76228793D01*
X124624584Y-76227934D01*
X124634662Y-76225792D01*
X124838655Y-76164591D01*
X124848242Y-76160833D01*
X125039495Y-76067139D01*
X125048345Y-76061864D01*
X125221728Y-75938192D01*
X125229600Y-75931539D01*
X125380452Y-75781212D01*
X125387130Y-75773365D01*
X125514422Y-75596219D01*
X125515679Y-75597122D01*
X125562773Y-75553762D01*
X125632711Y-75541545D01*
X125698151Y-75569078D01*
X125725979Y-75600911D01*
X125786387Y-75699488D01*
X125932650Y-75868338D01*
X126104526Y-76011032D01*
X126297400Y-76123738D01*
X126506092Y-76203430D01*
X126511160Y-76204461D01*
X126511163Y-76204462D01*
X126606262Y-76223810D01*
X126724997Y-76247967D01*
X126730172Y-76248157D01*
X126730174Y-76248157D01*
X126943073Y-76255964D01*
X126943077Y-76255964D01*
X126948237Y-76256153D01*
X126953357Y-76255497D01*
X126953359Y-76255497D01*
X127164688Y-76228425D01*
X127164689Y-76228425D01*
X127169816Y-76227768D01*
X127174766Y-76226283D01*
X127378829Y-76165061D01*
X127378834Y-76165059D01*
X127383784Y-76163574D01*
X127584394Y-76065296D01*
X127766260Y-75935573D01*
X127924496Y-75777889D01*
X128054853Y-75596477D01*
X128056176Y-75597428D01*
X128103045Y-75554257D01*
X128172980Y-75542025D01*
X128238426Y-75569544D01*
X128266275Y-75601394D01*
X128326387Y-75699488D01*
X128472650Y-75868338D01*
X128644526Y-76011032D01*
X128837400Y-76123738D01*
X129046092Y-76203430D01*
X129051160Y-76204461D01*
X129051163Y-76204462D01*
X129146262Y-76223810D01*
X129264997Y-76247967D01*
X129270172Y-76248157D01*
X129270174Y-76248157D01*
X129483073Y-76255964D01*
X129483077Y-76255964D01*
X129488237Y-76256153D01*
X129493357Y-76255497D01*
X129493359Y-76255497D01*
X129704688Y-76228425D01*
X129704689Y-76228425D01*
X129709816Y-76227768D01*
X129714766Y-76226283D01*
X129918829Y-76165061D01*
X129918834Y-76165059D01*
X129923784Y-76163574D01*
X130124394Y-76065296D01*
X130306260Y-75935573D01*
X130414491Y-75827719D01*
X130476862Y-75793804D01*
X130547668Y-75798992D01*
X130604430Y-75841638D01*
X130621412Y-75872741D01*
X130665785Y-75991105D01*
X130753139Y-76107661D01*
X130869695Y-76195015D01*
X131006084Y-76246145D01*
X131068266Y-76252900D01*
X132864534Y-76252900D01*
X132926716Y-76246145D01*
X133063105Y-76195015D01*
X133179661Y-76107661D01*
X133267015Y-75991105D01*
X133318145Y-75854716D01*
X133324900Y-75792534D01*
X133324900Y-73996266D01*
X133318145Y-73934084D01*
X133267015Y-73797695D01*
X133179661Y-73681139D01*
X133063105Y-73593785D01*
X132926716Y-73542655D01*
X132864534Y-73535900D01*
X131068266Y-73535900D01*
X131006084Y-73542655D01*
X130869695Y-73593785D01*
X130753139Y-73681139D01*
X130665785Y-73797695D01*
X130662633Y-73806103D01*
X130621319Y-73916307D01*
X130578677Y-73973071D01*
X130512116Y-73997771D01*
X130442767Y-73982563D01*
X130410143Y-73956876D01*
X130359551Y-73901275D01*
X130359542Y-73901266D01*
X130356070Y-73897451D01*
X130352019Y-73894252D01*
X130352015Y-73894248D01*
X130184814Y-73762200D01*
X130184810Y-73762198D01*
X130180759Y-73758998D01*
X130144428Y-73738942D01*
X130128536Y-73730169D01*
X129985189Y-73651038D01*
X129980320Y-73649314D01*
X129980316Y-73649312D01*
X129779487Y-73578195D01*
X129779483Y-73578194D01*
X129774612Y-73576469D01*
X129769519Y-73575562D01*
X129769516Y-73575561D01*
X129559773Y-73538200D01*
X129559767Y-73538199D01*
X129554684Y-73537294D01*
X129480852Y-73536392D01*
X129336481Y-73534628D01*
X129336479Y-73534628D01*
X129331311Y-73534565D01*
X129110491Y-73568355D01*
X128898156Y-73637757D01*
X128700007Y-73740907D01*
X128695874Y-73744010D01*
X128695871Y-73744012D01*
X128525500Y-73871930D01*
X128521365Y-73875035D01*
X128495941Y-73901640D01*
X128427680Y-73973071D01*
X128367029Y-74036538D01*
X128259601Y-74194021D01*
X128204693Y-74239021D01*
X128134168Y-74247192D01*
X128070421Y-74215938D01*
X128049724Y-74191454D01*
X127969222Y-74067017D01*
X127969220Y-74067014D01*
X127966414Y-74062677D01*
X127816070Y-73897451D01*
X127812019Y-73894252D01*
X127812015Y-73894248D01*
X127644814Y-73762200D01*
X127644810Y-73762198D01*
X127640759Y-73758998D01*
X127604428Y-73738942D01*
X127588536Y-73730169D01*
X127445189Y-73651038D01*
X127440320Y-73649314D01*
X127440316Y-73649312D01*
X127239487Y-73578195D01*
X127239483Y-73578194D01*
X127234612Y-73576469D01*
X127229519Y-73575562D01*
X127229516Y-73575561D01*
X127019773Y-73538200D01*
X127019767Y-73538199D01*
X127014684Y-73537294D01*
X126940852Y-73536392D01*
X126796481Y-73534628D01*
X126796479Y-73534628D01*
X126791311Y-73534565D01*
X126570491Y-73568355D01*
X126358156Y-73637757D01*
X126160007Y-73740907D01*
X126155874Y-73744010D01*
X126155871Y-73744012D01*
X125985500Y-73871930D01*
X125981365Y-73875035D01*
X125955941Y-73901640D01*
X125887680Y-73973071D01*
X125827029Y-74036538D01*
X125824120Y-74040803D01*
X125824114Y-74040811D01*
X125811804Y-74058857D01*
X125719604Y-74194018D01*
X125719298Y-74194466D01*
X125664387Y-74239469D01*
X125593862Y-74247640D01*
X125530115Y-74216386D01*
X125509418Y-74191902D01*
X125428826Y-74067326D01*
X125422536Y-74059157D01*
X125279206Y-73901640D01*
X125271673Y-73894615D01*
X125104539Y-73762622D01*
X125095952Y-73756917D01*
X124909517Y-73653999D01*
X124900105Y-73649769D01*
X124699359Y-73578680D01*
X124689388Y-73576046D01*
X124618237Y-73563372D01*
X124604940Y-73564832D01*
X124600400Y-73579389D01*
X124600400Y-76212917D01*
X124092400Y-76212917D01*
X124092400Y-75166515D01*
X124087925Y-75151276D01*
X124086535Y-75150071D01*
X124078852Y-75148400D01*
X123029625Y-75148400D01*
X123016094Y-75152373D01*
X123014657Y-75162366D01*
X109614900Y-75162366D01*
X109614900Y-74628583D01*
X123010789Y-74628583D01*
X123012312Y-74637007D01*
X123024692Y-74640400D01*
X124074285Y-74640400D01*
X124089524Y-74635925D01*
X124090729Y-74634535D01*
X124092400Y-74626852D01*
X124092400Y-73577502D01*
X124088482Y-73564158D01*
X124074206Y-73562171D01*
X124035724Y-73568060D01*
X124025688Y-73570451D01*
X123823268Y-73636612D01*
X123813759Y-73640609D01*
X123624863Y-73738942D01*
X123616138Y-73744436D01*
X123445833Y-73872305D01*
X123438126Y-73879148D01*
X123290990Y-74033117D01*
X123284504Y-74041127D01*
X123164498Y-74217049D01*
X123159400Y-74226023D01*
X123069738Y-74419183D01*
X123066175Y-74428870D01*
X123010789Y-74628583D01*
X109614900Y-74628583D01*
X109614900Y-73281000D01*
X109634902Y-73212879D01*
X109688558Y-73166386D01*
X109740900Y-73155000D01*
X144413400Y-73155000D01*
X144481521Y-73175002D01*
G37*
%TD.AperFunction*%
%TD*%
M02*
