%TF.GenerationSoftware,KiCad,Pcbnew,(6.0.11)*%
%TF.CreationDate,2023-05-09T17:29:38+10:00*%
%TF.ProjectId,LV_MASTER_A_SAMPLE,4c565f4d-4153-4544-9552-5f415f53414d,1*%
%TF.SameCoordinates,Original*%
%TF.FileFunction,Legend,Top*%
%TF.FilePolarity,Positive*%
%FSLAX46Y46*%
G04 Gerber Fmt 4.6, Leading zero omitted, Abs format (unit mm)*
G04 Created by KiCad (PCBNEW (6.0.11)) date 2023-05-09 17:29:38*
%MOMM*%
%LPD*%
G01*
G04 APERTURE LIST*
%ADD10C,0.150000*%
%ADD11C,0.120000*%
%ADD12C,0.100000*%
G04 APERTURE END LIST*
D10*
%TO.C,AUX_OUT*%
X156198380Y-95787466D02*
X156674571Y-95787466D01*
X156103142Y-96073180D02*
X156436476Y-95073180D01*
X156769809Y-96073180D01*
X157103142Y-95073180D02*
X157103142Y-95882704D01*
X157150761Y-95977942D01*
X157198380Y-96025561D01*
X157293619Y-96073180D01*
X157484095Y-96073180D01*
X157579333Y-96025561D01*
X157626952Y-95977942D01*
X157674571Y-95882704D01*
X157674571Y-95073180D01*
X158055523Y-95073180D02*
X158722190Y-96073180D01*
X158722190Y-95073180D02*
X158055523Y-96073180D01*
X158865047Y-96168419D02*
X159626952Y-96168419D01*
X160055523Y-95073180D02*
X160246000Y-95073180D01*
X160341238Y-95120800D01*
X160436476Y-95216038D01*
X160484095Y-95406514D01*
X160484095Y-95739847D01*
X160436476Y-95930323D01*
X160341238Y-96025561D01*
X160246000Y-96073180D01*
X160055523Y-96073180D01*
X159960285Y-96025561D01*
X159865047Y-95930323D01*
X159817428Y-95739847D01*
X159817428Y-95406514D01*
X159865047Y-95216038D01*
X159960285Y-95120800D01*
X160055523Y-95073180D01*
X160912666Y-95073180D02*
X160912666Y-95882704D01*
X160960285Y-95977942D01*
X161007904Y-96025561D01*
X161103142Y-96073180D01*
X161293619Y-96073180D01*
X161388857Y-96025561D01*
X161436476Y-95977942D01*
X161484095Y-95882704D01*
X161484095Y-95073180D01*
X161817428Y-95073180D02*
X162388857Y-95073180D01*
X162103142Y-96073180D02*
X162103142Y-95073180D01*
D11*
%TO.C,D10*%
X161704000Y-104922400D02*
X161704000Y-106842400D01*
X161704000Y-106842400D02*
X164564000Y-106842400D01*
X164564000Y-104922400D02*
X161704000Y-104922400D01*
%TO.C,C33*%
X163414967Y-79540700D02*
X163122433Y-79540700D01*
X163414967Y-80560700D02*
X163122433Y-80560700D01*
%TO.C,R18*%
X150370500Y-111471924D02*
X150370500Y-110962476D01*
X149325500Y-111471924D02*
X149325500Y-110962476D01*
%TO.C,R22*%
X150370500Y-108016724D02*
X150370500Y-107507276D01*
X149325500Y-108016724D02*
X149325500Y-107507276D01*
%TO.C,U1*%
X132301200Y-78547400D02*
X132301200Y-79497400D01*
X123031200Y-88767400D02*
X122081200Y-88767400D01*
X131351200Y-78547400D02*
X132301200Y-78547400D01*
X131351200Y-88767400D02*
X132301200Y-88767400D01*
X132301200Y-88767400D02*
X132301200Y-87817400D01*
X122081200Y-88767400D02*
X122081200Y-87817400D01*
X123031200Y-78547400D02*
X122081200Y-78547400D01*
X122081200Y-78547400D02*
X122081200Y-79497400D01*
X122081200Y-79497400D02*
X120741200Y-79497400D01*
%TO.C,C29*%
X156170600Y-78874967D02*
X156170600Y-78582433D01*
X157190600Y-78874967D02*
X157190600Y-78582433D01*
%TO.C,C7*%
X135647400Y-78837533D02*
X135647400Y-79130067D01*
X136667400Y-78837533D02*
X136667400Y-79130067D01*
D12*
%TO.C,Y2*%
X114720800Y-78259200D02*
X115520800Y-78259200D01*
X114720800Y-79759200D02*
X115520800Y-79759200D01*
D11*
%TO.C,R8*%
X120371074Y-103522000D02*
X119861626Y-103522000D01*
X120371074Y-102477000D02*
X119861626Y-102477000D01*
%TO.C,C48*%
X146827400Y-107665733D02*
X146827400Y-107958267D01*
X145807400Y-107665733D02*
X145807400Y-107958267D01*
%TO.C,R17*%
X133987500Y-115357324D02*
X133987500Y-114847876D01*
X132942500Y-115357324D02*
X132942500Y-114847876D01*
%TO.C,C40*%
X120719300Y-93723033D02*
X120719300Y-94015567D01*
X121739300Y-93723033D02*
X121739300Y-94015567D01*
%TO.C,C36*%
X170195400Y-81798167D02*
X170195400Y-81505633D01*
X169175400Y-81798167D02*
X169175400Y-81505633D01*
%TO.C,C47*%
X143155400Y-115351267D02*
X143155400Y-115058733D01*
X142135400Y-115351267D02*
X142135400Y-115058733D01*
%TO.C,D6*%
X157327000Y-84983400D02*
X159487000Y-84983400D01*
X157327000Y-84983400D02*
X157327000Y-84053400D01*
X157327000Y-81823400D02*
X158787000Y-81823400D01*
X157327000Y-81823400D02*
X157327000Y-82753400D01*
%TO.C,C3*%
X113360800Y-75803767D02*
X113360800Y-75511233D01*
X114380800Y-75803767D02*
X114380800Y-75511233D01*
%TO.C,C49*%
X163943000Y-94624067D02*
X163943000Y-94331533D01*
X164963000Y-94624067D02*
X164963000Y-94331533D01*
%TO.C,C39*%
X116326717Y-100825800D02*
X116034183Y-100825800D01*
X116326717Y-101845800D02*
X116034183Y-101845800D01*
%TO.C,C10*%
X118908800Y-85911867D02*
X118908800Y-85619333D01*
X119928800Y-85911867D02*
X119928800Y-85619333D01*
%TO.C,C26*%
X139381200Y-88848633D02*
X139381200Y-89141167D01*
X140401200Y-88848633D02*
X140401200Y-89141167D01*
%TO.C,C15*%
X132574000Y-94864933D02*
X132574000Y-95157467D01*
X133594000Y-94864933D02*
X133594000Y-95157467D01*
%TO.C,C41*%
X121739300Y-97589067D02*
X121739300Y-97296533D01*
X120719300Y-97589067D02*
X120719300Y-97296533D01*
%TO.C,C4*%
X116880800Y-75803767D02*
X116880800Y-75511233D01*
X115860800Y-75803767D02*
X115860800Y-75511233D01*
%TO.C,R29*%
X114528576Y-80884900D02*
X115038024Y-80884900D01*
X114528576Y-81929900D02*
X115038024Y-81929900D01*
%TO.C,C12*%
X130241200Y-93111233D02*
X130241200Y-93403767D01*
X129221200Y-93111233D02*
X129221200Y-93403767D01*
%TO.C,C44*%
X142094149Y-106672998D02*
X142301002Y-106879851D01*
X142815398Y-105951749D02*
X143022251Y-106158602D01*
%TO.C,C34*%
X163415067Y-86170100D02*
X163122533Y-86170100D01*
X163415067Y-87190100D02*
X163122533Y-87190100D01*
%TO.C,C31*%
X157190600Y-89199633D02*
X157190600Y-89492167D01*
X156170600Y-89199633D02*
X156170600Y-89492167D01*
%TO.C,C30*%
X154468800Y-78874967D02*
X154468800Y-78582433D01*
X155488800Y-78874967D02*
X155488800Y-78582433D01*
%TO.C,C2*%
X117109400Y-88742433D02*
X117109400Y-89034967D01*
X116089400Y-88742433D02*
X116089400Y-89034967D01*
%TO.C,C11*%
X127519400Y-93111233D02*
X127519400Y-93403767D01*
X128539400Y-93111233D02*
X128539400Y-93403767D01*
%TO.C,C52*%
X149791067Y-96156200D02*
X149498533Y-96156200D01*
X149791067Y-95136200D02*
X149498533Y-95136200D01*
%TO.C,R16*%
X137772100Y-114847876D02*
X137772100Y-115357324D01*
X136727100Y-114847876D02*
X136727100Y-115357324D01*
%TO.C,R14*%
X140217781Y-108148945D02*
X140578015Y-107788711D01*
X139478855Y-107410019D02*
X139839089Y-107049785D01*
%TO.C,C43*%
X135402531Y-110603882D02*
X135195678Y-110397029D01*
X134681282Y-111325131D02*
X134474429Y-111118278D01*
%TO.C,Q2*%
X152229400Y-99349600D02*
X149399400Y-99349600D01*
X152229400Y-105709600D02*
X151129400Y-105709600D01*
X153729400Y-99079600D02*
X152229400Y-99079600D01*
X153729400Y-105979600D02*
X152229400Y-105979600D01*
X152229400Y-105979600D02*
X152229400Y-105709600D01*
X152229400Y-99079600D02*
X152229400Y-99349600D01*
%TO.C,R15*%
X137420784Y-109493490D02*
X137060550Y-109853724D01*
X138159710Y-110232416D02*
X137799476Y-110592650D01*
%TO.C,C51*%
X141954733Y-92498600D02*
X142247267Y-92498600D01*
X141954733Y-91478600D02*
X142247267Y-91478600D01*
%TO.C,C53*%
X149791067Y-96985800D02*
X149498533Y-96985800D01*
X149791067Y-98005800D02*
X149498533Y-98005800D01*
%TO.C,C42*%
X130114200Y-105431333D02*
X130114200Y-105723867D01*
X129094200Y-105431333D02*
X129094200Y-105723867D01*
%TO.C,C27*%
X138648600Y-88848633D02*
X138648600Y-89141167D01*
X137628600Y-88848633D02*
X137628600Y-89141167D01*
%TO.C,R4*%
X114187124Y-87503700D02*
X113677676Y-87503700D01*
X114187124Y-88548700D02*
X113677676Y-88548700D01*
%TO.C,C5*%
X118680200Y-79003067D02*
X118680200Y-78710533D01*
X119700200Y-79003067D02*
X119700200Y-78710533D01*
%TO.C,C25*%
X138648600Y-85684367D02*
X138648600Y-85391833D01*
X137628600Y-85684367D02*
X137628600Y-85391833D01*
%TO.C,R25*%
X167222326Y-105309100D02*
X167731774Y-105309100D01*
X167222326Y-106354100D02*
X167731774Y-106354100D01*
%TO.C,U7*%
X137459593Y-103615007D02*
X136080735Y-102236148D01*
X137459593Y-103615007D02*
X138838452Y-104993865D01*
X133839207Y-107235393D02*
X136278725Y-109674912D01*
X133839207Y-107235393D02*
X132460348Y-105856535D01*
%TO.C,C9*%
X120534400Y-89925067D02*
X120534400Y-89632533D01*
X121554400Y-89925067D02*
X121554400Y-89632533D01*
%TO.C,R9*%
X119861626Y-101858300D02*
X120371074Y-101858300D01*
X119861626Y-100813300D02*
X120371074Y-100813300D01*
%TO.C,R11*%
X125757176Y-102467900D02*
X126266624Y-102467900D01*
X125757176Y-101422900D02*
X126266624Y-101422900D01*
%TO.C,R20*%
X145755100Y-115000276D02*
X145755100Y-115509724D01*
X146800100Y-115000276D02*
X146800100Y-115509724D01*
%TO.C,D7*%
X160648000Y-104679600D02*
X167948000Y-104679600D01*
X160648000Y-100379600D02*
X160648000Y-104679600D01*
X160648000Y-100379600D02*
X167948000Y-100379600D01*
%TO.C,R13*%
X132242181Y-100173345D02*
X132602415Y-99813111D01*
X131503255Y-99434419D02*
X131863489Y-99074185D01*
%TO.C,R23*%
X148643300Y-107507276D02*
X148643300Y-108016724D01*
X147598300Y-107507276D02*
X147598300Y-108016724D01*
%TO.C,C1*%
X111750000Y-88742433D02*
X111750000Y-89034967D01*
X110730000Y-88742433D02*
X110730000Y-89034967D01*
%TO.C,U8*%
X139997358Y-110458958D02*
X141058018Y-109398298D01*
X139997358Y-110458958D02*
X137929071Y-112527245D01*
X142274242Y-112735842D02*
X141213582Y-113796502D01*
X142274242Y-112735842D02*
X143334902Y-111675182D01*
%TO.C,U6*%
X126760400Y-95112800D02*
X126760400Y-92237800D01*
X122440400Y-95112800D02*
X122440400Y-96612800D01*
X122440400Y-95112800D02*
X122440400Y-93612800D01*
X126760400Y-95112800D02*
X126760400Y-96612800D01*
%TO.C,U4*%
X143321000Y-77528400D02*
X143321000Y-77763400D01*
X143321000Y-90548400D02*
X143321000Y-90313400D01*
X147181000Y-77528400D02*
X151041000Y-77528400D01*
X143321000Y-77763400D02*
X141506000Y-77763400D01*
X147181000Y-90548400D02*
X143321000Y-90548400D01*
X147181000Y-90548400D02*
X151041000Y-90548400D01*
X151041000Y-77528400D02*
X151041000Y-77763400D01*
X151041000Y-90548400D02*
X151041000Y-90313400D01*
X147181000Y-77528400D02*
X143321000Y-77528400D01*
%TO.C,R28*%
X117031924Y-83773500D02*
X116522476Y-83773500D01*
X117031924Y-82728500D02*
X116522476Y-82728500D01*
%TO.C,C18*%
X135219600Y-89163067D02*
X135219600Y-88870533D01*
X134199600Y-89163067D02*
X134199600Y-88870533D01*
%TO.C,C19*%
X135911600Y-89164167D02*
X135911600Y-88871633D01*
X136931600Y-89164167D02*
X136931600Y-88871633D01*
%TO.C,R5*%
X159031900Y-78423976D02*
X159031900Y-78933424D01*
X157986900Y-78423976D02*
X157986900Y-78933424D01*
%TO.C,AUX_OUT*%
X154024800Y-96295400D02*
X154024800Y-94895400D01*
X155424800Y-94895400D02*
X155424800Y-96295400D01*
X154024800Y-94895400D02*
X155424800Y-94895400D01*
X155424800Y-96295400D02*
X154024800Y-96295400D01*
%TO.C,C35*%
X170195400Y-84942633D02*
X170195400Y-85235167D01*
X169175400Y-84942633D02*
X169175400Y-85235167D01*
%TO.C,R19*%
X145794900Y-110962476D02*
X145794900Y-111471924D01*
X146839900Y-110962476D02*
X146839900Y-111471924D01*
%TO.C,R12*%
X130194345Y-102246581D02*
X129834111Y-102606815D01*
X129455419Y-101507655D02*
X129095185Y-101867889D01*
%TO.C,C32*%
X155488800Y-89199633D02*
X155488800Y-89492167D01*
X154468800Y-89199633D02*
X154468800Y-89492167D01*
%TO.C,C46*%
X148630800Y-111120933D02*
X148630800Y-111413467D01*
X147610800Y-111120933D02*
X147610800Y-111413467D01*
%TO.C,U2*%
X137219600Y-92979200D02*
X137219600Y-93779200D01*
X134099600Y-92979200D02*
X134099600Y-92179200D01*
X137219600Y-92979200D02*
X137219600Y-92179200D01*
X134099600Y-92979200D02*
X134099600Y-94779200D01*
%TO.C,U9*%
X141560807Y-99412193D02*
X142939665Y-100791052D01*
X145181193Y-95791807D02*
X146560052Y-97170665D01*
X145181193Y-95791807D02*
X142741675Y-93352288D01*
X141560807Y-99412193D02*
X140181948Y-98033335D01*
%TO.C,R10*%
X126266624Y-99670300D02*
X125757176Y-99670300D01*
X126266624Y-100715300D02*
X125757176Y-100715300D01*
%TO.C,C45*%
X135905400Y-115198867D02*
X135905400Y-114906333D01*
X134885400Y-115198867D02*
X134885400Y-114906333D01*
%TO.C,R21*%
X144985700Y-115509724D02*
X144985700Y-115000276D01*
X143940700Y-115509724D02*
X143940700Y-115000276D01*
%TO.C,C6*%
X121101333Y-75806800D02*
X121393867Y-75806800D01*
X121101333Y-76826800D02*
X121393867Y-76826800D01*
%TO.C,R24*%
X154725524Y-97536700D02*
X154216076Y-97536700D01*
X154725524Y-98581700D02*
X154216076Y-98581700D01*
%TO.C,C8*%
X133060600Y-90597733D02*
X133060600Y-90890267D01*
X132040600Y-90597733D02*
X132040600Y-90890267D01*
%TO.C,C28*%
X139381200Y-85684367D02*
X139381200Y-85391833D01*
X140401200Y-85684367D02*
X140401200Y-85391833D01*
%TO.C,C14*%
X130831600Y-94864933D02*
X130831600Y-95157467D01*
X131851600Y-94864933D02*
X131851600Y-95157467D01*
%TD*%
M02*
