M48
; DRILL file {KiCad (6.0.11)} date Tue May  9 17:47:43 2023
; FORMAT={-:-/ absolute / metric / decimal}
; #@! TF.CreationDate,2023-05-09T17:47:43+10:00
; #@! TF.GenerationSoftware,Kicad,Pcbnew,(6.0.11)
; #@! TF.FileFunction,MixedPlating,1,2
FMAT,2
METRIC
; #@! TA.AperFunction,Plated,PTH,ViaDrill
T1C0.250
; #@! TA.AperFunction,Plated,PTH,ViaDrill
T2C0.300
; #@! TA.AperFunction,Plated,PTH,ViaDrill
T3C0.400
; #@! TA.AperFunction,Plated,PTH,ComponentDrill
T4C1.000
; #@! TA.AperFunction,NonPlated,NPTH,ComponentDrill
T5C1.200
%
G90
G05
T1
X126.82Y-66.775
X126.82Y-68.525
X126.82Y-70.275
X126.82Y-72.025
X126.82Y-73.775
X126.82Y-110.525
X126.82Y-112.275
X126.82Y-114.025
X126.82Y-115.775
X126.82Y-117.525
X128.57Y-66.775
X128.57Y-68.525
X128.57Y-70.275
X128.57Y-117.525
X130.32Y-117.525
X135.57Y-66.775
X135.57Y-117.525
X137.32Y-66.775
X139.07Y-66.775
X140.82Y-66.775
X140.82Y-117.525
X142.57Y-117.525
X144.32Y-117.525
X146.07Y-115.775
X146.07Y-117.525
X147.82Y-73.775
X147.82Y-75.525
X147.82Y-77.275
X147.82Y-79.025
X147.82Y-80.775
X147.82Y-114.025
X147.82Y-115.775
X147.82Y-117.525
X149.57Y-100.025
X149.57Y-101.775
X149.57Y-103.525
X149.57Y-105.275
X149.57Y-107.025
X149.57Y-108.775
X149.57Y-110.525
X149.57Y-112.275
X149.57Y-114.025
X149.57Y-115.775
X149.57Y-117.525
X150.76Y-85.156
X151.32Y-73.775
X151.32Y-75.525
X151.32Y-91.275
X151.32Y-93.025
X151.32Y-94.775
X151.32Y-100.025
X151.32Y-115.775
X151.32Y-117.525
X152.385Y-78.992
X153.07Y-66.775
X153.07Y-73.775
X153.07Y-94.775
X153.07Y-100.025
X153.07Y-115.775
X153.07Y-117.525
X154.82Y-66.775
X154.82Y-100.025
X154.82Y-115.775
X154.82Y-117.525
X156.57Y-110.525
X156.57Y-114.025
X156.57Y-115.775
X156.57Y-117.525
X158.013Y-88.621
X158.32Y-108.775
X158.32Y-114.025
X158.32Y-115.775
X158.32Y-117.525
X158.75Y-89.078
X160.07Y-107.025
X160.07Y-112.275
X160.07Y-114.025
X160.07Y-115.775
X160.07Y-117.525
X160.63Y-93.218
X161.82Y-110.525
X161.82Y-112.275
X161.82Y-114.025
X161.82Y-115.775
X161.82Y-117.525
X163.57Y-108.775
X163.57Y-110.525
X163.57Y-112.275
X163.57Y-114.025
X163.57Y-115.775
X163.57Y-117.525
X165.32Y-96.525
X165.32Y-105.275
X165.32Y-107.025
X165.32Y-108.775
X165.32Y-110.525
X165.32Y-112.275
X165.32Y-114.025
X165.32Y-115.775
X165.32Y-117.525
X167.07Y-96.525
X167.07Y-105.275
X167.07Y-107.025
X167.07Y-108.775
X167.07Y-110.525
X167.07Y-112.275
X167.07Y-114.025
X167.07Y-115.775
X167.07Y-117.525
X168.82Y-86.025
X168.82Y-103.525
X168.82Y-105.275
X168.82Y-107.025
X168.82Y-108.775
X168.82Y-110.525
X168.82Y-112.275
X168.82Y-114.025
X168.82Y-115.775
X168.82Y-117.525
X170.57Y-105.275
X170.57Y-107.025
X170.57Y-108.775
X170.57Y-110.525
X170.57Y-112.275
X170.57Y-114.025
X170.57Y-115.775
X170.57Y-117.525
X172.32Y-84.275
X172.32Y-93.025
X172.32Y-94.775
X172.32Y-96.525
X172.32Y-101.775
X172.32Y-105.275
X172.32Y-107.025
X172.32Y-108.775
X172.32Y-110.525
X172.32Y-112.275
X172.32Y-114.025
X172.32Y-115.775
X172.32Y-117.525
T2
X158.445Y-90.145
T3
X130.759Y-71.45
X130.759Y-83.287
X130.759Y-87.274
X130.759Y-91.186
X130.76Y-95.047
X130.76Y-98.958
X130.76Y-102.87
X130.76Y-106.731
X130.76Y-110.642
X130.76Y-114.529
X130.76Y-75.362
X130.785Y-79.324
X136.195Y-69.459
X136.195Y-73.406
X136.197Y-77.318
X136.202Y-89.256
X136.202Y-93.116
X136.202Y-96.977
X136.202Y-100.914
X136.202Y-104.8
X136.202Y-108.687
X136.202Y-112.598
X136.211Y-81.305
X136.22Y-85.293
X142.748Y-83.205
X142.748Y-98.877
X143.627Y-80.99
X143.693Y-100.838
X144.323Y-88.531
X144.345Y-93.85
X144.412Y-75.959
X144.424Y-105.562
X144.577Y-72.746
X144.763Y-110.058
X144.763Y-113.623
X144.831Y-68.783
X145.542Y-91.156
X145.971Y-66.576
X147.269Y-71.374
X151.435Y-71.857
X151.841Y-69.317
X153.34Y-70.587
X153.645Y-93.066
X163.141Y-90.7
X163.165Y-89.657
X164.77Y-102.775
X166.61Y-98.552
X168.275Y-91.605
X168.91Y-94.971
X171.196Y-98.247
X171.73Y-86.741
T4
X127.711Y-76.81
X127.711Y-79.35
X127.711Y-81.89
X127.711Y-84.43
X127.711Y-86.97
X127.711Y-89.51
X127.711Y-92.05
X127.711Y-94.59
X127.711Y-97.13
X127.711Y-99.67
X127.711Y-102.21
X127.711Y-104.75
X127.711Y-107.29
X152.039Y-102.621
X152.039Y-105.161
X152.039Y-107.701
X152.039Y-110.241
X152.039Y-112.781
X154.579Y-102.621
X154.579Y-105.161
X154.579Y-107.701
X154.579Y-110.241
X154.579Y-112.781
X169.316Y-68.188
X169.316Y-70.688
X169.316Y-76.748
X169.316Y-79.248
T5
X171.316Y-72.288
X171.316Y-80.848
T0
M30
