M48
; DRILL file {KiCad (6.0.11)} date Tue May  9 17:29:06 2023
; FORMAT={-:-/ absolute / metric / decimal}
; #@! TF.CreationDate,2023-05-09T17:29:06+10:00
; #@! TF.GenerationSoftware,Kicad,Pcbnew,(6.0.11)
; #@! TF.FileFunction,MixedPlating,1,4
FMAT,2
METRIC
; #@! TA.AperFunction,Plated,PTH,ViaDrill
T1C0.250
; #@! TA.AperFunction,Plated,PTH,ComponentDrill
T2C1.000
; #@! TA.AperFunction,Plated,PTH,ComponentDrill
T3C1.170
; #@! TA.AperFunction,Plated,PTH,ComponentDrill
T4C1.400
%
G90
G05
T1
X109.945Y-91.633
X110.275Y-101.26
X110.3Y-95.087
X110.3Y-98.339
X110.3Y-103.571
X110.402Y-73.726
X110.402Y-74.818
X110.402Y-76.037
X110.402Y-77.13
X110.402Y-78.679
X110.402Y-79.771
X110.402Y-81.041
X111.977Y-91.684
X113.043Y-101.641
X113.043Y-103.622
X113.069Y-98.339
X113.094Y-96.129
X113.297Y-100.193
X114.263Y-91.684
X116.168Y-91.658
X117.793Y-91.709
X118.581Y-89.83
X118.581Y-90.719
X118.606Y-87.747
X118.606Y-88.661
X119.419Y-90.641
X119.927Y-87.95
X120.384Y-74.31
X120.486Y-78.527
X121.229Y-99.539
X121.44Y-77.982
X121.516Y-79.009
X122.111Y-74.336
X122.137Y-92.979
X122.162Y-97.45
X122.208Y-100.767
X122.619Y-99.151
X122.85Y-94.704
X122.899Y-91.286
X123.048Y-85.407
X123.102Y-82.907
X123.457Y-101.656
X124.623Y-98.917
X124.651Y-88.113
X124.981Y-79.568
X125.007Y-103.85
X125.147Y-98.453
X125.337Y-87.975
X125.566Y-73.599
X125.616Y-76.368
X126.124Y-83.911
X126.607Y-103.85
X126.607Y-104.993
X126.658Y-87.544
X126.683Y-85.207
X126.683Y-86.299
X126.886Y-94.249
X127.496Y-90.973
X127.529Y-96.248
X127.648Y-84.601
X127.699Y-82.336
X128.004Y-95.291
X128.08Y-96.942
X128.156Y-105.654
X128.334Y-101.234
X128.41Y-87.518
X128.436Y-86.274
X128.741Y-118.811
X128.766Y-114.645
X128.766Y-116.703
X128.944Y-90.769
X128.995Y-107.61
X129.096Y-79.924
X129.096Y-81.016
X129.731Y-95.697
X129.934Y-87.518
X129.934Y-117.897
X129.96Y-86.274
X130.087Y-115.585
X130.493Y-103.241
X130.565Y-84.652
X130.9Y-103.927
X130.9Y-105.222
X131.204Y-86.401
X131.204Y-87.417
X131.35Y-90.884
X131.484Y-118.862
X131.509Y-116.754
X131.585Y-97.602
X131.611Y-111.724
X132.119Y-76.901
X132.551Y-92.852
X132.779Y-117.897
X132.83Y-78.501
X133.271Y-111.479
X133.338Y-112.791
X133.44Y-88.763
X133.592Y-91.531
X133.643Y-89.88
X133.821Y-73.599
X134.024Y-100.472
X134.329Y-118.862
X134.532Y-112.842
X134.557Y-96.535
X134.71Y-86.324
X134.938Y-83.784
X135.014Y-98.923
X135.624Y-117.897
X135.776Y-95.849
X135.98Y-100.472
X136.335Y-97.602
X136.538Y-86.324
X136.564Y-83.759
X137.097Y-95.722
X137.097Y-118.836
X137.173Y-112.817
X137.681Y-97.119
X137.798Y-111.521
X137.885Y-79.847
X137.935Y-94.097
X138.164Y-82.895
X138.393Y-77.688
X138.418Y-117.871
X138.494Y-73.777
X138.494Y-75.631
X138.951Y-95.875
X139.256Y-94.376
X139.764Y-118.836
X139.79Y-78.704
X139.891Y-91.252
X140.171Y-93.513
X140.247Y-104.333
X140.679Y-112.055
X140.907Y-86.782
X140.933Y-81.194
X140.933Y-85.943
X140.958Y-89.093
X141.212Y-90.744
X141.212Y-115.357
X141.491Y-93.335
X141.695Y-108.016
X142.33Y-112.232
X142.33Y-118.836
X142.355Y-102.199
X142.634Y-90.719
X143.396Y-93.259
X143.752Y-77.485
X143.777Y-74.361
X143.777Y-75.885
X143.777Y-112.867
X143.904Y-106.289
X143.955Y-86.934
X144.108Y-93.894
X144.438Y-102.682
X145.095Y-110.305
X145.098Y-118.811
X145.454Y-104.917
X145.797Y-102.492
X146.724Y-104.054
X146.876Y-99.355
X147.537Y-96.535
X147.765Y-118.811
X148.045Y-105.273
X148.07Y-99.101
X148.299Y-114.341
X149.137Y-93.741
X149.137Y-101.768
X149.594Y-114.341
X149.721Y-89.677
X149.772Y-98.745
X149.95Y-76.342
X150.178Y-91.227
X150.178Y-92.751
X150.61Y-118.811
X151.245Y-93.411
X151.27Y-108.092
X151.448Y-102.936
X151.601Y-98.643
X151.677Y-112.512
X152.642Y-101.768
X152.642Y-104.79
X152.972Y-112.512
X153.175Y-95.697
X153.353Y-75.783
X153.379Y-118.786
X153.709Y-108.118
X153.912Y-73.574
X154.344Y-86.883
X155.792Y-83.403
X155.792Y-85.766
X156.046Y-118.786
X156.173Y-73.574
X156.452Y-108.168
X156.681Y-86.934
X156.681Y-92.776
X156.681Y-93.868
X156.884Y-98.44
X157.341Y-74.412
X157.646Y-85.766
X157.747Y-111.775
X157.747Y-113.071
X157.824Y-109.413
X158.255Y-75.656
X158.56Y-87.112
X158.611Y-73.548
X158.84Y-118.786
X159.627Y-107.787
X159.652Y-106.289
X159.856Y-88.052
X159.932Y-117.058
X160.084Y-95.087
X160.084Y-96.18
X160.084Y-98.491
X160.414Y-80.051
X160.414Y-81.321
X160.745Y-87.112
X160.922Y-107.787
X160.948Y-104.587
X160.948Y-106.289
X161.354Y-99.685
X161.608Y-118.76
X162.396Y-81.702
X162.421Y-74.285
X162.421Y-76.926
X162.421Y-85.131
X162.421Y-92.217
X162.421Y-94.706
X162.573Y-98.491
X162.929Y-117.058
X163.132Y-90.541
X163.843Y-99.685
X164.047Y-97.373
X164.275Y-118.76
X164.301Y-115.636
X164.326Y-112.69
X164.453Y-75.479
X164.453Y-78.196
X164.58Y-91.938
X164.834Y-107.787
X165.215Y-103.901
X165.266Y-98.491
X165.291Y-101.183
X165.647Y-80.228
X165.647Y-82.006
X165.647Y-84.47
X165.647Y-87.188
X165.825Y-117.058
X166.282Y-107.787
X166.333Y-92.497
X166.333Y-94.173
X166.367Y-95.892
X166.536Y-97.373
X166.866Y-88.433
X167.12Y-118.76
X167.145Y-82.057
X167.145Y-84.811
X167.628Y-98.491
X167.907Y-93.03
X168.415Y-107.787
X168.593Y-117.058
X169.406Y-73.904
X169.406Y-75.606
X169.584Y-88.433
X169.685Y-78.247
X169.863Y-107.787
X169.914Y-118.735
X170.828Y-100.828
X170.828Y-102.123
X170.828Y-103.673
X170.854Y-99.659
X170.955Y-114.518
X171.032Y-110.251
X171.209Y-117.058
X171.235Y-78.247
X171.844Y-86.401
X171.946Y-90.922
X172.048Y-95.316
X172.251Y-73.904
X172.251Y-75.606
X172.403Y-99.659
X172.733Y-118.735
X172.759Y-104.587
X172.759Y-106.289
X173.292Y-86.401
X173.394Y-90.922
X173.495Y-95.316
X173.699Y-99.659
X174.054Y-117.058
X175.426Y-73.904
X175.426Y-75.606
X175.502Y-118.709
X175.654Y-104.587
X175.654Y-106.289
X175.832Y-78.501
X175.832Y-81.651
X175.832Y-85.131
X175.832Y-89.22
X175.832Y-93.284
X175.832Y-97.348
X175.832Y-101.133
X176.823Y-117.058
X178.093Y-118.709
X178.398Y-104.587
X178.398Y-106.289
X178.398Y-108.702
X178.398Y-111.267
X178.398Y-113.579
X178.398Y-115.509
X178.423Y-73.904
X178.423Y-75.606
X178.804Y-78.501
X178.804Y-81.651
X178.804Y-85.131
X178.804Y-89.22
X178.804Y-93.284
X178.804Y-97.348
X178.804Y-101.133
X179.642Y-117.058
X180.938Y-118.709
X181.344Y-73.904
X181.344Y-75.606
X181.649Y-106.289
X181.649Y-108.702
X181.649Y-111.267
X181.649Y-113.579
X181.649Y-115.509
X181.674Y-104.587
X181.852Y-95.443
X181.91Y-99.837
X181.928Y-91.049
X181.979Y-81.905
X182.03Y-86.375
X182.411Y-117.058
X182.843Y-77.231
X183.732Y-118.684
X184.519Y-73.904
X184.519Y-75.606
X184.875Y-78.476
X184.875Y-81.625
X184.875Y-85.105
X184.875Y-89.195
X184.875Y-93.259
X184.875Y-97.323
X184.875Y-101.107
X185.103Y-104.587
X185.103Y-106.289
X185.103Y-108.702
X185.103Y-111.267
X185.103Y-113.579
X185.103Y-115.509
X185.205Y-117.058
T2
X115.857Y-93.574
X115.857Y-96.114
X115.857Y-98.654
X118.397Y-93.574
X118.397Y-96.114
X118.397Y-98.654
X124.346Y-74.894
X126.886Y-74.894
X129.426Y-74.894
X131.966Y-74.894
T3
X172.568Y-79.786
X172.568Y-84.226
X172.568Y-88.676
X172.568Y-93.116
X172.568Y-97.566
X172.568Y-102.006
X181.688Y-79.786
X181.688Y-84.226
X181.688Y-88.676
X181.688Y-93.116
X181.688Y-97.566
X181.688Y-102.006
T4
X117.947Y-116.119
X123.447Y-116.119
X155.066Y-110.305
X155.066Y-114.505
X160.566Y-110.305
X160.566Y-114.505
X168.213Y-110.305
X168.213Y-114.505
X173.713Y-110.305
X173.713Y-114.505
T0
M30
