%TF.GenerationSoftware,KiCad,Pcbnew,(6.0.11)*%
%TF.CreationDate,2023-05-09T17:47:33+10:00*%
%TF.ProjectId,LVBMS_A_Sample_R2,4c56424d-535f-4415-9f53-616d706c655f,1*%
%TF.SameCoordinates,Original*%
%TF.FileFunction,Copper,L1,Top*%
%TF.FilePolarity,Positive*%
%FSLAX46Y46*%
G04 Gerber Fmt 4.6, Leading zero omitted, Abs format (unit mm)*
G04 Created by KiCad (PCBNEW (6.0.11)) date 2023-05-09 17:47:33*
%MOMM*%
%LPD*%
G01*
G04 APERTURE LIST*
G04 Aperture macros list*
%AMRoundRect*
0 Rectangle with rounded corners*
0 $1 Rounding radius*
0 $2 $3 $4 $5 $6 $7 $8 $9 X,Y pos of 4 corners*
0 Add a 4 corners polygon primitive as box body*
4,1,4,$2,$3,$4,$5,$6,$7,$8,$9,$2,$3,0*
0 Add four circle primitives for the rounded corners*
1,1,$1+$1,$2,$3*
1,1,$1+$1,$4,$5*
1,1,$1+$1,$6,$7*
1,1,$1+$1,$8,$9*
0 Add four rect primitives between the rounded corners*
20,1,$1+$1,$2,$3,$4,$5,0*
20,1,$1+$1,$4,$5,$6,$7,0*
20,1,$1+$1,$6,$7,$8,$9,0*
20,1,$1+$1,$8,$9,$2,$3,0*%
G04 Aperture macros list end*
%TA.AperFunction,SMDPad,CuDef*%
%ADD10RoundRect,0.250000X-0.400000X-0.625000X0.400000X-0.625000X0.400000X0.625000X-0.400000X0.625000X0*%
%TD*%
%TA.AperFunction,SMDPad,CuDef*%
%ADD11C,1.000000*%
%TD*%
%TA.AperFunction,SMDPad,CuDef*%
%ADD12RoundRect,0.237500X0.250000X0.237500X-0.250000X0.237500X-0.250000X-0.237500X0.250000X-0.237500X0*%
%TD*%
%TA.AperFunction,SMDPad,CuDef*%
%ADD13RoundRect,0.237500X-0.250000X-0.237500X0.250000X-0.237500X0.250000X0.237500X-0.250000X0.237500X0*%
%TD*%
%TA.AperFunction,SMDPad,CuDef*%
%ADD14RoundRect,0.237500X0.300000X0.237500X-0.300000X0.237500X-0.300000X-0.237500X0.300000X-0.237500X0*%
%TD*%
%TA.AperFunction,SMDPad,CuDef*%
%ADD15RoundRect,0.237500X0.237500X-0.300000X0.237500X0.300000X-0.237500X0.300000X-0.237500X-0.300000X0*%
%TD*%
%TA.AperFunction,SMDPad,CuDef*%
%ADD16RoundRect,0.237500X-0.300000X-0.237500X0.300000X-0.237500X0.300000X0.237500X-0.300000X0.237500X0*%
%TD*%
%TA.AperFunction,SMDPad,CuDef*%
%ADD17R,1.800000X0.300000*%
%TD*%
%TA.AperFunction,SMDPad,CuDef*%
%ADD18RoundRect,0.237500X-0.287500X-0.237500X0.287500X-0.237500X0.287500X0.237500X-0.287500X0.237500X0*%
%TD*%
%TA.AperFunction,ComponentPad*%
%ADD19RoundRect,0.250000X0.750000X-0.600000X0.750000X0.600000X-0.750000X0.600000X-0.750000X-0.600000X0*%
%TD*%
%TA.AperFunction,ComponentPad*%
%ADD20O,2.000000X1.700000*%
%TD*%
%TA.AperFunction,SMDPad,CuDef*%
%ADD21RoundRect,0.237500X0.237500X-0.250000X0.237500X0.250000X-0.237500X0.250000X-0.237500X-0.250000X0*%
%TD*%
%TA.AperFunction,ComponentPad*%
%ADD22R,1.700000X1.700000*%
%TD*%
%TA.AperFunction,ComponentPad*%
%ADD23O,1.700000X1.700000*%
%TD*%
%TA.AperFunction,SMDPad,CuDef*%
%ADD24R,0.950000X1.450000*%
%TD*%
%TA.AperFunction,SMDPad,CuDef*%
%ADD25R,3.200000X1.450000*%
%TD*%
%TA.AperFunction,SMDPad,CuDef*%
%ADD26R,0.600000X1.150000*%
%TD*%
%TA.AperFunction,SMDPad,CuDef*%
%ADD27R,1.595000X0.800000*%
%TD*%
%TA.AperFunction,SMDPad,CuDef*%
%ADD28R,0.800000X0.900000*%
%TD*%
%TA.AperFunction,ViaPad*%
%ADD29C,0.500000*%
%TD*%
%TA.AperFunction,ViaPad*%
%ADD30C,0.600000*%
%TD*%
%TA.AperFunction,ViaPad*%
%ADD31C,0.800000*%
%TD*%
%TA.AperFunction,Conductor*%
%ADD32C,0.250000*%
%TD*%
%TA.AperFunction,Conductor*%
%ADD33C,0.500000*%
%TD*%
%TA.AperFunction,Conductor*%
%ADD34C,0.400000*%
%TD*%
%TA.AperFunction,Conductor*%
%ADD35C,0.200000*%
%TD*%
G04 APERTURE END LIST*
D10*
%TO.P,R47,1*%
%TO.N,Net-(Q14-Pad3)*%
X132384500Y-114528600D03*
%TO.P,R47,2*%
%TO.N,/Balancing and Filtering/BATT_0*%
X135484500Y-114528600D03*
%TD*%
D11*
%TO.P,TP15,1,1*%
%TO.N,/Balancing and Filtering/BATT_1*%
X138487800Y-110642400D03*
%TD*%
D12*
%TO.P,R10,1*%
%TO.N,Net-(C5-Pad1)*%
X134084200Y-67843400D03*
%TO.P,R10,2*%
%TO.N,/V+*%
X132259200Y-67843400D03*
%TD*%
D13*
%TO.P,R4,1*%
%TO.N,/ISO_SPI_+*%
X160377500Y-84404200D03*
%TO.P,R4,2*%
%TO.N,Net-(C20-Pad1)*%
X162202500Y-84404200D03*
%TD*%
D11*
%TO.P,TP28,1,1*%
%TO.N,/S10*%
X143002000Y-79044800D03*
%TD*%
D14*
%TO.P,C5,1*%
%TO.N,Net-(C5-Pad1)*%
X149884300Y-83312000D03*
%TO.P,C5,2*%
%TO.N,GND*%
X148159300Y-83312000D03*
%TD*%
D10*
%TO.P,R36,1*%
%TO.N,Net-(Q3-Pad3)*%
X132384200Y-71450200D03*
%TO.P,R36,2*%
%TO.N,/Balancing and Filtering/BATT_11*%
X135484200Y-71450200D03*
%TD*%
D15*
%TO.P,C15,1*%
%TO.N,/C2*%
X141180200Y-106525400D03*
%TO.P,C15,2*%
%TO.N,/C3*%
X141180200Y-104800400D03*
%TD*%
D16*
%TO.P,C20,1*%
%TO.N,Net-(C20-Pad1)*%
X167768100Y-84404200D03*
%TO.P,C20,2*%
%TO.N,GND*%
X169493100Y-84404200D03*
%TD*%
D17*
%TO.P,U1,1,V+*%
%TO.N,Net-(C5-Pad1)*%
X149212200Y-85155600D03*
%TO.P,U1,2,C12*%
%TO.N,/C12*%
X149212200Y-85655600D03*
%TO.P,U1,3,S12*%
%TO.N,/S12*%
X149212200Y-86155600D03*
%TO.P,U1,4,C11*%
%TO.N,/C11*%
X149212200Y-86655600D03*
%TO.P,U1,5,S11*%
%TO.N,/S11*%
X149212200Y-87155600D03*
%TO.P,U1,6,C10*%
%TO.N,/C10*%
X149212200Y-87655600D03*
%TO.P,U1,7,S10*%
%TO.N,/S10*%
X149212200Y-88155600D03*
%TO.P,U1,8,C9*%
%TO.N,/C9*%
X149212200Y-88655600D03*
%TO.P,U1,9,S9*%
%TO.N,/S9*%
X149212200Y-89155600D03*
%TO.P,U1,10,C8*%
%TO.N,/C8*%
X149212200Y-89655600D03*
%TO.P,U1,11,S8*%
%TO.N,/S8*%
X149212200Y-90155600D03*
%TO.P,U1,12,C7*%
%TO.N,/C7*%
X149212200Y-90655600D03*
%TO.P,U1,13,S7*%
%TO.N,/S7*%
X149212200Y-91155600D03*
%TO.P,U1,14,C6*%
%TO.N,/C6*%
X149212200Y-91655600D03*
%TO.P,U1,15,S6*%
%TO.N,/S6*%
X149212200Y-92155600D03*
%TO.P,U1,16,C5*%
%TO.N,/C5*%
X149212200Y-92655600D03*
%TO.P,U1,17,S5*%
%TO.N,/S5*%
X149212200Y-93155600D03*
%TO.P,U1,18,C4*%
%TO.N,/C4*%
X149212200Y-93655600D03*
%TO.P,U1,19,S4*%
%TO.N,/S4*%
X149212200Y-94155600D03*
%TO.P,U1,20,C3*%
%TO.N,/C3*%
X149212200Y-94655600D03*
%TO.P,U1,21,S3*%
%TO.N,/S3*%
X149212200Y-95155600D03*
%TO.P,U1,22,C2*%
%TO.N,/C2*%
X149212200Y-95655600D03*
%TO.P,U1,23,S2*%
%TO.N,/S2*%
X149212200Y-96155600D03*
%TO.P,U1,24,C1*%
%TO.N,/C1*%
X149212200Y-96655600D03*
%TO.P,U1,25,S1*%
%TO.N,/S1*%
X156312200Y-96655600D03*
%TO.P,U1,26,C0*%
%TO.N,GND*%
X156312200Y-96155600D03*
%TO.P,U1,27,GPIO1*%
%TO.N,/T1*%
X156312200Y-95655600D03*
%TO.P,U1,28,GPIO2*%
%TO.N,/T2*%
X156312200Y-95155600D03*
%TO.P,U1,29,GPIO3*%
%TO.N,/T3*%
X156312200Y-94655600D03*
%TO.P,U1,30,V-\u002A\u002A*%
%TO.N,GND*%
X156312200Y-94155600D03*
%TO.P,U1,31,V-*%
X156312200Y-93655600D03*
%TO.P,U1,32,GPIO4*%
%TO.N,/T4*%
X156312200Y-93155600D03*
%TO.P,U1,33,GPIO5*%
%TO.N,/TCON*%
X156312200Y-92655600D03*
%TO.P,U1,34,VREF2*%
%TO.N,Net-(C3-Pad1)*%
X156312200Y-92155600D03*
%TO.P,U1,35,VREF1*%
%TO.N,Net-(C4-Pad1)*%
X156312200Y-91655600D03*
%TO.P,U1,36,DTEN*%
%TO.N,/DTEN*%
X156312200Y-91155600D03*
%TO.P,U1,37,VREG*%
%TO.N,/VREG*%
X156312200Y-90655600D03*
%TO.P,U1,38,DRIVE*%
%TO.N,Net-(Q2-Pad1)*%
X156312200Y-90155600D03*
%TO.P,U1,39,WDT*%
%TO.N,Net-(R7-Pad1)*%
X156312200Y-89655600D03*
%TO.P,U1,40,ISOMD*%
%TO.N,/VREG*%
X156312200Y-89155600D03*
%TO.P,U1,41,CSB_(IMA)*%
%TO.N,/ISO_SPI_N*%
X156312200Y-88655600D03*
%TO.P,U1,42,SCK_(IPA)*%
%TO.N,/ISO_SPI_P*%
X156312200Y-88155600D03*
%TO.P,U1,43,SDI_(NC)*%
%TO.N,unconnected-(U1-Pad43)*%
X156312200Y-87655600D03*
%TO.P,U1,44,SDO_(NC)*%
%TO.N,unconnected-(U1-Pad44)*%
X156312200Y-87155600D03*
%TO.P,U1,45,IBIAS*%
%TO.N,Net-(U1-Pad45)*%
X156312200Y-86655600D03*
%TO.P,U1,46,ICMP*%
%TO.N,Net-(U1-Pad46)*%
X156312200Y-86155600D03*
%TO.P,U1,47,IMB*%
%TO.N,/ISO_SPI_-*%
X156312200Y-85655600D03*
%TO.P,U1,48,IPB*%
%TO.N,/ISO_SPI_+*%
X156312200Y-85155600D03*
%TD*%
D12*
%TO.P,R21,1*%
%TO.N,/C7*%
X139400300Y-89255600D03*
%TO.P,R21,2*%
%TO.N,/Balancing and Filtering/BATT_7*%
X137575300Y-89255600D03*
%TD*%
D13*
%TO.P,R6,1*%
%TO.N,Net-(U1-Pad45)*%
X159742500Y-87934800D03*
%TO.P,R6,2*%
%TO.N,Net-(U1-Pad46)*%
X161567500Y-87934800D03*
%TD*%
D12*
%TO.P,R13,1*%
%TO.N,/C11*%
X139393300Y-73406000D03*
%TO.P,R13,2*%
%TO.N,/Balancing and Filtering/BATT_11*%
X137568300Y-73406000D03*
%TD*%
D18*
%TO.P,F8,1*%
%TO.N,/B5*%
X132259500Y-96977200D03*
%TO.P,F8,2*%
%TO.N,/Balancing and Filtering/BATT_5*%
X134009500Y-96977200D03*
%TD*%
D11*
%TO.P,TP35,1,1*%
%TO.N,/S2*%
X143103600Y-110411600D03*
%TD*%
D12*
%TO.P,R32,1*%
%TO.N,/C3*%
X139400300Y-104800400D03*
%TO.P,R32,2*%
%TO.N,/Balancing and Filtering/BATT_3*%
X137575300Y-104800400D03*
%TD*%
D19*
%TO.P,J1,1,1*%
%TO.N,/IPB (ISO)*%
X169316400Y-70688200D03*
D20*
%TO.P,J1,2,2*%
%TO.N,/IMB (ISO)*%
X169316400Y-68188200D03*
%TD*%
D11*
%TO.P,TP29,1,1*%
%TO.N,/S8*%
X143002000Y-87680800D03*
%TD*%
D15*
%TO.P,C11,1*%
%TO.N,/C6*%
X141180200Y-90980600D03*
%TO.P,C11,2*%
%TO.N,/C7*%
X141180200Y-89255600D03*
%TD*%
D21*
%TO.P,R2,1*%
%TO.N,Net-(J4-Pad9)*%
X162433000Y-106500300D03*
%TO.P,R2,2*%
%TO.N,/VTEMP*%
X162433000Y-104675300D03*
%TD*%
D18*
%TO.P,F2,1*%
%TO.N,/B11*%
X132259200Y-73406000D03*
%TO.P,F2,2*%
%TO.N,/Balancing and Filtering/BATT_11*%
X134009200Y-73406000D03*
%TD*%
D11*
%TO.P,TP33,1,1*%
%TO.N,/S4*%
X143103600Y-102639200D03*
%TD*%
%TO.P,TP6,1,1*%
%TO.N,/Balancing and Filtering/BATT_10*%
X138487800Y-75361800D03*
%TD*%
D13*
%TO.P,R49,1*%
%TO.N,GND*%
X169904700Y-88354200D03*
%TO.P,R49,2*%
%TO.N,/DTEN*%
X171729700Y-88354200D03*
%TD*%
D12*
%TO.P,R35,1*%
%TO.N,GND*%
X139400300Y-116459000D03*
%TO.P,R35,2*%
%TO.N,/Balancing and Filtering/BATT_0*%
X137575300Y-116459000D03*
%TD*%
D10*
%TO.P,R39,1*%
%TO.N,Net-(Q6-Pad3)*%
X132384200Y-83286600D03*
%TO.P,R39,2*%
%TO.N,/Balancing and Filtering/BATT_8*%
X135484200Y-83286600D03*
%TD*%
D18*
%TO.P,F5,1*%
%TO.N,/B8*%
X132259200Y-85293200D03*
%TO.P,F5,2*%
%TO.N,/Balancing and Filtering/BATT_8*%
X134009200Y-85293200D03*
%TD*%
D10*
%TO.P,R42,1*%
%TO.N,Net-(Q9-Pad3)*%
X132384500Y-95046800D03*
%TO.P,R42,2*%
%TO.N,/Balancing and Filtering/BATT_5*%
X135484500Y-95046800D03*
%TD*%
D12*
%TO.P,R5,1*%
%TO.N,Net-(C20-Pad1)*%
X162202500Y-85953600D03*
%TO.P,R5,2*%
%TO.N,/ISO_SPI_-*%
X160377500Y-85953600D03*
%TD*%
D11*
%TO.P,TP25,1,1*%
%TO.N,/S12*%
X143002000Y-71729600D03*
%TD*%
D15*
%TO.P,C19,1*%
%TO.N,Net-(C19-Pad1)*%
X149301200Y-68401100D03*
%TO.P,C19,2*%
%TO.N,GND*%
X149301200Y-66676100D03*
%TD*%
D12*
%TO.P,R17,1*%
%TO.N,/C9*%
X139409100Y-81305400D03*
%TO.P,R17,2*%
%TO.N,/Balancing and Filtering/BATT_9*%
X137584100Y-81305400D03*
%TD*%
D22*
%TO.P,J2,1,Pin_1*%
%TO.N,/V+*%
X127711200Y-76809600D03*
D23*
%TO.P,J2,2,Pin_2*%
%TO.N,/B11*%
X127711200Y-79349600D03*
%TO.P,J2,3,Pin_3*%
%TO.N,/B10*%
X127711200Y-81889600D03*
%TO.P,J2,4,Pin_4*%
%TO.N,/B9*%
X127711200Y-84429600D03*
%TO.P,J2,5,Pin_5*%
%TO.N,/B8*%
X127711200Y-86969600D03*
%TO.P,J2,6,Pin_6*%
%TO.N,Net-(F6-Pad1)*%
X127711200Y-89509600D03*
%TO.P,J2,7,Pin_7*%
%TO.N,/B6*%
X127711200Y-92049600D03*
%TO.P,J2,8,Pin_8*%
%TO.N,/B5*%
X127711200Y-94589600D03*
%TO.P,J2,9,Pin_9*%
%TO.N,/B4*%
X127711200Y-97129600D03*
%TO.P,J2,10,Pin_10*%
%TO.N,/B3*%
X127711200Y-99669600D03*
%TO.P,J2,11,Pin_11*%
%TO.N,/B2*%
X127711200Y-102209600D03*
%TO.P,J2,12,Pin_12*%
%TO.N,/B1*%
X127711200Y-104749600D03*
%TO.P,J2,13,Pin_13*%
%TO.N,/B0*%
X127711200Y-107289600D03*
%TD*%
D12*
%TO.P,R34,1*%
%TO.N,/C1*%
X139400300Y-112598200D03*
%TO.P,R34,2*%
%TO.N,/Balancing and Filtering/BATT_1*%
X137575300Y-112598200D03*
%TD*%
D18*
%TO.P,F7,1*%
%TO.N,/B6*%
X132259200Y-93116400D03*
%TO.P,F7,2*%
%TO.N,/Balancing and Filtering/BATT_6*%
X134009200Y-93116400D03*
%TD*%
%TO.P,F12,1*%
%TO.N,/B1*%
X132259500Y-112598200D03*
%TO.P,F12,2*%
%TO.N,/Balancing and Filtering/BATT_1*%
X134009500Y-112598200D03*
%TD*%
D16*
%TO.P,C4,1*%
%TO.N,Net-(C4-Pad1)*%
X166499200Y-88366600D03*
%TO.P,C4,2*%
%TO.N,GND*%
X168224200Y-88366600D03*
%TD*%
D15*
%TO.P,C16,1*%
%TO.N,/C1*%
X141180200Y-110411600D03*
%TO.P,C16,2*%
%TO.N,/C2*%
X141180200Y-108686600D03*
%TD*%
D18*
%TO.P,F13,1*%
%TO.N,/B0*%
X132259500Y-116459000D03*
%TO.P,F13,2*%
%TO.N,/Balancing and Filtering/BATT_0*%
X134009500Y-116459000D03*
%TD*%
D22*
%TO.P,J4,1,Pin_1*%
%TO.N,/T1*%
X154579000Y-102620600D03*
D23*
%TO.P,J4,2,Pin_2*%
%TO.N,GND*%
X152039000Y-102620600D03*
%TO.P,J4,3,Pin_3*%
%TO.N,/T2*%
X154579000Y-105160600D03*
%TO.P,J4,4,Pin_4*%
%TO.N,GND*%
X152039000Y-105160600D03*
%TO.P,J4,5,Pin_5*%
%TO.N,/T3*%
X154579000Y-107700600D03*
%TO.P,J4,6,Pin_6*%
%TO.N,GND*%
X152039000Y-107700600D03*
%TO.P,J4,7,Pin_7*%
%TO.N,/T4*%
X154579000Y-110240600D03*
%TO.P,J4,8,Pin_8*%
%TO.N,GND*%
X152039000Y-110240600D03*
%TO.P,J4,9,Pin_9*%
%TO.N,Net-(J4-Pad9)*%
X154579000Y-112780600D03*
%TO.P,J4,10,Pin_10*%
%TO.N,GND*%
X152039000Y-112780600D03*
%TD*%
D24*
%TO.P,Q2,1,B*%
%TO.N,Net-(Q2-Pad1)*%
X166596000Y-100201000D03*
%TO.P,Q2,2,C_1*%
%TO.N,Net-(Q2-Pad2)*%
X168896000Y-100201000D03*
%TO.P,Q2,3,E*%
%TO.N,/VREG*%
X171196000Y-100201000D03*
D25*
%TO.P,Q2,4,C_2*%
%TO.N,Net-(Q2-Pad2)*%
X168896000Y-93601000D03*
%TD*%
D12*
%TO.P,R52,1*%
%TO.N,/VREG*%
X163370900Y-98526600D03*
%TO.P,R52,2*%
%TO.N,Net-(Q1-Pad1)*%
X161545900Y-98526600D03*
%TD*%
D18*
%TO.P,F3,1*%
%TO.N,/B10*%
X132259800Y-77317600D03*
%TO.P,F3,2*%
%TO.N,/Balancing and Filtering/BATT_10*%
X134009800Y-77317600D03*
%TD*%
%TO.P,F9,1*%
%TO.N,/B4*%
X132259500Y-100914200D03*
%TO.P,F9,2*%
%TO.N,/Balancing and Filtering/BATT_4*%
X134009500Y-100914200D03*
%TD*%
D15*
%TO.P,C9,1*%
%TO.N,/C8*%
X141189000Y-83030400D03*
%TO.P,C9,2*%
%TO.N,/C9*%
X141189000Y-81305400D03*
%TD*%
D11*
%TO.P,TP10,1,1*%
%TO.N,/Balancing and Filtering/BATT_6*%
X138487800Y-91155600D03*
%TD*%
D12*
%TO.P,R29,1*%
%TO.N,/C6*%
X139400300Y-93116400D03*
%TO.P,R29,2*%
%TO.N,/Balancing and Filtering/BATT_6*%
X137575300Y-93116400D03*
%TD*%
D11*
%TO.P,TP27,1,1*%
%TO.N,/S11*%
X143002000Y-74726800D03*
%TD*%
D13*
%TO.P,R48,1*%
%TO.N,/VREG*%
X169904700Y-90030600D03*
%TO.P,R48,2*%
%TO.N,/DTEN*%
X171729700Y-90030600D03*
%TD*%
D26*
%TO.P,Q1,1*%
%TO.N,Net-(Q1-Pad1)*%
X161483000Y-102775400D03*
%TO.P,Q1,2*%
%TO.N,/VREG*%
X163383000Y-102775400D03*
%TO.P,Q1,3*%
%TO.N,/VTEMP*%
X162433000Y-100475400D03*
%TD*%
D12*
%TO.P,R31,1*%
%TO.N,/C4*%
X139400300Y-100914200D03*
%TO.P,R31,2*%
%TO.N,/Balancing and Filtering/BATT_4*%
X137575300Y-100914200D03*
%TD*%
D10*
%TO.P,R44,1*%
%TO.N,Net-(Q11-Pad3)*%
X132384500Y-102870000D03*
%TO.P,R44,2*%
%TO.N,/Balancing and Filtering/BATT_3*%
X135484500Y-102870000D03*
%TD*%
%TO.P,R43,1*%
%TO.N,Net-(Q10-Pad3)*%
X132384500Y-98958400D03*
%TO.P,R43,2*%
%TO.N,/Balancing and Filtering/BATT_4*%
X135484500Y-98958400D03*
%TD*%
D27*
%TO.P,T1,1,TD+*%
%TO.N,/IPA (ISO)*%
X163965600Y-78206600D03*
%TO.P,T1,2,TCT*%
%TO.N,unconnected-(T1-Pad2)*%
X163965600Y-76936600D03*
%TO.P,T1,3,TD-*%
%TO.N,/IMA (ISO)*%
X163965600Y-75666600D03*
%TO.P,T1,4,NC_1*%
%TO.N,unconnected-(T1-Pad4)*%
X163965600Y-74396600D03*
%TO.P,T1,5,NC_2*%
%TO.N,unconnected-(T1-Pad5)*%
X163965600Y-73126600D03*
%TO.P,T1,6,RD+*%
%TO.N,/IPB (ISO)*%
X163965600Y-71856600D03*
%TO.P,T1,7,RCT*%
%TO.N,unconnected-(T1-Pad7)*%
X163965600Y-70586600D03*
%TO.P,T1,8,RD-*%
%TO.N,/IMB (ISO)*%
X163965600Y-69316600D03*
%TO.P,T1,9,RX-*%
%TO.N,/ISO_SPI_N*%
X155261600Y-69316600D03*
%TO.P,T1,10,CMT_1*%
%TO.N,Net-(T1-Pad10)*%
X155261600Y-70586600D03*
%TO.P,T1,11,RX+*%
%TO.N,/ISO_SPI_P*%
X155261600Y-71856600D03*
%TO.P,T1,12,NC_3*%
%TO.N,unconnected-(T1-Pad12)*%
X155261600Y-73126600D03*
%TO.P,T1,13,NC_4*%
%TO.N,unconnected-(T1-Pad13)*%
X155261600Y-74396600D03*
%TO.P,T1,14,TX-*%
%TO.N,/ISO_SPI_-*%
X155261600Y-75666600D03*
%TO.P,T1,15,CMT_2*%
%TO.N,Net-(C1-Pad2)*%
X155261600Y-76936600D03*
%TO.P,T1,16,TX+*%
%TO.N,/ISO_SPI_+*%
X155261600Y-78206600D03*
%TD*%
D21*
%TO.P,R3,1*%
%TO.N,Net-(C19-Pad1)*%
X147751800Y-68401100D03*
%TO.P,R3,2*%
%TO.N,/ISO_SPI_N*%
X147751800Y-66576100D03*
%TD*%
D15*
%TO.P,C6,1*%
%TO.N,/C11*%
X141173200Y-71195100D03*
%TO.P,C6,2*%
%TO.N,/C12*%
X141173200Y-69470100D03*
%TD*%
D18*
%TO.P,F4,1*%
%TO.N,/B9*%
X132259800Y-81305400D03*
%TO.P,F4,2*%
%TO.N,/Balancing and Filtering/BATT_9*%
X134009800Y-81305400D03*
%TD*%
D10*
%TO.P,R38,1*%
%TO.N,Net-(Q5-Pad3)*%
X132384800Y-79324200D03*
%TO.P,R38,2*%
%TO.N,/Balancing and Filtering/BATT_9*%
X135484800Y-79324200D03*
%TD*%
D15*
%TO.P,C17,1*%
%TO.N,GND*%
X141180200Y-114323200D03*
%TO.P,C17,2*%
%TO.N,/C1*%
X141180200Y-112598200D03*
%TD*%
D18*
%TO.P,F11,1*%
%TO.N,/B2*%
X132259500Y-108686600D03*
%TO.P,F11,2*%
%TO.N,/Balancing and Filtering/BATT_2*%
X134009500Y-108686600D03*
%TD*%
D10*
%TO.P,R40,1*%
%TO.N,Net-(Q7-Pad3)*%
X132384200Y-87274400D03*
%TO.P,R40,2*%
%TO.N,/Balancing and Filtering/BATT_7*%
X135484200Y-87274400D03*
%TD*%
D11*
%TO.P,TP9,1,1*%
%TO.N,/Balancing and Filtering/BATT_7*%
X138506200Y-87274400D03*
%TD*%
D15*
%TO.P,C14,1*%
%TO.N,/C3*%
X141180200Y-102639200D03*
%TO.P,C14,2*%
%TO.N,/C4*%
X141180200Y-100914200D03*
%TD*%
D18*
%TO.P,F1,1*%
%TO.N,/V+*%
X132259200Y-69458800D03*
%TO.P,F1,2*%
%TO.N,/Balancing and Filtering/BATT_12*%
X134009200Y-69458800D03*
%TD*%
D13*
%TO.P,R53,1*%
%TO.N,Net-(Q1-Pad1)*%
X161545900Y-96951800D03*
%TO.P,R53,2*%
%TO.N,Net-(Q15-Pad3)*%
X163370900Y-96951800D03*
%TD*%
D12*
%TO.P,R15,1*%
%TO.N,/C10*%
X139395100Y-77317600D03*
%TO.P,R15,2*%
%TO.N,/Balancing and Filtering/BATT_10*%
X137570100Y-77317600D03*
%TD*%
D11*
%TO.P,TP8,1,1*%
%TO.N,/Balancing and Filtering/BATT_8*%
X138496600Y-83286600D03*
%TD*%
D12*
%TO.P,R33,1*%
%TO.N,/C2*%
X139400300Y-108686600D03*
%TO.P,R33,2*%
%TO.N,/Balancing and Filtering/BATT_2*%
X137575300Y-108686600D03*
%TD*%
D11*
%TO.P,TP1,1,1*%
%TO.N,Net-(Q2-Pad1)*%
X166624000Y-103936800D03*
%TD*%
D28*
%TO.P,Q15,1,B*%
%TO.N,/TCON*%
X164322800Y-93335600D03*
%TO.P,Q15,2,E*%
%TO.N,GND*%
X162422800Y-93335600D03*
%TO.P,Q15,3,C*%
%TO.N,Net-(Q15-Pad3)*%
X163372800Y-95335600D03*
%TD*%
D15*
%TO.P,C7,1*%
%TO.N,/C10*%
X141173200Y-75131000D03*
%TO.P,C7,2*%
%TO.N,/C11*%
X141173200Y-73406000D03*
%TD*%
D11*
%TO.P,TP4,1,1*%
%TO.N,/Balancing and Filtering/BATT_12*%
X143662400Y-67614800D03*
%TD*%
D10*
%TO.P,R46,1*%
%TO.N,Net-(Q13-Pad3)*%
X132384500Y-110642400D03*
%TO.P,R46,2*%
%TO.N,/Balancing and Filtering/BATT_1*%
X135484500Y-110642400D03*
%TD*%
D11*
%TO.P,TP2,1,1*%
%TO.N,Net-(C5-Pad1)*%
X130022600Y-67843400D03*
%TD*%
D18*
%TO.P,F10,1*%
%TO.N,/B3*%
X132259500Y-104800400D03*
%TO.P,F10,2*%
%TO.N,/Balancing and Filtering/BATT_3*%
X134009500Y-104800400D03*
%TD*%
D11*
%TO.P,TP3,1,1*%
%TO.N,/VREG*%
X171196000Y-103835200D03*
%TD*%
D12*
%TO.P,R11,1*%
%TO.N,/C12*%
X139393300Y-69458800D03*
%TO.P,R11,2*%
%TO.N,/Balancing and Filtering/BATT_12*%
X137568300Y-69458800D03*
%TD*%
D16*
%TO.P,C2,1*%
%TO.N,/VREG*%
X169904700Y-91605400D03*
%TO.P,C2,2*%
%TO.N,GND*%
X171629700Y-91605400D03*
%TD*%
D11*
%TO.P,TP12,1,1*%
%TO.N,/Balancing and Filtering/BATT_4*%
X138487800Y-98958400D03*
%TD*%
%TO.P,TP11,1,1*%
%TO.N,/Balancing and Filtering/BATT_5*%
X138487800Y-95046800D03*
%TD*%
D15*
%TO.P,C10,1*%
%TO.N,/C7*%
X141198600Y-87018200D03*
%TO.P,C10,2*%
%TO.N,/C8*%
X141198600Y-85293200D03*
%TD*%
D10*
%TO.P,R41,1*%
%TO.N,Net-(Q8-Pad3)*%
X132384200Y-91186000D03*
%TO.P,R41,2*%
%TO.N,/Balancing and Filtering/BATT_6*%
X135484200Y-91186000D03*
%TD*%
D12*
%TO.P,R7,1*%
%TO.N,Net-(R7-Pad1)*%
X161770700Y-89655600D03*
%TO.P,R7,2*%
%TO.N,/VREG*%
X159945700Y-89655600D03*
%TD*%
D16*
%TO.P,C3,1*%
%TO.N,Net-(C3-Pad1)*%
X166500300Y-90030600D03*
%TO.P,C3,2*%
%TO.N,GND*%
X168225300Y-90030600D03*
%TD*%
D11*
%TO.P,TP5,1,1*%
%TO.N,/Balancing and Filtering/BATT_11*%
X138455400Y-71450200D03*
%TD*%
D13*
%TO.P,R1,1*%
%TO.N,/ISO_SPI_P*%
X145926800Y-69977000D03*
%TO.P,R1,2*%
%TO.N,Net-(C19-Pad1)*%
X147751800Y-69977000D03*
%TD*%
D18*
%TO.P,F6,1*%
%TO.N,Net-(F6-Pad1)*%
X132259200Y-89255600D03*
%TO.P,F6,2*%
%TO.N,/Balancing and Filtering/BATT_7*%
X134009200Y-89255600D03*
%TD*%
D11*
%TO.P,TP34,1,1*%
%TO.N,/S3*%
X143103600Y-106525400D03*
%TD*%
D13*
%TO.P,R8,1*%
%TO.N,Net-(U1-Pad46)*%
X164109400Y-86155600D03*
%TO.P,R8,2*%
%TO.N,GND*%
X165934400Y-86155600D03*
%TD*%
D12*
%TO.P,R19,1*%
%TO.N,/C8*%
X139418700Y-85293200D03*
%TO.P,R19,2*%
%TO.N,/Balancing and Filtering/BATT_8*%
X137593700Y-85293200D03*
%TD*%
D11*
%TO.P,TP30,1,1*%
%TO.N,/S7*%
X143002000Y-91155600D03*
%TD*%
%TO.P,TP36,1,1*%
%TO.N,/S1*%
X143103600Y-114323200D03*
%TD*%
%TO.P,TP31,1,1*%
%TO.N,/S6*%
X143002000Y-94538800D03*
%TD*%
%TO.P,TP17,1,1*%
%TO.N,Net-(U1-Pad46)*%
X164109400Y-87958300D03*
%TD*%
D15*
%TO.P,C8,1*%
%TO.N,/C9*%
X141175000Y-79042600D03*
%TO.P,C8,2*%
%TO.N,/C10*%
X141175000Y-77317600D03*
%TD*%
D11*
%TO.P,TP7,1,1*%
%TO.N,/Balancing and Filtering/BATT_9*%
X138457200Y-79324200D03*
%TD*%
%TO.P,TP14,1,1*%
%TO.N,/Balancing and Filtering/BATT_2*%
X138487800Y-106730800D03*
%TD*%
D15*
%TO.P,C12,1*%
%TO.N,/C5*%
X141180200Y-94841400D03*
%TO.P,C12,2*%
%TO.N,/C6*%
X141180200Y-93116400D03*
%TD*%
D10*
%TO.P,R45,1*%
%TO.N,Net-(Q12-Pad3)*%
X132384500Y-106730800D03*
%TO.P,R45,2*%
%TO.N,/Balancing and Filtering/BATT_2*%
X135484500Y-106730800D03*
%TD*%
D12*
%TO.P,R30,1*%
%TO.N,/C5*%
X139400300Y-96977200D03*
%TO.P,R30,2*%
%TO.N,/Balancing and Filtering/BATT_5*%
X137575300Y-96977200D03*
%TD*%
D10*
%TO.P,R37,1*%
%TO.N,Net-(Q4-Pad3)*%
X132384800Y-75361800D03*
%TO.P,R37,2*%
%TO.N,/Balancing and Filtering/BATT_10*%
X135484800Y-75361800D03*
%TD*%
D15*
%TO.P,C13,1*%
%TO.N,/C4*%
X141180200Y-98702200D03*
%TO.P,C13,2*%
%TO.N,/C5*%
X141180200Y-96977200D03*
%TD*%
D11*
%TO.P,TP16,1,1*%
%TO.N,/Balancing and Filtering/BATT_0*%
X138487800Y-114528600D03*
%TD*%
%TO.P,TP13,1,1*%
%TO.N,/Balancing and Filtering/BATT_3*%
X138487800Y-102870000D03*
%TD*%
D19*
%TO.P,J3,1,1*%
%TO.N,/IPA (ISO)*%
X169316400Y-79248000D03*
D20*
%TO.P,J3,2,2*%
%TO.N,/IMA (ISO)*%
X169316400Y-76748000D03*
%TD*%
D29*
%TO.N,GND*%
X168820400Y-105274800D03*
X160070400Y-107024800D03*
X139070400Y-66774800D03*
X147820400Y-117524800D03*
X163570400Y-114024800D03*
X167070400Y-110524800D03*
X130320400Y-117524800D03*
X160070400Y-112274800D03*
X153070400Y-100024800D03*
X163570400Y-110524800D03*
X151320400Y-94774800D03*
X168820400Y-117524800D03*
X149570400Y-103524800D03*
X158320400Y-117524800D03*
X149570400Y-105274800D03*
X142570400Y-117524800D03*
X172320400Y-114024800D03*
X126820400Y-115774800D03*
X149570400Y-107024800D03*
X165320400Y-110524800D03*
X170570400Y-117524800D03*
X126820400Y-73774800D03*
X154820400Y-117524800D03*
X163570400Y-112274800D03*
X167070400Y-107024800D03*
X156570400Y-114024800D03*
X126820400Y-112274800D03*
X151320400Y-100024800D03*
X147820400Y-79024800D03*
X167070400Y-115774800D03*
X165320400Y-105274800D03*
X170570400Y-110524800D03*
X149570400Y-115774800D03*
X165320400Y-117524800D03*
X172320400Y-115774800D03*
X126820400Y-66774800D03*
X172320400Y-107024800D03*
X156570400Y-117524800D03*
X149570400Y-112274800D03*
X146070400Y-117524800D03*
X149570400Y-114024800D03*
X165320400Y-107024800D03*
X126820400Y-110524800D03*
X140820400Y-117524800D03*
X126820400Y-70274800D03*
X170570400Y-112274800D03*
X170570400Y-115774800D03*
X160070400Y-115774800D03*
X161820400Y-110524800D03*
X151320400Y-93024800D03*
X154820400Y-66774800D03*
X163570400Y-108774800D03*
X140820400Y-66774800D03*
X153070400Y-73774800D03*
X144320400Y-117524800D03*
X165320400Y-114024800D03*
X168820400Y-86024800D03*
X161820400Y-114024800D03*
X147820400Y-115774800D03*
X168820400Y-115774800D03*
X153070400Y-115774800D03*
X168820400Y-103524800D03*
X135570400Y-117524800D03*
X165320400Y-115774800D03*
X128570400Y-68524800D03*
X167070400Y-117524800D03*
X168820400Y-112274800D03*
X137320400Y-66774800D03*
X163570400Y-115774800D03*
X170570400Y-114024800D03*
X151320400Y-115774800D03*
X160070400Y-117524800D03*
X158320400Y-114024800D03*
X172320400Y-108774800D03*
X172320400Y-93024800D03*
X158320400Y-115774800D03*
X167070400Y-96524800D03*
X147820400Y-73774800D03*
X170570400Y-105274800D03*
X170570400Y-107024800D03*
X151320400Y-117524800D03*
X170570400Y-108774800D03*
X168820400Y-107024800D03*
X167070400Y-105274800D03*
X168820400Y-108774800D03*
X147820400Y-77274800D03*
X172320400Y-112274800D03*
X151320400Y-91274800D03*
X161820400Y-115774800D03*
X163570400Y-117524800D03*
X126820400Y-68524800D03*
X165320400Y-112274800D03*
X172320400Y-105274800D03*
X153070400Y-117524800D03*
X158320400Y-108774800D03*
X128570400Y-66774800D03*
X153070400Y-66774800D03*
X172320400Y-117524800D03*
X128570400Y-117524800D03*
X161820400Y-112274800D03*
X167070400Y-114024800D03*
X149570400Y-108774800D03*
X160629600Y-93218000D03*
X126820400Y-117524800D03*
X172320400Y-96524800D03*
X151320400Y-73774800D03*
X126820400Y-72024800D03*
X149570400Y-110524800D03*
X167070400Y-112274800D03*
X156570400Y-115774800D03*
X153070400Y-94774800D03*
X154820400Y-115774800D03*
X149570400Y-117524800D03*
X161820400Y-117524800D03*
X156570400Y-110524800D03*
X168820400Y-110524800D03*
X160070400Y-114024800D03*
X147820400Y-114024800D03*
X167070400Y-108774800D03*
X147820400Y-80774800D03*
X154820400Y-100024800D03*
X168820400Y-114024800D03*
X149570400Y-101774800D03*
X135570400Y-66774800D03*
X149570400Y-100024800D03*
X151320400Y-75524800D03*
X147820400Y-75524800D03*
X146070400Y-115774800D03*
X172320400Y-110524800D03*
X128570400Y-70274800D03*
X165320400Y-96524800D03*
X172320400Y-84274800D03*
X126820400Y-114024800D03*
X172320400Y-94774800D03*
X172320400Y-101774800D03*
X165320400Y-108774800D03*
%TO.N,Net-(C1-Pad2)*%
X152384585Y-78991959D03*
%TO.N,/VREG*%
X158013400Y-88620600D03*
D30*
X158445200Y-90144600D03*
D31*
X171196000Y-98247200D03*
X168275000Y-91605400D03*
X164769800Y-102775400D03*
D29*
%TO.N,Net-(C5-Pad1)*%
X150759600Y-85155600D03*
D31*
%TO.N,/Balancing and Filtering/BATT_12*%
X136194800Y-69458800D03*
X144830800Y-68783200D03*
%TO.N,/Balancing and Filtering/BATT_11*%
X136194800Y-73406000D03*
%TO.N,/Balancing and Filtering/BATT_10*%
X136196600Y-77317600D03*
%TO.N,/Balancing and Filtering/BATT_9*%
X136210600Y-81305400D03*
%TO.N,/Balancing and Filtering/BATT_8*%
X136220200Y-85293200D03*
%TO.N,/Balancing and Filtering/BATT_7*%
X136201800Y-89255600D03*
%TO.N,/Balancing and Filtering/BATT_6*%
X136201800Y-93116400D03*
%TO.N,/Balancing and Filtering/BATT_5*%
X136201800Y-96977200D03*
%TO.N,/Balancing and Filtering/BATT_4*%
X136201800Y-100914200D03*
%TO.N,/Balancing and Filtering/BATT_3*%
X136201800Y-104800400D03*
%TO.N,/Balancing and Filtering/BATT_2*%
X136201800Y-108686600D03*
%TO.N,/Balancing and Filtering/BATT_1*%
X136201800Y-112598200D03*
%TO.N,/DTEN*%
X163141001Y-90700201D03*
X171729700Y-86741300D03*
%TO.N,Net-(Q2-Pad1)*%
X166610000Y-98552000D03*
X153644600Y-93065600D03*
%TO.N,Net-(Q2-Pad2)*%
X168910000Y-94970600D03*
%TO.N,Net-(Q3-Pad3)*%
X130759200Y-71450200D03*
%TO.N,Net-(Q4-Pad3)*%
X130759800Y-75361800D03*
%TO.N,Net-(Q5-Pad3)*%
X130784600Y-79324200D03*
%TO.N,Net-(Q6-Pad3)*%
X130759200Y-83286600D03*
%TO.N,Net-(Q7-Pad3)*%
X130759200Y-87274400D03*
%TO.N,Net-(Q8-Pad3)*%
X130759200Y-91186000D03*
%TO.N,Net-(Q9-Pad3)*%
X130759500Y-95046800D03*
%TO.N,Net-(Q10-Pad3)*%
X130759500Y-98958400D03*
%TO.N,Net-(Q11-Pad3)*%
X130759500Y-102870000D03*
%TO.N,Net-(Q12-Pad3)*%
X130759500Y-106730800D03*
%TO.N,Net-(Q13-Pad3)*%
X130759500Y-110642400D03*
%TO.N,Net-(Q14-Pad3)*%
X130759500Y-114528600D03*
%TO.N,/ISO_SPI_N*%
X151841200Y-69316600D03*
X145971100Y-66576100D03*
%TO.N,/ISO_SPI_P*%
X151434800Y-71856600D03*
X147269200Y-71374000D03*
%TO.N,/S12*%
X144576800Y-72745600D03*
%TO.N,/S11*%
X144411700Y-75958700D03*
%TO.N,/S10*%
X143627100Y-80990000D03*
%TO.N,/S9*%
X142748000Y-83205400D03*
%TO.N,/S8*%
X144322800Y-88531100D03*
%TO.N,/S7*%
X145542000Y-91155600D03*
%TO.N,/S6*%
X144345296Y-93850096D03*
%TO.N,/S5*%
X142748000Y-98877200D03*
%TO.N,/S4*%
X143692700Y-100838000D03*
%TO.N,/S3*%
X144424400Y-105562400D03*
%TO.N,/S2*%
X144763000Y-110058200D03*
%TO.N,/S1*%
X144763000Y-113622600D03*
D29*
%TO.N,Net-(R7-Pad1)*%
X158750000Y-89077800D03*
D31*
X163165499Y-89656917D03*
%TO.N,Net-(T1-Pad10)*%
X153339800Y-70586600D03*
%TD*%
D32*
%TO.N,GND*%
X154330400Y-95707200D02*
X154330400Y-94234000D01*
X154778800Y-96155600D02*
X154330400Y-95707200D01*
X157988000Y-97282000D02*
X157988000Y-96631400D01*
X156312200Y-96155600D02*
X154778800Y-96155600D01*
X157563400Y-97706600D02*
X157988000Y-97282000D01*
X140261000Y-114323200D02*
X141180200Y-114323200D01*
X139400300Y-115183900D02*
X140261000Y-114323200D01*
X157988000Y-96631400D02*
X157512200Y-96155600D01*
X154330400Y-94234000D02*
X154908800Y-93655600D01*
X139400300Y-116459000D02*
X142951200Y-116459000D01*
X147117200Y-98475400D02*
X147886000Y-97706600D01*
X139400300Y-116459000D02*
X139400300Y-115183900D01*
X147117200Y-112293000D02*
X147117200Y-98475400D01*
X156312200Y-93655600D02*
X156312200Y-94155600D01*
X142951200Y-116459000D02*
X147117200Y-112293000D01*
X154908800Y-93655600D02*
X156312200Y-93655600D01*
X157512200Y-96155600D02*
X156312200Y-96155600D01*
X147886000Y-97706600D02*
X157563400Y-97706600D01*
%TO.N,Net-(C1-Pad2)*%
X152508400Y-78843360D02*
X154415160Y-76936600D01*
X152384585Y-78991959D02*
X152508400Y-78868144D01*
X152508400Y-78868144D02*
X152508400Y-78843360D01*
X154415160Y-76936600D02*
X155261600Y-76936600D01*
D33*
%TO.N,/VREG*%
X169904700Y-91605400D02*
X169904700Y-90030600D01*
D32*
X163370900Y-98526600D02*
X163383000Y-98538700D01*
X157934200Y-90655600D02*
X156312200Y-90655600D01*
D33*
X163383000Y-98538700D02*
X163383000Y-102775400D01*
D32*
X171196000Y-100201000D02*
X171196000Y-103835200D01*
X158934200Y-89655600D02*
X158445200Y-90144600D01*
D33*
X164769800Y-102775400D02*
X163383000Y-102775400D01*
X169904700Y-91605400D02*
X168275000Y-91605400D01*
D32*
X157478400Y-89155600D02*
X156312200Y-89155600D01*
X159945700Y-89655600D02*
X158934200Y-89655600D01*
D33*
X171196000Y-100201000D02*
X171196000Y-98247200D01*
D32*
X158013400Y-88620600D02*
X157478400Y-89155600D01*
X158445200Y-90144600D02*
X157934200Y-90655600D01*
%TO.N,Net-(C3-Pad1)*%
X166500300Y-90030600D02*
X166500300Y-90623900D01*
X166500300Y-90623900D02*
X164968600Y-92155600D01*
X164968600Y-92155600D02*
X156312200Y-92155600D01*
%TO.N,Net-(C4-Pad1)*%
X156312200Y-91655600D02*
X163210200Y-91655600D01*
X163210200Y-91655600D02*
X166499200Y-88366600D01*
%TO.N,Net-(C5-Pad1)*%
X149212200Y-85155600D02*
X150759600Y-85155600D01*
D34*
X147472400Y-84632800D02*
X146676600Y-83837000D01*
D32*
X147472400Y-84632800D02*
X147995200Y-85155600D01*
D34*
X130022600Y-66903600D02*
X130022600Y-67843400D01*
D32*
X149212200Y-84798000D02*
X149212200Y-85155600D01*
X149884300Y-84125900D02*
X149212200Y-84798000D01*
X147995200Y-85155600D02*
X149162200Y-85155600D01*
D34*
X134084200Y-67843400D02*
X134084200Y-66875800D01*
X146676600Y-83837000D02*
X146676600Y-72961334D01*
X134084200Y-66875800D02*
X133527800Y-66319400D01*
X133527800Y-66319400D02*
X130606800Y-66319400D01*
X146676600Y-72961334D02*
X141558666Y-67843400D01*
D32*
X149884300Y-83312000D02*
X149884300Y-84125900D01*
D34*
X130606800Y-66319400D02*
X130022600Y-66903600D01*
X141558666Y-67843400D02*
X134084200Y-67843400D01*
D32*
%TO.N,/C11*%
X149212200Y-86655600D02*
X147459012Y-86655600D01*
X141173200Y-73406000D02*
X141173200Y-71195100D01*
X139393300Y-73406000D02*
X141173200Y-73406000D01*
X147459012Y-86655600D02*
X145251600Y-84448188D01*
X145251600Y-74614200D02*
X144043400Y-73406000D01*
X145251600Y-84448188D02*
X145251600Y-74614200D01*
X144043400Y-73406000D02*
X141173200Y-73406000D01*
%TO.N,/C12*%
X146151600Y-84075396D02*
X147731804Y-85655600D01*
X141173200Y-69470100D02*
X142442904Y-69470100D01*
X139404600Y-69470100D02*
X139393300Y-69458800D01*
X141173200Y-69470100D02*
X139404600Y-69470100D01*
X142442904Y-69470100D02*
X146151600Y-73178796D01*
X146151600Y-73178796D02*
X146151600Y-84075396D01*
X147731804Y-85655600D02*
X149212200Y-85655600D01*
%TO.N,/C10*%
X141175000Y-77317600D02*
X139395100Y-77317600D01*
X144351600Y-84820980D02*
X144351600Y-78133800D01*
X147186220Y-87655600D02*
X144351600Y-84820980D01*
X149212200Y-87655600D02*
X147186220Y-87655600D01*
X141173200Y-75131000D02*
X141173200Y-77315800D01*
X141173200Y-77315800D02*
X141175000Y-77317600D01*
X144351600Y-78133800D02*
X143535400Y-77317600D01*
X143535400Y-77317600D02*
X141175000Y-77317600D01*
%TO.N,/C9*%
X143451600Y-85193772D02*
X143451600Y-82009000D01*
X139409100Y-81305400D02*
X141189000Y-81305400D01*
X146913428Y-88655600D02*
X143451600Y-85193772D01*
X141175000Y-81291400D02*
X141189000Y-81305400D01*
X142748000Y-81305400D02*
X141189000Y-81305400D01*
X143451600Y-82009000D02*
X142748000Y-81305400D01*
X141175000Y-79042600D02*
X141175000Y-81291400D01*
X149212200Y-88655600D02*
X146913428Y-88655600D01*
%TO.N,/C8*%
X142278236Y-85293200D02*
X146640636Y-89655600D01*
X141198600Y-85293200D02*
X141198600Y-83040000D01*
X141198600Y-85293200D02*
X142278236Y-85293200D01*
X146640636Y-89655600D02*
X149212200Y-89655600D01*
X141198600Y-85293200D02*
X139418700Y-85293200D01*
X141198600Y-83040000D02*
X141189000Y-83030400D01*
%TO.N,/C7*%
X146367844Y-90655600D02*
X144967844Y-89255600D01*
X141198600Y-89237200D02*
X141180200Y-89255600D01*
X149212200Y-90655600D02*
X146367844Y-90655600D01*
X144967844Y-89255600D02*
X141180200Y-89255600D01*
X141180200Y-89255600D02*
X139400300Y-89255600D01*
X141198600Y-87018200D02*
X141198600Y-89237200D01*
%TO.N,/C6*%
X141180200Y-93116400D02*
X141180200Y-90980600D01*
X139400300Y-93116400D02*
X141180200Y-93116400D01*
X149212200Y-91655600D02*
X146291600Y-91655600D01*
X144830800Y-93116400D02*
X141180200Y-93116400D01*
X146291600Y-91655600D02*
X144830800Y-93116400D01*
%TO.N,/C5*%
X141180200Y-94841400D02*
X141180200Y-96977200D01*
X146564392Y-92655600D02*
X142242792Y-96977200D01*
X142242792Y-96977200D02*
X141180200Y-96977200D01*
X141180200Y-96977200D02*
X139400300Y-96977200D01*
X149212200Y-92655600D02*
X146564392Y-92655600D01*
%TO.N,/C4*%
X139400300Y-100914200D02*
X141180200Y-100914200D01*
X149212200Y-93655600D02*
X146837184Y-93655600D01*
X141180200Y-100914200D02*
X141180200Y-98702200D01*
X143510000Y-96982784D02*
X143510000Y-99923600D01*
X146837184Y-93655600D02*
X143510000Y-96982784D01*
X142519400Y-100914200D02*
X141180200Y-100914200D01*
X143510000Y-99923600D02*
X142519400Y-100914200D01*
%TO.N,/C3*%
X147109976Y-94655600D02*
X144417200Y-97348376D01*
X149212200Y-94655600D02*
X147109976Y-94655600D01*
X144417200Y-97348376D02*
X144417200Y-103385200D01*
X144417200Y-103385200D02*
X143002000Y-104800400D01*
X141180200Y-102639200D02*
X141180200Y-104800400D01*
X143002000Y-104800400D02*
X141180200Y-104800400D01*
X139400300Y-104800400D02*
X141180200Y-104800400D01*
%TO.N,/C2*%
X149212200Y-95655600D02*
X147382768Y-95655600D01*
X141180200Y-108686600D02*
X139400300Y-108686600D01*
X141180200Y-106525400D02*
X141180200Y-108686600D01*
X145317200Y-97721168D02*
X145317200Y-107717600D01*
X147382768Y-95655600D02*
X145317200Y-97721168D01*
X144348200Y-108686600D02*
X141180200Y-108686600D01*
X145317200Y-107717600D02*
X144348200Y-108686600D01*
%TO.N,/C1*%
X146217200Y-110627600D02*
X144246600Y-112598200D01*
X141180200Y-110411600D02*
X141180200Y-112598200D01*
X141180200Y-112598200D02*
X139400300Y-112598200D01*
X146217200Y-98093960D02*
X146217200Y-110627600D01*
X144246600Y-112598200D02*
X141180200Y-112598200D01*
X149212200Y-96655600D02*
X147655560Y-96655600D01*
X147655560Y-96655600D02*
X146217200Y-98093960D01*
%TO.N,/V+*%
X132259200Y-67843400D02*
X132259200Y-69458800D01*
X127736600Y-76804600D02*
X127736600Y-72948800D01*
X127736600Y-72948800D02*
X131226600Y-69458800D01*
X131226600Y-69458800D02*
X132259200Y-69458800D01*
%TO.N,/Balancing and Filtering/BATT_12*%
X137568300Y-69458800D02*
X136194800Y-69458800D01*
X144830800Y-68783200D02*
X143662400Y-67614800D01*
X134476600Y-69458800D02*
X136194800Y-69458800D01*
%TO.N,/B11*%
X129667000Y-77540200D02*
X129667000Y-74955400D01*
X131216400Y-73406000D02*
X132259200Y-73406000D01*
X127736600Y-79470600D02*
X129667000Y-77540200D01*
X129667000Y-74955400D02*
X131216400Y-73406000D01*
%TO.N,/Balancing and Filtering/BATT_11*%
X136194800Y-73406000D02*
X137568300Y-73406000D01*
X136067800Y-73406000D02*
X134460800Y-73406000D01*
X134442200Y-71450200D02*
X135484200Y-71450200D01*
X134009200Y-71883200D02*
X134442200Y-71450200D01*
X136194800Y-73406000D02*
X136067800Y-73406000D01*
X138455400Y-71450200D02*
X135484200Y-71450200D01*
X134009200Y-73406000D02*
X134009200Y-71883200D01*
%TO.N,/B10*%
X129819400Y-78155800D02*
X130657600Y-77317600D01*
X129819400Y-79927800D02*
X129819400Y-78155800D01*
X127736600Y-82010600D02*
X129819400Y-79927800D01*
X130657600Y-77317600D02*
X132259800Y-77317600D01*
%TO.N,/Balancing and Filtering/BATT_10*%
X138487800Y-75361800D02*
X135484800Y-75361800D01*
X134009800Y-77317600D02*
X134009800Y-75845000D01*
X137570100Y-77317600D02*
X136120400Y-77317600D01*
X134009800Y-75845000D02*
X134493000Y-75361800D01*
X134493000Y-75361800D02*
X135484800Y-75361800D01*
X136120400Y-77317600D02*
X134462600Y-77317600D01*
%TO.N,/B9*%
X127736600Y-84550600D02*
X130981800Y-81305400D01*
X130981800Y-81305400D02*
X132259800Y-81305400D01*
%TO.N,/Balancing and Filtering/BATT_9*%
X134009800Y-81305400D02*
X134009800Y-79858200D01*
X136109000Y-81305400D02*
X134476600Y-81305400D01*
X137584100Y-81305400D02*
X136109000Y-81305400D01*
X134543800Y-79324200D02*
X135484800Y-79324200D01*
X134009800Y-79858200D02*
X134543800Y-79324200D01*
X138457200Y-79324200D02*
X135484800Y-79324200D01*
%TO.N,/B8*%
X127736600Y-87090600D02*
X129534000Y-85293200D01*
X129534000Y-85293200D02*
X132259200Y-85293200D01*
%TO.N,/Balancing and Filtering/BATT_8*%
X136169400Y-85293200D02*
X134486200Y-85293200D01*
X135484200Y-83286600D02*
X134645400Y-83286600D01*
X137593700Y-85293200D02*
X136169400Y-85293200D01*
X138496600Y-83286600D02*
X135484200Y-83286600D01*
X134009200Y-83922800D02*
X134009200Y-85293200D01*
X134645400Y-83286600D02*
X134009200Y-83922800D01*
%TO.N,Net-(F6-Pad1)*%
X132259200Y-89255600D02*
X129565400Y-89255600D01*
X129565400Y-89255600D02*
X129190400Y-89630600D01*
X129190400Y-89630600D02*
X127736600Y-89630600D01*
%TO.N,/Balancing and Filtering/BATT_7*%
X136201800Y-89255600D02*
X137575300Y-89255600D01*
X134009200Y-87885200D02*
X134620000Y-87274400D01*
X138506200Y-87274400D02*
X135484200Y-87274400D01*
X134009200Y-89255600D02*
X134009200Y-87885200D01*
X134620000Y-87274400D02*
X135484200Y-87274400D01*
X134467800Y-89255600D02*
X136201800Y-89255600D01*
%TO.N,/B6*%
X127736600Y-92170600D02*
X128682400Y-93116400D01*
X128682400Y-93116400D02*
X132259200Y-93116400D01*
%TO.N,/Balancing and Filtering/BATT_6*%
X135484200Y-91186000D02*
X135514600Y-91155600D01*
X134009200Y-93116400D02*
X134009200Y-91796800D01*
X135514600Y-91155600D02*
X138487800Y-91155600D01*
X134620000Y-91186000D02*
X135484200Y-91186000D01*
X134467800Y-93116400D02*
X136252600Y-93116400D01*
X134009200Y-91796800D02*
X134620000Y-91186000D01*
X136252600Y-93116400D02*
X137575300Y-93116400D01*
%TO.N,/B5*%
X130003200Y-96977200D02*
X132259500Y-96977200D01*
X127736600Y-94710600D02*
X130003200Y-96977200D01*
%TO.N,/Balancing and Filtering/BATT_5*%
X136303400Y-96977200D02*
X134467800Y-96977200D01*
X135484500Y-95046800D02*
X138487800Y-95046800D01*
X134670800Y-95046800D02*
X134009500Y-95708100D01*
X137575300Y-96977200D02*
X136303400Y-96977200D01*
X134009500Y-95708100D02*
X134009500Y-96977200D01*
X135484500Y-95046800D02*
X134670800Y-95046800D01*
%TO.N,/B4*%
X131400200Y-100914200D02*
X132259500Y-100914200D01*
X127736600Y-97250600D02*
X131400200Y-100914200D01*
%TO.N,/Balancing and Filtering/BATT_4*%
X134009500Y-99467300D02*
X134518400Y-98958400D01*
X134518400Y-98958400D02*
X135484500Y-98958400D01*
X134009500Y-100914200D02*
X136271000Y-100914200D01*
X138487800Y-98958400D02*
X135484500Y-98958400D01*
X136271000Y-100914200D02*
X137575300Y-100914200D01*
X134009500Y-100914200D02*
X134009500Y-99467300D01*
%TO.N,/B3*%
X131165600Y-104800400D02*
X132259500Y-104800400D01*
X130034500Y-102088500D02*
X130034500Y-103669300D01*
X130034500Y-103669300D02*
X131165600Y-104800400D01*
X127736600Y-99790600D02*
X130034500Y-102088500D01*
%TO.N,/Balancing and Filtering/BATT_3*%
X134416800Y-102870000D02*
X135484500Y-102870000D01*
X138487800Y-102870000D02*
X135484500Y-102870000D01*
X136245600Y-104800400D02*
X137575300Y-104800400D01*
X134009500Y-104800400D02*
X134009500Y-103277300D01*
X134009500Y-103277300D02*
X134416800Y-102870000D01*
X134009500Y-104800400D02*
X136245600Y-104800400D01*
%TO.N,/B2*%
X132259500Y-108686600D02*
X131241800Y-108686600D01*
X130048000Y-106416995D02*
X130048000Y-104642000D01*
X130048000Y-104642000D02*
X127736600Y-102330600D01*
X131241800Y-108686600D02*
X130034500Y-107479300D01*
X130034500Y-106430495D02*
X130048000Y-106416995D01*
X130034500Y-107479300D02*
X130034500Y-106430495D01*
%TO.N,/Balancing and Filtering/BATT_2*%
X134416800Y-106730800D02*
X135484500Y-106730800D01*
X138487800Y-106730800D02*
X135484500Y-106730800D01*
X134009500Y-108686600D02*
X134009500Y-107138100D01*
X136271000Y-108686600D02*
X137575300Y-108686600D01*
X134009500Y-107138100D02*
X134416800Y-106730800D01*
X134009500Y-108686600D02*
X136271000Y-108686600D01*
%TO.N,/B1*%
X129489200Y-111048800D02*
X131038600Y-112598200D01*
X127711200Y-104749600D02*
X129489200Y-106527600D01*
X129489200Y-106527600D02*
X129489200Y-111048800D01*
X131038600Y-112598200D02*
X132259500Y-112598200D01*
%TO.N,/Balancing and Filtering/BATT_1*%
X134009500Y-111151300D02*
X134518400Y-110642400D01*
X134518400Y-110642400D02*
X135484500Y-110642400D01*
X134009500Y-112598200D02*
X136423400Y-112598200D01*
X138487800Y-110642400D02*
X135484500Y-110642400D01*
X136423400Y-112598200D02*
X137575300Y-112598200D01*
X134009500Y-112598200D02*
X134009500Y-111151300D01*
%TO.N,/B0*%
X130479800Y-116459000D02*
X127711200Y-113690400D01*
X127711200Y-113690400D02*
X127711200Y-107289600D01*
X132259500Y-116459000D02*
X130479800Y-116459000D01*
%TO.N,/Balancing and Filtering/BATT_0*%
X138487800Y-114528600D02*
X135484500Y-114528600D01*
X134009500Y-116459000D02*
X134009500Y-115062900D01*
X134543800Y-114528600D02*
X135484500Y-114528600D01*
X137575300Y-116459000D02*
X134009500Y-116459000D01*
X134009500Y-115062900D02*
X134543800Y-114528600D01*
%TO.N,/IPA (ISO)*%
X166878000Y-79273400D02*
X169291000Y-79273400D01*
X165811200Y-78206600D02*
X166878000Y-79273400D01*
X169291000Y-79273400D02*
X169316400Y-79248000D01*
X163965600Y-78206600D02*
X165811200Y-78206600D01*
%TO.N,/IMA (ISO)*%
X165582600Y-75666600D02*
X166664000Y-76748000D01*
X163965600Y-75666600D02*
X165582600Y-75666600D01*
X166664000Y-76748000D02*
X169316400Y-76748000D01*
%TO.N,/VTEMP*%
X162433000Y-104675300D02*
X162433000Y-100475400D01*
%TO.N,/T4*%
X159820600Y-104999000D02*
X154579000Y-110240600D01*
X156312200Y-93155600D02*
X157512200Y-93155600D01*
X157512200Y-93155600D02*
X159820600Y-95464000D01*
X159820600Y-95464000D02*
X159820600Y-104999000D01*
%TO.N,/T3*%
X159370600Y-96104812D02*
X157921388Y-94655600D01*
X159370600Y-102909000D02*
X154579000Y-107700600D01*
X159370600Y-96104812D02*
X159370600Y-102909000D01*
X157921388Y-94655600D02*
X156312200Y-94655600D01*
%TO.N,/T2*%
X158920600Y-96291208D02*
X158920600Y-100819000D01*
X158920600Y-100819000D02*
X154579000Y-105160600D01*
X157784992Y-95155600D02*
X158920600Y-96291208D01*
X156312200Y-95155600D02*
X157784992Y-95155600D01*
%TO.N,/T1*%
X154579000Y-102620600D02*
X154579000Y-102596000D01*
X158470600Y-96477604D02*
X157648596Y-95655600D01*
X158470600Y-98704400D02*
X158470600Y-96477604D01*
X157648596Y-95655600D02*
X156312200Y-95655600D01*
X154579000Y-102596000D02*
X158470600Y-98704400D01*
%TO.N,/DTEN*%
X163141001Y-90700201D02*
X162685602Y-91155600D01*
X171729700Y-90030600D02*
X171729700Y-88354200D01*
X162685602Y-91155600D02*
X156312200Y-91155600D01*
X171729700Y-88354200D02*
X171729700Y-86741300D01*
%TO.N,Net-(Q1-Pad1)*%
X161483000Y-98589500D02*
X161545900Y-98526600D01*
X161483000Y-102775400D02*
X161483000Y-98589500D01*
X161545900Y-96951800D02*
X161545900Y-98526600D01*
%TO.N,Net-(Q2-Pad1)*%
X155134900Y-90155600D02*
X156312200Y-90155600D01*
X166610000Y-100201000D02*
X166610000Y-103922800D01*
X153644600Y-91645900D02*
X155134900Y-90155600D01*
X166610000Y-103922800D02*
X166624000Y-103936800D01*
X153644600Y-93065600D02*
X153644600Y-91645900D01*
X166610000Y-98552000D02*
X166610000Y-100201000D01*
%TO.N,Net-(Q2-Pad2)*%
X168910000Y-94970600D02*
X168910000Y-93601000D01*
X168910000Y-94970600D02*
X168910000Y-100201000D01*
%TO.N,Net-(Q3-Pad3)*%
X130759200Y-71450200D02*
X132384200Y-71450200D01*
%TO.N,Net-(Q4-Pad3)*%
X130759800Y-75361800D02*
X132384800Y-75361800D01*
%TO.N,Net-(Q5-Pad3)*%
X132409600Y-79324200D02*
X130784600Y-79324200D01*
%TO.N,Net-(Q6-Pad3)*%
X130759200Y-83286600D02*
X132384200Y-83286600D01*
%TO.N,Net-(Q7-Pad3)*%
X130759200Y-87274400D02*
X132384200Y-87274400D01*
%TO.N,Net-(Q8-Pad3)*%
X132384200Y-91186000D02*
X130759200Y-91186000D01*
%TO.N,Net-(Q9-Pad3)*%
X132384500Y-95046800D02*
X130759500Y-95046800D01*
%TO.N,Net-(Q10-Pad3)*%
X132384500Y-98958400D02*
X130759500Y-98958400D01*
%TO.N,Net-(Q11-Pad3)*%
X130759500Y-102870000D02*
X132384500Y-102870000D01*
%TO.N,Net-(Q12-Pad3)*%
X132384500Y-106730800D02*
X130759500Y-106730800D01*
%TO.N,Net-(Q13-Pad3)*%
X132384500Y-110642400D02*
X130759500Y-110642400D01*
%TO.N,Net-(Q14-Pad3)*%
X132384500Y-114528600D02*
X130759500Y-114528600D01*
D35*
%TO.N,/ISO_SPI_N*%
X147751800Y-66576100D02*
X145971100Y-66576100D01*
X152552400Y-83032600D02*
X152552400Y-87389400D01*
X149482600Y-70354400D02*
X149482600Y-79962800D01*
X153793600Y-88630600D02*
X154937199Y-88630600D01*
X154937199Y-88630600D02*
X154962199Y-88655600D01*
X150520400Y-69316600D02*
X149482600Y-70354400D01*
X149482600Y-79962800D02*
X152552400Y-83032600D01*
X152552400Y-87389400D02*
X153793600Y-88630600D01*
X155261600Y-69316600D02*
X151841200Y-69316600D01*
X154962199Y-88655600D02*
X156312200Y-88655600D01*
X151841200Y-69316600D02*
X150520400Y-69316600D01*
%TO.N,/ISO_SPI_P*%
X145926800Y-70819000D02*
X146481800Y-71374000D01*
X153980000Y-88180600D02*
X152952400Y-87153000D01*
X149932600Y-79847114D02*
X149932600Y-73358800D01*
X152952400Y-82866915D02*
X149932600Y-79847114D01*
X154937199Y-88180600D02*
X153980000Y-88180600D01*
X146481800Y-71374000D02*
X147269200Y-71374000D01*
X154962199Y-88155600D02*
X154937199Y-88180600D01*
X156312200Y-88155600D02*
X154962199Y-88155600D01*
X149932600Y-73358800D02*
X151434800Y-71856600D01*
X151434800Y-71856600D02*
X155261600Y-71856600D01*
X145926800Y-69977000D02*
X145926800Y-70819000D01*
X152952400Y-87153000D02*
X152952400Y-82866915D01*
D32*
%TO.N,Net-(C19-Pad1)*%
X147751800Y-68401100D02*
X147751800Y-69977000D01*
X149301200Y-68401100D02*
X147751800Y-68401100D01*
%TO.N,/S12*%
X145082008Y-72745600D02*
X145701600Y-73365192D01*
X144576800Y-72745600D02*
X145082008Y-72745600D01*
X144576800Y-72745600D02*
X144018000Y-72745600D01*
X144018000Y-72745600D02*
X143002000Y-71729600D01*
X145701600Y-84261792D02*
X147595408Y-86155600D01*
X145701600Y-73365192D02*
X145701600Y-84261792D01*
X147595408Y-86155600D02*
X149212200Y-86155600D01*
%TO.N,/S11*%
X144411700Y-75958700D02*
X144386300Y-75958700D01*
X147322616Y-87155600D02*
X149212200Y-87155600D01*
X144801600Y-84634584D02*
X147322616Y-87155600D01*
X144411700Y-75958700D02*
X144801600Y-76348600D01*
X144801600Y-76348600D02*
X144801600Y-84634584D01*
X144386300Y-75958700D02*
X143154400Y-74726800D01*
X143154400Y-74726800D02*
X143002000Y-74726800D01*
%TO.N,/S10*%
X143002000Y-79044800D02*
X143002000Y-80364900D01*
X143901600Y-81264500D02*
X143901600Y-85007376D01*
X143002000Y-80364900D02*
X143627100Y-80990000D01*
X143627100Y-80990000D02*
X143901600Y-81264500D01*
X143901600Y-85007376D02*
X147049824Y-88155600D01*
X147049824Y-88155600D02*
X149212200Y-88155600D01*
%TO.N,/S9*%
X146777032Y-89155600D02*
X142748000Y-85126568D01*
X142748000Y-85126568D02*
X142748000Y-83205400D01*
X149212200Y-89155600D02*
X146777032Y-89155600D01*
%TO.N,/S8*%
X143852300Y-88531100D02*
X143002000Y-87680800D01*
X144879740Y-88531100D02*
X146504240Y-90155600D01*
X144322800Y-88531100D02*
X144879740Y-88531100D01*
X146504240Y-90155600D02*
X149212200Y-90155600D01*
X144322800Y-88531100D02*
X143852300Y-88531100D01*
%TO.N,/S7*%
X145542000Y-91155600D02*
X149212200Y-91155600D01*
X145542000Y-91155600D02*
X143002000Y-91155600D01*
%TO.N,/S6*%
X146427996Y-92155600D02*
X149212200Y-92155600D01*
X144345296Y-93850096D02*
X144733500Y-93850096D01*
X144733500Y-93850096D02*
X146427996Y-92155600D01*
X143656592Y-94538800D02*
X144345296Y-93850096D01*
X143002000Y-94538800D02*
X143656592Y-94538800D01*
%TO.N,/S5*%
X146700788Y-93155600D02*
X142748000Y-97108388D01*
X142748000Y-97108388D02*
X142748000Y-98877200D01*
X149212200Y-93155600D02*
X146700788Y-93155600D01*
%TO.N,/S4*%
X143103600Y-101427100D02*
X143692700Y-100838000D01*
X143103600Y-102639200D02*
X143103600Y-101427100D01*
X146973580Y-94155600D02*
X149212200Y-94155600D01*
X143692700Y-100838000D02*
X143967200Y-100563500D01*
X143967200Y-100563500D02*
X143967200Y-97161980D01*
X143967200Y-97161980D02*
X146973580Y-94155600D01*
%TO.N,/S3*%
X143461400Y-106525400D02*
X144424400Y-105562400D01*
X149212200Y-95155600D02*
X147246372Y-95155600D01*
X147246372Y-95155600D02*
X144867200Y-97534772D01*
X144867200Y-105119600D02*
X144867200Y-97534772D01*
X143103600Y-106525400D02*
X143461400Y-106525400D01*
X144424400Y-105562400D02*
X144867200Y-105119600D01*
%TO.N,/S2*%
X145767200Y-97907564D02*
X147519164Y-96155600D01*
X145767200Y-109054000D02*
X144763000Y-110058200D01*
X145767200Y-97907564D02*
X145767200Y-109054000D01*
X143103600Y-110411600D02*
X144409600Y-110411600D01*
X147519164Y-96155600D02*
X149212200Y-96155600D01*
X144409600Y-110411600D02*
X144763000Y-110058200D01*
%TO.N,/S1*%
X147690956Y-97256600D02*
X152603200Y-97256600D01*
X152603200Y-97256600D02*
X153204200Y-96655600D01*
X144062400Y-114323200D02*
X144763000Y-113622600D01*
X144763000Y-113605800D02*
X146667200Y-111701600D01*
X146667200Y-111701600D02*
X146667200Y-98280356D01*
X153204200Y-96655600D02*
X156312200Y-96655600D01*
X144763000Y-113622600D02*
X144763000Y-113605800D01*
X146667200Y-98280356D02*
X147690956Y-97256600D01*
X143103600Y-114323200D02*
X144062400Y-114323200D01*
%TO.N,Net-(C20-Pad1)*%
X162202500Y-84404200D02*
X167768100Y-84404200D01*
X162202500Y-85953600D02*
X162202500Y-84404200D01*
%TO.N,/IPB (ISO)*%
X165760400Y-71856600D02*
X166928800Y-70688200D01*
X166928800Y-70688200D02*
X169316400Y-70688200D01*
X163965600Y-71856600D02*
X165760400Y-71856600D01*
%TO.N,/IMB (ISO)*%
X167473000Y-68188200D02*
X169316400Y-68188200D01*
X166344600Y-69316600D02*
X167473000Y-68188200D01*
X163965600Y-69316600D02*
X166344600Y-69316600D01*
%TO.N,Net-(R7-Pad1)*%
X163164182Y-89655600D02*
X163165499Y-89656917D01*
X161770700Y-89655600D02*
X163164182Y-89655600D01*
X158172200Y-89655600D02*
X156312200Y-89655600D01*
X158750000Y-89077800D02*
X158172200Y-89655600D01*
%TO.N,Net-(Q15-Pad3)*%
X163372800Y-96949900D02*
X163370900Y-96951800D01*
X163372800Y-95335600D02*
X163372800Y-96949900D01*
D35*
%TO.N,/ISO_SPI_+*%
X155537200Y-85180600D02*
X155069400Y-85180600D01*
X152933400Y-79552800D02*
X154279600Y-78206600D01*
X154279600Y-78206600D02*
X155261600Y-78206600D01*
X152933400Y-80086200D02*
X152933400Y-79552800D01*
X155562200Y-85155600D02*
X155537200Y-85180600D01*
X156312200Y-85155600D02*
X158684400Y-85155600D01*
X156312200Y-85155600D02*
X155562200Y-85155600D01*
X158684400Y-85155600D02*
X159435800Y-84404200D01*
X159435800Y-84404200D02*
X160377500Y-84404200D01*
X155069400Y-85180600D02*
X154914600Y-85025800D01*
X154914600Y-85025800D02*
X154914600Y-82067400D01*
X154914600Y-82067400D02*
X152933400Y-80086200D01*
%TO.N,/ISO_SPI_-*%
X151834585Y-79553071D02*
X151834585Y-78764141D01*
X154883000Y-85630600D02*
X154514600Y-85262200D01*
X151834585Y-78764141D02*
X151841200Y-78757526D01*
X154254200Y-75666600D02*
X155261600Y-75666600D01*
X155562200Y-85655600D02*
X155537200Y-85630600D01*
X154514600Y-85262200D02*
X154514600Y-82233086D01*
X158706000Y-85655600D02*
X159004000Y-85953600D01*
X156312200Y-85655600D02*
X155562200Y-85655600D01*
X151841200Y-78757526D02*
X151841200Y-78079600D01*
X155537200Y-85630600D02*
X154883000Y-85630600D01*
X159004000Y-85953600D02*
X160377500Y-85953600D01*
X154514600Y-82233086D02*
X151834585Y-79553071D01*
X151841200Y-78079600D02*
X154254200Y-75666600D01*
X156312200Y-85655600D02*
X158706000Y-85655600D01*
D32*
%TO.N,Net-(J4-Pad9)*%
X162433000Y-107899200D02*
X162433000Y-106500300D01*
X157551600Y-112780600D02*
X162433000Y-107899200D01*
X154579000Y-112780600D02*
X157551600Y-112780600D01*
%TO.N,/TCON*%
X158035200Y-92655600D02*
X156312200Y-92655600D01*
X164322800Y-93335600D02*
X164322800Y-93969800D01*
X159689800Y-94310200D02*
X158035200Y-92655600D01*
X163982400Y-94310200D02*
X159689800Y-94310200D01*
X164322800Y-93969800D02*
X163982400Y-94310200D01*
%TO.N,Net-(U1-Pad46)*%
X161772600Y-87958300D02*
X164109400Y-87958300D01*
X161417000Y-87122000D02*
X161592900Y-87297900D01*
X158596400Y-86155600D02*
X159562800Y-87122000D01*
X159562800Y-87122000D02*
X161417000Y-87122000D01*
X164109400Y-86106000D02*
X164109400Y-87958300D01*
X161592900Y-88138000D02*
X161772600Y-87958300D01*
X161592900Y-87297900D02*
X161592900Y-88138000D01*
X156312200Y-86155600D02*
X158596400Y-86155600D01*
%TO.N,Net-(U1-Pad45)*%
X156312200Y-86655600D02*
X157674000Y-86655600D01*
X158953200Y-87934800D02*
X159742500Y-87934800D01*
X157674000Y-86655600D02*
X158953200Y-87934800D01*
%TO.N,Net-(T1-Pad10)*%
X153339800Y-70586600D02*
X155261600Y-70586600D01*
%TD*%
%TA.AperFunction,Conductor*%
%TO.N,GND*%
G36*
X130100778Y-65603302D02*
G01*
X130147271Y-65656958D01*
X130157375Y-65727232D01*
X130126734Y-65793117D01*
X130093364Y-65830571D01*
X130088400Y-65835829D01*
X129542065Y-66382165D01*
X129535798Y-66388019D01*
X129497940Y-66421044D01*
X129497937Y-66421047D01*
X129492215Y-66426039D01*
X129455472Y-66478319D01*
X129451539Y-66483614D01*
X129412124Y-66533882D01*
X129409001Y-66540798D01*
X129407617Y-66543084D01*
X129399243Y-66557765D01*
X129397978Y-66560125D01*
X129393610Y-66566339D01*
X129390850Y-66573418D01*
X129390849Y-66573420D01*
X129370398Y-66625875D01*
X129367847Y-66631944D01*
X129341555Y-66690173D01*
X129340171Y-66697640D01*
X129339370Y-66700195D01*
X129334741Y-66716448D01*
X129334078Y-66719028D01*
X129331318Y-66726109D01*
X129330327Y-66733640D01*
X129330326Y-66733642D01*
X129322979Y-66789452D01*
X129321948Y-66795959D01*
X129310304Y-66858786D01*
X129310741Y-66866366D01*
X129310741Y-66866367D01*
X129313891Y-66920992D01*
X129314100Y-66928246D01*
X129314100Y-67072883D01*
X129294098Y-67141004D01*
X129284621Y-67153873D01*
X129186446Y-67270874D01*
X129183479Y-67276272D01*
X129183475Y-67276277D01*
X129109838Y-67410225D01*
X129091167Y-67444187D01*
X129089306Y-67450054D01*
X129089305Y-67450056D01*
X129035667Y-67619144D01*
X129031365Y-67632706D01*
X129009319Y-67829251D01*
X129010274Y-67840628D01*
X129025245Y-68018909D01*
X129025868Y-68026334D01*
X129080383Y-68216450D01*
X129170787Y-68392356D01*
X129293635Y-68547353D01*
X129298328Y-68551347D01*
X129298329Y-68551348D01*
X129437177Y-68669516D01*
X129444250Y-68675536D01*
X129616894Y-68772024D01*
X129804992Y-68833140D01*
X130001377Y-68856558D01*
X130007512Y-68856086D01*
X130007514Y-68856086D01*
X130192430Y-68841857D01*
X130192434Y-68841856D01*
X130198572Y-68841384D01*
X130389063Y-68788198D01*
X130394567Y-68785418D01*
X130394569Y-68785417D01*
X130560095Y-68701804D01*
X130560097Y-68701803D01*
X130565596Y-68699025D01*
X130721447Y-68577261D01*
X130850678Y-68427545D01*
X130948369Y-68255579D01*
X131010797Y-68067913D01*
X131012194Y-68056854D01*
X131040576Y-67991778D01*
X131099636Y-67952377D01*
X131170622Y-67951161D01*
X131230997Y-67988515D01*
X131261592Y-68052581D01*
X131263200Y-68072647D01*
X131263200Y-68130472D01*
X131263537Y-68133718D01*
X131263537Y-68133722D01*
X131272121Y-68216450D01*
X131273993Y-68234493D01*
X131276174Y-68241029D01*
X131276174Y-68241031D01*
X131320468Y-68373795D01*
X131329046Y-68399507D01*
X131346646Y-68427948D01*
X131407002Y-68525482D01*
X131420584Y-68547431D01*
X131425760Y-68552598D01*
X131426620Y-68553683D01*
X131453255Y-68619494D01*
X131440082Y-68689258D01*
X131417045Y-68720961D01*
X131387446Y-68750612D01*
X131387442Y-68750617D01*
X131382271Y-68755797D01*
X131378431Y-68762027D01*
X131378430Y-68762028D01*
X131377418Y-68763670D01*
X131376434Y-68764556D01*
X131373893Y-68767773D01*
X131373342Y-68767338D01*
X131324647Y-68811164D01*
X131274116Y-68823494D01*
X131227337Y-68824964D01*
X131218631Y-68825238D01*
X131214675Y-68825300D01*
X131186744Y-68825300D01*
X131182829Y-68825795D01*
X131182825Y-68825795D01*
X131182767Y-68825803D01*
X131182738Y-68825806D01*
X131170896Y-68826739D01*
X131126710Y-68828127D01*
X131109454Y-68833140D01*
X131107258Y-68833778D01*
X131087906Y-68837786D01*
X131080835Y-68838680D01*
X131067803Y-68840326D01*
X131060434Y-68843243D01*
X131060432Y-68843244D01*
X131026697Y-68856600D01*
X131015469Y-68860445D01*
X130973007Y-68872782D01*
X130966185Y-68876816D01*
X130966179Y-68876819D01*
X130955568Y-68883094D01*
X130937818Y-68891790D01*
X130926356Y-68896328D01*
X130926351Y-68896331D01*
X130918983Y-68899248D01*
X130912568Y-68903909D01*
X130883225Y-68925227D01*
X130873307Y-68931743D01*
X130854619Y-68942795D01*
X130835237Y-68954258D01*
X130820913Y-68968582D01*
X130805881Y-68981421D01*
X130789493Y-68993328D01*
X130778852Y-69006191D01*
X130761312Y-69027393D01*
X130753322Y-69036173D01*
X127344347Y-72445148D01*
X127336061Y-72452688D01*
X127329582Y-72456800D01*
X127324157Y-72462577D01*
X127282957Y-72506451D01*
X127280202Y-72509293D01*
X127260465Y-72529030D01*
X127257985Y-72532227D01*
X127250282Y-72541247D01*
X127220014Y-72573479D01*
X127216195Y-72580425D01*
X127216193Y-72580428D01*
X127210252Y-72591234D01*
X127199401Y-72607753D01*
X127186986Y-72623759D01*
X127183841Y-72631028D01*
X127183838Y-72631032D01*
X127169426Y-72664337D01*
X127164209Y-72674987D01*
X127142905Y-72713740D01*
X127140934Y-72721415D01*
X127140934Y-72721416D01*
X127137867Y-72733362D01*
X127131463Y-72752066D01*
X127123419Y-72770655D01*
X127122180Y-72778478D01*
X127122177Y-72778488D01*
X127116501Y-72814324D01*
X127114095Y-72825944D01*
X127109580Y-72843531D01*
X127103100Y-72868770D01*
X127103100Y-72889024D01*
X127101549Y-72908734D01*
X127098380Y-72928743D01*
X127099126Y-72936635D01*
X127102541Y-72972761D01*
X127103100Y-72984619D01*
X127103100Y-75325100D01*
X127083098Y-75393221D01*
X127029442Y-75439714D01*
X126977100Y-75451100D01*
X126813066Y-75451100D01*
X126750884Y-75457855D01*
X126614495Y-75508985D01*
X126497939Y-75596339D01*
X126410585Y-75712895D01*
X126359455Y-75849284D01*
X126352700Y-75911466D01*
X126352700Y-77707734D01*
X126359455Y-77769916D01*
X126410585Y-77906305D01*
X126497939Y-78022861D01*
X126614495Y-78110215D01*
X126622904Y-78113367D01*
X126622905Y-78113368D01*
X126731651Y-78154135D01*
X126788416Y-78196776D01*
X126813116Y-78263338D01*
X126797909Y-78332687D01*
X126778516Y-78359168D01*
X126656900Y-78486432D01*
X126651829Y-78491738D01*
X126648915Y-78496010D01*
X126648914Y-78496011D01*
X126623789Y-78532843D01*
X126525943Y-78676280D01*
X126486905Y-78760381D01*
X126449901Y-78840100D01*
X126431888Y-78878905D01*
X126372189Y-79094170D01*
X126348451Y-79316295D01*
X126348748Y-79321448D01*
X126348748Y-79321451D01*
X126358428Y-79489335D01*
X126361310Y-79539315D01*
X126362447Y-79544361D01*
X126362448Y-79544367D01*
X126373579Y-79593756D01*
X126410422Y-79757239D01*
X126465725Y-79893435D01*
X126490781Y-79955140D01*
X126494466Y-79964216D01*
X126502265Y-79976943D01*
X126590169Y-80120389D01*
X126611187Y-80154688D01*
X126757450Y-80323538D01*
X126929326Y-80466232D01*
X126984752Y-80498620D01*
X127002645Y-80509076D01*
X127051369Y-80560714D01*
X127064440Y-80630497D01*
X127037709Y-80696269D01*
X126997255Y-80729627D01*
X126984807Y-80736107D01*
X126980674Y-80739210D01*
X126980671Y-80739212D01*
X126810300Y-80867130D01*
X126806165Y-80870235D01*
X126651829Y-81031738D01*
X126525943Y-81216280D01*
X126431888Y-81418905D01*
X126372189Y-81634170D01*
X126348451Y-81856295D01*
X126348748Y-81861448D01*
X126348748Y-81861451D01*
X126358936Y-82038139D01*
X126361310Y-82079315D01*
X126362447Y-82084361D01*
X126362448Y-82084367D01*
X126386504Y-82191108D01*
X126410422Y-82297239D01*
X126467839Y-82438640D01*
X126490920Y-82495482D01*
X126494466Y-82504216D01*
X126528674Y-82560039D01*
X126604666Y-82684046D01*
X126611187Y-82694688D01*
X126757450Y-82863538D01*
X126929326Y-83006232D01*
X126955759Y-83021678D01*
X127002645Y-83049076D01*
X127051369Y-83100714D01*
X127064440Y-83170497D01*
X127037709Y-83236269D01*
X126997255Y-83269627D01*
X126984807Y-83276107D01*
X126980674Y-83279210D01*
X126980671Y-83279212D01*
X126842143Y-83383222D01*
X126806165Y-83410235D01*
X126777721Y-83440000D01*
X126729665Y-83490288D01*
X126651829Y-83571738D01*
X126648915Y-83576010D01*
X126648914Y-83576011D01*
X126633183Y-83599072D01*
X126525943Y-83756280D01*
X126496527Y-83819652D01*
X126445747Y-83929049D01*
X126431888Y-83958905D01*
X126372189Y-84174170D01*
X126348451Y-84396295D01*
X126348748Y-84401448D01*
X126348748Y-84401451D01*
X126359332Y-84585012D01*
X126361310Y-84619315D01*
X126362447Y-84624361D01*
X126362448Y-84624367D01*
X126374193Y-84676480D01*
X126410422Y-84837239D01*
X126494466Y-85044216D01*
X126536864Y-85113404D01*
X126602746Y-85220913D01*
X126611187Y-85234688D01*
X126757450Y-85403538D01*
X126929326Y-85546232D01*
X126968419Y-85569076D01*
X127002645Y-85589076D01*
X127051369Y-85640714D01*
X127064440Y-85710497D01*
X127037709Y-85776269D01*
X126997255Y-85809627D01*
X126984807Y-85816107D01*
X126980674Y-85819210D01*
X126980671Y-85819212D01*
X126810300Y-85947130D01*
X126806165Y-85950235D01*
X126762237Y-85996203D01*
X126675075Y-86087413D01*
X126651829Y-86111738D01*
X126648915Y-86116010D01*
X126648914Y-86116011D01*
X126585676Y-86208715D01*
X126525943Y-86296280D01*
X126497696Y-86357133D01*
X126449537Y-86460884D01*
X126431888Y-86498905D01*
X126372189Y-86714170D01*
X126348451Y-86936295D01*
X126348748Y-86941448D01*
X126348748Y-86941451D01*
X126356633Y-87078194D01*
X126361310Y-87159315D01*
X126362447Y-87164361D01*
X126362448Y-87164367D01*
X126382319Y-87252539D01*
X126410422Y-87377239D01*
X126468051Y-87519164D01*
X126491955Y-87578031D01*
X126494466Y-87584216D01*
X126497165Y-87588620D01*
X126590128Y-87740322D01*
X126611187Y-87774688D01*
X126757450Y-87943538D01*
X126929326Y-88086232D01*
X126969194Y-88109529D01*
X127002645Y-88129076D01*
X127051369Y-88180714D01*
X127064440Y-88250497D01*
X127037709Y-88316269D01*
X126997255Y-88349627D01*
X126984807Y-88356107D01*
X126980674Y-88359210D01*
X126980671Y-88359212D01*
X126810564Y-88486932D01*
X126806165Y-88490235D01*
X126802593Y-88493973D01*
X126661831Y-88641272D01*
X126651829Y-88651738D01*
X126648915Y-88656010D01*
X126648914Y-88656011D01*
X126599430Y-88728552D01*
X126525943Y-88836280D01*
X126512241Y-88865799D01*
X126437485Y-89026848D01*
X126431888Y-89038905D01*
X126372189Y-89254170D01*
X126348451Y-89476295D01*
X126348748Y-89481448D01*
X126348748Y-89481451D01*
X126358851Y-89656664D01*
X126361310Y-89699315D01*
X126362447Y-89704361D01*
X126362448Y-89704367D01*
X126367947Y-89728767D01*
X126410422Y-89917239D01*
X126494466Y-90124216D01*
X126536659Y-90193069D01*
X126605120Y-90304787D01*
X126611187Y-90314688D01*
X126757450Y-90483538D01*
X126929326Y-90626232D01*
X126990067Y-90661726D01*
X127002645Y-90669076D01*
X127051369Y-90720714D01*
X127064440Y-90790497D01*
X127037709Y-90856269D01*
X126997255Y-90889627D01*
X126984807Y-90896107D01*
X126980674Y-90899210D01*
X126980671Y-90899212D01*
X126810300Y-91027130D01*
X126806165Y-91030235D01*
X126793326Y-91043670D01*
X126662692Y-91180371D01*
X126651829Y-91191738D01*
X126648915Y-91196010D01*
X126648914Y-91196011D01*
X126641832Y-91206393D01*
X126525943Y-91376280D01*
X126503301Y-91425058D01*
X126437939Y-91565870D01*
X126431888Y-91578905D01*
X126372189Y-91794170D01*
X126348451Y-92016295D01*
X126348748Y-92021448D01*
X126348748Y-92021451D01*
X126358806Y-92195887D01*
X126361310Y-92239315D01*
X126362447Y-92244361D01*
X126362448Y-92244367D01*
X126382706Y-92334255D01*
X126410422Y-92457239D01*
X126462513Y-92585524D01*
X126486997Y-92645821D01*
X126494466Y-92664216D01*
X126497165Y-92668620D01*
X126594751Y-92827866D01*
X126611187Y-92854688D01*
X126757450Y-93023538D01*
X126929326Y-93166232D01*
X126999795Y-93207411D01*
X127002645Y-93209076D01*
X127051369Y-93260714D01*
X127064440Y-93330497D01*
X127037709Y-93396269D01*
X126997255Y-93429627D01*
X126984807Y-93436107D01*
X126980674Y-93439210D01*
X126980671Y-93439212D01*
X126829867Y-93552439D01*
X126806165Y-93570235D01*
X126651829Y-93731738D01*
X126648915Y-93736010D01*
X126648914Y-93736011D01*
X126604159Y-93801620D01*
X126525943Y-93916280D01*
X126509186Y-93952381D01*
X126434814Y-94112602D01*
X126431888Y-94118905D01*
X126372189Y-94334170D01*
X126348451Y-94556295D01*
X126348748Y-94561448D01*
X126348748Y-94561451D01*
X126356428Y-94694642D01*
X126361310Y-94779315D01*
X126362447Y-94784361D01*
X126362448Y-94784367D01*
X126381691Y-94869752D01*
X126410422Y-94997239D01*
X126437859Y-95064808D01*
X126486433Y-95184432D01*
X126494466Y-95204216D01*
X126524280Y-95252868D01*
X126582503Y-95347879D01*
X126611187Y-95394688D01*
X126757450Y-95563538D01*
X126929326Y-95706232D01*
X126985036Y-95738786D01*
X127002645Y-95749076D01*
X127051369Y-95800714D01*
X127064440Y-95870497D01*
X127037709Y-95936269D01*
X126997255Y-95969627D01*
X126989435Y-95973698D01*
X126984807Y-95976107D01*
X126980674Y-95979210D01*
X126980671Y-95979212D01*
X126825060Y-96096048D01*
X126806165Y-96110235D01*
X126788452Y-96128771D01*
X126667171Y-96255684D01*
X126651829Y-96271738D01*
X126648915Y-96276010D01*
X126648914Y-96276011D01*
X126616384Y-96323698D01*
X126525943Y-96456280D01*
X126523764Y-96460975D01*
X126457793Y-96603098D01*
X126431888Y-96658905D01*
X126372189Y-96874170D01*
X126348451Y-97096295D01*
X126348748Y-97101448D01*
X126348748Y-97101451D01*
X126350371Y-97129600D01*
X126361310Y-97319315D01*
X126362447Y-97324361D01*
X126362448Y-97324367D01*
X126377159Y-97389643D01*
X126410422Y-97537239D01*
X126469164Y-97681903D01*
X126491991Y-97738120D01*
X126494466Y-97744216D01*
X126527507Y-97798134D01*
X126583902Y-97890162D01*
X126611187Y-97934688D01*
X126757450Y-98103538D01*
X126929326Y-98246232D01*
X126986927Y-98279891D01*
X127002645Y-98289076D01*
X127051369Y-98340714D01*
X127064440Y-98410497D01*
X127037709Y-98476269D01*
X126997255Y-98509627D01*
X126984807Y-98516107D01*
X126980674Y-98519210D01*
X126980671Y-98519212D01*
X126810300Y-98647130D01*
X126806165Y-98650235D01*
X126802593Y-98653973D01*
X126699774Y-98761567D01*
X126651829Y-98811738D01*
X126648915Y-98816010D01*
X126648914Y-98816011D01*
X126644283Y-98822800D01*
X126525943Y-98996280D01*
X126506626Y-99037895D01*
X126436595Y-99188765D01*
X126431888Y-99198905D01*
X126372189Y-99414170D01*
X126348451Y-99636295D01*
X126348748Y-99641448D01*
X126348748Y-99641451D01*
X126354776Y-99745994D01*
X126361310Y-99859315D01*
X126362447Y-99864361D01*
X126362448Y-99864367D01*
X126380321Y-99943674D01*
X126410422Y-100077239D01*
X126494466Y-100284216D01*
X126611187Y-100474688D01*
X126757450Y-100643538D01*
X126929326Y-100786232D01*
X126999795Y-100827411D01*
X127002645Y-100829076D01*
X127051369Y-100880714D01*
X127064440Y-100950497D01*
X127037709Y-101016269D01*
X126997255Y-101049627D01*
X126984807Y-101056107D01*
X126980674Y-101059210D01*
X126980671Y-101059212D01*
X126810300Y-101187130D01*
X126806165Y-101190235D01*
X126802593Y-101193973D01*
X126689137Y-101312698D01*
X126651829Y-101351738D01*
X126648915Y-101356010D01*
X126648914Y-101356011D01*
X126599399Y-101428598D01*
X126525943Y-101536280D01*
X126487903Y-101618231D01*
X126439519Y-101722466D01*
X126431888Y-101738905D01*
X126372189Y-101954170D01*
X126348451Y-102176295D01*
X126348748Y-102181448D01*
X126348748Y-102181451D01*
X126359125Y-102361425D01*
X126361310Y-102399315D01*
X126362447Y-102404361D01*
X126362448Y-102404367D01*
X126372140Y-102447373D01*
X126410422Y-102617239D01*
X126494466Y-102824216D01*
X126518249Y-102863026D01*
X126595306Y-102988772D01*
X126611187Y-103014688D01*
X126757450Y-103183538D01*
X126824729Y-103239394D01*
X126918510Y-103317252D01*
X126929326Y-103326232D01*
X126950007Y-103338317D01*
X127002645Y-103369076D01*
X127051369Y-103420714D01*
X127064440Y-103490497D01*
X127037709Y-103556269D01*
X126997255Y-103589627D01*
X126984807Y-103596107D01*
X126980674Y-103599210D01*
X126980671Y-103599212D01*
X126810300Y-103727130D01*
X126806165Y-103730235D01*
X126802593Y-103733973D01*
X126659182Y-103884044D01*
X126651829Y-103891738D01*
X126648915Y-103896010D01*
X126648914Y-103896011D01*
X126565608Y-104018134D01*
X126525943Y-104076280D01*
X126497059Y-104138505D01*
X126449239Y-104241526D01*
X126431888Y-104278905D01*
X126372189Y-104494170D01*
X126348451Y-104716295D01*
X126348748Y-104721448D01*
X126348748Y-104721451D01*
X126359166Y-104902125D01*
X126361310Y-104939315D01*
X126362447Y-104944361D01*
X126362448Y-104944367D01*
X126377502Y-105011165D01*
X126410422Y-105157239D01*
X126454533Y-105265872D01*
X126492099Y-105358386D01*
X126494466Y-105364216D01*
X126525981Y-105415644D01*
X126604607Y-105543950D01*
X126611187Y-105554688D01*
X126757450Y-105723538D01*
X126929326Y-105866232D01*
X126971147Y-105890670D01*
X127002645Y-105909076D01*
X127051369Y-105960714D01*
X127064440Y-106030497D01*
X127037709Y-106096269D01*
X126997255Y-106129627D01*
X126991842Y-106132445D01*
X126984807Y-106136107D01*
X126980674Y-106139210D01*
X126980671Y-106139212D01*
X126810300Y-106267130D01*
X126806165Y-106270235D01*
X126651829Y-106431738D01*
X126648915Y-106436010D01*
X126648914Y-106436011D01*
X126623114Y-106473833D01*
X126525943Y-106616280D01*
X126523764Y-106620975D01*
X126445176Y-106790279D01*
X126431888Y-106818905D01*
X126372189Y-107034170D01*
X126348451Y-107256295D01*
X126348748Y-107261448D01*
X126348748Y-107261451D01*
X126360196Y-107459997D01*
X126361310Y-107479315D01*
X126362447Y-107484361D01*
X126362448Y-107484367D01*
X126371348Y-107523857D01*
X126410422Y-107697239D01*
X126453100Y-107802342D01*
X126490920Y-107895482D01*
X126494466Y-107904216D01*
X126542481Y-107982569D01*
X126583938Y-108050221D01*
X126611187Y-108094688D01*
X126757450Y-108263538D01*
X126929326Y-108406232D01*
X126933793Y-108408842D01*
X127015270Y-108456453D01*
X127063994Y-108508091D01*
X127077700Y-108565241D01*
X127077700Y-113611633D01*
X127077173Y-113622816D01*
X127075498Y-113630309D01*
X127075747Y-113638235D01*
X127075747Y-113638236D01*
X127077638Y-113698386D01*
X127077700Y-113702345D01*
X127077700Y-113730256D01*
X127078197Y-113734190D01*
X127078197Y-113734191D01*
X127078205Y-113734256D01*
X127079138Y-113746093D01*
X127080527Y-113790289D01*
X127086047Y-113809288D01*
X127086178Y-113809739D01*
X127090187Y-113829100D01*
X127092726Y-113849197D01*
X127095645Y-113856568D01*
X127095645Y-113856570D01*
X127109004Y-113890312D01*
X127112849Y-113901542D01*
X127125182Y-113943993D01*
X127129215Y-113950812D01*
X127129217Y-113950817D01*
X127135493Y-113961428D01*
X127144188Y-113979176D01*
X127151648Y-113998017D01*
X127156310Y-114004433D01*
X127156310Y-114004434D01*
X127177636Y-114033787D01*
X127184152Y-114043707D01*
X127199251Y-114069237D01*
X127206658Y-114081762D01*
X127220979Y-114096083D01*
X127233819Y-114111116D01*
X127245728Y-114127507D01*
X127262881Y-114141697D01*
X127279805Y-114155698D01*
X127288584Y-114163688D01*
X129976143Y-116851247D01*
X129983687Y-116859537D01*
X129987800Y-116866018D01*
X129993577Y-116871443D01*
X130037467Y-116912658D01*
X130040309Y-116915413D01*
X130060031Y-116935135D01*
X130063155Y-116937558D01*
X130063159Y-116937562D01*
X130063224Y-116937612D01*
X130072245Y-116945317D01*
X130104479Y-116975586D01*
X130111427Y-116979405D01*
X130111429Y-116979407D01*
X130122232Y-116985346D01*
X130138759Y-116996202D01*
X130148498Y-117003757D01*
X130148500Y-117003758D01*
X130154760Y-117008614D01*
X130195340Y-117026174D01*
X130205988Y-117031391D01*
X130244740Y-117052695D01*
X130252416Y-117054666D01*
X130252419Y-117054667D01*
X130264362Y-117057733D01*
X130283067Y-117064137D01*
X130301655Y-117072181D01*
X130309478Y-117073420D01*
X130309488Y-117073423D01*
X130345324Y-117079099D01*
X130356944Y-117081505D01*
X130392089Y-117090528D01*
X130399770Y-117092500D01*
X130420024Y-117092500D01*
X130439734Y-117094051D01*
X130459743Y-117097220D01*
X130467635Y-117096474D01*
X130503761Y-117093059D01*
X130515619Y-117092500D01*
X131269536Y-117092500D01*
X131337657Y-117112502D01*
X131376679Y-117152196D01*
X131383384Y-117163031D01*
X131388566Y-117168204D01*
X131501316Y-117280758D01*
X131501321Y-117280762D01*
X131506497Y-117285929D01*
X131654580Y-117377209D01*
X131819691Y-117431974D01*
X131826527Y-117432674D01*
X131826530Y-117432675D01*
X131873870Y-117437525D01*
X131922428Y-117442500D01*
X132596572Y-117442500D01*
X132599818Y-117442163D01*
X132599822Y-117442163D01*
X132693735Y-117432419D01*
X132693739Y-117432418D01*
X132700593Y-117431707D01*
X132707129Y-117429526D01*
X132707131Y-117429526D01*
X132839895Y-117385232D01*
X132865607Y-117376654D01*
X132923105Y-117341073D01*
X133007305Y-117288969D01*
X133007306Y-117288968D01*
X133013531Y-117285116D01*
X133045379Y-117253213D01*
X133107659Y-117219134D01*
X133178479Y-117224137D01*
X133223567Y-117253057D01*
X133249541Y-117278985D01*
X133256497Y-117285929D01*
X133404580Y-117377209D01*
X133569691Y-117431974D01*
X133576527Y-117432674D01*
X133576530Y-117432675D01*
X133623870Y-117437525D01*
X133672428Y-117442500D01*
X134346572Y-117442500D01*
X134349818Y-117442163D01*
X134349822Y-117442163D01*
X134443735Y-117432419D01*
X134443739Y-117432418D01*
X134450593Y-117431707D01*
X134457129Y-117429526D01*
X134457131Y-117429526D01*
X134589895Y-117385232D01*
X134615607Y-117376654D01*
X134763531Y-117285116D01*
X134769097Y-117279540D01*
X134881258Y-117167184D01*
X134881262Y-117167179D01*
X134886429Y-117162003D01*
X134892357Y-117152386D01*
X134894386Y-117150559D01*
X134894807Y-117150027D01*
X134894898Y-117150099D01*
X134945128Y-117104892D01*
X134999618Y-117092500D01*
X136622836Y-117092500D01*
X136690957Y-117112502D01*
X136729979Y-117152196D01*
X136736684Y-117163031D01*
X136741866Y-117168204D01*
X136854616Y-117280758D01*
X136854621Y-117280762D01*
X136859797Y-117285929D01*
X137007880Y-117377209D01*
X137172991Y-117431974D01*
X137179827Y-117432674D01*
X137179830Y-117432675D01*
X137227170Y-117437525D01*
X137275728Y-117442500D01*
X137874872Y-117442500D01*
X137878118Y-117442163D01*
X137878122Y-117442163D01*
X137972035Y-117432419D01*
X137972039Y-117432418D01*
X137978893Y-117431707D01*
X137985429Y-117429526D01*
X137985431Y-117429526D01*
X138118195Y-117385232D01*
X138143907Y-117376654D01*
X138291831Y-117285116D01*
X138398901Y-117177859D01*
X138461182Y-117143780D01*
X138532002Y-117148783D01*
X138577091Y-117177704D01*
X138679929Y-117280363D01*
X138691340Y-117289375D01*
X138826863Y-117372912D01*
X138840041Y-117379056D01*
X138991566Y-117429315D01*
X139004932Y-117432181D01*
X139097570Y-117441672D01*
X139103985Y-117442000D01*
X139128185Y-117442000D01*
X139143424Y-117437525D01*
X139144629Y-117436135D01*
X139146300Y-117428452D01*
X139146300Y-117423885D01*
X139654300Y-117423885D01*
X139658775Y-117439124D01*
X139660165Y-117440329D01*
X139667848Y-117442000D01*
X139696566Y-117442000D01*
X139703082Y-117441663D01*
X139796932Y-117431925D01*
X139810328Y-117429032D01*
X139961753Y-117378512D01*
X139974915Y-117372347D01*
X140110292Y-117288574D01*
X140121690Y-117279540D01*
X140234163Y-117166871D01*
X140243175Y-117155460D01*
X140326712Y-117019937D01*
X140332856Y-117006759D01*
X140383115Y-116855234D01*
X140385981Y-116841868D01*
X140395472Y-116749230D01*
X140395800Y-116742815D01*
X140395800Y-116731115D01*
X140391325Y-116715876D01*
X140389935Y-116714671D01*
X140382252Y-116713000D01*
X139672415Y-116713000D01*
X139657176Y-116717475D01*
X139655971Y-116718865D01*
X139654300Y-116726548D01*
X139654300Y-117423885D01*
X139146300Y-117423885D01*
X139146300Y-116186885D01*
X139654300Y-116186885D01*
X139658775Y-116202124D01*
X139660165Y-116203329D01*
X139667848Y-116205000D01*
X140377685Y-116205000D01*
X140392924Y-116200525D01*
X140394129Y-116199135D01*
X140395800Y-116191452D01*
X140395800Y-116175234D01*
X140395463Y-116168718D01*
X140385725Y-116074868D01*
X140382832Y-116061472D01*
X140332312Y-115910047D01*
X140326147Y-115896885D01*
X140242374Y-115761508D01*
X140233340Y-115750110D01*
X140120671Y-115637637D01*
X140109260Y-115628625D01*
X139973737Y-115545088D01*
X139960559Y-115538944D01*
X139809034Y-115488685D01*
X139795668Y-115485819D01*
X139703030Y-115476328D01*
X139696615Y-115476000D01*
X139672415Y-115476000D01*
X139657176Y-115480475D01*
X139655971Y-115481865D01*
X139654300Y-115489548D01*
X139654300Y-116186885D01*
X139146300Y-116186885D01*
X139146300Y-115494115D01*
X139139731Y-115471742D01*
X139109060Y-115424020D01*
X139109059Y-115353023D01*
X139152383Y-115289231D01*
X139181791Y-115266255D01*
X139186647Y-115262461D01*
X139315878Y-115112745D01*
X139413569Y-114940779D01*
X139475997Y-114753113D01*
X139486564Y-114669466D01*
X140197200Y-114669466D01*
X140197537Y-114675982D01*
X140207275Y-114769832D01*
X140210168Y-114783228D01*
X140260688Y-114934653D01*
X140266853Y-114947815D01*
X140350626Y-115083192D01*
X140359660Y-115094590D01*
X140472329Y-115207063D01*
X140483740Y-115216075D01*
X140619263Y-115299612D01*
X140632441Y-115305756D01*
X140783966Y-115356015D01*
X140797332Y-115358881D01*
X140889970Y-115368372D01*
X140896385Y-115368700D01*
X140908085Y-115368700D01*
X140923324Y-115364225D01*
X140924529Y-115362835D01*
X140926200Y-115355152D01*
X140926200Y-114595315D01*
X140921725Y-114580076D01*
X140920335Y-114578871D01*
X140912652Y-114577200D01*
X140215315Y-114577200D01*
X140200076Y-114581675D01*
X140198871Y-114583065D01*
X140197200Y-114590748D01*
X140197200Y-114669466D01*
X139486564Y-114669466D01*
X139500785Y-114556895D01*
X139501180Y-114528600D01*
X139481880Y-114331767D01*
X139424716Y-114142431D01*
X139331866Y-113967804D01*
X139256257Y-113875098D01*
X139210760Y-113819313D01*
X139210757Y-113819310D01*
X139206865Y-113814538D01*
X139200444Y-113809226D01*
X139195074Y-113804783D01*
X139155337Y-113745949D01*
X139153716Y-113674971D01*
X139190726Y-113614384D01*
X139254617Y-113583424D01*
X139275391Y-113581700D01*
X139699872Y-113581700D01*
X139703118Y-113581363D01*
X139703122Y-113581363D01*
X139797035Y-113571619D01*
X139797039Y-113571618D01*
X139803893Y-113570907D01*
X139810429Y-113568726D01*
X139810431Y-113568726D01*
X139943195Y-113524432D01*
X139968907Y-113515854D01*
X140116831Y-113424316D01*
X140176025Y-113365018D01*
X140238307Y-113330939D01*
X140309127Y-113335942D01*
X140354212Y-113364859D01*
X140361337Y-113371971D01*
X140395419Y-113434252D01*
X140390419Y-113505073D01*
X140361492Y-113550170D01*
X140358836Y-113552831D01*
X140349825Y-113564240D01*
X140266288Y-113699763D01*
X140260144Y-113712941D01*
X140209885Y-113864466D01*
X140207019Y-113877832D01*
X140197528Y-113970470D01*
X140197200Y-113976885D01*
X140197200Y-114051085D01*
X140201675Y-114066324D01*
X140203065Y-114067529D01*
X140210748Y-114069200D01*
X141308200Y-114069200D01*
X141376321Y-114089202D01*
X141422814Y-114142858D01*
X141434200Y-114195200D01*
X141434200Y-115350585D01*
X141438675Y-115365824D01*
X141440065Y-115367029D01*
X141447748Y-115368700D01*
X141463966Y-115368700D01*
X141470482Y-115368363D01*
X141564332Y-115358625D01*
X141577728Y-115355732D01*
X141729153Y-115305212D01*
X141742315Y-115299047D01*
X141877692Y-115215274D01*
X141889090Y-115206240D01*
X142001563Y-115093571D01*
X142010577Y-115082157D01*
X142094581Y-114945876D01*
X142147353Y-114898382D01*
X142217424Y-114886958D01*
X142282548Y-114915232D01*
X142300587Y-114933727D01*
X142370806Y-115022323D01*
X142370811Y-115022328D01*
X142374635Y-115027153D01*
X142379328Y-115031147D01*
X142379329Y-115031148D01*
X142475206Y-115112745D01*
X142525250Y-115155336D01*
X142697894Y-115251824D01*
X142885992Y-115312940D01*
X143082377Y-115336358D01*
X143088512Y-115335886D01*
X143088514Y-115335886D01*
X143273430Y-115321657D01*
X143273434Y-115321656D01*
X143279572Y-115321184D01*
X143470063Y-115267998D01*
X143475567Y-115265218D01*
X143475569Y-115265217D01*
X143641095Y-115181604D01*
X143641097Y-115181603D01*
X143646596Y-115178825D01*
X143802447Y-115057061D01*
X143851382Y-115000369D01*
X143911035Y-114961872D01*
X143946764Y-114956700D01*
X143983633Y-114956700D01*
X143994816Y-114957227D01*
X144002309Y-114958902D01*
X144010235Y-114958653D01*
X144010236Y-114958653D01*
X144070386Y-114956762D01*
X144074345Y-114956700D01*
X144102256Y-114956700D01*
X144106191Y-114956203D01*
X144106256Y-114956195D01*
X144118093Y-114955262D01*
X144150351Y-114954248D01*
X144154370Y-114954122D01*
X144162289Y-114953873D01*
X144181743Y-114948221D01*
X144201100Y-114944213D01*
X144213330Y-114942668D01*
X144213331Y-114942668D01*
X144221197Y-114941674D01*
X144228568Y-114938755D01*
X144228570Y-114938755D01*
X144262312Y-114925396D01*
X144273542Y-114921551D01*
X144308383Y-114911429D01*
X144308384Y-114911429D01*
X144315993Y-114909218D01*
X144322812Y-114905185D01*
X144322817Y-114905183D01*
X144333428Y-114898907D01*
X144351176Y-114890212D01*
X144370017Y-114882752D01*
X144384602Y-114872156D01*
X144405787Y-114856764D01*
X144415707Y-114850248D01*
X144446935Y-114831780D01*
X144446938Y-114831778D01*
X144453762Y-114827742D01*
X144468083Y-114813421D01*
X144483117Y-114800580D01*
X144493093Y-114793332D01*
X144499507Y-114788672D01*
X144527693Y-114754601D01*
X144535682Y-114745822D01*
X144713499Y-114568005D01*
X144775811Y-114533979D01*
X144802594Y-114531100D01*
X144858487Y-114531100D01*
X144864939Y-114529728D01*
X144864944Y-114529728D01*
X144975942Y-114506134D01*
X145045288Y-114491394D01*
X145132812Y-114452426D01*
X145213722Y-114416403D01*
X145213724Y-114416402D01*
X145219752Y-114413718D01*
X145374253Y-114301466D01*
X145502040Y-114159544D01*
X145580263Y-114024058D01*
X145594223Y-113999879D01*
X145594224Y-113999878D01*
X145597527Y-113994156D01*
X145656542Y-113812528D01*
X145658880Y-113790289D01*
X145667009Y-113712941D01*
X145675880Y-113628533D01*
X145702893Y-113562877D01*
X145712095Y-113552609D01*
X146216138Y-113048566D01*
X150707257Y-113048566D01*
X150737565Y-113183046D01*
X150740645Y-113192875D01*
X150820770Y-113390203D01*
X150825413Y-113399394D01*
X150936694Y-113580988D01*
X150942777Y-113589299D01*
X151082213Y-113750267D01*
X151089580Y-113757483D01*
X151253434Y-113893516D01*
X151261881Y-113899431D01*
X151445756Y-114006879D01*
X151455042Y-114011329D01*
X151654001Y-114087303D01*
X151663899Y-114090179D01*
X151767250Y-114111206D01*
X151781299Y-114110010D01*
X151785000Y-114099665D01*
X151785000Y-113052715D01*
X151780525Y-113037476D01*
X151779135Y-113036271D01*
X151771452Y-113034600D01*
X150722225Y-113034600D01*
X150708694Y-113038573D01*
X150707257Y-113048566D01*
X146216138Y-113048566D01*
X146749921Y-112514783D01*
X150703389Y-112514783D01*
X150704912Y-112523207D01*
X150717292Y-112526600D01*
X151766885Y-112526600D01*
X151782124Y-112522125D01*
X151783329Y-112520735D01*
X151785000Y-112513052D01*
X151785000Y-110512715D01*
X151780525Y-110497476D01*
X151779135Y-110496271D01*
X151771452Y-110494600D01*
X150722225Y-110494600D01*
X150708694Y-110498573D01*
X150707257Y-110508566D01*
X150737565Y-110643046D01*
X150740645Y-110652875D01*
X150820770Y-110850203D01*
X150825413Y-110859394D01*
X150936694Y-111040988D01*
X150942777Y-111049299D01*
X151082213Y-111210267D01*
X151089580Y-111217483D01*
X151253434Y-111353516D01*
X151261881Y-111359431D01*
X151331479Y-111400101D01*
X151380203Y-111451740D01*
X151393274Y-111521523D01*
X151366543Y-111587294D01*
X151326087Y-111620653D01*
X151317462Y-111625142D01*
X151308738Y-111630636D01*
X151138433Y-111758505D01*
X151130726Y-111765348D01*
X150983590Y-111919317D01*
X150977104Y-111927327D01*
X150857098Y-112103249D01*
X150852000Y-112112223D01*
X150762338Y-112305383D01*
X150758775Y-112315070D01*
X150703389Y-112514783D01*
X146749921Y-112514783D01*
X147059447Y-112205257D01*
X147067737Y-112197713D01*
X147074218Y-112193600D01*
X147120859Y-112143932D01*
X147123613Y-112141091D01*
X147143334Y-112121370D01*
X147145812Y-112118175D01*
X147153518Y-112109153D01*
X147178358Y-112082701D01*
X147183786Y-112076921D01*
X147193546Y-112059168D01*
X147204399Y-112042645D01*
X147211953Y-112032906D01*
X147216813Y-112026641D01*
X147234376Y-111986057D01*
X147239583Y-111975427D01*
X147260895Y-111936660D01*
X147262866Y-111928983D01*
X147262868Y-111928978D01*
X147265932Y-111917042D01*
X147272338Y-111898330D01*
X147277234Y-111887017D01*
X147280381Y-111879745D01*
X147287010Y-111837895D01*
X147287297Y-111836081D01*
X147289704Y-111824460D01*
X147298728Y-111789311D01*
X147298728Y-111789310D01*
X147300700Y-111781630D01*
X147300700Y-111761369D01*
X147302251Y-111741658D01*
X147304179Y-111729485D01*
X147305419Y-111721657D01*
X147301259Y-111677646D01*
X147300700Y-111665789D01*
X147300700Y-109974783D01*
X150703389Y-109974783D01*
X150704912Y-109983207D01*
X150717292Y-109986600D01*
X151766885Y-109986600D01*
X151782124Y-109982125D01*
X151783329Y-109980735D01*
X151785000Y-109973052D01*
X151785000Y-107972715D01*
X151780525Y-107957476D01*
X151779135Y-107956271D01*
X151771452Y-107954600D01*
X150722225Y-107954600D01*
X150708694Y-107958573D01*
X150707257Y-107968566D01*
X150737565Y-108103046D01*
X150740645Y-108112875D01*
X150820770Y-108310203D01*
X150825413Y-108319394D01*
X150936694Y-108500988D01*
X150942777Y-108509299D01*
X151082213Y-108670267D01*
X151089580Y-108677483D01*
X151253434Y-108813516D01*
X151261881Y-108819431D01*
X151331479Y-108860101D01*
X151380203Y-108911740D01*
X151393274Y-108981523D01*
X151366543Y-109047294D01*
X151326087Y-109080653D01*
X151317462Y-109085142D01*
X151308738Y-109090636D01*
X151138433Y-109218505D01*
X151130726Y-109225348D01*
X150983590Y-109379317D01*
X150977104Y-109387327D01*
X150857098Y-109563249D01*
X150852000Y-109572223D01*
X150762338Y-109765383D01*
X150758775Y-109775070D01*
X150703389Y-109974783D01*
X147300700Y-109974783D01*
X147300700Y-107434783D01*
X150703389Y-107434783D01*
X150704912Y-107443207D01*
X150717292Y-107446600D01*
X151766885Y-107446600D01*
X151782124Y-107442125D01*
X151783329Y-107440735D01*
X151785000Y-107433052D01*
X151785000Y-105432715D01*
X151780525Y-105417476D01*
X151779135Y-105416271D01*
X151771452Y-105414600D01*
X150722225Y-105414600D01*
X150708694Y-105418573D01*
X150707257Y-105428566D01*
X150737565Y-105563046D01*
X150740645Y-105572875D01*
X150820770Y-105770203D01*
X150825413Y-105779394D01*
X150936694Y-105960988D01*
X150942777Y-105969299D01*
X151082213Y-106130267D01*
X151089580Y-106137483D01*
X151253434Y-106273516D01*
X151261881Y-106279431D01*
X151331479Y-106320101D01*
X151380203Y-106371740D01*
X151393274Y-106441523D01*
X151366543Y-106507294D01*
X151326087Y-106540653D01*
X151317462Y-106545142D01*
X151308738Y-106550636D01*
X151138433Y-106678505D01*
X151130726Y-106685348D01*
X150983590Y-106839317D01*
X150977104Y-106847327D01*
X150857098Y-107023249D01*
X150852000Y-107032223D01*
X150762338Y-107225383D01*
X150758775Y-107235070D01*
X150703389Y-107434783D01*
X147300700Y-107434783D01*
X147300700Y-104894783D01*
X150703389Y-104894783D01*
X150704912Y-104903207D01*
X150717292Y-104906600D01*
X151766885Y-104906600D01*
X151782124Y-104902125D01*
X151783329Y-104900735D01*
X151785000Y-104893052D01*
X151785000Y-102892715D01*
X151780525Y-102877476D01*
X151779135Y-102876271D01*
X151771452Y-102874600D01*
X150722225Y-102874600D01*
X150708694Y-102878573D01*
X150707257Y-102888566D01*
X150737565Y-103023046D01*
X150740645Y-103032875D01*
X150820770Y-103230203D01*
X150825413Y-103239394D01*
X150936694Y-103420988D01*
X150942777Y-103429299D01*
X151082213Y-103590267D01*
X151089580Y-103597483D01*
X151253434Y-103733516D01*
X151261881Y-103739431D01*
X151331479Y-103780101D01*
X151380203Y-103831740D01*
X151393274Y-103901523D01*
X151366543Y-103967294D01*
X151326087Y-104000653D01*
X151317462Y-104005142D01*
X151308738Y-104010636D01*
X151138433Y-104138505D01*
X151130726Y-104145348D01*
X150983590Y-104299317D01*
X150977104Y-104307327D01*
X150857098Y-104483249D01*
X150852000Y-104492223D01*
X150762338Y-104685383D01*
X150758775Y-104695070D01*
X150703389Y-104894783D01*
X147300700Y-104894783D01*
X147300700Y-102354783D01*
X150703389Y-102354783D01*
X150704912Y-102363207D01*
X150717292Y-102366600D01*
X151766885Y-102366600D01*
X151782124Y-102362125D01*
X151783329Y-102360735D01*
X151785000Y-102353052D01*
X151785000Y-101303702D01*
X151781082Y-101290358D01*
X151766806Y-101288371D01*
X151728324Y-101294260D01*
X151718288Y-101296651D01*
X151515868Y-101362812D01*
X151506359Y-101366809D01*
X151317463Y-101465142D01*
X151308738Y-101470636D01*
X151138433Y-101598505D01*
X151130726Y-101605348D01*
X150983590Y-101759317D01*
X150977104Y-101767327D01*
X150857098Y-101943249D01*
X150852000Y-101952223D01*
X150762338Y-102145383D01*
X150758775Y-102155070D01*
X150703389Y-102354783D01*
X147300700Y-102354783D01*
X147300700Y-98594950D01*
X147320702Y-98526829D01*
X147337605Y-98505855D01*
X147916455Y-97927005D01*
X147978767Y-97892979D01*
X148005550Y-97890100D01*
X152524433Y-97890100D01*
X152535616Y-97890627D01*
X152543109Y-97892302D01*
X152551035Y-97892053D01*
X152551036Y-97892053D01*
X152611186Y-97890162D01*
X152615145Y-97890100D01*
X152643056Y-97890100D01*
X152646991Y-97889603D01*
X152647056Y-97889595D01*
X152658893Y-97888662D01*
X152691151Y-97887648D01*
X152695170Y-97887522D01*
X152703089Y-97887273D01*
X152722543Y-97881621D01*
X152741900Y-97877613D01*
X152754130Y-97876068D01*
X152754131Y-97876068D01*
X152761997Y-97875074D01*
X152769368Y-97872155D01*
X152769370Y-97872155D01*
X152803112Y-97858796D01*
X152814342Y-97854951D01*
X152849183Y-97844829D01*
X152849184Y-97844829D01*
X152856793Y-97842618D01*
X152863612Y-97838585D01*
X152863617Y-97838583D01*
X152874228Y-97832307D01*
X152891976Y-97823612D01*
X152910817Y-97816152D01*
X152927366Y-97804129D01*
X152946587Y-97790164D01*
X152956507Y-97783648D01*
X152987735Y-97765180D01*
X152987738Y-97765178D01*
X152994562Y-97761142D01*
X153008883Y-97746821D01*
X153023917Y-97733980D01*
X153033894Y-97726731D01*
X153040307Y-97722072D01*
X153068498Y-97687995D01*
X153076488Y-97679216D01*
X153429699Y-97326005D01*
X153492011Y-97291979D01*
X153518794Y-97289100D01*
X155230374Y-97289100D01*
X155274604Y-97297118D01*
X155301884Y-97307345D01*
X155364066Y-97314100D01*
X157260334Y-97314100D01*
X157322516Y-97307345D01*
X157458905Y-97256215D01*
X157575461Y-97168861D01*
X157610274Y-97122410D01*
X157667133Y-97079895D01*
X157737952Y-97074869D01*
X157800245Y-97108929D01*
X157834235Y-97171260D01*
X157837100Y-97197975D01*
X157837100Y-98389805D01*
X157817098Y-98457926D01*
X157800195Y-98478900D01*
X155053900Y-101225195D01*
X154991588Y-101259221D01*
X154964805Y-101262100D01*
X153680866Y-101262100D01*
X153618684Y-101268855D01*
X153482295Y-101319985D01*
X153365739Y-101407339D01*
X153278385Y-101523895D01*
X153275233Y-101532304D01*
X153275232Y-101532305D01*
X153233722Y-101643033D01*
X153191081Y-101699798D01*
X153124519Y-101724498D01*
X153055170Y-101709291D01*
X153022546Y-101683604D01*
X152971799Y-101627834D01*
X152964273Y-101620815D01*
X152797139Y-101488822D01*
X152788552Y-101483117D01*
X152602117Y-101380199D01*
X152592705Y-101375969D01*
X152391959Y-101304880D01*
X152381988Y-101302246D01*
X152310837Y-101289572D01*
X152297540Y-101291032D01*
X152293000Y-101305589D01*
X152293000Y-114099117D01*
X152297064Y-114112959D01*
X152310478Y-114114993D01*
X152317184Y-114114134D01*
X152327262Y-114111992D01*
X152531255Y-114050791D01*
X152540842Y-114047033D01*
X152732095Y-113953339D01*
X152740945Y-113948064D01*
X152914328Y-113824392D01*
X152922200Y-113817739D01*
X153073052Y-113667412D01*
X153079730Y-113659565D01*
X153207022Y-113482419D01*
X153208279Y-113483322D01*
X153255373Y-113439962D01*
X153325311Y-113427745D01*
X153390751Y-113455278D01*
X153418579Y-113487111D01*
X153425892Y-113499045D01*
X153478987Y-113585688D01*
X153625250Y-113754538D01*
X153797126Y-113897232D01*
X153990000Y-114009938D01*
X154198692Y-114089630D01*
X154203760Y-114090661D01*
X154203763Y-114090662D01*
X154298862Y-114110010D01*
X154417597Y-114134167D01*
X154422772Y-114134357D01*
X154422774Y-114134357D01*
X154635673Y-114142164D01*
X154635677Y-114142164D01*
X154640837Y-114142353D01*
X154645957Y-114141697D01*
X154645959Y-114141697D01*
X154857288Y-114114625D01*
X154857289Y-114114625D01*
X154862416Y-114113968D01*
X154867366Y-114112483D01*
X155071429Y-114051261D01*
X155071434Y-114051259D01*
X155076384Y-114049774D01*
X155276994Y-113951496D01*
X155458860Y-113821773D01*
X155466121Y-113814538D01*
X155590798Y-113690295D01*
X155617096Y-113664089D01*
X155652813Y-113614384D01*
X155744435Y-113486877D01*
X155747453Y-113482677D01*
X155749746Y-113478037D01*
X155751446Y-113475208D01*
X155803674Y-113427118D01*
X155859451Y-113414100D01*
X157472833Y-113414100D01*
X157484016Y-113414627D01*
X157491509Y-113416302D01*
X157499435Y-113416053D01*
X157499436Y-113416053D01*
X157559586Y-113414162D01*
X157563545Y-113414100D01*
X157591456Y-113414100D01*
X157595391Y-113413603D01*
X157595456Y-113413595D01*
X157607293Y-113412662D01*
X157639551Y-113411648D01*
X157643570Y-113411522D01*
X157651489Y-113411273D01*
X157670943Y-113405621D01*
X157690300Y-113401613D01*
X157702530Y-113400068D01*
X157702531Y-113400068D01*
X157710397Y-113399074D01*
X157717768Y-113396155D01*
X157717770Y-113396155D01*
X157751512Y-113382796D01*
X157762742Y-113378951D01*
X157797583Y-113368829D01*
X157797584Y-113368829D01*
X157805193Y-113366618D01*
X157812012Y-113362585D01*
X157812017Y-113362583D01*
X157822628Y-113356307D01*
X157840376Y-113347612D01*
X157859217Y-113340152D01*
X157887259Y-113319779D01*
X157894987Y-113314164D01*
X157904907Y-113307648D01*
X157936135Y-113289180D01*
X157936138Y-113289178D01*
X157942962Y-113285142D01*
X157957283Y-113270821D01*
X157972317Y-113257980D01*
X157980958Y-113251702D01*
X157988707Y-113246072D01*
X158016898Y-113211995D01*
X158024888Y-113203216D01*
X162825253Y-108402852D01*
X162833539Y-108395312D01*
X162840018Y-108391200D01*
X162886644Y-108341548D01*
X162889398Y-108338707D01*
X162909135Y-108318970D01*
X162911615Y-108315773D01*
X162919320Y-108306751D01*
X162944159Y-108280300D01*
X162949586Y-108274521D01*
X162953405Y-108267575D01*
X162953407Y-108267572D01*
X162959348Y-108256766D01*
X162970199Y-108240247D01*
X162977758Y-108230501D01*
X162982614Y-108224241D01*
X162985759Y-108216972D01*
X162985762Y-108216968D01*
X163000174Y-108183663D01*
X163005391Y-108173013D01*
X163026695Y-108134260D01*
X163031733Y-108114637D01*
X163038137Y-108095934D01*
X163043033Y-108084620D01*
X163043033Y-108084619D01*
X163046181Y-108077345D01*
X163047420Y-108069522D01*
X163047423Y-108069512D01*
X163053099Y-108033676D01*
X163055505Y-108022056D01*
X163064528Y-107986911D01*
X163064528Y-107986910D01*
X163066500Y-107979230D01*
X163066500Y-107958976D01*
X163068051Y-107939265D01*
X163069980Y-107927086D01*
X163071220Y-107919257D01*
X163070215Y-107908620D01*
X163067059Y-107875239D01*
X163066500Y-107863381D01*
X163066500Y-107452764D01*
X163086502Y-107384643D01*
X163126196Y-107345621D01*
X163137031Y-107338916D01*
X163178789Y-107297085D01*
X163254758Y-107220984D01*
X163254762Y-107220979D01*
X163259929Y-107215803D01*
X163304917Y-107142820D01*
X163347369Y-107073950D01*
X163347370Y-107073948D01*
X163351209Y-107067720D01*
X163405974Y-106902609D01*
X163416500Y-106799872D01*
X163416500Y-106200728D01*
X163416137Y-106197227D01*
X163406419Y-106103565D01*
X163406418Y-106103561D01*
X163405707Y-106096707D01*
X163379697Y-106018744D01*
X163352972Y-105938641D01*
X163350654Y-105931693D01*
X163259116Y-105783769D01*
X163235202Y-105759897D01*
X163152214Y-105677053D01*
X163118135Y-105614770D01*
X163123138Y-105543950D01*
X163152059Y-105498863D01*
X163254754Y-105395988D01*
X163254758Y-105395983D01*
X163259929Y-105390803D01*
X163263770Y-105384572D01*
X163347369Y-105248950D01*
X163347370Y-105248948D01*
X163351209Y-105242720D01*
X163405974Y-105077609D01*
X163416500Y-104974872D01*
X163416500Y-104375728D01*
X163413725Y-104348979D01*
X163406419Y-104278565D01*
X163406418Y-104278561D01*
X163405707Y-104271707D01*
X163350654Y-104106693D01*
X163316314Y-104051201D01*
X163297478Y-103982751D01*
X163316245Y-103922651D01*
X165610719Y-103922651D01*
X165611235Y-103928795D01*
X165626643Y-104112288D01*
X165627268Y-104119734D01*
X165641730Y-104170168D01*
X165679744Y-104302738D01*
X165681783Y-104309850D01*
X165684602Y-104315335D01*
X165717156Y-104378677D01*
X165772187Y-104485756D01*
X165895035Y-104640753D01*
X165899728Y-104644747D01*
X165899729Y-104644748D01*
X166007651Y-104736596D01*
X166045650Y-104768936D01*
X166218294Y-104865424D01*
X166406392Y-104926540D01*
X166602777Y-104949958D01*
X166608912Y-104949486D01*
X166608914Y-104949486D01*
X166793830Y-104935257D01*
X166793834Y-104935256D01*
X166799972Y-104934784D01*
X166990463Y-104881598D01*
X166995967Y-104878818D01*
X166995969Y-104878817D01*
X167161495Y-104795204D01*
X167161497Y-104795203D01*
X167166996Y-104792425D01*
X167322847Y-104670661D01*
X167432913Y-104543148D01*
X167448049Y-104525613D01*
X167448050Y-104525611D01*
X167452078Y-104520945D01*
X167549769Y-104348979D01*
X167612197Y-104161313D01*
X167636985Y-103965095D01*
X167637380Y-103936800D01*
X167626031Y-103821051D01*
X170182719Y-103821051D01*
X170185097Y-103849371D01*
X170198525Y-104009282D01*
X170199268Y-104018134D01*
X170209436Y-104053593D01*
X170242196Y-104167840D01*
X170253783Y-104208250D01*
X170256602Y-104213735D01*
X170339856Y-104375728D01*
X170344187Y-104384156D01*
X170467035Y-104539153D01*
X170617650Y-104667336D01*
X170790294Y-104763824D01*
X170978392Y-104824940D01*
X171174777Y-104848358D01*
X171180912Y-104847886D01*
X171180914Y-104847886D01*
X171365830Y-104833657D01*
X171365834Y-104833656D01*
X171371972Y-104833184D01*
X171562463Y-104779998D01*
X171567967Y-104777218D01*
X171567969Y-104777217D01*
X171733495Y-104693604D01*
X171733497Y-104693603D01*
X171738996Y-104690825D01*
X171894847Y-104569061D01*
X172024078Y-104419345D01*
X172121769Y-104247379D01*
X172184197Y-104059713D01*
X172208985Y-103863495D01*
X172209380Y-103835200D01*
X172190080Y-103638367D01*
X172178259Y-103599212D01*
X172159505Y-103537098D01*
X172132916Y-103449031D01*
X172040066Y-103274404D01*
X171955774Y-103171052D01*
X171918960Y-103125913D01*
X171918957Y-103125910D01*
X171915065Y-103121138D01*
X171908724Y-103115892D01*
X171875184Y-103088145D01*
X171835446Y-103029311D01*
X171829500Y-102991061D01*
X171829500Y-101497009D01*
X171849502Y-101428888D01*
X171903158Y-101382395D01*
X171908694Y-101380097D01*
X171909297Y-101379767D01*
X171917705Y-101376615D01*
X172034261Y-101289261D01*
X172121615Y-101172705D01*
X172172745Y-101036316D01*
X172179500Y-100974134D01*
X172179500Y-99427866D01*
X172172745Y-99365684D01*
X172121615Y-99229295D01*
X172034261Y-99112739D01*
X172004933Y-99090759D01*
X171962420Y-99033900D01*
X171954500Y-98989934D01*
X171954500Y-98784199D01*
X171971381Y-98721199D01*
X172027223Y-98624479D01*
X172027224Y-98624478D01*
X172030527Y-98618756D01*
X172089542Y-98437128D01*
X172090466Y-98428343D01*
X172108814Y-98253765D01*
X172109504Y-98247200D01*
X172097765Y-98135507D01*
X172090232Y-98063835D01*
X172090232Y-98063833D01*
X172089542Y-98057272D01*
X172030527Y-97875644D01*
X172014845Y-97848481D01*
X171977413Y-97783648D01*
X171935040Y-97710256D01*
X171918727Y-97692138D01*
X171811675Y-97573245D01*
X171811674Y-97573244D01*
X171807253Y-97568334D01*
X171652752Y-97456082D01*
X171646724Y-97453398D01*
X171646722Y-97453397D01*
X171484319Y-97381091D01*
X171484318Y-97381091D01*
X171478288Y-97378406D01*
X171384887Y-97358553D01*
X171297944Y-97340072D01*
X171297939Y-97340072D01*
X171291487Y-97338700D01*
X171100513Y-97338700D01*
X171094061Y-97340072D01*
X171094056Y-97340072D01*
X171007113Y-97358553D01*
X170913712Y-97378406D01*
X170907682Y-97381091D01*
X170907681Y-97381091D01*
X170745278Y-97453397D01*
X170745276Y-97453398D01*
X170739248Y-97456082D01*
X170584747Y-97568334D01*
X170580326Y-97573244D01*
X170580325Y-97573245D01*
X170473274Y-97692138D01*
X170456960Y-97710256D01*
X170414587Y-97783648D01*
X170377156Y-97848481D01*
X170361473Y-97875644D01*
X170302458Y-98057272D01*
X170301768Y-98063833D01*
X170301768Y-98063835D01*
X170294235Y-98135507D01*
X170282496Y-98247200D01*
X170283186Y-98253765D01*
X170301535Y-98428343D01*
X170302458Y-98437128D01*
X170361473Y-98618756D01*
X170364776Y-98624478D01*
X170364777Y-98624479D01*
X170420619Y-98721199D01*
X170437500Y-98784199D01*
X170437500Y-98989934D01*
X170417498Y-99058055D01*
X170387068Y-99090758D01*
X170357739Y-99112739D01*
X170270385Y-99229295D01*
X170219255Y-99365684D01*
X170212500Y-99427866D01*
X170212500Y-100974134D01*
X170219255Y-101036316D01*
X170270385Y-101172705D01*
X170357739Y-101289261D01*
X170474295Y-101376615D01*
X170482704Y-101379767D01*
X170490575Y-101384077D01*
X170489664Y-101385741D01*
X170537490Y-101421663D01*
X170562193Y-101488224D01*
X170562500Y-101497009D01*
X170562500Y-102990076D01*
X170542498Y-103058197D01*
X170515456Y-103088269D01*
X170486975Y-103111168D01*
X170359846Y-103262674D01*
X170356879Y-103268072D01*
X170356875Y-103268077D01*
X170285191Y-103398472D01*
X170264567Y-103435987D01*
X170262706Y-103441854D01*
X170262705Y-103441856D01*
X170206627Y-103618636D01*
X170204765Y-103624506D01*
X170182719Y-103821051D01*
X167626031Y-103821051D01*
X167618080Y-103739967D01*
X167616271Y-103733973D01*
X167588447Y-103641818D01*
X167560916Y-103550631D01*
X167468066Y-103376004D01*
X167391544Y-103282179D01*
X167346960Y-103227513D01*
X167346957Y-103227510D01*
X167343065Y-103222738D01*
X167336729Y-103217496D01*
X167301262Y-103188156D01*
X167289185Y-103178164D01*
X167249447Y-103119332D01*
X167243500Y-103081080D01*
X167243500Y-101490455D01*
X167263502Y-101422334D01*
X167308991Y-101379935D01*
X167309300Y-101379766D01*
X167317705Y-101376615D01*
X167325734Y-101370598D01*
X167416935Y-101302246D01*
X167434261Y-101289261D01*
X167521615Y-101172705D01*
X167572745Y-101036316D01*
X167579500Y-100974134D01*
X167579500Y-99427866D01*
X167572745Y-99365684D01*
X167521615Y-99229295D01*
X167434261Y-99112739D01*
X167435165Y-99112062D01*
X167405204Y-99057195D01*
X167410269Y-98986380D01*
X167419207Y-98967411D01*
X167441222Y-98929281D01*
X167441223Y-98929278D01*
X167444527Y-98923556D01*
X167503542Y-98741928D01*
X167523504Y-98552000D01*
X167522533Y-98542760D01*
X167504232Y-98368635D01*
X167504232Y-98368633D01*
X167503542Y-98362072D01*
X167444527Y-98180444D01*
X167349040Y-98015056D01*
X167329528Y-97993385D01*
X167225675Y-97878045D01*
X167225674Y-97878044D01*
X167221253Y-97873134D01*
X167066752Y-97760882D01*
X167060724Y-97758198D01*
X167060722Y-97758197D01*
X166898319Y-97685891D01*
X166898318Y-97685891D01*
X166892288Y-97683206D01*
X166798888Y-97663353D01*
X166711944Y-97644872D01*
X166711939Y-97644872D01*
X166705487Y-97643500D01*
X166514513Y-97643500D01*
X166508061Y-97644872D01*
X166508056Y-97644872D01*
X166421112Y-97663353D01*
X166327712Y-97683206D01*
X166321682Y-97685891D01*
X166321681Y-97685891D01*
X166159278Y-97758197D01*
X166159276Y-97758198D01*
X166153248Y-97760882D01*
X165998747Y-97873134D01*
X165994326Y-97878044D01*
X165994325Y-97878045D01*
X165890473Y-97993385D01*
X165870960Y-98015056D01*
X165775473Y-98180444D01*
X165716458Y-98362072D01*
X165715768Y-98368633D01*
X165715768Y-98368635D01*
X165697467Y-98542760D01*
X165696496Y-98552000D01*
X165716458Y-98741928D01*
X165775473Y-98923556D01*
X165790546Y-98949663D01*
X165807283Y-99018655D01*
X165784063Y-99085747D01*
X165770521Y-99101756D01*
X165764919Y-99107358D01*
X165757739Y-99112739D01*
X165670385Y-99229295D01*
X165619255Y-99365684D01*
X165612500Y-99427866D01*
X165612500Y-100974134D01*
X165619255Y-101036316D01*
X165670385Y-101172705D01*
X165757739Y-101289261D01*
X165874295Y-101376615D01*
X165894200Y-101384077D01*
X165894731Y-101384276D01*
X165951495Y-101426919D01*
X165976194Y-101493480D01*
X165976500Y-101502258D01*
X165976500Y-103102931D01*
X165956498Y-103171052D01*
X165929453Y-103201127D01*
X165926656Y-103203376D01*
X165914975Y-103212768D01*
X165787846Y-103364274D01*
X165784879Y-103369672D01*
X165784875Y-103369677D01*
X165724916Y-103478744D01*
X165692567Y-103537587D01*
X165690706Y-103543454D01*
X165690705Y-103543456D01*
X165640369Y-103702136D01*
X165632765Y-103726106D01*
X165610719Y-103922651D01*
X163316245Y-103922651D01*
X163318640Y-103914981D01*
X163373081Y-103869410D01*
X163423460Y-103858900D01*
X163731134Y-103858900D01*
X163793316Y-103852145D01*
X163929705Y-103801015D01*
X164046261Y-103713661D01*
X164133615Y-103597105D01*
X164135299Y-103598367D01*
X164177125Y-103556636D01*
X164246516Y-103541622D01*
X164300769Y-103561449D01*
X164301989Y-103559336D01*
X164307707Y-103562637D01*
X164313048Y-103566518D01*
X164319076Y-103569202D01*
X164319078Y-103569203D01*
X164481481Y-103641509D01*
X164487512Y-103644194D01*
X164567133Y-103661118D01*
X164667856Y-103682528D01*
X164667861Y-103682528D01*
X164674313Y-103683900D01*
X164865287Y-103683900D01*
X164871739Y-103682528D01*
X164871744Y-103682528D01*
X164972467Y-103661118D01*
X165052088Y-103644194D01*
X165058119Y-103641509D01*
X165220522Y-103569203D01*
X165220524Y-103569202D01*
X165226552Y-103566518D01*
X165240154Y-103556636D01*
X165313288Y-103503500D01*
X165381053Y-103454266D01*
X165392227Y-103441856D01*
X165504421Y-103317252D01*
X165504422Y-103317251D01*
X165508840Y-103312344D01*
X165585462Y-103179631D01*
X165601023Y-103152679D01*
X165601024Y-103152678D01*
X165604327Y-103146956D01*
X165663342Y-102965328D01*
X165670388Y-102898295D01*
X165682614Y-102781965D01*
X165683304Y-102775400D01*
X165667184Y-102622025D01*
X165664032Y-102592035D01*
X165664032Y-102592033D01*
X165663342Y-102585472D01*
X165604327Y-102403844D01*
X165598729Y-102394147D01*
X165536537Y-102286429D01*
X165508840Y-102238456D01*
X165385941Y-102101962D01*
X165385475Y-102101445D01*
X165385474Y-102101444D01*
X165381053Y-102096534D01*
X165249518Y-102000968D01*
X165231894Y-101988163D01*
X165231893Y-101988162D01*
X165226552Y-101984282D01*
X165220524Y-101981598D01*
X165220522Y-101981597D01*
X165058119Y-101909291D01*
X165058118Y-101909291D01*
X165052088Y-101906606D01*
X164950483Y-101885009D01*
X164871744Y-101868272D01*
X164871739Y-101868272D01*
X164865287Y-101866900D01*
X164674313Y-101866900D01*
X164667861Y-101868272D01*
X164667856Y-101868272D01*
X164589117Y-101885009D01*
X164487512Y-101906606D01*
X164481482Y-101909291D01*
X164481481Y-101909291D01*
X164436953Y-101929116D01*
X164318748Y-101981744D01*
X164248382Y-101991178D01*
X164184085Y-101961072D01*
X164146271Y-101900983D01*
X164141500Y-101866637D01*
X164141500Y-99350679D01*
X164161502Y-99282558D01*
X164178327Y-99261661D01*
X164205158Y-99234784D01*
X164205162Y-99234779D01*
X164210329Y-99229603D01*
X164214170Y-99223372D01*
X164297769Y-99087750D01*
X164297770Y-99087748D01*
X164301609Y-99081520D01*
X164356374Y-98916409D01*
X164366900Y-98813672D01*
X164366900Y-98239528D01*
X164366365Y-98234368D01*
X164356819Y-98142365D01*
X164356818Y-98142361D01*
X164356107Y-98135507D01*
X164350357Y-98118270D01*
X164303372Y-97977441D01*
X164301054Y-97970493D01*
X164209516Y-97822569D01*
X164204386Y-97817448D01*
X164177759Y-97751667D01*
X164190929Y-97681903D01*
X164204262Y-97661116D01*
X164205152Y-97659989D01*
X164210329Y-97654803D01*
X164267689Y-97561748D01*
X164297769Y-97512950D01*
X164297770Y-97512948D01*
X164301609Y-97506720D01*
X164356374Y-97341609D01*
X164359193Y-97314100D01*
X164366572Y-97242071D01*
X164366900Y-97238872D01*
X164366900Y-96664728D01*
X164365809Y-96654210D01*
X164356819Y-96567565D01*
X164356818Y-96567561D01*
X164356107Y-96560707D01*
X164322804Y-96460884D01*
X164303372Y-96402641D01*
X164301054Y-96395693D01*
X164261211Y-96331308D01*
X164213369Y-96253995D01*
X164213368Y-96253994D01*
X164209516Y-96247769D01*
X164204337Y-96242599D01*
X164204333Y-96242594D01*
X164202473Y-96240738D01*
X164201608Y-96239157D01*
X164199789Y-96236862D01*
X164200182Y-96236551D01*
X164168394Y-96178455D01*
X164173399Y-96107635D01*
X164190666Y-96076002D01*
X164218029Y-96039492D01*
X164218030Y-96039490D01*
X164223415Y-96032305D01*
X164274545Y-95895916D01*
X164281300Y-95833734D01*
X164281300Y-94941293D01*
X164301302Y-94873172D01*
X164343161Y-94832840D01*
X164366932Y-94818782D01*
X164366936Y-94818779D01*
X164373762Y-94814742D01*
X164388083Y-94800421D01*
X164403117Y-94787580D01*
X164413094Y-94780331D01*
X164419507Y-94775672D01*
X164447698Y-94741595D01*
X164455688Y-94732816D01*
X164715047Y-94473457D01*
X164723337Y-94465913D01*
X164729818Y-94461800D01*
X164776459Y-94412132D01*
X164779213Y-94409291D01*
X164798934Y-94389570D01*
X164801412Y-94386375D01*
X164809118Y-94377353D01*
X164833958Y-94350901D01*
X164839386Y-94345121D01*
X164849146Y-94327368D01*
X164859999Y-94310845D01*
X164868176Y-94300303D01*
X164872411Y-94294843D01*
X164874464Y-94296436D01*
X164917091Y-94256632D01*
X164929426Y-94251240D01*
X164961095Y-94239368D01*
X164961096Y-94239367D01*
X164969505Y-94236215D01*
X165086061Y-94148861D01*
X165173415Y-94032305D01*
X165224545Y-93895916D01*
X165231300Y-93833734D01*
X165231300Y-92837466D01*
X165230158Y-92826954D01*
X165242689Y-92757072D01*
X165281362Y-92711414D01*
X165311987Y-92689164D01*
X165321907Y-92682648D01*
X165353135Y-92664180D01*
X165353138Y-92664178D01*
X165359962Y-92660142D01*
X165374283Y-92645821D01*
X165389317Y-92632980D01*
X165399294Y-92625731D01*
X165405707Y-92621072D01*
X165433898Y-92586995D01*
X165441888Y-92578216D01*
X166892553Y-91127552D01*
X166900839Y-91120012D01*
X166907318Y-91115900D01*
X166953944Y-91066248D01*
X166956698Y-91063407D01*
X166976435Y-91043670D01*
X166978915Y-91040473D01*
X166986620Y-91031451D01*
X167009898Y-91006663D01*
X167016886Y-90999221D01*
X167019394Y-91001576D01*
X167069819Y-90964631D01*
X167111957Y-90950573D01*
X167111959Y-90950572D01*
X167118907Y-90948254D01*
X167266831Y-90856716D01*
X167274074Y-90849461D01*
X167275838Y-90848495D01*
X167277741Y-90846987D01*
X167277999Y-90847313D01*
X167336354Y-90815381D01*
X167407175Y-90820382D01*
X167452270Y-90849308D01*
X167454931Y-90851964D01*
X167466340Y-90860975D01*
X167503402Y-90883820D01*
X167550895Y-90936592D01*
X167562319Y-91006663D01*
X167539438Y-91064594D01*
X167535960Y-91068456D01*
X167501841Y-91127552D01*
X167446546Y-91223326D01*
X167440473Y-91233844D01*
X167381458Y-91415472D01*
X167380768Y-91422033D01*
X167380768Y-91422035D01*
X167366458Y-91558189D01*
X167361496Y-91605400D01*
X167362186Y-91611965D01*
X167377615Y-91758760D01*
X167381458Y-91795328D01*
X167440473Y-91976956D01*
X167535960Y-92142344D01*
X167540378Y-92147251D01*
X167540379Y-92147252D01*
X167549328Y-92157191D01*
X167580045Y-92221199D01*
X167571280Y-92291652D01*
X167525816Y-92346183D01*
X167455691Y-92367500D01*
X167247866Y-92367500D01*
X167185684Y-92374255D01*
X167049295Y-92425385D01*
X166932739Y-92512739D01*
X166845385Y-92629295D01*
X166794255Y-92765684D01*
X166787500Y-92827866D01*
X166787500Y-94374134D01*
X166794255Y-94436316D01*
X166845385Y-94572705D01*
X166932739Y-94689261D01*
X167049295Y-94776615D01*
X167185684Y-94827745D01*
X167247866Y-94834500D01*
X167871186Y-94834500D01*
X167939307Y-94854502D01*
X167985800Y-94908158D01*
X167997186Y-94960500D01*
X167997186Y-94964035D01*
X167996496Y-94970600D01*
X167997186Y-94977165D01*
X168014696Y-95143759D01*
X168016458Y-95160528D01*
X168075473Y-95342156D01*
X168078776Y-95347878D01*
X168078777Y-95347879D01*
X168083750Y-95356493D01*
X168170960Y-95507544D01*
X168244137Y-95588815D01*
X168274853Y-95652821D01*
X168276500Y-95673124D01*
X168276500Y-98899742D01*
X168256498Y-98967863D01*
X168202842Y-99014356D01*
X168194734Y-99017723D01*
X168174295Y-99025385D01*
X168057739Y-99112739D01*
X167970385Y-99229295D01*
X167919255Y-99365684D01*
X167912500Y-99427866D01*
X167912500Y-100974134D01*
X167919255Y-101036316D01*
X167970385Y-101172705D01*
X168057739Y-101289261D01*
X168174295Y-101376615D01*
X168310684Y-101427745D01*
X168372866Y-101434500D01*
X169419134Y-101434500D01*
X169481316Y-101427745D01*
X169617705Y-101376615D01*
X169734261Y-101289261D01*
X169821615Y-101172705D01*
X169872745Y-101036316D01*
X169879500Y-100974134D01*
X169879500Y-99427866D01*
X169872745Y-99365684D01*
X169821615Y-99229295D01*
X169734261Y-99112739D01*
X169660149Y-99057195D01*
X169624889Y-99030769D01*
X169624888Y-99030769D01*
X169617705Y-99025385D01*
X169609300Y-99022234D01*
X169608991Y-99022065D01*
X169558845Y-98971806D01*
X169543500Y-98911545D01*
X169543500Y-95673124D01*
X169563502Y-95605003D01*
X169575858Y-95588821D01*
X169649040Y-95507544D01*
X169736250Y-95356493D01*
X169741223Y-95347879D01*
X169741224Y-95347878D01*
X169744527Y-95342156D01*
X169803542Y-95160528D01*
X169805305Y-95143759D01*
X169822814Y-94977165D01*
X169823504Y-94970600D01*
X169822814Y-94964035D01*
X169822814Y-94960500D01*
X169842816Y-94892379D01*
X169896472Y-94845886D01*
X169948814Y-94834500D01*
X170544134Y-94834500D01*
X170606316Y-94827745D01*
X170742705Y-94776615D01*
X170859261Y-94689261D01*
X170946615Y-94572705D01*
X170997745Y-94436316D01*
X171004500Y-94374134D01*
X171004500Y-92827866D01*
X170997745Y-92765684D01*
X170984340Y-92729926D01*
X170979157Y-92659120D01*
X171013077Y-92596751D01*
X171075332Y-92562622D01*
X171141989Y-92566104D01*
X171170965Y-92575715D01*
X171184332Y-92578581D01*
X171276970Y-92588072D01*
X171283385Y-92588400D01*
X171357585Y-92588400D01*
X171372824Y-92583925D01*
X171374029Y-92582535D01*
X171375700Y-92574852D01*
X171375700Y-91477400D01*
X171395702Y-91409279D01*
X171449358Y-91362786D01*
X171501700Y-91351400D01*
X171757700Y-91351400D01*
X171825821Y-91371402D01*
X171872314Y-91425058D01*
X171883700Y-91477400D01*
X171883700Y-92570285D01*
X171888175Y-92585524D01*
X171889565Y-92586729D01*
X171897248Y-92588400D01*
X171975966Y-92588400D01*
X171982482Y-92588063D01*
X172076332Y-92578325D01*
X172089728Y-92575432D01*
X172241153Y-92524912D01*
X172254315Y-92518747D01*
X172389692Y-92434974D01*
X172401090Y-92425940D01*
X172513563Y-92313271D01*
X172522575Y-92301860D01*
X172587840Y-92195980D01*
X172640612Y-92148487D01*
X172710684Y-92137063D01*
X172775808Y-92165337D01*
X172815307Y-92224331D01*
X172821100Y-92262096D01*
X172821100Y-117983500D01*
X172801098Y-118051621D01*
X172747442Y-118098114D01*
X172695100Y-118109500D01*
X125754900Y-118109500D01*
X125686779Y-118089498D01*
X125640286Y-118035842D01*
X125628900Y-117983500D01*
X125628900Y-65709300D01*
X125648902Y-65641179D01*
X125702558Y-65594686D01*
X125754900Y-65583300D01*
X130032657Y-65583300D01*
X130100778Y-65603302D01*
G37*
%TD.AperFunction*%
%TA.AperFunction,Conductor*%
G36*
X160662612Y-103454608D02*
G01*
X160698082Y-103505602D01*
X160732385Y-103597105D01*
X160819739Y-103713661D01*
X160936295Y-103801015D01*
X161072684Y-103852145D01*
X161134866Y-103858900D01*
X161442583Y-103858900D01*
X161510704Y-103878902D01*
X161557197Y-103932558D01*
X161567301Y-104002832D01*
X161549842Y-104051017D01*
X161521253Y-104097397D01*
X161514791Y-104107880D01*
X161460026Y-104272991D01*
X161459326Y-104279827D01*
X161459325Y-104279830D01*
X161455688Y-104315335D01*
X161449500Y-104375728D01*
X161449500Y-104974872D01*
X161449837Y-104978118D01*
X161449837Y-104978122D01*
X161459485Y-105071101D01*
X161460293Y-105078893D01*
X161462474Y-105085429D01*
X161462474Y-105085431D01*
X161488028Y-105162025D01*
X161515346Y-105243907D01*
X161606884Y-105391831D01*
X161612066Y-105397004D01*
X161713786Y-105498547D01*
X161747865Y-105560830D01*
X161742862Y-105631650D01*
X161713941Y-105676737D01*
X161611246Y-105779612D01*
X161611242Y-105779617D01*
X161606071Y-105784797D01*
X161602231Y-105791027D01*
X161602230Y-105791028D01*
X161519364Y-105925462D01*
X161514791Y-105932880D01*
X161460026Y-106097991D01*
X161459326Y-106104827D01*
X161459325Y-106104830D01*
X161456121Y-106136107D01*
X161449500Y-106200728D01*
X161449500Y-106799872D01*
X161449837Y-106803118D01*
X161449837Y-106803122D01*
X161456295Y-106865357D01*
X161460293Y-106903893D01*
X161462474Y-106910429D01*
X161462474Y-106910431D01*
X161491724Y-106998102D01*
X161515346Y-107068907D01*
X161606884Y-107216831D01*
X161612066Y-107222004D01*
X161724816Y-107334558D01*
X161724821Y-107334562D01*
X161729997Y-107339729D01*
X161736227Y-107343569D01*
X161736228Y-107343570D01*
X161739614Y-107345657D01*
X161741441Y-107347686D01*
X161741973Y-107348107D01*
X161741901Y-107348198D01*
X161787108Y-107398428D01*
X161799500Y-107452918D01*
X161799500Y-107584606D01*
X161779498Y-107652727D01*
X161762595Y-107673701D01*
X157326100Y-112110195D01*
X157263788Y-112144221D01*
X157237005Y-112147100D01*
X155855805Y-112147100D01*
X155787684Y-112127098D01*
X155750013Y-112089540D01*
X155661822Y-111953217D01*
X155661820Y-111953214D01*
X155659014Y-111948877D01*
X155508670Y-111783651D01*
X155504619Y-111780452D01*
X155504615Y-111780448D01*
X155337414Y-111648400D01*
X155337410Y-111648398D01*
X155333359Y-111645198D01*
X155292053Y-111622396D01*
X155242084Y-111571964D01*
X155227312Y-111502521D01*
X155252428Y-111436116D01*
X155279780Y-111409509D01*
X155345216Y-111362834D01*
X155458860Y-111281773D01*
X155480768Y-111259942D01*
X155595649Y-111145461D01*
X155617096Y-111124089D01*
X155639730Y-111092591D01*
X155744435Y-110946877D01*
X155747453Y-110942677D01*
X155760995Y-110915278D01*
X155844136Y-110747053D01*
X155844137Y-110747051D01*
X155846430Y-110742411D01*
X155878900Y-110635540D01*
X155909865Y-110533623D01*
X155909865Y-110533621D01*
X155911370Y-110528669D01*
X155940529Y-110307190D01*
X155942156Y-110240600D01*
X155923852Y-110017961D01*
X155895821Y-109906365D01*
X155898625Y-109835423D01*
X155928930Y-109786574D01*
X158056081Y-107659424D01*
X160212853Y-105502652D01*
X160221139Y-105495112D01*
X160227618Y-105491000D01*
X160274244Y-105441348D01*
X160276998Y-105438507D01*
X160296735Y-105418770D01*
X160299215Y-105415573D01*
X160306920Y-105406551D01*
X160321708Y-105390803D01*
X160337186Y-105374321D01*
X160341005Y-105367375D01*
X160341007Y-105367372D01*
X160346948Y-105356566D01*
X160357799Y-105340047D01*
X160365358Y-105330301D01*
X160370214Y-105324041D01*
X160373359Y-105316772D01*
X160373362Y-105316768D01*
X160387774Y-105283463D01*
X160392991Y-105272813D01*
X160414295Y-105234060D01*
X160419333Y-105214437D01*
X160425737Y-105195734D01*
X160430633Y-105184420D01*
X160430633Y-105184419D01*
X160433781Y-105177145D01*
X160435020Y-105169322D01*
X160435023Y-105169312D01*
X160440699Y-105133476D01*
X160443105Y-105121856D01*
X160452128Y-105086711D01*
X160452128Y-105086710D01*
X160454100Y-105079030D01*
X160454100Y-105058776D01*
X160455651Y-105039065D01*
X160457580Y-105026886D01*
X160458820Y-105019057D01*
X160454659Y-104975038D01*
X160454100Y-104963181D01*
X160454100Y-103549832D01*
X160474102Y-103481711D01*
X160527758Y-103435218D01*
X160598032Y-103425114D01*
X160662612Y-103454608D01*
G37*
%TD.AperFunction*%
%TA.AperFunction,Conductor*%
G36*
X148828808Y-70568876D02*
G01*
X148868307Y-70627870D01*
X148874100Y-70665635D01*
X148874100Y-79914664D01*
X148873022Y-79931107D01*
X148868850Y-79962800D01*
X148874100Y-80002680D01*
X148874100Y-80002685D01*
X148881890Y-80061849D01*
X148883145Y-80071382D01*
X148883145Y-80071385D01*
X148886466Y-80096610D01*
X148889762Y-80121651D01*
X148951076Y-80269676D01*
X148956103Y-80276227D01*
X148956104Y-80276229D01*
X149024120Y-80364869D01*
X149024126Y-80364875D01*
X149048613Y-80396787D01*
X149055168Y-80401817D01*
X149073979Y-80416252D01*
X149086370Y-80427119D01*
X151906995Y-83247744D01*
X151941021Y-83310056D01*
X151943900Y-83336839D01*
X151943900Y-87341264D01*
X151942822Y-87357707D01*
X151938650Y-87389400D01*
X151943900Y-87429280D01*
X151943900Y-87429285D01*
X151954904Y-87512871D01*
X151959562Y-87548251D01*
X152020876Y-87696276D01*
X152025903Y-87702827D01*
X152025904Y-87702829D01*
X152093920Y-87791469D01*
X152093926Y-87791475D01*
X152118413Y-87823387D01*
X152124968Y-87828417D01*
X152143779Y-87842852D01*
X152156170Y-87853719D01*
X153329285Y-89026834D01*
X153340152Y-89039225D01*
X153359613Y-89064587D01*
X153366163Y-89069613D01*
X153391521Y-89089071D01*
X153391537Y-89089085D01*
X153421911Y-89112391D01*
X153486724Y-89162124D01*
X153634749Y-89223438D01*
X153642936Y-89224516D01*
X153642937Y-89224516D01*
X153654142Y-89225991D01*
X153685338Y-89230098D01*
X153753715Y-89239100D01*
X153753718Y-89239100D01*
X153753726Y-89239101D01*
X153785411Y-89243272D01*
X153793600Y-89244350D01*
X153825293Y-89240178D01*
X153841736Y-89239100D01*
X154756075Y-89239100D01*
X154788684Y-89243393D01*
X154795721Y-89245279D01*
X154803349Y-89248438D01*
X154811486Y-89249509D01*
X154872089Y-89286447D01*
X154903112Y-89350307D01*
X154904120Y-89357598D01*
X154907856Y-89391994D01*
X154907856Y-89419206D01*
X154903700Y-89457466D01*
X154903700Y-89480655D01*
X154883698Y-89548776D01*
X154838401Y-89591069D01*
X154834650Y-89593131D01*
X154827283Y-89596048D01*
X154820871Y-89600706D01*
X154820872Y-89600706D01*
X154791525Y-89622028D01*
X154781601Y-89628547D01*
X154750360Y-89647022D01*
X154750355Y-89647026D01*
X154743537Y-89651058D01*
X154729213Y-89665382D01*
X154714181Y-89678221D01*
X154697793Y-89690128D01*
X154680685Y-89710808D01*
X154669612Y-89724193D01*
X154661622Y-89732973D01*
X153252347Y-91142248D01*
X153244061Y-91149788D01*
X153237582Y-91153900D01*
X153232157Y-91159677D01*
X153190957Y-91203551D01*
X153188202Y-91206393D01*
X153168465Y-91226130D01*
X153165985Y-91229327D01*
X153158282Y-91238347D01*
X153128014Y-91270579D01*
X153124195Y-91277525D01*
X153124193Y-91277528D01*
X153118252Y-91288334D01*
X153107401Y-91304853D01*
X153094986Y-91320859D01*
X153091841Y-91328128D01*
X153091838Y-91328132D01*
X153077426Y-91361437D01*
X153072209Y-91372087D01*
X153050905Y-91410840D01*
X153048934Y-91418515D01*
X153048934Y-91418516D01*
X153045867Y-91430462D01*
X153039463Y-91449166D01*
X153031419Y-91467755D01*
X153030180Y-91475578D01*
X153030177Y-91475588D01*
X153024501Y-91511424D01*
X153022095Y-91523044D01*
X153011100Y-91565870D01*
X153011100Y-91586124D01*
X153009549Y-91605834D01*
X153006380Y-91625843D01*
X153007126Y-91633735D01*
X153010541Y-91669861D01*
X153011100Y-91681719D01*
X153011100Y-92363076D01*
X152991098Y-92431197D01*
X152978742Y-92447379D01*
X152905560Y-92528656D01*
X152851605Y-92622109D01*
X152824752Y-92668620D01*
X152810073Y-92694044D01*
X152751058Y-92875672D01*
X152750368Y-92882233D01*
X152750368Y-92882235D01*
X152747912Y-92905600D01*
X152731096Y-93065600D01*
X152731786Y-93072165D01*
X152746021Y-93207600D01*
X152751058Y-93255528D01*
X152810073Y-93437156D01*
X152813376Y-93442878D01*
X152813377Y-93442879D01*
X152847286Y-93501610D01*
X152905560Y-93602544D01*
X153033347Y-93744466D01*
X153119892Y-93807345D01*
X153178972Y-93850269D01*
X153187848Y-93856718D01*
X153193876Y-93859402D01*
X153193878Y-93859403D01*
X153321627Y-93916280D01*
X153362312Y-93934394D01*
X153436626Y-93950190D01*
X153542656Y-93972728D01*
X153542661Y-93972728D01*
X153549113Y-93974100D01*
X153740087Y-93974100D01*
X153746539Y-93972728D01*
X153746544Y-93972728D01*
X153852574Y-93950190D01*
X153926888Y-93934394D01*
X153967573Y-93916280D01*
X154095322Y-93859403D01*
X154095324Y-93859402D01*
X154101352Y-93856718D01*
X154110229Y-93850269D01*
X154169308Y-93807345D01*
X154255853Y-93744466D01*
X154383640Y-93602544D01*
X154441914Y-93501610D01*
X154475823Y-93442879D01*
X154475824Y-93442878D01*
X154479127Y-93437156D01*
X154538142Y-93255528D01*
X154543180Y-93207600D01*
X154557414Y-93072165D01*
X154558104Y-93065600D01*
X154541288Y-92905600D01*
X154538832Y-92882235D01*
X154538832Y-92882233D01*
X154538142Y-92875672D01*
X154479127Y-92694044D01*
X154464449Y-92668620D01*
X154437595Y-92622109D01*
X154383640Y-92528656D01*
X154310463Y-92447385D01*
X154279747Y-92383379D01*
X154278100Y-92363076D01*
X154278100Y-91960494D01*
X154298102Y-91892373D01*
X154315005Y-91871399D01*
X154688605Y-91497799D01*
X154750917Y-91463773D01*
X154821732Y-91468838D01*
X154878568Y-91511385D01*
X154903379Y-91577905D01*
X154903700Y-91586894D01*
X154903700Y-91853734D01*
X154904069Y-91857129D01*
X154904069Y-91857133D01*
X154907856Y-91891993D01*
X154907856Y-91919207D01*
X154904221Y-91952673D01*
X154903700Y-91957466D01*
X154903700Y-92353734D01*
X154904069Y-92357129D01*
X154904069Y-92357133D01*
X154907856Y-92391993D01*
X154907856Y-92419206D01*
X154903700Y-92457466D01*
X154903700Y-92853734D01*
X154904069Y-92857129D01*
X154904069Y-92857133D01*
X154907856Y-92891993D01*
X154907856Y-92919206D01*
X154903700Y-92957466D01*
X154903700Y-93353734D01*
X154908109Y-93394320D01*
X154908109Y-93421533D01*
X154904569Y-93454117D01*
X154904200Y-93460928D01*
X154904200Y-93487485D01*
X154908675Y-93502724D01*
X154934370Y-93524989D01*
X154933912Y-93525518D01*
X154946300Y-93532282D01*
X154961407Y-93552439D01*
X154961585Y-93552305D01*
X155001197Y-93605159D01*
X155026045Y-93671665D01*
X155010992Y-93741048D01*
X154960818Y-93791278D01*
X154935870Y-93801620D01*
X154907077Y-93810075D01*
X154905872Y-93811465D01*
X154904201Y-93819148D01*
X154904201Y-93850269D01*
X154904571Y-93857093D01*
X154908361Y-93891993D01*
X154908361Y-93919203D01*
X154904569Y-93954110D01*
X154904200Y-93960929D01*
X154904200Y-93987485D01*
X154908675Y-94002724D01*
X154910065Y-94003929D01*
X154926965Y-94007605D01*
X154989278Y-94041630D01*
X155023303Y-94103942D01*
X155018239Y-94174757D01*
X155001010Y-94206290D01*
X154991745Y-94218652D01*
X154961586Y-94258894D01*
X154961297Y-94258678D01*
X154915135Y-94304739D01*
X154909782Y-94306953D01*
X154905872Y-94311465D01*
X154904201Y-94319148D01*
X154904201Y-94350270D01*
X154904570Y-94357088D01*
X154908109Y-94389667D01*
X154908109Y-94416880D01*
X154903700Y-94457466D01*
X154903700Y-94853734D01*
X154904069Y-94857129D01*
X154904069Y-94857133D01*
X154907856Y-94891993D01*
X154907856Y-94919206D01*
X154903700Y-94957466D01*
X154903700Y-95353734D01*
X154904069Y-95357129D01*
X154904069Y-95357133D01*
X154907856Y-95391993D01*
X154907856Y-95419206D01*
X154903700Y-95457466D01*
X154903700Y-95853734D01*
X154904069Y-95857129D01*
X154904069Y-95857133D01*
X154906824Y-95882493D01*
X154894296Y-95952375D01*
X154845975Y-96004391D01*
X154781561Y-96022100D01*
X153282963Y-96022100D01*
X153271779Y-96021573D01*
X153264291Y-96019899D01*
X153256368Y-96020148D01*
X153196233Y-96022038D01*
X153192275Y-96022100D01*
X153164344Y-96022100D01*
X153160429Y-96022595D01*
X153160425Y-96022595D01*
X153160367Y-96022603D01*
X153160338Y-96022606D01*
X153148496Y-96023539D01*
X153104310Y-96024927D01*
X153090042Y-96029072D01*
X153084858Y-96030578D01*
X153065506Y-96034586D01*
X153058435Y-96035480D01*
X153045403Y-96037126D01*
X153038034Y-96040043D01*
X153038032Y-96040044D01*
X153004297Y-96053400D01*
X152993069Y-96057245D01*
X152950607Y-96069582D01*
X152943785Y-96073616D01*
X152943779Y-96073619D01*
X152933168Y-96079894D01*
X152915418Y-96088590D01*
X152903956Y-96093128D01*
X152903951Y-96093131D01*
X152896583Y-96096048D01*
X152890168Y-96100709D01*
X152860825Y-96122027D01*
X152850907Y-96128543D01*
X152832219Y-96139595D01*
X152812837Y-96151058D01*
X152798513Y-96165382D01*
X152783481Y-96178221D01*
X152767093Y-96190128D01*
X152750100Y-96210669D01*
X152738912Y-96224193D01*
X152730922Y-96232973D01*
X152377700Y-96586195D01*
X152315388Y-96620221D01*
X152288605Y-96623100D01*
X150746700Y-96623100D01*
X150678579Y-96603098D01*
X150632086Y-96549442D01*
X150620700Y-96497100D01*
X150620700Y-96457466D01*
X150620107Y-96452001D01*
X150616544Y-96419207D01*
X150616544Y-96391993D01*
X150620331Y-96357133D01*
X150620331Y-96357129D01*
X150620700Y-96353734D01*
X150620700Y-95957466D01*
X150618398Y-95936269D01*
X150616544Y-95919207D01*
X150616544Y-95891993D01*
X150620331Y-95857133D01*
X150620331Y-95857129D01*
X150620700Y-95853734D01*
X150620700Y-95457466D01*
X150616544Y-95419206D01*
X150616544Y-95391993D01*
X150620331Y-95357133D01*
X150620331Y-95357129D01*
X150620700Y-95353734D01*
X150620700Y-94957466D01*
X150616544Y-94919206D01*
X150616544Y-94891993D01*
X150620331Y-94857133D01*
X150620331Y-94857129D01*
X150620700Y-94853734D01*
X150620700Y-94457466D01*
X150616544Y-94419206D01*
X150616544Y-94391993D01*
X150617147Y-94386447D01*
X150619119Y-94368291D01*
X150620331Y-94357133D01*
X150620331Y-94357129D01*
X150620700Y-94353734D01*
X150620700Y-93957466D01*
X150620118Y-93952102D01*
X150616544Y-93919206D01*
X150616544Y-93891992D01*
X150620331Y-93857133D01*
X150620331Y-93857129D01*
X150620700Y-93853734D01*
X150620700Y-93457466D01*
X150619116Y-93442879D01*
X150616544Y-93419207D01*
X150616544Y-93391993D01*
X150620331Y-93357133D01*
X150620331Y-93357128D01*
X150620700Y-93353734D01*
X150620700Y-92957466D01*
X150616544Y-92919206D01*
X150616544Y-92891993D01*
X150620331Y-92857133D01*
X150620331Y-92857129D01*
X150620700Y-92853734D01*
X150620700Y-92457466D01*
X150616544Y-92419206D01*
X150616544Y-92391993D01*
X150620331Y-92357133D01*
X150620331Y-92357129D01*
X150620700Y-92353734D01*
X150620700Y-91957466D01*
X150620180Y-91952673D01*
X150616544Y-91919207D01*
X150616544Y-91891993D01*
X150620331Y-91857133D01*
X150620331Y-91857129D01*
X150620700Y-91853734D01*
X150620700Y-91457466D01*
X150619799Y-91449166D01*
X150616544Y-91419207D01*
X150616544Y-91391993D01*
X150620331Y-91357133D01*
X150620331Y-91357129D01*
X150620700Y-91353734D01*
X150620700Y-90957466D01*
X150619700Y-90948254D01*
X150616544Y-90919207D01*
X150616544Y-90891993D01*
X150620331Y-90857133D01*
X150620331Y-90857129D01*
X150620700Y-90853734D01*
X150620700Y-90457466D01*
X150619465Y-90446091D01*
X150616544Y-90419207D01*
X150616544Y-90391993D01*
X150620331Y-90357133D01*
X150620331Y-90357129D01*
X150620700Y-90353734D01*
X150620700Y-89957466D01*
X150616544Y-89919206D01*
X150616544Y-89891993D01*
X150620331Y-89857133D01*
X150620331Y-89857129D01*
X150620700Y-89853734D01*
X150620700Y-89457466D01*
X150616544Y-89419206D01*
X150616544Y-89391993D01*
X150620331Y-89357133D01*
X150620331Y-89357129D01*
X150620700Y-89353734D01*
X150620700Y-88957466D01*
X150620060Y-88951569D01*
X150616544Y-88919207D01*
X150616544Y-88891993D01*
X150620331Y-88857133D01*
X150620331Y-88857129D01*
X150620700Y-88853734D01*
X150620700Y-88457466D01*
X150616544Y-88419206D01*
X150616544Y-88391993D01*
X150617108Y-88386806D01*
X150618129Y-88377400D01*
X150620331Y-88357133D01*
X150620331Y-88357129D01*
X150620700Y-88353734D01*
X150620700Y-87957466D01*
X150616544Y-87919206D01*
X150616544Y-87891993D01*
X150620331Y-87857133D01*
X150620331Y-87857129D01*
X150620700Y-87853734D01*
X150620700Y-87457466D01*
X150620243Y-87453253D01*
X150616544Y-87419207D01*
X150616544Y-87391993D01*
X150620331Y-87357133D01*
X150620331Y-87357129D01*
X150620700Y-87353734D01*
X150620700Y-86957466D01*
X150618524Y-86937429D01*
X150616544Y-86919207D01*
X150616544Y-86891993D01*
X150620331Y-86857133D01*
X150620331Y-86857129D01*
X150620700Y-86853734D01*
X150620700Y-86457466D01*
X150616544Y-86419206D01*
X150616544Y-86391993D01*
X150620331Y-86357133D01*
X150620331Y-86357129D01*
X150620700Y-86353734D01*
X150620700Y-86044038D01*
X150640702Y-85975917D01*
X150694358Y-85929424D01*
X150743661Y-85919240D01*
X150743615Y-85918732D01*
X150874875Y-85906786D01*
X150906062Y-85903948D01*
X150913083Y-85903309D01*
X150919785Y-85901131D01*
X150919787Y-85901131D01*
X151068223Y-85852901D01*
X151068226Y-85852900D01*
X151074922Y-85850724D01*
X151221090Y-85763590D01*
X151226184Y-85758739D01*
X151226188Y-85758736D01*
X151298752Y-85689634D01*
X151344321Y-85646239D01*
X151438491Y-85504502D01*
X151498919Y-85345425D01*
X151522601Y-85176913D01*
X151522899Y-85155600D01*
X151503931Y-84986492D01*
X151496495Y-84965137D01*
X151450286Y-84832446D01*
X151447968Y-84825789D01*
X151438100Y-84809996D01*
X151389353Y-84731987D01*
X151357792Y-84681479D01*
X151347331Y-84670944D01*
X151252393Y-84575341D01*
X151237886Y-84560732D01*
X151229748Y-84555567D01*
X151161253Y-84512099D01*
X151094208Y-84469551D01*
X150933900Y-84412468D01*
X150764929Y-84392320D01*
X150680881Y-84401154D01*
X150611045Y-84388382D01*
X150559198Y-84339880D01*
X150541803Y-84271048D01*
X150564384Y-84203738D01*
X150601408Y-84168700D01*
X150640781Y-84144335D01*
X150650831Y-84138116D01*
X150656759Y-84132178D01*
X150768558Y-84020184D01*
X150768562Y-84020179D01*
X150773729Y-84015003D01*
X150781667Y-84002126D01*
X150861169Y-83873150D01*
X150861170Y-83873148D01*
X150865009Y-83866920D01*
X150919774Y-83701809D01*
X150924546Y-83655238D01*
X150929972Y-83602271D01*
X150930300Y-83599072D01*
X150930300Y-83024928D01*
X150919507Y-82920907D01*
X150912067Y-82898605D01*
X150866772Y-82762841D01*
X150864454Y-82755893D01*
X150772916Y-82607969D01*
X150742986Y-82578091D01*
X150654984Y-82490242D01*
X150654979Y-82490238D01*
X150649803Y-82485071D01*
X150616989Y-82464844D01*
X150507950Y-82397631D01*
X150507948Y-82397630D01*
X150501720Y-82393791D01*
X150336609Y-82339026D01*
X150329773Y-82338326D01*
X150329770Y-82338325D01*
X150278274Y-82333049D01*
X150233872Y-82328500D01*
X149534728Y-82328500D01*
X149531482Y-82328837D01*
X149531478Y-82328837D01*
X149437565Y-82338581D01*
X149437561Y-82338582D01*
X149430707Y-82339293D01*
X149424171Y-82341474D01*
X149424169Y-82341474D01*
X149360973Y-82362558D01*
X149265693Y-82394346D01*
X149117769Y-82485884D01*
X149112597Y-82491065D01*
X149110527Y-82493139D01*
X149108762Y-82494105D01*
X149106859Y-82495613D01*
X149106601Y-82495287D01*
X149048246Y-82527219D01*
X148977425Y-82522218D01*
X148932330Y-82493292D01*
X148929669Y-82490636D01*
X148918260Y-82481625D01*
X148782737Y-82398088D01*
X148769559Y-82391944D01*
X148618034Y-82341685D01*
X148604668Y-82338819D01*
X148512030Y-82329328D01*
X148505615Y-82329000D01*
X148431415Y-82329000D01*
X148416176Y-82333475D01*
X148414971Y-82334865D01*
X148413300Y-82342548D01*
X148413300Y-83440000D01*
X148393298Y-83508121D01*
X148339642Y-83554614D01*
X148287300Y-83566000D01*
X148031300Y-83566000D01*
X147963179Y-83545998D01*
X147916686Y-83492342D01*
X147905300Y-83440000D01*
X147905300Y-82347115D01*
X147900825Y-82331876D01*
X147899435Y-82330671D01*
X147891752Y-82329000D01*
X147813034Y-82329000D01*
X147806518Y-82329337D01*
X147712668Y-82339075D01*
X147699272Y-82341968D01*
X147550976Y-82391444D01*
X147480027Y-82394028D01*
X147418943Y-82357845D01*
X147387118Y-82294381D01*
X147385100Y-82271920D01*
X147385100Y-72990261D01*
X147385392Y-72981692D01*
X147388810Y-72931559D01*
X147388810Y-72931555D01*
X147389326Y-72923982D01*
X147378336Y-72861015D01*
X147377375Y-72854499D01*
X147374446Y-72830293D01*
X147369702Y-72791092D01*
X147367019Y-72783991D01*
X147366378Y-72781382D01*
X147361913Y-72765062D01*
X147361148Y-72762529D01*
X147359843Y-72755051D01*
X147334152Y-72696524D01*
X147331667Y-72690436D01*
X147311772Y-72637783D01*
X147311771Y-72637781D01*
X147309087Y-72630678D01*
X147304786Y-72624419D01*
X147303549Y-72622054D01*
X147295327Y-72607282D01*
X147293972Y-72604990D01*
X147290916Y-72598029D01*
X147286291Y-72592002D01*
X147286289Y-72591998D01*
X147252007Y-72547321D01*
X147248129Y-72541984D01*
X147248059Y-72541881D01*
X147226589Y-72510643D01*
X147216259Y-72495612D01*
X147216258Y-72495611D01*
X147211957Y-72489353D01*
X147211629Y-72489061D01*
X147182875Y-72427499D01*
X147192376Y-72357141D01*
X147238408Y-72303089D01*
X147307434Y-72282500D01*
X147364687Y-72282500D01*
X147371139Y-72281128D01*
X147371144Y-72281128D01*
X147470879Y-72259928D01*
X147551488Y-72242794D01*
X147616188Y-72213988D01*
X147719922Y-72167803D01*
X147719924Y-72167802D01*
X147725952Y-72165118D01*
X147734811Y-72158682D01*
X147781643Y-72124656D01*
X147880453Y-72052866D01*
X147895886Y-72035726D01*
X148003821Y-71915852D01*
X148003822Y-71915851D01*
X148008240Y-71910944D01*
X148103727Y-71745556D01*
X148162742Y-71563928D01*
X148170373Y-71491329D01*
X148182014Y-71380565D01*
X148182704Y-71374000D01*
X148176992Y-71319656D01*
X148163432Y-71190635D01*
X148163432Y-71190633D01*
X148162742Y-71184072D01*
X148131952Y-71089311D01*
X148129924Y-71018345D01*
X148166586Y-70957547D01*
X148211909Y-70930852D01*
X148313459Y-70896972D01*
X148320407Y-70894654D01*
X148468331Y-70803116D01*
X148521724Y-70749630D01*
X148586058Y-70685184D01*
X148586062Y-70685179D01*
X148591229Y-70680003D01*
X148597991Y-70669034D01*
X148635633Y-70607967D01*
X148640841Y-70599519D01*
X148693612Y-70552026D01*
X148763684Y-70540602D01*
X148828808Y-70568876D01*
G37*
%TD.AperFunction*%
%TA.AperFunction,Conductor*%
G36*
X161456921Y-92809102D02*
G01*
X161503414Y-92862758D01*
X161514800Y-92915100D01*
X161514800Y-93063485D01*
X161519275Y-93078724D01*
X161520665Y-93079929D01*
X161528348Y-93081600D01*
X162550800Y-93081600D01*
X162618921Y-93101602D01*
X162665414Y-93155258D01*
X162676800Y-93207600D01*
X162676800Y-93463600D01*
X162656798Y-93531721D01*
X162603142Y-93578214D01*
X162550800Y-93589600D01*
X161532916Y-93589600D01*
X161517677Y-93594075D01*
X161500499Y-93613899D01*
X161486359Y-93639795D01*
X161424047Y-93673820D01*
X161397263Y-93676700D01*
X160004395Y-93676700D01*
X159936274Y-93656698D01*
X159915299Y-93639795D01*
X159279700Y-93004195D01*
X159245675Y-92941883D01*
X159250740Y-92871067D01*
X159293287Y-92814232D01*
X159359807Y-92789421D01*
X159368796Y-92789100D01*
X161388800Y-92789100D01*
X161456921Y-92809102D01*
G37*
%TD.AperFunction*%
%TA.AperFunction,Conductor*%
G36*
X154338445Y-79104828D02*
G01*
X154338702Y-79103745D01*
X154345360Y-79105328D01*
X154345826Y-79105362D01*
X154353784Y-79108345D01*
X154361632Y-79109198D01*
X154361634Y-79109198D01*
X154412569Y-79114731D01*
X154415966Y-79115100D01*
X155727827Y-79115100D01*
X155795948Y-79135102D01*
X155842441Y-79188758D01*
X155853827Y-79240882D01*
X155856541Y-80806469D01*
X155859861Y-82721572D01*
X155873407Y-82721549D01*
X155873409Y-82721549D01*
X170847142Y-82695619D01*
X172694882Y-82692419D01*
X172763037Y-82712303D01*
X172809623Y-82765878D01*
X172821100Y-82818419D01*
X172821100Y-86364785D01*
X172801098Y-86432906D01*
X172747442Y-86479399D01*
X172677168Y-86489503D01*
X172612588Y-86460009D01*
X172575267Y-86403722D01*
X172573926Y-86399593D01*
X172564227Y-86369744D01*
X172558980Y-86360655D01*
X172513405Y-86281718D01*
X172468740Y-86204356D01*
X172433560Y-86165284D01*
X172345375Y-86067345D01*
X172345374Y-86067344D01*
X172340953Y-86062434D01*
X172186452Y-85950182D01*
X172180424Y-85947498D01*
X172180422Y-85947497D01*
X172018019Y-85875191D01*
X172018018Y-85875191D01*
X172011988Y-85872506D01*
X171918588Y-85852653D01*
X171831644Y-85834172D01*
X171831639Y-85834172D01*
X171825187Y-85832800D01*
X171634213Y-85832800D01*
X171627761Y-85834172D01*
X171627756Y-85834172D01*
X171540812Y-85852653D01*
X171447412Y-85872506D01*
X171441382Y-85875191D01*
X171441381Y-85875191D01*
X171278978Y-85947497D01*
X171278976Y-85947498D01*
X171272948Y-85950182D01*
X171118447Y-86062434D01*
X171114026Y-86067344D01*
X171114025Y-86067345D01*
X171025841Y-86165284D01*
X170990660Y-86204356D01*
X170945995Y-86281718D01*
X170900421Y-86360655D01*
X170895173Y-86369744D01*
X170836158Y-86551372D01*
X170835468Y-86557933D01*
X170835468Y-86557935D01*
X170819609Y-86708828D01*
X170816196Y-86741300D01*
X170816886Y-86747865D01*
X170835412Y-86924126D01*
X170836158Y-86931228D01*
X170895173Y-87112856D01*
X170898476Y-87118578D01*
X170898477Y-87118579D01*
X170904367Y-87128781D01*
X170990660Y-87278244D01*
X170995078Y-87283151D01*
X170995079Y-87283152D01*
X171042255Y-87335546D01*
X171072972Y-87399553D01*
X171064208Y-87470007D01*
X171023266Y-87517336D01*
X171025129Y-87519687D01*
X171019397Y-87524230D01*
X171013169Y-87528084D01*
X171007996Y-87533266D01*
X171005042Y-87536225D01*
X170906099Y-87635341D01*
X170843818Y-87669420D01*
X170772998Y-87664417D01*
X170727909Y-87635496D01*
X170625071Y-87532837D01*
X170613660Y-87523825D01*
X170478137Y-87440288D01*
X170464959Y-87434144D01*
X170313434Y-87383885D01*
X170300068Y-87381019D01*
X170207430Y-87371528D01*
X170201015Y-87371200D01*
X170176815Y-87371200D01*
X170161576Y-87375675D01*
X170160371Y-87377065D01*
X170158700Y-87384748D01*
X170158700Y-88482200D01*
X170138698Y-88550321D01*
X170085042Y-88596814D01*
X170032700Y-88608200D01*
X169327815Y-88608200D01*
X169302967Y-88615496D01*
X169267469Y-88620600D01*
X168496315Y-88620600D01*
X168481076Y-88625075D01*
X168479871Y-88626465D01*
X168478200Y-88634148D01*
X168478200Y-89003696D01*
X168479300Y-89011346D01*
X168479300Y-90158600D01*
X168459298Y-90226721D01*
X168405642Y-90273214D01*
X168353300Y-90284600D01*
X168097300Y-90284600D01*
X168029179Y-90264598D01*
X167982686Y-90210942D01*
X167971300Y-90158600D01*
X167971300Y-89393504D01*
X167970200Y-89385854D01*
X167970200Y-88094485D01*
X168478200Y-88094485D01*
X168482675Y-88109724D01*
X168484065Y-88110929D01*
X168491748Y-88112600D01*
X168851085Y-88112600D01*
X168875933Y-88105304D01*
X168911431Y-88100200D01*
X169632585Y-88100200D01*
X169647824Y-88095725D01*
X169649029Y-88094335D01*
X169650700Y-88086652D01*
X169650700Y-87389315D01*
X169646225Y-87374076D01*
X169644835Y-87372871D01*
X169637152Y-87371200D01*
X169608434Y-87371200D01*
X169601918Y-87371537D01*
X169508068Y-87381275D01*
X169494672Y-87384168D01*
X169343247Y-87434688D01*
X169330085Y-87440853D01*
X169194708Y-87524626D01*
X169183310Y-87533660D01*
X169172334Y-87544655D01*
X169110051Y-87578734D01*
X169039231Y-87573731D01*
X169000844Y-87549107D01*
X169000317Y-87549775D01*
X168983160Y-87536225D01*
X168847637Y-87452688D01*
X168834459Y-87446544D01*
X168682934Y-87396285D01*
X168669568Y-87393419D01*
X168576930Y-87383928D01*
X168570515Y-87383600D01*
X168496315Y-87383600D01*
X168481076Y-87388075D01*
X168479871Y-87389465D01*
X168478200Y-87397148D01*
X168478200Y-88094485D01*
X167970200Y-88094485D01*
X167970200Y-87401715D01*
X167965725Y-87386476D01*
X167964335Y-87385271D01*
X167956652Y-87383600D01*
X167877934Y-87383600D01*
X167871418Y-87383937D01*
X167777568Y-87393675D01*
X167764172Y-87396568D01*
X167612747Y-87447088D01*
X167599585Y-87453253D01*
X167464208Y-87537026D01*
X167452806Y-87546064D01*
X167451133Y-87547739D01*
X167449707Y-87548519D01*
X167447073Y-87550607D01*
X167446716Y-87550156D01*
X167388851Y-87581819D01*
X167318031Y-87576816D01*
X167272946Y-87547899D01*
X167269885Y-87544844D01*
X167264703Y-87539671D01*
X167257442Y-87535195D01*
X167122850Y-87452231D01*
X167122848Y-87452230D01*
X167116620Y-87448391D01*
X166951509Y-87393626D01*
X166944673Y-87392926D01*
X166944670Y-87392925D01*
X166893174Y-87387649D01*
X166848772Y-87383100D01*
X166312730Y-87383100D01*
X166244609Y-87363098D01*
X166234406Y-87351323D01*
X166229431Y-87357968D01*
X166162911Y-87382779D01*
X166153922Y-87383100D01*
X166149628Y-87383100D01*
X166146382Y-87383437D01*
X166146378Y-87383437D01*
X166052465Y-87393181D01*
X166052461Y-87393182D01*
X166045607Y-87393893D01*
X166039071Y-87396074D01*
X166039069Y-87396074D01*
X165939539Y-87429280D01*
X165880593Y-87448946D01*
X165732669Y-87540484D01*
X165727496Y-87545666D01*
X165614942Y-87658416D01*
X165614938Y-87658421D01*
X165609771Y-87663597D01*
X165605931Y-87669827D01*
X165605930Y-87669828D01*
X165530946Y-87791475D01*
X165518491Y-87811680D01*
X165463726Y-87976791D01*
X165463026Y-87983627D01*
X165463025Y-87983630D01*
X165459937Y-88013771D01*
X165453200Y-88079528D01*
X165453200Y-88464505D01*
X165433198Y-88532626D01*
X165416295Y-88553600D01*
X164288048Y-89681847D01*
X164225736Y-89715873D01*
X164154921Y-89710808D01*
X164098085Y-89668261D01*
X164073643Y-89605922D01*
X164059731Y-89473552D01*
X164059731Y-89473550D01*
X164059041Y-89466989D01*
X164000026Y-89285361D01*
X163979142Y-89249188D01*
X163946317Y-89192334D01*
X163924685Y-89154867D01*
X163907947Y-89085872D01*
X163931167Y-89018780D01*
X163986974Y-88974893D01*
X164048722Y-88966753D01*
X164088177Y-88971458D01*
X164094312Y-88970986D01*
X164094314Y-88970986D01*
X164279230Y-88956757D01*
X164279234Y-88956756D01*
X164285372Y-88956284D01*
X164475863Y-88903098D01*
X164481367Y-88900318D01*
X164481369Y-88900317D01*
X164646895Y-88816704D01*
X164646897Y-88816703D01*
X164652396Y-88813925D01*
X164783546Y-88711460D01*
X164803391Y-88695955D01*
X164808247Y-88692161D01*
X164923337Y-88558828D01*
X164933449Y-88547113D01*
X164933450Y-88547111D01*
X164937478Y-88542445D01*
X165035169Y-88370479D01*
X165097597Y-88182813D01*
X165122385Y-87986595D01*
X165122780Y-87958300D01*
X165103480Y-87761467D01*
X165094046Y-87730218D01*
X165076371Y-87671677D01*
X165046316Y-87572131D01*
X164953466Y-87397504D01*
X164877857Y-87304798D01*
X164832360Y-87249013D01*
X164832357Y-87249010D01*
X164828465Y-87244238D01*
X164819709Y-87236994D01*
X164788584Y-87211245D01*
X164748846Y-87152411D01*
X164742900Y-87114161D01*
X164742900Y-87103299D01*
X164762902Y-87035178D01*
X164802599Y-86996154D01*
X164808284Y-86992636D01*
X164825931Y-86981716D01*
X164933001Y-86874459D01*
X164995282Y-86840380D01*
X165066102Y-86845383D01*
X165111191Y-86874304D01*
X165214029Y-86976963D01*
X165225440Y-86985975D01*
X165360963Y-87069512D01*
X165374141Y-87075656D01*
X165525666Y-87125915D01*
X165539032Y-87128781D01*
X165631670Y-87138272D01*
X165638085Y-87138600D01*
X165662285Y-87138600D01*
X165677524Y-87134125D01*
X165678729Y-87132735D01*
X165680400Y-87125052D01*
X165680400Y-87120485D01*
X166188400Y-87120485D01*
X166192875Y-87135724D01*
X166208166Y-87148974D01*
X166234763Y-87163497D01*
X166277232Y-87136204D01*
X166299726Y-87131773D01*
X166331032Y-87128525D01*
X166344428Y-87125632D01*
X166495853Y-87075112D01*
X166509015Y-87068947D01*
X166644392Y-86985174D01*
X166655790Y-86976140D01*
X166768263Y-86863471D01*
X166777275Y-86852060D01*
X166860812Y-86716537D01*
X166866956Y-86703359D01*
X166917215Y-86551834D01*
X166920081Y-86538468D01*
X166929572Y-86445830D01*
X166929900Y-86439415D01*
X166929900Y-86427715D01*
X166925425Y-86412476D01*
X166924035Y-86411271D01*
X166916352Y-86409600D01*
X166206515Y-86409600D01*
X166191276Y-86414075D01*
X166190071Y-86415465D01*
X166188400Y-86423148D01*
X166188400Y-87120485D01*
X165680400Y-87120485D01*
X165680400Y-86027600D01*
X165700402Y-85959479D01*
X165754058Y-85912986D01*
X165806400Y-85901600D01*
X166911785Y-85901600D01*
X166927024Y-85897125D01*
X166928229Y-85895735D01*
X166929900Y-85888052D01*
X166929900Y-85871834D01*
X166929563Y-85865318D01*
X166919825Y-85771468D01*
X166916932Y-85758072D01*
X166866412Y-85606647D01*
X166860247Y-85593485D01*
X166776474Y-85458108D01*
X166767440Y-85446710D01*
X166654771Y-85334237D01*
X166643360Y-85325225D01*
X166555325Y-85270960D01*
X166507832Y-85218188D01*
X166496408Y-85148117D01*
X166524682Y-85082993D01*
X166583676Y-85043493D01*
X166621441Y-85037700D01*
X166765636Y-85037700D01*
X166833757Y-85057702D01*
X166872779Y-85097396D01*
X166879484Y-85108231D01*
X166884666Y-85113404D01*
X166997416Y-85225958D01*
X166997421Y-85225962D01*
X167002597Y-85231129D01*
X167008827Y-85234969D01*
X167008828Y-85234970D01*
X167067215Y-85270960D01*
X167150680Y-85322409D01*
X167315791Y-85377174D01*
X167322627Y-85377874D01*
X167322630Y-85377875D01*
X167369970Y-85382725D01*
X167418528Y-85387700D01*
X168117672Y-85387700D01*
X168120918Y-85387363D01*
X168120922Y-85387363D01*
X168214835Y-85377619D01*
X168214839Y-85377618D01*
X168221693Y-85376907D01*
X168228229Y-85374726D01*
X168228231Y-85374726D01*
X168377787Y-85324830D01*
X168386707Y-85321854D01*
X168534631Y-85230316D01*
X168541874Y-85223061D01*
X168543638Y-85222095D01*
X168545541Y-85220587D01*
X168545799Y-85220913D01*
X168604154Y-85188981D01*
X168674975Y-85193982D01*
X168720070Y-85222908D01*
X168722731Y-85225564D01*
X168734140Y-85234575D01*
X168869663Y-85318112D01*
X168882841Y-85324256D01*
X169034366Y-85374515D01*
X169047732Y-85377381D01*
X169140370Y-85386872D01*
X169146785Y-85387200D01*
X169220985Y-85387200D01*
X169236224Y-85382725D01*
X169237429Y-85381335D01*
X169239100Y-85373652D01*
X169239100Y-85369085D01*
X169747100Y-85369085D01*
X169751575Y-85384324D01*
X169752965Y-85385529D01*
X169760648Y-85387200D01*
X169839366Y-85387200D01*
X169845882Y-85386863D01*
X169939732Y-85377125D01*
X169953128Y-85374232D01*
X170104553Y-85323712D01*
X170117715Y-85317547D01*
X170253092Y-85233774D01*
X170264490Y-85224740D01*
X170376963Y-85112071D01*
X170385975Y-85100660D01*
X170469512Y-84965137D01*
X170475656Y-84951959D01*
X170525915Y-84800434D01*
X170528781Y-84787068D01*
X170538272Y-84694430D01*
X170538600Y-84688015D01*
X170538600Y-84676315D01*
X170534125Y-84661076D01*
X170532735Y-84659871D01*
X170525052Y-84658200D01*
X169765215Y-84658200D01*
X169749976Y-84662675D01*
X169748771Y-84664065D01*
X169747100Y-84671748D01*
X169747100Y-85369085D01*
X169239100Y-85369085D01*
X169239100Y-84132085D01*
X169747100Y-84132085D01*
X169751575Y-84147324D01*
X169752965Y-84148529D01*
X169760648Y-84150200D01*
X170520485Y-84150200D01*
X170535724Y-84145725D01*
X170536929Y-84144335D01*
X170538600Y-84136652D01*
X170538600Y-84120434D01*
X170538263Y-84113918D01*
X170528525Y-84020068D01*
X170525632Y-84006672D01*
X170475112Y-83855247D01*
X170468947Y-83842085D01*
X170385174Y-83706708D01*
X170376140Y-83695310D01*
X170263471Y-83582837D01*
X170252060Y-83573825D01*
X170116537Y-83490288D01*
X170103359Y-83484144D01*
X169951834Y-83433885D01*
X169938468Y-83431019D01*
X169845830Y-83421528D01*
X169839415Y-83421200D01*
X169765215Y-83421200D01*
X169749976Y-83425675D01*
X169748771Y-83427065D01*
X169747100Y-83434748D01*
X169747100Y-84132085D01*
X169239100Y-84132085D01*
X169239100Y-83439315D01*
X169234625Y-83424076D01*
X169233235Y-83422871D01*
X169225552Y-83421200D01*
X169146834Y-83421200D01*
X169140318Y-83421537D01*
X169046468Y-83431275D01*
X169033072Y-83434168D01*
X168881647Y-83484688D01*
X168868485Y-83490853D01*
X168733108Y-83574626D01*
X168721706Y-83583664D01*
X168720033Y-83585339D01*
X168718607Y-83586119D01*
X168715973Y-83588207D01*
X168715616Y-83587756D01*
X168657751Y-83619419D01*
X168586931Y-83614416D01*
X168541846Y-83585499D01*
X168538785Y-83582444D01*
X168533603Y-83577271D01*
X168524627Y-83571738D01*
X168391750Y-83489831D01*
X168391748Y-83489830D01*
X168385520Y-83485991D01*
X168220409Y-83431226D01*
X168213573Y-83430526D01*
X168213570Y-83430525D01*
X168162074Y-83425249D01*
X168117672Y-83420700D01*
X167418528Y-83420700D01*
X167415282Y-83421037D01*
X167415278Y-83421037D01*
X167321365Y-83430781D01*
X167321361Y-83430782D01*
X167314507Y-83431493D01*
X167307971Y-83433674D01*
X167307969Y-83433674D01*
X167289008Y-83440000D01*
X167149493Y-83486546D01*
X167001569Y-83578084D01*
X166996396Y-83583266D01*
X166883842Y-83696016D01*
X166883838Y-83696021D01*
X166878671Y-83701197D01*
X166874831Y-83707427D01*
X166874830Y-83707428D01*
X166872743Y-83710814D01*
X166870714Y-83712641D01*
X166870293Y-83713173D01*
X166870202Y-83713101D01*
X166819972Y-83758308D01*
X166765482Y-83770700D01*
X163154964Y-83770700D01*
X163086843Y-83750698D01*
X163047821Y-83711004D01*
X163041116Y-83700169D01*
X163026062Y-83685141D01*
X162923184Y-83582442D01*
X162923179Y-83582438D01*
X162918003Y-83577271D01*
X162909027Y-83571738D01*
X162776150Y-83489831D01*
X162776148Y-83489830D01*
X162769920Y-83485991D01*
X162604809Y-83431226D01*
X162597973Y-83430526D01*
X162597970Y-83430525D01*
X162546474Y-83425249D01*
X162502072Y-83420700D01*
X161902928Y-83420700D01*
X161899682Y-83421037D01*
X161899678Y-83421037D01*
X161805765Y-83430781D01*
X161805761Y-83430782D01*
X161798907Y-83431493D01*
X161792371Y-83433674D01*
X161792369Y-83433674D01*
X161773408Y-83440000D01*
X161633893Y-83486546D01*
X161485969Y-83578084D01*
X161480796Y-83583266D01*
X161379253Y-83684986D01*
X161316970Y-83719065D01*
X161246150Y-83714062D01*
X161201063Y-83685141D01*
X161098188Y-83582446D01*
X161098183Y-83582442D01*
X161093003Y-83577271D01*
X161084027Y-83571738D01*
X160951150Y-83489831D01*
X160951148Y-83489830D01*
X160944920Y-83485991D01*
X160779809Y-83431226D01*
X160772973Y-83430526D01*
X160772970Y-83430525D01*
X160721474Y-83425249D01*
X160677072Y-83420700D01*
X160077928Y-83420700D01*
X160074682Y-83421037D01*
X160074678Y-83421037D01*
X159980765Y-83430781D01*
X159980761Y-83430782D01*
X159973907Y-83431493D01*
X159967371Y-83433674D01*
X159967369Y-83433674D01*
X159948408Y-83440000D01*
X159808893Y-83486546D01*
X159660969Y-83578084D01*
X159655796Y-83583266D01*
X159543242Y-83696016D01*
X159543238Y-83696021D01*
X159538071Y-83701197D01*
X159534231Y-83707427D01*
X159534230Y-83707428D01*
X159518657Y-83732692D01*
X159465884Y-83780186D01*
X159427841Y-83791498D01*
X159421987Y-83792268D01*
X159395924Y-83795699D01*
X159395915Y-83795700D01*
X159296343Y-83808809D01*
X159285136Y-83810284D01*
X159285134Y-83810285D01*
X159276949Y-83811362D01*
X159128924Y-83872676D01*
X159122373Y-83877703D01*
X159122371Y-83877704D01*
X159057585Y-83927417D01*
X159033728Y-83945723D01*
X159033725Y-83945726D01*
X159001813Y-83970213D01*
X158996783Y-83976768D01*
X158982348Y-83995579D01*
X158971481Y-84007970D01*
X158469256Y-84510195D01*
X158406944Y-84544221D01*
X158380161Y-84547100D01*
X157460713Y-84547100D01*
X157416484Y-84539082D01*
X157329911Y-84506627D01*
X157329909Y-84506627D01*
X157322516Y-84503855D01*
X157314668Y-84503002D01*
X157314666Y-84503002D01*
X157263731Y-84497469D01*
X157260334Y-84497100D01*
X155649100Y-84497100D01*
X155580979Y-84477098D01*
X155534486Y-84423442D01*
X155523100Y-84371100D01*
X155523100Y-82115536D01*
X155524178Y-82099090D01*
X155526851Y-82078790D01*
X155528350Y-82067400D01*
X155523100Y-82027520D01*
X155523100Y-82027515D01*
X155508759Y-81918581D01*
X155507438Y-81908549D01*
X155476781Y-81834536D01*
X155449284Y-81768152D01*
X155449283Y-81768150D01*
X155446124Y-81760524D01*
X155373077Y-81665329D01*
X155373076Y-81665327D01*
X155353617Y-81639967D01*
X155353613Y-81639963D01*
X155348587Y-81633413D01*
X155342037Y-81628387D01*
X155342034Y-81628384D01*
X155323220Y-81613948D01*
X155310829Y-81603081D01*
X153616344Y-79908595D01*
X153582318Y-79846283D01*
X153587383Y-79775467D01*
X153616344Y-79730405D01*
X154212501Y-79134248D01*
X154274813Y-79100222D01*
X154338445Y-79104828D01*
G37*
%TD.AperFunction*%
%TA.AperFunction,Conductor*%
G36*
X153907965Y-72485102D02*
G01*
X153954458Y-72538758D01*
X153964562Y-72609032D01*
X153964034Y-72611805D01*
X153962355Y-72616284D01*
X153955600Y-72678466D01*
X153955600Y-73574734D01*
X153962355Y-73636916D01*
X153965129Y-73644315D01*
X153992516Y-73717370D01*
X153997699Y-73788177D01*
X153992516Y-73805829D01*
X153962355Y-73886284D01*
X153955600Y-73948466D01*
X153955600Y-74844734D01*
X153962355Y-74906916D01*
X153990327Y-74981531D01*
X153992516Y-74987370D01*
X153997699Y-75058177D01*
X153992512Y-75075839D01*
X153990342Y-75081626D01*
X153951475Y-75133357D01*
X153947325Y-75135076D01*
X153947323Y-75135077D01*
X153947324Y-75135077D01*
X153852128Y-75208123D01*
X153852125Y-75208126D01*
X153820213Y-75232613D01*
X153815183Y-75239168D01*
X153800748Y-75257979D01*
X153789881Y-75270370D01*
X151444966Y-77615285D01*
X151432575Y-77626152D01*
X151407213Y-77645613D01*
X151382726Y-77677525D01*
X151382723Y-77677528D01*
X151382717Y-77677536D01*
X151320617Y-77758466D01*
X151309676Y-77772724D01*
X151254345Y-77906305D01*
X151248362Y-77920750D01*
X151232700Y-78039715D01*
X151232700Y-78039720D01*
X151227450Y-78079600D01*
X151230822Y-78105210D01*
X151231622Y-78111290D01*
X151232700Y-78127736D01*
X151232700Y-78665752D01*
X151231622Y-78682198D01*
X151226085Y-78724256D01*
X151226085Y-78724261D01*
X151220835Y-78764141D01*
X151221913Y-78772329D01*
X151225007Y-78795831D01*
X151226085Y-78812277D01*
X151226085Y-79504935D01*
X151225007Y-79521378D01*
X151220835Y-79553071D01*
X151226085Y-79592951D01*
X151226085Y-79592956D01*
X151237120Y-79676778D01*
X151241747Y-79711922D01*
X151303061Y-79859947D01*
X151308088Y-79866498D01*
X151308089Y-79866500D01*
X151376105Y-79955140D01*
X151376111Y-79955146D01*
X151400598Y-79987058D01*
X151407153Y-79992088D01*
X151425964Y-80006523D01*
X151438355Y-80017390D01*
X153869195Y-82448230D01*
X153903221Y-82510542D01*
X153906100Y-82537325D01*
X153906100Y-85214064D01*
X153905022Y-85230507D01*
X153900850Y-85262200D01*
X153906100Y-85302080D01*
X153906100Y-85302085D01*
X153915523Y-85373652D01*
X153915986Y-85377172D01*
X153915986Y-85377174D01*
X153919457Y-85403538D01*
X153921762Y-85421051D01*
X153983076Y-85569076D01*
X153988103Y-85575627D01*
X153988104Y-85575629D01*
X154056120Y-85664269D01*
X154056126Y-85664275D01*
X154080613Y-85696187D01*
X154087168Y-85701217D01*
X154105979Y-85715652D01*
X154118370Y-85726519D01*
X154418685Y-86026834D01*
X154429552Y-86039225D01*
X154449013Y-86064587D01*
X154480925Y-86089074D01*
X154480928Y-86089077D01*
X154539495Y-86134017D01*
X154576125Y-86162124D01*
X154724150Y-86223438D01*
X154732338Y-86224516D01*
X154794357Y-86232681D01*
X154859284Y-86261404D01*
X154898375Y-86320669D01*
X154903700Y-86350648D01*
X154903700Y-86353734D01*
X154906122Y-86376029D01*
X154907856Y-86391993D01*
X154907856Y-86419206D01*
X154903700Y-86457466D01*
X154903700Y-86853734D01*
X154904069Y-86857129D01*
X154904069Y-86857133D01*
X154907856Y-86891993D01*
X154907856Y-86919207D01*
X154905877Y-86937429D01*
X154903700Y-86957466D01*
X154903700Y-87353734D01*
X154904069Y-87357129D01*
X154904069Y-87357133D01*
X154907856Y-87391993D01*
X154907856Y-87419206D01*
X154904626Y-87448946D01*
X154904120Y-87453602D01*
X154876879Y-87519164D01*
X154818517Y-87559592D01*
X154811523Y-87561686D01*
X154803349Y-87562762D01*
X154795721Y-87565921D01*
X154788684Y-87567807D01*
X154756075Y-87572100D01*
X154284239Y-87572100D01*
X154216118Y-87552098D01*
X154195144Y-87535195D01*
X153597805Y-86937856D01*
X153563779Y-86875544D01*
X153560900Y-86848761D01*
X153560900Y-82915051D01*
X153561978Y-82898605D01*
X153565072Y-82875103D01*
X153566150Y-82866915D01*
X153560900Y-82827035D01*
X153560900Y-82827030D01*
X153559766Y-82818419D01*
X153547291Y-82723656D01*
X153547290Y-82723654D01*
X153545238Y-82708065D01*
X153545238Y-82708064D01*
X153483924Y-82560039D01*
X153410878Y-82464844D01*
X153410874Y-82464840D01*
X153410871Y-82464836D01*
X153391416Y-82439481D01*
X153391413Y-82439478D01*
X153386387Y-82432928D01*
X153377700Y-82426262D01*
X153361021Y-82413463D01*
X153348630Y-82402596D01*
X150578005Y-79631970D01*
X150543979Y-79569658D01*
X150541100Y-79542875D01*
X150541100Y-73663039D01*
X150561102Y-73594918D01*
X150578005Y-73573944D01*
X151349944Y-72802005D01*
X151412256Y-72767979D01*
X151439039Y-72765100D01*
X151530287Y-72765100D01*
X151536739Y-72763728D01*
X151536744Y-72763728D01*
X151623687Y-72745247D01*
X151717088Y-72725394D01*
X151741624Y-72714470D01*
X151885522Y-72650403D01*
X151885524Y-72650402D01*
X151891552Y-72647718D01*
X151905227Y-72637783D01*
X152040714Y-72539345D01*
X152046053Y-72535466D01*
X152071874Y-72506789D01*
X152132320Y-72469550D01*
X152165510Y-72465100D01*
X153839844Y-72465100D01*
X153907965Y-72485102D01*
G37*
%TD.AperFunction*%
%TA.AperFunction,Conductor*%
G36*
X145472273Y-65603302D02*
G01*
X145518766Y-65656958D01*
X145528870Y-65727232D01*
X145499376Y-65791812D01*
X145478214Y-65811235D01*
X145359847Y-65897234D01*
X145355426Y-65902144D01*
X145355425Y-65902145D01*
X145353116Y-65904710D01*
X145232060Y-66039156D01*
X145136573Y-66204544D01*
X145077558Y-66386172D01*
X145076868Y-66392733D01*
X145076868Y-66392735D01*
X145064914Y-66506469D01*
X145057596Y-66576100D01*
X145058286Y-66582665D01*
X145071525Y-66708623D01*
X145077558Y-66766028D01*
X145136573Y-66947656D01*
X145232060Y-67113044D01*
X145236478Y-67117951D01*
X145236479Y-67117952D01*
X145354523Y-67249053D01*
X145359847Y-67254966D01*
X145514348Y-67367218D01*
X145520376Y-67369902D01*
X145520378Y-67369903D01*
X145682781Y-67442209D01*
X145688812Y-67444894D01*
X145774610Y-67463131D01*
X145869156Y-67483228D01*
X145869161Y-67483228D01*
X145875613Y-67484600D01*
X146066587Y-67484600D01*
X146073039Y-67483228D01*
X146073044Y-67483228D01*
X146167590Y-67463131D01*
X146253388Y-67444894D01*
X146259419Y-67442209D01*
X146421822Y-67369903D01*
X146421824Y-67369902D01*
X146427852Y-67367218D01*
X146582353Y-67254966D01*
X146591960Y-67244297D01*
X146608174Y-67226289D01*
X146668620Y-67189050D01*
X146701810Y-67184600D01*
X146788630Y-67184600D01*
X146856751Y-67204602D01*
X146895774Y-67244297D01*
X146925684Y-67292631D01*
X146930866Y-67297804D01*
X147032586Y-67399347D01*
X147066665Y-67461630D01*
X147061662Y-67532450D01*
X147032741Y-67577537D01*
X146930046Y-67680412D01*
X146930042Y-67680417D01*
X146924871Y-67685597D01*
X146921031Y-67691827D01*
X146921030Y-67691828D01*
X146840097Y-67823126D01*
X146833591Y-67833680D01*
X146778826Y-67998791D01*
X146768300Y-68101528D01*
X146768300Y-68700672D01*
X146768637Y-68703918D01*
X146768637Y-68703922D01*
X146777554Y-68789857D01*
X146779093Y-68804693D01*
X146781274Y-68811229D01*
X146781274Y-68811231D01*
X146797141Y-68858789D01*
X146834146Y-68969707D01*
X146863314Y-69016842D01*
X146867456Y-69023535D01*
X146886294Y-69091987D01*
X146865133Y-69159756D01*
X146810692Y-69205328D01*
X146740256Y-69214232D01*
X146671295Y-69179012D01*
X146647484Y-69155243D01*
X146642303Y-69150071D01*
X146494220Y-69058791D01*
X146329109Y-69004026D01*
X146322273Y-69003326D01*
X146322270Y-69003325D01*
X146264652Y-68997422D01*
X146226372Y-68993500D01*
X145862138Y-68993500D01*
X145794017Y-68973498D01*
X145747524Y-68919842D01*
X145736828Y-68854330D01*
X145743614Y-68789765D01*
X145744304Y-68783200D01*
X145737789Y-68721209D01*
X145725032Y-68599835D01*
X145725032Y-68599833D01*
X145724342Y-68593272D01*
X145665327Y-68411644D01*
X145569840Y-68246256D01*
X145565136Y-68241031D01*
X145446475Y-68109245D01*
X145446474Y-68109244D01*
X145442053Y-68104334D01*
X145287552Y-67992082D01*
X145281524Y-67989398D01*
X145281522Y-67989397D01*
X145119119Y-67917091D01*
X145119118Y-67917091D01*
X145113088Y-67914406D01*
X145019688Y-67894553D01*
X144932744Y-67876072D01*
X144932739Y-67876072D01*
X144926287Y-67874700D01*
X144870395Y-67874700D01*
X144802274Y-67854698D01*
X144781300Y-67837795D01*
X144709074Y-67765569D01*
X144675048Y-67703257D01*
X144673163Y-67660683D01*
X144675385Y-67643095D01*
X144675660Y-67623401D01*
X144675731Y-67618323D01*
X144675731Y-67618320D01*
X144675780Y-67614800D01*
X144656480Y-67417967D01*
X144599316Y-67228631D01*
X144506466Y-67054004D01*
X144424398Y-66953379D01*
X144385360Y-66905513D01*
X144385357Y-66905510D01*
X144381465Y-66900738D01*
X144376716Y-66896809D01*
X144233825Y-66778599D01*
X144233821Y-66778597D01*
X144229075Y-66774670D01*
X144055101Y-66680602D01*
X143866168Y-66622118D01*
X143860043Y-66621474D01*
X143860042Y-66621474D01*
X143675604Y-66602089D01*
X143675602Y-66602089D01*
X143669475Y-66601445D01*
X143586976Y-66608953D01*
X143478651Y-66618811D01*
X143478648Y-66618812D01*
X143472512Y-66619370D01*
X143466606Y-66621108D01*
X143466602Y-66621109D01*
X143361476Y-66652049D01*
X143282781Y-66675210D01*
X143277323Y-66678063D01*
X143277319Y-66678065D01*
X143203900Y-66716448D01*
X143107510Y-66766840D01*
X142953375Y-66890768D01*
X142826246Y-67042274D01*
X142823279Y-67047672D01*
X142823275Y-67047677D01*
X142761072Y-67160825D01*
X142730967Y-67215587D01*
X142729106Y-67221454D01*
X142729105Y-67221456D01*
X142711715Y-67276277D01*
X142671165Y-67404106D01*
X142649119Y-67600651D01*
X142649635Y-67606794D01*
X142650672Y-67619144D01*
X142636440Y-67688700D01*
X142586863Y-67739520D01*
X142517681Y-67755469D01*
X142450859Y-67731483D01*
X142436019Y-67718783D01*
X142080116Y-67362880D01*
X142074262Y-67356615D01*
X142072940Y-67355100D01*
X142036227Y-67313015D01*
X141983946Y-67276271D01*
X141978652Y-67272339D01*
X141961451Y-67258852D01*
X141928384Y-67232924D01*
X141921468Y-67229801D01*
X141919182Y-67228417D01*
X141904501Y-67220043D01*
X141902141Y-67218778D01*
X141895927Y-67214410D01*
X141888848Y-67211650D01*
X141888846Y-67211649D01*
X141836391Y-67191198D01*
X141830322Y-67188647D01*
X141772093Y-67162355D01*
X141764626Y-67160971D01*
X141762071Y-67160170D01*
X141745818Y-67155541D01*
X141743238Y-67154878D01*
X141736157Y-67152118D01*
X141728626Y-67151127D01*
X141728624Y-67151126D01*
X141699005Y-67147227D01*
X141672805Y-67143778D01*
X141666307Y-67142748D01*
X141603480Y-67131104D01*
X141595900Y-67131541D01*
X141595899Y-67131541D01*
X141541274Y-67134691D01*
X141534020Y-67134900D01*
X134970466Y-67134900D01*
X134902345Y-67114898D01*
X134881449Y-67098074D01*
X134842752Y-67059445D01*
X134829683Y-67046398D01*
X134795603Y-66984117D01*
X134792700Y-66957225D01*
X134792700Y-66904711D01*
X134792992Y-66896142D01*
X134796409Y-66846023D01*
X134796409Y-66846019D01*
X134796925Y-66838447D01*
X134785936Y-66775485D01*
X134784977Y-66768982D01*
X134783826Y-66759465D01*
X134777302Y-66705558D01*
X134774616Y-66698449D01*
X134773984Y-66695878D01*
X134769524Y-66679572D01*
X134768749Y-66677004D01*
X134767442Y-66669516D01*
X134741761Y-66611012D01*
X134739269Y-66604905D01*
X134719373Y-66552252D01*
X134719373Y-66552251D01*
X134716687Y-66545144D01*
X134712384Y-66538883D01*
X134711147Y-66536517D01*
X134702920Y-66521737D01*
X134701569Y-66519452D01*
X134698515Y-66512495D01*
X134693895Y-66506475D01*
X134693892Y-66506469D01*
X134659621Y-66461809D01*
X134655741Y-66456468D01*
X134623861Y-66410080D01*
X134623856Y-66410075D01*
X134619557Y-66403819D01*
X134601824Y-66388019D01*
X134573030Y-66362365D01*
X134567754Y-66357384D01*
X134049250Y-65838880D01*
X134043397Y-65832615D01*
X134008079Y-65792130D01*
X133978370Y-65727648D01*
X133988239Y-65657341D01*
X134034552Y-65603530D01*
X134103027Y-65583300D01*
X145404152Y-65583300D01*
X145472273Y-65603302D01*
G37*
%TD.AperFunction*%
%TA.AperFunction,Conductor*%
G36*
X155772492Y-65603302D02*
G01*
X155818985Y-65656958D01*
X155830371Y-65709082D01*
X155834795Y-68260942D01*
X155834831Y-68281882D01*
X155814947Y-68350037D01*
X155761372Y-68396623D01*
X155708831Y-68408100D01*
X154415966Y-68408100D01*
X154353784Y-68414855D01*
X154217395Y-68465985D01*
X154100839Y-68553339D01*
X154041607Y-68632372D01*
X154022651Y-68657665D01*
X153965792Y-68700180D01*
X153921825Y-68708100D01*
X152571910Y-68708100D01*
X152503789Y-68688098D01*
X152478274Y-68666411D01*
X152456868Y-68642637D01*
X152456866Y-68642636D01*
X152452453Y-68637734D01*
X152374441Y-68581055D01*
X152303294Y-68529363D01*
X152303293Y-68529362D01*
X152297952Y-68525482D01*
X152291924Y-68522798D01*
X152291922Y-68522797D01*
X152129519Y-68450491D01*
X152129518Y-68450491D01*
X152123488Y-68447806D01*
X152002947Y-68422184D01*
X151943144Y-68409472D01*
X151943139Y-68409472D01*
X151936687Y-68408100D01*
X151745713Y-68408100D01*
X151739261Y-68409472D01*
X151739256Y-68409472D01*
X151679453Y-68422184D01*
X151558912Y-68447806D01*
X151552882Y-68450491D01*
X151552881Y-68450491D01*
X151390478Y-68522797D01*
X151390476Y-68522798D01*
X151384448Y-68525482D01*
X151379107Y-68529362D01*
X151379106Y-68529363D01*
X151307959Y-68581055D01*
X151229947Y-68637734D01*
X151225534Y-68642636D01*
X151225532Y-68642637D01*
X151204126Y-68666411D01*
X151143680Y-68703650D01*
X151110490Y-68708100D01*
X150568536Y-68708100D01*
X150552093Y-68707022D01*
X150520400Y-68702850D01*
X150512211Y-68703928D01*
X150480526Y-68708099D01*
X150480517Y-68708100D01*
X150480515Y-68708100D01*
X150480509Y-68708101D01*
X150480507Y-68708101D01*
X150427146Y-68715126D01*
X150356997Y-68704186D01*
X150303899Y-68657058D01*
X150284700Y-68590204D01*
X150284700Y-68051528D01*
X150278532Y-67992082D01*
X150274619Y-67954365D01*
X150274618Y-67954361D01*
X150273907Y-67947507D01*
X150263760Y-67917091D01*
X150221172Y-67789441D01*
X150218854Y-67782493D01*
X150127316Y-67634569D01*
X150120061Y-67627326D01*
X150119095Y-67625562D01*
X150117587Y-67623659D01*
X150117913Y-67623401D01*
X150085981Y-67565046D01*
X150090982Y-67494225D01*
X150119908Y-67449130D01*
X150122564Y-67446469D01*
X150131575Y-67435060D01*
X150215112Y-67299537D01*
X150221256Y-67286359D01*
X150271515Y-67134834D01*
X150274381Y-67121468D01*
X150283872Y-67028830D01*
X150284200Y-67022415D01*
X150284200Y-66948215D01*
X150279725Y-66932976D01*
X150278335Y-66931771D01*
X150270652Y-66930100D01*
X149173200Y-66930100D01*
X149105079Y-66910098D01*
X149058586Y-66856442D01*
X149047200Y-66804100D01*
X149047200Y-66548100D01*
X149067202Y-66479979D01*
X149120858Y-66433486D01*
X149173200Y-66422100D01*
X150266085Y-66422100D01*
X150281324Y-66417625D01*
X150282529Y-66416235D01*
X150284200Y-66408552D01*
X150284200Y-66329834D01*
X150283863Y-66323318D01*
X150274125Y-66229468D01*
X150271232Y-66216072D01*
X150220712Y-66064647D01*
X150214547Y-66051485D01*
X150130774Y-65916108D01*
X150121740Y-65904710D01*
X150015318Y-65798473D01*
X149981239Y-65736190D01*
X149986242Y-65665370D01*
X150028739Y-65608498D01*
X150095238Y-65583629D01*
X150104336Y-65583300D01*
X155704371Y-65583300D01*
X155772492Y-65603302D01*
G37*
%TD.AperFunction*%
%TD*%
M02*
