%TF.GenerationSoftware,KiCad,Pcbnew,(6.0.11)*%
%TF.CreationDate,2023-05-09T17:47:33+10:00*%
%TF.ProjectId,LVBMS_A_Sample_R2,4c56424d-535f-4415-9f53-616d706c655f,1*%
%TF.SameCoordinates,Original*%
%TF.FileFunction,AssemblyDrawing,Bot*%
%FSLAX46Y46*%
G04 Gerber Fmt 4.6, Leading zero omitted, Abs format (unit mm)*
G04 Created by KiCad (PCBNEW (6.0.11)) date 2023-05-09 17:47:33*
%MOMM*%
%LPD*%
G01*
G04 APERTURE LIST*
%ADD10C,0.100000*%
G04 APERTURE END LIST*
D10*
%TO.C,Q14*%
X134108600Y-114998200D02*
X134108600Y-112098200D01*
X132808600Y-114998200D02*
X134108600Y-114998200D01*
X132808600Y-112098200D02*
X132808600Y-114998200D01*
X132808600Y-114048200D02*
X133758600Y-114998200D01*
X134108600Y-112098200D02*
X132808600Y-112098200D01*
%TO.C,R25*%
X137687800Y-102401700D02*
X137687800Y-103226700D01*
X137687800Y-103226700D02*
X139287800Y-103226700D01*
X139287800Y-103226700D02*
X139287800Y-102401700D01*
X139287800Y-102401700D02*
X137687800Y-102401700D01*
%TO.C,R22*%
X137687800Y-91568100D02*
X139287800Y-91568100D01*
X137687800Y-90743100D02*
X137687800Y-91568100D01*
X139287800Y-91568100D02*
X139287800Y-90743100D01*
X139287800Y-90743100D02*
X137687800Y-90743100D01*
%TO.C,R18*%
X139296600Y-83617900D02*
X139296600Y-82792900D01*
X139296600Y-82792900D02*
X137696600Y-82792900D01*
X137696600Y-82792900D02*
X137696600Y-83617900D01*
X137696600Y-83617900D02*
X139296600Y-83617900D01*
%TO.C,Q3*%
X134101600Y-68958800D02*
X132801600Y-68958800D01*
X132801600Y-71858800D02*
X134101600Y-71858800D01*
X132801600Y-68958800D02*
X132801600Y-71858800D01*
X134101600Y-71858800D02*
X134101600Y-68958800D01*
X132801600Y-70908800D02*
X133751600Y-71858800D01*
%TO.C,Q6*%
X132817400Y-83705400D02*
X134117400Y-83705400D01*
X134117400Y-80805400D02*
X132817400Y-80805400D01*
X132817400Y-80805400D02*
X132817400Y-83705400D01*
X134117400Y-83705400D02*
X134117400Y-80805400D01*
X132817400Y-82755400D02*
X133767400Y-83705400D01*
%TO.C,R16*%
X139257200Y-79630100D02*
X139257200Y-78805100D01*
X137657200Y-78805100D02*
X137657200Y-79630100D01*
X139257200Y-78805100D02*
X137657200Y-78805100D01*
X137657200Y-79630100D02*
X139257200Y-79630100D01*
%TO.C,R14*%
X137655400Y-75718500D02*
X139255400Y-75718500D01*
X139255400Y-74893500D02*
X137655400Y-74893500D01*
X139255400Y-75718500D02*
X139255400Y-74893500D01*
X137655400Y-74893500D02*
X137655400Y-75718500D01*
%TO.C,Q11*%
X132808600Y-100414200D02*
X132808600Y-103314200D01*
X134108600Y-103314200D02*
X134108600Y-100414200D01*
X132808600Y-102364200D02*
X133758600Y-103314200D01*
X132808600Y-103314200D02*
X134108600Y-103314200D01*
X134108600Y-100414200D02*
X132808600Y-100414200D01*
%TO.C,R27*%
X139287800Y-110999100D02*
X139287800Y-110174100D01*
X139287800Y-110174100D02*
X137687800Y-110174100D01*
X137687800Y-110999100D02*
X139287800Y-110999100D01*
X137687800Y-110174100D02*
X137687800Y-110999100D01*
%TO.C,Q13*%
X132808600Y-110136600D02*
X133758600Y-111086600D01*
X132808600Y-108186600D02*
X132808600Y-111086600D01*
X134108600Y-111086600D02*
X134108600Y-108186600D01*
X132808600Y-111086600D02*
X134108600Y-111086600D01*
X134108600Y-108186600D02*
X132808600Y-108186600D01*
%TO.C,R20*%
X137706200Y-87585300D02*
X139306200Y-87585300D01*
X139306200Y-86760300D02*
X137706200Y-86760300D01*
X137706200Y-86760300D02*
X137706200Y-87585300D01*
X139306200Y-87585300D02*
X139306200Y-86760300D01*
%TO.C,Q8*%
X132808600Y-88755600D02*
X132808600Y-91655600D01*
X132808600Y-91655600D02*
X134108600Y-91655600D01*
X134108600Y-88755600D02*
X132808600Y-88755600D01*
X132808600Y-90705600D02*
X133758600Y-91655600D01*
X134108600Y-91655600D02*
X134108600Y-88755600D01*
%TO.C,Q7*%
X134127000Y-84793200D02*
X132827000Y-84793200D01*
X132827000Y-84793200D02*
X132827000Y-87693200D01*
X132827000Y-86743200D02*
X133777000Y-87693200D01*
X132827000Y-87693200D02*
X134127000Y-87693200D01*
X134127000Y-87693200D02*
X134127000Y-84793200D01*
%TO.C,R24*%
X137687800Y-98464700D02*
X137687800Y-99289700D01*
X139287800Y-98464700D02*
X137687800Y-98464700D01*
X137687800Y-99289700D02*
X139287800Y-99289700D01*
X139287800Y-99289700D02*
X139287800Y-98464700D01*
%TO.C,R28*%
X139287800Y-114085700D02*
X137687800Y-114085700D01*
X137687800Y-114910700D02*
X139287800Y-114910700D01*
X139287800Y-114910700D02*
X139287800Y-114085700D01*
X137687800Y-114085700D02*
X137687800Y-114910700D01*
%TO.C,C18*%
X147510600Y-67392600D02*
X147510600Y-68192600D01*
X149110600Y-68192600D02*
X149110600Y-67392600D01*
X147510600Y-68192600D02*
X149110600Y-68192600D01*
X149110600Y-67392600D02*
X147510600Y-67392600D01*
%TO.C,C1*%
X153993800Y-78117600D02*
X153993800Y-76517600D01*
X153193800Y-76517600D02*
X153193800Y-78117600D01*
X153193800Y-78117600D02*
X153993800Y-78117600D01*
X153993800Y-76517600D02*
X153193800Y-76517600D01*
%TO.C,Q4*%
X132801600Y-75806000D02*
X134101600Y-75806000D01*
X132801600Y-72906000D02*
X132801600Y-75806000D01*
X134101600Y-72906000D02*
X132801600Y-72906000D01*
X134101600Y-75806000D02*
X134101600Y-72906000D01*
X132801600Y-74856000D02*
X133751600Y-75806000D01*
%TO.C,R9*%
X151507100Y-90063900D02*
X153107100Y-90063900D01*
X153107100Y-90063900D02*
X153107100Y-89238900D01*
X151507100Y-89238900D02*
X151507100Y-90063900D01*
X153107100Y-89238900D02*
X151507100Y-89238900D01*
%TO.C,Q10*%
X132808600Y-98427200D02*
X133758600Y-99377200D01*
X134108600Y-99377200D02*
X134108600Y-96477200D01*
X132808600Y-99377200D02*
X134108600Y-99377200D01*
X134108600Y-96477200D02*
X132808600Y-96477200D01*
X132808600Y-96477200D02*
X132808600Y-99377200D01*
%TO.C,R23*%
X139287800Y-94603900D02*
X137687800Y-94603900D01*
X137687800Y-94603900D02*
X137687800Y-95428900D01*
X137687800Y-95428900D02*
X139287800Y-95428900D01*
X139287800Y-95428900D02*
X139287800Y-94603900D01*
%TO.C,Q5*%
X134103400Y-79717600D02*
X134103400Y-76817600D01*
X132803400Y-78767600D02*
X133753400Y-79717600D01*
X134103400Y-76817600D02*
X132803400Y-76817600D01*
X132803400Y-76817600D02*
X132803400Y-79717600D01*
X132803400Y-79717600D02*
X134103400Y-79717600D01*
%TO.C,R26*%
X139287800Y-106287900D02*
X137687800Y-106287900D01*
X137687800Y-107112900D02*
X139287800Y-107112900D01*
X139287800Y-107112900D02*
X139287800Y-106287900D01*
X137687800Y-106287900D02*
X137687800Y-107112900D01*
%TO.C,Q12*%
X134108600Y-104300400D02*
X132808600Y-104300400D01*
X132808600Y-106250400D02*
X133758600Y-107200400D01*
X132808600Y-104300400D02*
X132808600Y-107200400D01*
X134108600Y-107200400D02*
X134108600Y-104300400D01*
X132808600Y-107200400D02*
X134108600Y-107200400D01*
%TO.C,R12*%
X137655400Y-71771300D02*
X139255400Y-71771300D01*
X139255400Y-71771300D02*
X139255400Y-70946300D01*
X139255400Y-70946300D02*
X137655400Y-70946300D01*
X137655400Y-70946300D02*
X137655400Y-71771300D01*
%TO.C,Q9*%
X134108600Y-95516400D02*
X134108600Y-92616400D01*
X132808600Y-92616400D02*
X132808600Y-95516400D01*
X132808600Y-95516400D02*
X134108600Y-95516400D01*
X134108600Y-92616400D02*
X132808600Y-92616400D01*
X132808600Y-94566400D02*
X133758600Y-95516400D01*
%TD*%
M02*
