%TF.GenerationSoftware,KiCad,Pcbnew,(6.0.11)*%
%TF.CreationDate,2023-05-09T17:47:33+10:00*%
%TF.ProjectId,LVBMS_A_Sample_R2,4c56424d-535f-4415-9f53-616d706c655f,1*%
%TF.SameCoordinates,Original*%
%TF.FileFunction,Legend,Bot*%
%TF.FilePolarity,Positive*%
%FSLAX46Y46*%
G04 Gerber Fmt 4.6, Leading zero omitted, Abs format (unit mm)*
G04 Created by KiCad (PCBNEW (6.0.11)) date 2023-05-09 17:47:33*
%MOMM*%
%LPD*%
G01*
G04 APERTURE LIST*
%ADD10C,0.200000*%
%ADD11C,0.120000*%
G04 APERTURE END LIST*
D10*
%TO.C,Q14*%
X133683600Y-112098200D02*
X133233600Y-112098200D01*
X133233600Y-112098200D02*
X133233600Y-114998200D01*
X131733600Y-115048200D02*
X132883600Y-115048200D01*
X133683600Y-114998200D02*
X133683600Y-112098200D01*
X133233600Y-114998200D02*
X133683600Y-114998200D01*
D11*
%TO.C,R25*%
X138742524Y-103336700D02*
X138233076Y-103336700D01*
X138742524Y-102291700D02*
X138233076Y-102291700D01*
%TO.C,R22*%
X138742524Y-90633100D02*
X138233076Y-90633100D01*
X138742524Y-91678100D02*
X138233076Y-91678100D01*
%TO.C,R18*%
X138751324Y-83727900D02*
X138241876Y-83727900D01*
X138751324Y-82682900D02*
X138241876Y-82682900D01*
D10*
%TO.C,Q3*%
X133226600Y-71858800D02*
X133676600Y-71858800D01*
X131726600Y-71908800D02*
X132876600Y-71908800D01*
X133676600Y-68958800D02*
X133226600Y-68958800D01*
X133226600Y-68958800D02*
X133226600Y-71858800D01*
X133676600Y-71858800D02*
X133676600Y-68958800D01*
%TO.C,Q6*%
X133242400Y-80805400D02*
X133242400Y-83705400D01*
X131742400Y-83755400D02*
X132892400Y-83755400D01*
X133692400Y-80805400D02*
X133242400Y-80805400D01*
X133242400Y-83705400D02*
X133692400Y-83705400D01*
X133692400Y-83705400D02*
X133692400Y-80805400D01*
D11*
%TO.C,R16*%
X138711924Y-78695100D02*
X138202476Y-78695100D01*
X138711924Y-79740100D02*
X138202476Y-79740100D01*
%TO.C,R14*%
X138710124Y-75828500D02*
X138200676Y-75828500D01*
X138710124Y-74783500D02*
X138200676Y-74783500D01*
D10*
%TO.C,Q11*%
X133233600Y-100414200D02*
X133233600Y-103314200D01*
X133683600Y-103314200D02*
X133683600Y-100414200D01*
X133683600Y-100414200D02*
X133233600Y-100414200D01*
X131733600Y-103364200D02*
X132883600Y-103364200D01*
X133233600Y-103314200D02*
X133683600Y-103314200D01*
D11*
%TO.C,R27*%
X138742524Y-111109100D02*
X138233076Y-111109100D01*
X138742524Y-110064100D02*
X138233076Y-110064100D01*
D10*
%TO.C,Q13*%
X133683600Y-111086600D02*
X133683600Y-108186600D01*
X133233600Y-108186600D02*
X133233600Y-111086600D01*
X131733600Y-111136600D02*
X132883600Y-111136600D01*
X133233600Y-111086600D02*
X133683600Y-111086600D01*
X133683600Y-108186600D02*
X133233600Y-108186600D01*
D11*
%TO.C,R20*%
X138760924Y-86650300D02*
X138251476Y-86650300D01*
X138760924Y-87695300D02*
X138251476Y-87695300D01*
D10*
%TO.C,Q8*%
X133233600Y-91655600D02*
X133683600Y-91655600D01*
X133233600Y-88755600D02*
X133233600Y-91655600D01*
X131733600Y-91705600D02*
X132883600Y-91705600D01*
X133683600Y-91655600D02*
X133683600Y-88755600D01*
X133683600Y-88755600D02*
X133233600Y-88755600D01*
%TO.C,Q7*%
X131752000Y-87743200D02*
X132902000Y-87743200D01*
X133252000Y-84793200D02*
X133252000Y-87693200D01*
X133702000Y-84793200D02*
X133252000Y-84793200D01*
X133702000Y-87693200D02*
X133702000Y-84793200D01*
X133252000Y-87693200D02*
X133702000Y-87693200D01*
D11*
%TO.C,R24*%
X138742524Y-98354700D02*
X138233076Y-98354700D01*
X138742524Y-99399700D02*
X138233076Y-99399700D01*
%TO.C,R28*%
X138742524Y-113975700D02*
X138233076Y-113975700D01*
X138742524Y-115020700D02*
X138233076Y-115020700D01*
%TO.C,C18*%
X148164333Y-68302600D02*
X148456867Y-68302600D01*
X148164333Y-67282600D02*
X148456867Y-67282600D01*
%TO.C,C1*%
X153083800Y-77463867D02*
X153083800Y-77171333D01*
X154103800Y-77463867D02*
X154103800Y-77171333D01*
D10*
%TO.C,Q4*%
X133676600Y-72906000D02*
X133226600Y-72906000D01*
X133676600Y-75806000D02*
X133676600Y-72906000D01*
X133226600Y-75806000D02*
X133676600Y-75806000D01*
X131726600Y-75856000D02*
X132876600Y-75856000D01*
X133226600Y-72906000D02*
X133226600Y-75806000D01*
D11*
%TO.C,R9*%
X152561824Y-90173900D02*
X152052376Y-90173900D01*
X152561824Y-89128900D02*
X152052376Y-89128900D01*
D10*
%TO.C,Q10*%
X133683600Y-99377200D02*
X133683600Y-96477200D01*
X133233600Y-99377200D02*
X133683600Y-99377200D01*
X133683600Y-96477200D02*
X133233600Y-96477200D01*
X133233600Y-96477200D02*
X133233600Y-99377200D01*
X131733600Y-99427200D02*
X132883600Y-99427200D01*
D11*
%TO.C,R23*%
X138742524Y-94493900D02*
X138233076Y-94493900D01*
X138742524Y-95538900D02*
X138233076Y-95538900D01*
D10*
%TO.C,Q5*%
X133228400Y-79717600D02*
X133678400Y-79717600D01*
X131728400Y-79767600D02*
X132878400Y-79767600D01*
X133678400Y-76817600D02*
X133228400Y-76817600D01*
X133228400Y-76817600D02*
X133228400Y-79717600D01*
X133678400Y-79717600D02*
X133678400Y-76817600D01*
D11*
%TO.C,R26*%
X138742524Y-106177900D02*
X138233076Y-106177900D01*
X138742524Y-107222900D02*
X138233076Y-107222900D01*
D10*
%TO.C,Q12*%
X133683600Y-104300400D02*
X133233600Y-104300400D01*
X133683600Y-107200400D02*
X133683600Y-104300400D01*
X133233600Y-107200400D02*
X133683600Y-107200400D01*
X133233600Y-104300400D02*
X133233600Y-107200400D01*
X131733600Y-107250400D02*
X132883600Y-107250400D01*
D11*
%TO.C,R12*%
X138710124Y-70836300D02*
X138200676Y-70836300D01*
X138710124Y-71881300D02*
X138200676Y-71881300D01*
D10*
%TO.C,Q9*%
X133233600Y-95516400D02*
X133683600Y-95516400D01*
X133683600Y-95516400D02*
X133683600Y-92616400D01*
X133683600Y-92616400D02*
X133233600Y-92616400D01*
X133233600Y-92616400D02*
X133233600Y-95516400D01*
X131733600Y-95566400D02*
X132883600Y-95566400D01*
%TD*%
M02*
