G04*
G04 #@! TF.GenerationSoftware,Altium Limited,Altium Designer,19.1.8 (144)*
G04*
G04 Layer_Color=16711935*
%FSLAX25Y25*%
%MOIN*%
G70*
G01*
G75*
%ADD10C,0.01000*%
D10*
X248031Y423228D02*
X247034Y423203D01*
X246040Y423127D01*
X245051Y423001D01*
X244069Y422825D01*
X243097Y422600D01*
X242139Y422326D01*
X241195Y422003D01*
X240269Y421633D01*
X239362Y421217D01*
X238478Y420755D01*
X237619Y420249D01*
X236786Y419700D01*
X235982Y419110D01*
X235209Y418479D01*
X234469Y417811D01*
X233764Y417106D01*
X233095Y416366D01*
X232465Y415593D01*
X231875Y414789D01*
X231326Y413956D01*
X230820Y413097D01*
X230358Y412213D01*
X229942Y411306D01*
X229572Y410380D01*
X229249Y409436D01*
X228975Y408477D01*
X228749Y407506D01*
X228573Y406524D01*
X228447Y405535D01*
X228372Y404540D01*
X228346Y403543D01*
X521654D02*
X521628Y404540D01*
X521553Y405535D01*
X521426Y406524D01*
X521251Y407506D01*
X521025Y408477D01*
X520751Y409436D01*
X520428Y410380D01*
X520058Y411306D01*
X519642Y412213D01*
X519180Y413097D01*
X518674Y413956D01*
X518125Y414789D01*
X517535Y415593D01*
X516905Y416366D01*
X516236Y417106D01*
X515531Y417811D01*
X514791Y418479D01*
X514018Y419110D01*
X513214Y419700D01*
X512381Y420249D01*
X511522Y420755D01*
X510638Y421217D01*
X509731Y421633D01*
X508805Y422003D01*
X507862Y422326D01*
X506903Y422600D01*
X505931Y422825D01*
X504949Y423001D01*
X503960Y423127D01*
X502965Y423203D01*
X501968Y423228D01*
Y108268D02*
X502965Y108293D01*
X503960Y108369D01*
X504949Y108495D01*
X505931Y108671D01*
X506903Y108896D01*
X507862Y109170D01*
X508805Y109493D01*
X509731Y109863D01*
X510638Y110279D01*
X511522Y110741D01*
X512381Y111247D01*
X513214Y111796D01*
X514018Y112386D01*
X514791Y113017D01*
X515531Y113685D01*
X516236Y114390D01*
X516905Y115130D01*
X517535Y115903D01*
X518125Y116707D01*
X518674Y117540D01*
X519180Y118400D01*
X519642Y119284D01*
X520058Y120190D01*
X520428Y121116D01*
X520751Y122060D01*
X521025Y123019D01*
X521251Y123990D01*
X521426Y124972D01*
X521553Y125961D01*
X521628Y126956D01*
X521654Y127953D01*
X228346D02*
X228372Y126956D01*
X228447Y125961D01*
X228573Y124972D01*
X228749Y123990D01*
X228975Y123019D01*
X229249Y122060D01*
X229572Y121116D01*
X229942Y120190D01*
X230358Y119284D01*
X230820Y118400D01*
X231326Y117540D01*
X231875Y116707D01*
X232465Y115903D01*
X233095Y115130D01*
X233764Y114390D01*
X234469Y113685D01*
X235209Y113017D01*
X235982Y112386D01*
X236786Y111796D01*
X237619Y111247D01*
X238478Y110741D01*
X239362Y110279D01*
X240269Y109863D01*
X241195Y109493D01*
X242139Y109170D01*
X243097Y108896D01*
X244069Y108671D01*
X245051Y108495D01*
X246040Y108369D01*
X247035Y108293D01*
X248031Y108268D01*
Y423228D02*
X501968Y423228D01*
X248031Y108268D02*
X501968Y108268D01*
X521654Y127953D02*
X521654Y403543D01*
X228346Y127953D02*
X228346Y403543D01*
M02*
