M48
;Layer_Color=9474304
;FILE_FORMAT=2:5
INCH,TZ
;TYPE=PLATED
T1F00S00C0.02520
T2F00S00C0.02800
T3F00S00C0.03937
T4F00S00C0.04724
T5F00S00C0.07283
T6F00S00C0.07480
T7F00S00C0.12008
T8F00S00C0.16929
;TYPE=NON_PLATED
T9F00S00C0.12992
%
T01
X459080Y345745
Y355745
Y365745
T02
X446850Y122047
X472441Y177165
Y216535
Y255906
X476378Y297244
X511811Y295276
X460630Y289370
X442913Y236221
Y196850
Y157480
X364173
X334646
Y187008
X393701Y216535
Y255906
X342126Y312205
X384252Y321260
X387795Y332677
X398280Y341406
X424213Y333661
X415354Y317913
X410779Y376905
X416142Y388976
X442913Y393701
X443280Y379906
X387795Y376378
X366642Y372728
Y380602
Y388476
X358768
X350894
Y380602
X358768
Y372728
X350894
X472441Y393701
X511811Y344488
X499016Y328740
Y318898
T03
X351488Y191055
X361488
X371488
T04
X483268Y306102
X421260Y281496
X379307Y304748
X383858Y229331
X372047
X360236
X482279Y365905
T05
X401575Y133858
X418110
Y155512
X401575
T06
X282016Y221457
Y238976
Y256496
Y274016
Y291535
Y309055
X307016
Y291535
Y274016
Y256496
Y238976
Y221457
T07
X409842Y184252
T08
X248031Y127953
X501968
X248031Y403543
X501968
T09
X303000Y196161
X258000Y265216
X303000Y334272
M30
