G04*
G04 #@! TF.GenerationSoftware,Altium Limited,Altium Designer,19.1.8 (144)*
G04*
G04 Layer_Physical_Order=2*
G04 Layer_Color=16711680*
%FSLAX25Y25*%
%MOIN*%
G70*
G01*
G75*
%ADD10C,0.01000*%
%ADD12R,0.13500X0.05000*%
%ADD40C,0.30709*%
%ADD41C,0.07087*%
%ADD42C,0.08000*%
%ADD43C,0.11811*%
%ADD44R,0.11811X0.11811*%
%ADD45C,0.06890*%
%ADD46R,0.06890X0.06890*%
%ADD47C,0.06000*%
%ADD48C,0.11024*%
%ADD49C,0.05000*%
%ADD50C,0.01968*%
G36*
X494961Y419841D02*
X493091Y418919D01*
X491160Y417629D01*
X489414Y416098D01*
X487883Y414352D01*
X486593Y412421D01*
X485565Y410338D01*
X484819Y408139D01*
X484366Y405861D01*
X484214Y403543D01*
X484366Y401226D01*
X484819Y398948D01*
X485565Y396749D01*
X486593Y394666D01*
X487883Y392735D01*
X489414Y390989D01*
X491160Y389458D01*
X493091Y388167D01*
X495174Y387140D01*
X497373Y386394D01*
X499651Y385941D01*
X501968Y385789D01*
X504286Y385941D01*
X506564Y386394D01*
X508763Y387140D01*
X510846Y388167D01*
X512777Y389458D01*
X514523Y390989D01*
X516054Y392735D01*
X517344Y394666D01*
X518267Y396536D01*
X518767Y396420D01*
X518767Y135076D01*
X518267Y134960D01*
X517344Y136830D01*
X516054Y138761D01*
X514523Y140507D01*
X512777Y142038D01*
X510846Y143329D01*
X508763Y144356D01*
X506564Y145102D01*
X504286Y145555D01*
X501968Y145707D01*
X499651Y145555D01*
X497373Y145102D01*
X495174Y144356D01*
X493091Y143329D01*
X491160Y142038D01*
X489414Y140507D01*
X487883Y138761D01*
X486593Y136830D01*
X485565Y134747D01*
X484819Y132548D01*
X484366Y130270D01*
X484214Y127953D01*
X484366Y125635D01*
X484819Y123357D01*
X485565Y121158D01*
X486593Y119076D01*
X487883Y117145D01*
X489414Y115398D01*
X491160Y113867D01*
X493091Y112577D01*
X494961Y111655D01*
X494845Y111155D01*
X255155Y111155D01*
X255039Y111655D01*
X256909Y112577D01*
X258840Y113867D01*
X260586Y115398D01*
X262117Y117145D01*
X263407Y119076D01*
X264435Y121158D01*
X265181Y123357D01*
X265634Y125635D01*
X265786Y127953D01*
X265634Y130270D01*
X265181Y132548D01*
X264435Y134747D01*
X263407Y136830D01*
X262117Y138761D01*
X260586Y140507D01*
X258840Y142038D01*
X256909Y143329D01*
X254826Y144356D01*
X252627Y145102D01*
X250349Y145555D01*
X248031Y145707D01*
X245714Y145555D01*
X243436Y145102D01*
X241237Y144356D01*
X239154Y143329D01*
X237223Y142038D01*
X235477Y140507D01*
X233946Y138761D01*
X232656Y136830D01*
X231733Y134960D01*
X231233Y135076D01*
X231233Y396420D01*
X231733Y396536D01*
X232656Y394666D01*
X233946Y392735D01*
X235477Y390989D01*
X237223Y389458D01*
X239154Y388167D01*
X241237Y387140D01*
X243436Y386394D01*
X245714Y385941D01*
X248031Y385789D01*
X250349Y385941D01*
X252627Y386394D01*
X254826Y387140D01*
X256909Y388167D01*
X258840Y389458D01*
X260586Y390989D01*
X262117Y392735D01*
X263407Y394666D01*
X264435Y396749D01*
X265181Y398948D01*
X265634Y401226D01*
X265786Y403543D01*
X265634Y405861D01*
X265181Y408139D01*
X264435Y410338D01*
X263407Y412421D01*
X262117Y414352D01*
X260586Y416098D01*
X258840Y417629D01*
X256909Y418919D01*
X255039Y419841D01*
X255155Y420341D01*
X494845Y420341D01*
X494961Y419841D01*
D02*
G37*
%LPC*%
G36*
X473622Y397000D02*
Y394882D01*
X475740D01*
X475498Y395466D01*
X474937Y396197D01*
X474206Y396758D01*
X473622Y397000D01*
D02*
G37*
G36*
X471260D02*
X470676Y396758D01*
X469945Y396197D01*
X469384Y395466D01*
X469142Y394882D01*
X471260D01*
Y397000D01*
D02*
G37*
G36*
X444095D02*
Y394882D01*
X446212D01*
X445971Y395466D01*
X445410Y396197D01*
X444678Y396758D01*
X444095Y397000D01*
D02*
G37*
G36*
X441732D02*
X441148Y396758D01*
X440417Y396197D01*
X439856Y395466D01*
X439614Y394882D01*
X441732D01*
Y397000D01*
D02*
G37*
G36*
X475740Y392520D02*
X473622D01*
Y390402D01*
X474206Y390644D01*
X474937Y391205D01*
X475498Y391936D01*
X475740Y392520D01*
D02*
G37*
G36*
X471260D02*
X469142D01*
X469384Y391936D01*
X469945Y391205D01*
X470676Y390644D01*
X471260Y390402D01*
Y392520D01*
D02*
G37*
G36*
X446212D02*
X444095D01*
Y390402D01*
X444678Y390644D01*
X445410Y391205D01*
X445971Y391936D01*
X446212Y392520D01*
D02*
G37*
G36*
X441732D02*
X439614D01*
X439856Y391936D01*
X440417Y391205D01*
X441148Y390644D01*
X441732Y390402D01*
Y392520D01*
D02*
G37*
G36*
X367823Y391775D02*
Y389657D01*
X369941D01*
X369699Y390242D01*
X369138Y390973D01*
X368407Y391534D01*
X367823Y391775D01*
D02*
G37*
G36*
X365461D02*
X364877Y391534D01*
X364145Y390973D01*
X363584Y390242D01*
X363343Y389657D01*
X365461D01*
Y391775D01*
D02*
G37*
G36*
X359949D02*
Y389657D01*
X362067D01*
X361825Y390242D01*
X361264Y390973D01*
X360533Y391534D01*
X359949Y391775D01*
D02*
G37*
G36*
X357587D02*
X357003Y391534D01*
X356272Y390973D01*
X355711Y390242D01*
X355469Y389657D01*
X357587D01*
Y391775D01*
D02*
G37*
G36*
X352075D02*
Y389657D01*
X354193D01*
X353951Y390242D01*
X353390Y390973D01*
X352659Y391534D01*
X352075Y391775D01*
D02*
G37*
G36*
X349713D02*
X349129Y391534D01*
X348397Y390973D01*
X347836Y390242D01*
X347595Y389657D01*
X349713D01*
Y391775D01*
D02*
G37*
G36*
X369941Y387295D02*
X367823D01*
Y385177D01*
X368407Y385419D01*
X369138Y385980D01*
X369699Y386711D01*
X369941Y387295D01*
D02*
G37*
G36*
X365461D02*
X363343D01*
X363584Y386711D01*
X364145Y385980D01*
X364877Y385419D01*
X365461Y385177D01*
Y387295D01*
D02*
G37*
G36*
X362067D02*
X359949D01*
Y385177D01*
X360533Y385419D01*
X361264Y385980D01*
X361825Y386711D01*
X362067Y387295D01*
D02*
G37*
G36*
X357587D02*
X355469D01*
X355711Y386711D01*
X356272Y385980D01*
X357003Y385419D01*
X357587Y385177D01*
Y387295D01*
D02*
G37*
G36*
X354193D02*
X352075D01*
Y385177D01*
X352659Y385419D01*
X353390Y385980D01*
X353951Y386711D01*
X354193Y387295D01*
D02*
G37*
G36*
X349713D02*
X347595D01*
X347836Y386711D01*
X348397Y385980D01*
X349129Y385419D01*
X349713Y385177D01*
Y387295D01*
D02*
G37*
G36*
X367823Y383902D02*
Y381784D01*
X369941D01*
X369699Y382367D01*
X369138Y383099D01*
X368407Y383660D01*
X367823Y383902D01*
D02*
G37*
G36*
X365461D02*
X364877Y383660D01*
X364145Y383099D01*
X363584Y382367D01*
X363343Y381784D01*
X365461D01*
Y383902D01*
D02*
G37*
G36*
X359949D02*
Y381784D01*
X362067D01*
X361825Y382367D01*
X361264Y383099D01*
X360533Y383660D01*
X359949Y383902D01*
D02*
G37*
G36*
X357587D02*
X357003Y383660D01*
X356272Y383099D01*
X355711Y382367D01*
X355469Y381784D01*
X357587D01*
Y383902D01*
D02*
G37*
G36*
X352075D02*
Y381784D01*
X354193D01*
X353951Y382367D01*
X353390Y383099D01*
X352659Y383660D01*
X352075Y383902D01*
D02*
G37*
G36*
X349713D02*
X349129Y383660D01*
X348397Y383099D01*
X347836Y382367D01*
X347595Y381784D01*
X349713D01*
Y383902D01*
D02*
G37*
G36*
X411961Y380205D02*
Y378087D01*
X414079D01*
X413837Y378671D01*
X413276Y379402D01*
X412545Y379963D01*
X411961Y380205D01*
D02*
G37*
G36*
X409598D02*
X409014Y379963D01*
X408283Y379402D01*
X407722Y378671D01*
X407480Y378087D01*
X409598D01*
Y380205D01*
D02*
G37*
G36*
X369941Y379421D02*
X367823D01*
Y377303D01*
X368407Y377545D01*
X369138Y378106D01*
X369699Y378837D01*
X369941Y379421D01*
D02*
G37*
G36*
X365461D02*
X363343D01*
X363584Y378837D01*
X364145Y378106D01*
X364877Y377545D01*
X365461Y377303D01*
Y379421D01*
D02*
G37*
G36*
X362067D02*
X359949D01*
Y377303D01*
X360533Y377545D01*
X361264Y378106D01*
X361825Y378837D01*
X362067Y379421D01*
D02*
G37*
G36*
X357587D02*
X355469D01*
X355711Y378837D01*
X356272Y378106D01*
X357003Y377545D01*
X357587Y377303D01*
Y379421D01*
D02*
G37*
G36*
X354193D02*
X352075D01*
Y377303D01*
X352659Y377545D01*
X353390Y378106D01*
X353951Y378837D01*
X354193Y379421D01*
D02*
G37*
G36*
X349713D02*
X347595D01*
X347836Y378837D01*
X348397Y378106D01*
X349129Y377545D01*
X349713Y377303D01*
Y379421D01*
D02*
G37*
G36*
X416142Y393881D02*
X414872Y393713D01*
X413690Y393224D01*
X412674Y392444D01*
X411895Y391428D01*
X411405Y390246D01*
X411238Y388976D01*
X411405Y387707D01*
X411895Y386524D01*
X412674Y385509D01*
X413690Y384729D01*
X414872Y384239D01*
X416142Y384072D01*
X417411Y384239D01*
X418594Y384729D01*
X419609Y385509D01*
X419680Y385601D01*
X432810D01*
X438391Y380021D01*
X438375Y379906D01*
X438391Y379790D01*
X421826Y363225D01*
X421289Y362526D01*
X420952Y361712D01*
X420837Y360839D01*
Y337200D01*
X420745Y337129D01*
X420296Y336545D01*
X390742D01*
X390247Y336924D01*
X389065Y337414D01*
X387795Y337581D01*
X386526Y337414D01*
X385343Y336924D01*
X384328Y336145D01*
X383548Y335129D01*
X383058Y333946D01*
X382891Y332677D01*
X383058Y331408D01*
X383548Y330225D01*
X384328Y329209D01*
X385343Y328430D01*
X386526Y327940D01*
X387795Y327773D01*
X389065Y327940D01*
X390247Y328430D01*
X391263Y329209D01*
X391712Y329794D01*
X420739D01*
Y292745D01*
X393701D01*
X392827Y292630D01*
X392013Y292293D01*
X391314Y291757D01*
X369660Y270103D01*
X369124Y269404D01*
X368787Y268590D01*
X368672Y267717D01*
Y234200D01*
X367851Y233527D01*
X367113Y232628D01*
X366565Y231602D01*
X366403Y231068D01*
X365880D01*
X365719Y231602D01*
X365170Y232628D01*
X364432Y233527D01*
X363533Y234265D01*
X362507Y234813D01*
X361394Y235151D01*
X360236Y235265D01*
X359079Y235151D01*
X357965Y234813D01*
X356939Y234265D01*
X356040Y233527D01*
X355302Y232628D01*
X354754Y231602D01*
X354416Y230488D01*
X354302Y229331D01*
X354406Y228274D01*
X349101Y222969D01*
X348565Y222270D01*
X348228Y221456D01*
X348113Y220583D01*
Y196862D01*
X345681D01*
Y185248D01*
X357295D01*
Y188397D01*
X357795Y188566D01*
X358318Y187885D01*
X359247Y187172D01*
X360307Y186733D01*
Y191055D01*
Y195377D01*
X359247Y194938D01*
X358318Y194225D01*
X357795Y193544D01*
X357295Y193714D01*
Y196862D01*
X354864D01*
Y219185D01*
X359180Y223501D01*
X360236Y223397D01*
X361394Y223511D01*
X362507Y223848D01*
X363533Y224397D01*
X364432Y225135D01*
X365170Y226034D01*
X365719Y227060D01*
X365880Y227593D01*
X366403D01*
X366565Y227060D01*
X367113Y226034D01*
X367851Y225135D01*
X368392Y224691D01*
Y195985D01*
X368246Y195907D01*
X367362Y195181D01*
X366636Y194297D01*
X366097Y193288D01*
X366007Y192991D01*
X365508Y192966D01*
X365371Y193297D01*
X364658Y194225D01*
X363730Y194938D01*
X362669Y195377D01*
Y191055D01*
Y186733D01*
X363730Y187172D01*
X364658Y187885D01*
X365371Y188813D01*
X365508Y189144D01*
X366007Y189119D01*
X366097Y188822D01*
X366636Y187813D01*
X367362Y186929D01*
X368113Y186313D01*
Y173787D01*
X368228Y172914D01*
X368565Y172100D01*
X369102Y171401D01*
X386983Y153519D01*
X387682Y152982D01*
X388496Y152645D01*
X389370Y152530D01*
X394251D01*
X394265Y152484D01*
X394996Y151116D01*
X395980Y149917D01*
X397179Y148933D01*
X398547Y148202D01*
X400031Y147752D01*
X401575Y147600D01*
X403118Y147752D01*
X404603Y148202D01*
X405970Y148933D01*
X407169Y149917D01*
X408153Y151116D01*
X408885Y152484D01*
X409335Y153968D01*
X409487Y155512D01*
X409335Y157055D01*
X408885Y158540D01*
X408153Y159907D01*
X407169Y161107D01*
X405970Y162091D01*
X404603Y162822D01*
X403118Y163272D01*
X401575Y163424D01*
X400031Y163272D01*
X398547Y162822D01*
X397179Y162091D01*
X395980Y161107D01*
X394996Y159907D01*
X394661Y159281D01*
X390768D01*
X374864Y175186D01*
Y186313D01*
X375614Y186929D01*
X376340Y187813D01*
X376879Y188822D01*
X377211Y189917D01*
X377323Y191055D01*
X377211Y192193D01*
X376879Y193288D01*
X376340Y194297D01*
X375614Y195181D01*
X375143Y195568D01*
Y224289D01*
X375344Y224397D01*
X376243Y225135D01*
X376981Y226034D01*
X377530Y227060D01*
X377867Y228173D01*
X377981Y229331D01*
X377867Y230488D01*
X377530Y231602D01*
X376981Y232628D01*
X376243Y233527D01*
X375423Y234200D01*
Y266318D01*
X395099Y285995D01*
X416665D01*
X416902Y285495D01*
X416326Y284793D01*
X415777Y283767D01*
X415440Y282654D01*
X415326Y281496D01*
X415440Y280338D01*
X415777Y279225D01*
X416326Y278199D01*
X417064Y277300D01*
X417963Y276562D01*
X418989Y276014D01*
X420102Y275676D01*
X421260Y275562D01*
X422417Y275676D01*
X423531Y276014D01*
X424557Y276562D01*
X425456Y277300D01*
X426194Y278199D01*
X426742Y279225D01*
X427080Y280338D01*
X427194Y281496D01*
X427080Y282654D01*
X426742Y283767D01*
X426194Y284793D01*
X425618Y285495D01*
X425854Y285995D01*
X457091D01*
X457162Y285902D01*
X458178Y285123D01*
X459361Y284633D01*
X460630Y284466D01*
X461899Y284633D01*
X463082Y285123D01*
X464098Y285902D01*
X464877Y286918D01*
X465367Y288101D01*
X465534Y289370D01*
X465367Y290639D01*
X464877Y291822D01*
X464098Y292838D01*
X463082Y293617D01*
X461899Y294107D01*
X460630Y294274D01*
X459361Y294107D01*
X458178Y293617D01*
X457162Y292838D01*
X457091Y292745D01*
X427490D01*
Y330047D01*
X427680Y330194D01*
X428460Y331209D01*
X428950Y332392D01*
X429117Y333661D01*
X428950Y334931D01*
X428460Y336114D01*
X427680Y337129D01*
X427588Y337200D01*
Y359440D01*
X443164Y375016D01*
X443280Y375001D01*
X444549Y375168D01*
X445732Y375658D01*
X446747Y376438D01*
X447527Y377453D01*
X448017Y378636D01*
X448184Y379906D01*
X448017Y381175D01*
X447527Y382358D01*
X446747Y383373D01*
X445732Y384153D01*
X444549Y384643D01*
X443280Y384810D01*
X443164Y384794D01*
X436595Y391363D01*
X435896Y391899D01*
X435082Y392237D01*
X434209Y392352D01*
X419680D01*
X419609Y392444D01*
X418594Y393224D01*
X417411Y393713D01*
X416142Y393881D01*
D02*
G37*
G36*
X367823Y376027D02*
Y373909D01*
X369941D01*
X369699Y374493D01*
X369138Y375225D01*
X368407Y375786D01*
X367823Y376027D01*
D02*
G37*
G36*
X365461D02*
X364877Y375786D01*
X364145Y375225D01*
X363584Y374493D01*
X363343Y373909D01*
X365461D01*
Y376027D01*
D02*
G37*
G36*
X359949D02*
Y373909D01*
X362067D01*
X361825Y374493D01*
X361264Y375225D01*
X360533Y375786D01*
X359949Y376027D01*
D02*
G37*
G36*
X357587D02*
X357003Y375786D01*
X356272Y375225D01*
X355711Y374493D01*
X355469Y373909D01*
X357587D01*
Y376027D01*
D02*
G37*
G36*
X352075D02*
Y373909D01*
X354193D01*
X353951Y374493D01*
X353390Y375225D01*
X352659Y375786D01*
X352075Y376027D01*
D02*
G37*
G36*
X349713D02*
X349129Y375786D01*
X348397Y375225D01*
X347836Y374493D01*
X347595Y373909D01*
X349713D01*
Y376027D01*
D02*
G37*
G36*
X414079Y375724D02*
X411961D01*
Y373606D01*
X412545Y373848D01*
X413276Y374409D01*
X413837Y375140D01*
X414079Y375724D01*
D02*
G37*
G36*
X409598D02*
X407480D01*
X407722Y375140D01*
X408283Y374409D01*
X409014Y373848D01*
X409598Y373606D01*
Y375724D01*
D02*
G37*
G36*
X387795Y381282D02*
X386526Y381115D01*
X385343Y380625D01*
X384328Y379846D01*
X383548Y378830D01*
X383058Y377647D01*
X382891Y376378D01*
X382987Y375652D01*
X376699Y369364D01*
X376240Y368766D01*
X375952Y368070D01*
X375853Y367323D01*
Y326772D01*
X375952Y326025D01*
X376240Y325328D01*
X376699Y324730D01*
X379443Y321986D01*
X379348Y321260D01*
X379515Y319990D01*
X380005Y318808D01*
X380784Y317792D01*
X381800Y317013D01*
X382983Y316523D01*
X384252Y316356D01*
X385521Y316523D01*
X386704Y317013D01*
X387720Y317792D01*
X388499Y318808D01*
X388989Y319990D01*
X389156Y321260D01*
X388989Y322529D01*
X388499Y323712D01*
X387720Y324728D01*
X386704Y325507D01*
X385521Y325997D01*
X384252Y326164D01*
X383526Y326068D01*
X381627Y327968D01*
Y366127D01*
X387069Y371569D01*
X387795Y371474D01*
X389065Y371641D01*
X390247Y372131D01*
X391263Y372910D01*
X392042Y373926D01*
X392532Y375109D01*
X392699Y376378D01*
X392532Y377647D01*
X392042Y378830D01*
X391263Y379846D01*
X390247Y380625D01*
X389065Y381115D01*
X387795Y381282D01*
D02*
G37*
G36*
X369941Y371547D02*
X367823D01*
Y369429D01*
X368407Y369671D01*
X369138Y370232D01*
X369699Y370963D01*
X369941Y371547D01*
D02*
G37*
G36*
X365461D02*
X363343D01*
X363584Y370963D01*
X364145Y370232D01*
X364877Y369671D01*
X365461Y369429D01*
Y371547D01*
D02*
G37*
G36*
X362067D02*
X359949D01*
Y369429D01*
X360533Y369671D01*
X361264Y370232D01*
X361825Y370963D01*
X362067Y371547D01*
D02*
G37*
G36*
X357587D02*
X355469D01*
X355711Y370963D01*
X356272Y370232D01*
X357003Y369671D01*
X357587Y369429D01*
Y371547D01*
D02*
G37*
G36*
X354193D02*
X352075D01*
Y369429D01*
X352659Y369671D01*
X353390Y370232D01*
X353951Y370963D01*
X354193Y371547D01*
D02*
G37*
G36*
X349713D02*
X347595D01*
X347836Y370963D01*
X348397Y370232D01*
X349129Y369671D01*
X349713Y369429D01*
Y371547D01*
D02*
G37*
G36*
X459080Y372138D02*
X457832Y372015D01*
X456633Y371651D01*
X455528Y371060D01*
X454559Y370265D01*
X453764Y369297D01*
X453173Y368191D01*
X452809Y366992D01*
X452687Y365745D01*
X452809Y364498D01*
X453173Y363298D01*
X453764Y362193D01*
X454559Y361224D01*
X454839Y360995D01*
Y360495D01*
X454559Y360265D01*
X453764Y359297D01*
X453173Y358191D01*
X452809Y356992D01*
X452687Y355745D01*
X452809Y354498D01*
X453173Y353298D01*
X453764Y352193D01*
X454559Y351224D01*
X455528Y350429D01*
X455972Y350192D01*
X456012Y349694D01*
X455513Y349311D01*
X454712Y348266D01*
X454208Y347050D01*
X454192Y346926D01*
X459080D01*
X463967D01*
X463951Y347050D01*
X463447Y348266D01*
X462646Y349311D01*
X462147Y349694D01*
X462187Y350192D01*
X462631Y350429D01*
X463600Y351224D01*
X464395Y352193D01*
X464986Y353298D01*
X465350Y354498D01*
X465473Y355745D01*
X465350Y356992D01*
X464986Y358191D01*
X464395Y359297D01*
X463600Y360265D01*
X463320Y360495D01*
Y360995D01*
X463600Y361224D01*
X464395Y362193D01*
X464750Y362858D01*
X477212D01*
X477346Y362609D01*
X478084Y361709D01*
X478983Y360971D01*
X480009Y360423D01*
X481122Y360085D01*
X482279Y359971D01*
X483437Y360085D01*
X484550Y360423D01*
X485576Y360971D01*
X486476Y361709D01*
X487214Y362609D01*
X487762Y363635D01*
X488100Y364748D01*
X488214Y365905D01*
X488100Y367063D01*
X487762Y368176D01*
X487214Y369202D01*
X486476Y370101D01*
X485576Y370840D01*
X484550Y371388D01*
X483437Y371726D01*
X482279Y371840D01*
X481122Y371726D01*
X480009Y371388D01*
X478983Y370840D01*
X478084Y370101D01*
X477346Y369202D01*
X477041Y368632D01*
X464750D01*
X464395Y369297D01*
X463600Y370265D01*
X462631Y371060D01*
X461526Y371651D01*
X460327Y372015D01*
X459080Y372138D01*
D02*
G37*
G36*
X512992Y347787D02*
Y345669D01*
X515110D01*
X514868Y346253D01*
X514307Y346984D01*
X513576Y347545D01*
X512992Y347787D01*
D02*
G37*
G36*
X510630D02*
X510046Y347545D01*
X509315Y346984D01*
X508754Y346253D01*
X508512Y345669D01*
X510630D01*
Y347787D01*
D02*
G37*
G36*
X399461Y344705D02*
Y342587D01*
X401579D01*
X401337Y343171D01*
X400776Y343902D01*
X400045Y344463D01*
X399461Y344705D01*
D02*
G37*
G36*
X397098D02*
X396514Y344463D01*
X395783Y343902D01*
X395222Y343171D01*
X394980Y342587D01*
X397098D01*
Y344705D01*
D02*
G37*
G36*
X515110Y343307D02*
X512992D01*
Y341189D01*
X513576Y341431D01*
X514307Y341992D01*
X514868Y342723D01*
X515110Y343307D01*
D02*
G37*
G36*
X510630D02*
X508512D01*
X508754Y342723D01*
X509315Y341992D01*
X510046Y341431D01*
X510630Y341189D01*
Y343307D01*
D02*
G37*
G36*
X457898Y344564D02*
X454192D01*
X454208Y344440D01*
X454712Y343223D01*
X455513Y342179D01*
X456558Y341377D01*
X457774Y340874D01*
X457898Y340857D01*
Y344564D01*
D02*
G37*
G36*
X463967D02*
X460261D01*
Y340857D01*
X460385Y340874D01*
X461601Y341377D01*
X462646Y342179D01*
X463447Y343223D01*
X463951Y344440D01*
X463967Y344564D01*
D02*
G37*
G36*
X401579Y340224D02*
X399461D01*
Y338106D01*
X400045Y338348D01*
X400776Y338909D01*
X401337Y339640D01*
X401579Y340224D01*
D02*
G37*
G36*
X397098D02*
X394980D01*
X395222Y339640D01*
X395783Y338909D01*
X396514Y338348D01*
X397098Y338106D01*
Y340224D01*
D02*
G37*
G36*
X303000Y343173D02*
X301263Y343002D01*
X299594Y342495D01*
X298055Y341673D01*
X296706Y340566D01*
X295599Y339217D01*
X294776Y337678D01*
X294270Y336008D01*
X294099Y334272D01*
X294270Y332535D01*
X294776Y330865D01*
X295599Y329327D01*
X296706Y327978D01*
X298055Y326871D01*
X299594Y326048D01*
X301263Y325542D01*
X303000Y325371D01*
X304736Y325542D01*
X306406Y326048D01*
X307945Y326871D01*
X309294Y327978D01*
X310401Y329327D01*
X311224Y330865D01*
X311730Y332535D01*
X311901Y334272D01*
X311730Y336008D01*
X311224Y337678D01*
X310401Y339217D01*
X309294Y340566D01*
X307945Y341673D01*
X306406Y342495D01*
X304736Y343002D01*
X303000Y343173D01*
D02*
G37*
G36*
X499016Y333644D02*
X497747Y333477D01*
X496564Y332987D01*
X495548Y332208D01*
X494769Y331192D01*
X494279Y330009D01*
X494112Y328740D01*
X494207Y328014D01*
X492053Y325860D01*
X491594Y325262D01*
X491306Y324566D01*
X491208Y323819D01*
Y306314D01*
X489489Y304595D01*
X489060Y304852D01*
X489088Y304945D01*
X489202Y306102D01*
X489088Y307260D01*
X488750Y308373D01*
X488202Y309399D01*
X487464Y310298D01*
X486564Y311036D01*
X485539Y311585D01*
X484425Y311922D01*
X483268Y312036D01*
X482110Y311922D01*
X480997Y311585D01*
X479971Y311036D01*
X479072Y310298D01*
X478334Y309399D01*
X477785Y308373D01*
X477448Y307260D01*
X477334Y306102D01*
X477448Y304945D01*
X477785Y303832D01*
X478334Y302805D01*
X479072Y301906D01*
X479971Y301168D01*
X480997Y300620D01*
X482110Y300282D01*
X483268Y300168D01*
X484425Y300282D01*
X484518Y300310D01*
X484775Y299882D01*
X456620Y271726D01*
X456161Y271129D01*
X455873Y270432D01*
X455774Y269685D01*
Y197259D01*
X421268Y162752D01*
X421138Y162822D01*
X419654Y163272D01*
X418110Y163424D01*
X416567Y163272D01*
X415082Y162822D01*
X413715Y162091D01*
X412515Y161107D01*
X411531Y159907D01*
X410800Y158540D01*
X410350Y157055D01*
X410198Y155512D01*
X410350Y153968D01*
X410800Y152484D01*
X411531Y151116D01*
X412515Y149917D01*
X413715Y148933D01*
X415082Y148202D01*
X416567Y147752D01*
X418110Y147600D01*
X419654Y147752D01*
X421138Y148202D01*
X422506Y148933D01*
X423705Y149917D01*
X424689Y151116D01*
X425420Y152484D01*
X425870Y153968D01*
X426022Y155512D01*
X425870Y157055D01*
X425420Y158540D01*
X425351Y158669D01*
X460703Y194022D01*
X461162Y194620D01*
X461450Y195316D01*
X461548Y196063D01*
Y268489D01*
X496136Y303077D01*
X496136Y303077D01*
X496595Y303675D01*
X496883Y304371D01*
X496981Y305118D01*
Y315456D01*
X497481Y315745D01*
X497835Y315599D01*
Y318898D01*
Y322197D01*
X497654Y322122D01*
X497180Y322403D01*
X497142Y322784D01*
X498290Y323932D01*
X499016Y323836D01*
X500285Y324003D01*
X501468Y324493D01*
X502484Y325272D01*
X503263Y326288D01*
X503753Y327471D01*
X503920Y328740D01*
X503753Y330009D01*
X503263Y331192D01*
X502484Y332208D01*
X501468Y332987D01*
X500285Y333477D01*
X499016Y333644D01*
D02*
G37*
G36*
X500197Y322197D02*
Y320079D01*
X502315D01*
X502073Y320663D01*
X501512Y321394D01*
X500781Y321955D01*
X500197Y322197D01*
D02*
G37*
G36*
X416535Y321213D02*
Y319094D01*
X418653D01*
X418412Y319678D01*
X417851Y320410D01*
X417119Y320971D01*
X416535Y321213D01*
D02*
G37*
G36*
X414173D02*
X413589Y320971D01*
X412858Y320410D01*
X412297Y319678D01*
X412055Y319094D01*
X414173D01*
Y321213D01*
D02*
G37*
G36*
X502315Y317717D02*
X500197D01*
Y315599D01*
X500781Y315840D01*
X501512Y316401D01*
X502073Y317132D01*
X502315Y317717D01*
D02*
G37*
G36*
X418653Y316732D02*
X416535D01*
Y314614D01*
X417119Y314856D01*
X417851Y315417D01*
X418412Y316148D01*
X418653Y316732D01*
D02*
G37*
G36*
X414173D02*
X412055D01*
X412297Y316148D01*
X412858Y315417D01*
X413589Y314856D01*
X414173Y314614D01*
Y316732D01*
D02*
G37*
G36*
X343307Y315504D02*
Y313386D01*
X345425D01*
X345183Y313970D01*
X344622Y314701D01*
X343891Y315262D01*
X343307Y315504D01*
D02*
G37*
G36*
X340945D02*
X340361Y315262D01*
X339630Y314701D01*
X339069Y313970D01*
X338827Y313386D01*
X340945D01*
Y315504D01*
D02*
G37*
G36*
X345425Y311024D02*
X343307D01*
Y308906D01*
X343891Y309148D01*
X344622Y309708D01*
X345183Y310440D01*
X345425Y311024D01*
D02*
G37*
G36*
X340945D02*
X338827D01*
X339069Y310440D01*
X339630Y309708D01*
X340361Y309148D01*
X340945Y308906D01*
Y311024D01*
D02*
G37*
G36*
X315283Y317323D02*
X298748D01*
Y300787D01*
X315283D01*
Y317323D01*
D02*
G37*
G36*
X282016Y317363D02*
X280395Y317203D01*
X278836Y316730D01*
X277400Y315963D01*
X276141Y314930D01*
X275108Y313671D01*
X274340Y312234D01*
X273868Y310676D01*
X273708Y309055D01*
X273868Y307434D01*
X274340Y305876D01*
X275108Y304440D01*
X276141Y303181D01*
X277400Y302148D01*
X278836Y301380D01*
X280395Y300907D01*
X282016Y300747D01*
X283636Y300907D01*
X285195Y301380D01*
X286631Y302148D01*
X287890Y303181D01*
X288923Y304440D01*
X289691Y305876D01*
X290164Y307434D01*
X290323Y309055D01*
X290164Y310676D01*
X289691Y312234D01*
X288923Y313671D01*
X287890Y314930D01*
X286631Y315963D01*
X285195Y316730D01*
X283636Y317203D01*
X282016Y317363D01*
D02*
G37*
G36*
X379307Y310682D02*
X378149Y310568D01*
X377036Y310230D01*
X376010Y309682D01*
X375111Y308944D01*
X374373Y308045D01*
X373825Y307019D01*
X373487Y305906D01*
X373373Y304748D01*
X373487Y303590D01*
X373679Y302958D01*
X321639Y250918D01*
X313719D01*
X313505Y251370D01*
X313923Y251881D01*
X314691Y253317D01*
X315164Y254875D01*
X315323Y256496D01*
X315164Y258117D01*
X314691Y259675D01*
X313923Y261112D01*
X312890Y262370D01*
X311631Y263404D01*
X310195Y264171D01*
X308636Y264644D01*
X307016Y264804D01*
X305395Y264644D01*
X303836Y264171D01*
X302400Y263404D01*
X301141Y262370D01*
X300108Y261112D01*
X299340Y259675D01*
X298868Y258117D01*
X298708Y256496D01*
X298868Y254875D01*
X299340Y253317D01*
X300108Y251881D01*
X300527Y251370D01*
X300313Y250918D01*
X288781D01*
X288544Y251418D01*
X288923Y251881D01*
X289691Y253317D01*
X290164Y254875D01*
X290323Y256496D01*
X290164Y258117D01*
X289691Y259675D01*
X288923Y261112D01*
X287890Y262370D01*
X286631Y263404D01*
X285195Y264171D01*
X283636Y264644D01*
X282016Y264804D01*
X280395Y264644D01*
X278836Y264171D01*
X277400Y263404D01*
X276141Y262370D01*
X275108Y261112D01*
X274340Y259675D01*
X273868Y258117D01*
X273708Y256496D01*
X273868Y254875D01*
X274340Y253317D01*
X275108Y251881D01*
X276141Y250622D01*
X277400Y249588D01*
X278836Y248821D01*
X280395Y248348D01*
X282016Y248188D01*
X283636Y248348D01*
X283922Y248434D01*
X284179Y248006D01*
X283328Y247155D01*
X282016Y247284D01*
X280395Y247125D01*
X278836Y246652D01*
X277400Y245884D01*
X276141Y244851D01*
X275108Y243592D01*
X274340Y242156D01*
X273868Y240597D01*
X273708Y238976D01*
X273868Y237356D01*
X274340Y235797D01*
X275108Y234361D01*
X276141Y233102D01*
X277400Y232069D01*
X278836Y231301D01*
X280395Y230828D01*
X282016Y230669D01*
X283636Y230828D01*
X285195Y231301D01*
X286631Y232069D01*
X287890Y233102D01*
X288923Y234361D01*
X289691Y235797D01*
X290164Y237356D01*
X290323Y238976D01*
X290164Y240597D01*
X289691Y242156D01*
X288923Y243592D01*
X288476Y244137D01*
X289483Y245145D01*
X300736D01*
X300972Y244645D01*
X300108Y243592D01*
X299340Y242156D01*
X298868Y240597D01*
X298708Y238976D01*
X298868Y237356D01*
X299340Y235797D01*
X300108Y234361D01*
X301141Y233102D01*
X302400Y232069D01*
X303836Y231301D01*
X305395Y230828D01*
X307016Y230669D01*
X308636Y230828D01*
X310195Y231301D01*
X311631Y232069D01*
X312890Y233102D01*
X313923Y234361D01*
X314691Y235797D01*
X315164Y237356D01*
X315323Y238976D01*
X315164Y240597D01*
X314691Y242156D01*
X313923Y243592D01*
X313059Y244645D01*
X313296Y245145D01*
X322835D01*
X323582Y245243D01*
X324278Y245531D01*
X324876Y245990D01*
X377892Y299006D01*
X378149Y298928D01*
X379307Y298814D01*
X380465Y298928D01*
X381578Y299266D01*
X382604Y299814D01*
X383503Y300552D01*
X384241Y301451D01*
X384789Y302477D01*
X385127Y303590D01*
X385241Y304748D01*
X385127Y305906D01*
X384789Y307019D01*
X384241Y308045D01*
X383503Y308944D01*
X382604Y309682D01*
X381578Y310230D01*
X380465Y310568D01*
X379307Y310682D01*
D02*
G37*
G36*
X477559Y300543D02*
Y298425D01*
X479677D01*
X479435Y299009D01*
X478874Y299740D01*
X478143Y300301D01*
X477559Y300543D01*
D02*
G37*
G36*
X475197D02*
X474613Y300301D01*
X473882Y299740D01*
X473321Y299009D01*
X473079Y298425D01*
X475197D01*
Y300543D01*
D02*
G37*
G36*
X512992Y298575D02*
Y296457D01*
X515110D01*
X514868Y297041D01*
X514307Y297772D01*
X513576Y298333D01*
X512992Y298575D01*
D02*
G37*
G36*
X510630D02*
X510046Y298333D01*
X509315Y297772D01*
X508754Y297041D01*
X508512Y296457D01*
X510630D01*
Y298575D01*
D02*
G37*
G36*
X479677Y296063D02*
X477559D01*
Y293945D01*
X478143Y294187D01*
X478874Y294748D01*
X479435Y295479D01*
X479677Y296063D01*
D02*
G37*
G36*
X475197D02*
X473079D01*
X473321Y295479D01*
X473882Y294748D01*
X474613Y294187D01*
X475197Y293945D01*
Y296063D01*
D02*
G37*
G36*
X515110Y294094D02*
X512992D01*
Y291976D01*
X513576Y292218D01*
X514307Y292779D01*
X514868Y293511D01*
X515110Y294094D01*
D02*
G37*
G36*
X510630D02*
X508512D01*
X508754Y293511D01*
X509315Y292779D01*
X510046Y292218D01*
X510630Y291976D01*
Y294094D01*
D02*
G37*
G36*
X307016Y299843D02*
X305395Y299683D01*
X303836Y299211D01*
X302400Y298443D01*
X301141Y297410D01*
X300108Y296151D01*
X299340Y294715D01*
X298868Y293156D01*
X298708Y291535D01*
X298868Y289915D01*
X299340Y288356D01*
X300108Y286920D01*
X301141Y285661D01*
X302400Y284628D01*
X303836Y283860D01*
X305395Y283387D01*
X307016Y283228D01*
X308636Y283387D01*
X310195Y283860D01*
X311631Y284628D01*
X312890Y285661D01*
X313923Y286920D01*
X314691Y288356D01*
X315164Y289915D01*
X315323Y291535D01*
X315164Y293156D01*
X314691Y294715D01*
X313923Y296151D01*
X312890Y297410D01*
X311631Y298443D01*
X310195Y299211D01*
X308636Y299683D01*
X307016Y299843D01*
D02*
G37*
G36*
X282016D02*
X280395Y299683D01*
X278836Y299211D01*
X277400Y298443D01*
X276141Y297410D01*
X275108Y296151D01*
X274340Y294715D01*
X273868Y293156D01*
X273708Y291535D01*
X273868Y289915D01*
X274340Y288356D01*
X275108Y286920D01*
X276141Y285661D01*
X277400Y284628D01*
X278836Y283860D01*
X280395Y283387D01*
X282016Y283228D01*
X283636Y283387D01*
X285195Y283860D01*
X286631Y284628D01*
X287890Y285661D01*
X288923Y286920D01*
X289691Y288356D01*
X290164Y289915D01*
X290323Y291535D01*
X290164Y293156D01*
X289691Y294715D01*
X288923Y296151D01*
X287890Y297410D01*
X286631Y298443D01*
X285195Y299211D01*
X283636Y299683D01*
X282016Y299843D01*
D02*
G37*
G36*
X307016Y282324D02*
X305395Y282164D01*
X303836Y281691D01*
X302400Y280923D01*
X301141Y279890D01*
X300108Y278631D01*
X299340Y277195D01*
X298868Y275637D01*
X298708Y274016D01*
X298868Y272395D01*
X299340Y270836D01*
X300108Y269400D01*
X301141Y268141D01*
X302400Y267108D01*
X303836Y266340D01*
X305395Y265868D01*
X307016Y265708D01*
X308636Y265868D01*
X310195Y266340D01*
X311631Y267108D01*
X312890Y268141D01*
X313923Y269400D01*
X314691Y270836D01*
X315164Y272395D01*
X315323Y274016D01*
X315164Y275637D01*
X314691Y277195D01*
X313923Y278631D01*
X312890Y279890D01*
X311631Y280923D01*
X310195Y281691D01*
X308636Y282164D01*
X307016Y282324D01*
D02*
G37*
G36*
X282016D02*
X280395Y282164D01*
X278836Y281691D01*
X277400Y280923D01*
X276141Y279890D01*
X275108Y278631D01*
X274340Y277195D01*
X273868Y275637D01*
X273708Y274016D01*
X273868Y272395D01*
X274340Y270836D01*
X275108Y269400D01*
X276141Y268141D01*
X277400Y267108D01*
X278836Y266340D01*
X280395Y265868D01*
X282016Y265708D01*
X283636Y265868D01*
X285195Y266340D01*
X286631Y267108D01*
X287890Y268141D01*
X288923Y269400D01*
X289691Y270836D01*
X290164Y272395D01*
X290323Y274016D01*
X290164Y275637D01*
X289691Y277195D01*
X288923Y278631D01*
X287890Y279890D01*
X286631Y280923D01*
X285195Y281691D01*
X283636Y282164D01*
X282016Y282324D01*
D02*
G37*
G36*
X473622Y259205D02*
Y257087D01*
X475740D01*
X475498Y257671D01*
X474937Y258402D01*
X474206Y258963D01*
X473622Y259205D01*
D02*
G37*
G36*
X471260D02*
X470676Y258963D01*
X469945Y258402D01*
X469384Y257671D01*
X469142Y257087D01*
X471260D01*
Y259205D01*
D02*
G37*
G36*
X394882D02*
Y257087D01*
X397000D01*
X396758Y257671D01*
X396197Y258402D01*
X395466Y258963D01*
X394882Y259205D01*
D02*
G37*
G36*
X392520D02*
X391936Y258963D01*
X391205Y258402D01*
X390644Y257671D01*
X390402Y257087D01*
X392520D01*
Y259205D01*
D02*
G37*
G36*
X258000Y274118D02*
X256263Y273947D01*
X254594Y273440D01*
X253055Y272618D01*
X251706Y271511D01*
X250599Y270162D01*
X249776Y268623D01*
X249270Y266953D01*
X249099Y265216D01*
X249270Y263480D01*
X249776Y261810D01*
X250599Y260271D01*
X251706Y258923D01*
X253055Y257816D01*
X254594Y256993D01*
X256263Y256487D01*
X258000Y256315D01*
X259736Y256487D01*
X261406Y256993D01*
X262945Y257816D01*
X264294Y258923D01*
X265401Y260271D01*
X266224Y261810D01*
X266730Y263480D01*
X266901Y265216D01*
X266730Y266953D01*
X266224Y268623D01*
X265401Y270162D01*
X264294Y271511D01*
X262945Y272618D01*
X261406Y273440D01*
X259736Y273947D01*
X258000Y274118D01*
D02*
G37*
G36*
X475740Y254724D02*
X473622D01*
Y252606D01*
X474206Y252848D01*
X474937Y253409D01*
X475498Y254140D01*
X475740Y254724D01*
D02*
G37*
G36*
X471260D02*
X469142D01*
X469384Y254140D01*
X469945Y253409D01*
X470676Y252848D01*
X471260Y252606D01*
Y254724D01*
D02*
G37*
G36*
X397000D02*
X394882D01*
Y252606D01*
X395466Y252848D01*
X396197Y253409D01*
X396758Y254140D01*
X397000Y254724D01*
D02*
G37*
G36*
X392520D02*
X390402D01*
X390644Y254140D01*
X391205Y253409D01*
X391936Y252848D01*
X392520Y252606D01*
Y254724D01*
D02*
G37*
G36*
X444095Y239520D02*
Y237402D01*
X446212D01*
X445971Y237986D01*
X445410Y238717D01*
X444678Y239278D01*
X444095Y239520D01*
D02*
G37*
G36*
X441732D02*
X441148Y239278D01*
X440417Y238717D01*
X439856Y237986D01*
X439614Y237402D01*
X441732D01*
Y239520D01*
D02*
G37*
G36*
X446212Y235039D02*
X444095D01*
Y232921D01*
X444678Y233163D01*
X445410Y233724D01*
X445971Y234455D01*
X446212Y235039D01*
D02*
G37*
G36*
X441732D02*
X439614D01*
X439856Y234455D01*
X440417Y233724D01*
X441148Y233163D01*
X441732Y232921D01*
Y235039D01*
D02*
G37*
G36*
X385039Y233758D02*
Y230512D01*
X388285D01*
X388285Y230517D01*
X387827Y231622D01*
X387099Y232571D01*
X386150Y233299D01*
X385044Y233757D01*
X385039Y233758D01*
D02*
G37*
G36*
X382677D02*
X382672Y233757D01*
X381567Y233299D01*
X380618Y232571D01*
X379890Y231622D01*
X379432Y230517D01*
X379431Y230512D01*
X382677D01*
Y233758D01*
D02*
G37*
G36*
X388285Y228150D02*
X385039D01*
Y224904D01*
X385044Y224904D01*
X386150Y225362D01*
X387099Y226090D01*
X387827Y227040D01*
X388285Y228145D01*
X388285Y228150D01*
D02*
G37*
G36*
X382677D02*
X379431D01*
X379432Y228145D01*
X379890Y227040D01*
X380618Y226090D01*
X381567Y225362D01*
X382672Y224904D01*
X382677Y224904D01*
Y228150D01*
D02*
G37*
G36*
X473622Y219835D02*
Y217717D01*
X475740D01*
X475498Y218301D01*
X474937Y219032D01*
X474206Y219593D01*
X473622Y219835D01*
D02*
G37*
G36*
X471260D02*
X470676Y219593D01*
X469945Y219032D01*
X469384Y218301D01*
X469142Y217717D01*
X471260D01*
Y219835D01*
D02*
G37*
G36*
X394882D02*
Y217717D01*
X397000D01*
X396758Y218301D01*
X396197Y219032D01*
X395466Y219593D01*
X394882Y219835D01*
D02*
G37*
G36*
X392520D02*
X391936Y219593D01*
X391205Y219032D01*
X390644Y218301D01*
X390402Y217717D01*
X392520D01*
Y219835D01*
D02*
G37*
G36*
X475740Y215354D02*
X473622D01*
Y213236D01*
X474206Y213478D01*
X474937Y214039D01*
X475498Y214770D01*
X475740Y215354D01*
D02*
G37*
G36*
X471260D02*
X469142D01*
X469384Y214770D01*
X469945Y214039D01*
X470676Y213478D01*
X471260Y213236D01*
Y215354D01*
D02*
G37*
G36*
X397000D02*
X394882D01*
Y213236D01*
X395466Y213478D01*
X396197Y214039D01*
X396758Y214770D01*
X397000Y215354D01*
D02*
G37*
G36*
X392520D02*
X390402D01*
X390644Y214770D01*
X391205Y214039D01*
X391936Y213478D01*
X392520Y213236D01*
Y215354D01*
D02*
G37*
G36*
X307016Y229764D02*
X305395Y229605D01*
X303836Y229132D01*
X302400Y228364D01*
X301141Y227331D01*
X300108Y226072D01*
X299340Y224636D01*
X298868Y223077D01*
X298708Y221457D01*
X298868Y219836D01*
X299340Y218278D01*
X300108Y216841D01*
X301141Y215582D01*
X302400Y214549D01*
X303836Y213781D01*
X305395Y213309D01*
X307016Y213149D01*
X308636Y213309D01*
X310195Y213781D01*
X311631Y214549D01*
X312890Y215582D01*
X313923Y216841D01*
X314691Y218278D01*
X315164Y219836D01*
X315323Y221457D01*
X315164Y223077D01*
X314691Y224636D01*
X313923Y226072D01*
X312890Y227331D01*
X311631Y228364D01*
X310195Y229132D01*
X308636Y229605D01*
X307016Y229764D01*
D02*
G37*
G36*
X282016D02*
X280395Y229605D01*
X278836Y229132D01*
X277400Y228364D01*
X276141Y227331D01*
X275108Y226072D01*
X274340Y224636D01*
X273868Y223077D01*
X273708Y221457D01*
X273868Y219836D01*
X274340Y218278D01*
X275108Y216841D01*
X276141Y215582D01*
X277400Y214549D01*
X278836Y213781D01*
X280395Y213309D01*
X282016Y213149D01*
X283636Y213309D01*
X285195Y213781D01*
X286631Y214549D01*
X287890Y215582D01*
X288923Y216841D01*
X289691Y218278D01*
X290164Y219836D01*
X290323Y221457D01*
X290164Y223077D01*
X289691Y224636D01*
X288923Y226072D01*
X287890Y227331D01*
X286631Y228364D01*
X285195Y229132D01*
X283636Y229605D01*
X282016Y229764D01*
D02*
G37*
G36*
X512837Y269293D02*
X502882D01*
Y225293D01*
X497438D01*
Y198943D01*
X495120D01*
Y208591D01*
X490471D01*
Y180025D01*
X493971D01*
Y179764D01*
X496696D01*
X496812Y179590D01*
X497594Y179068D01*
X498515Y178884D01*
X512015D01*
X512937Y179068D01*
X513719Y179590D01*
X514241Y180371D01*
X514424Y181293D01*
Y186293D01*
X514241Y187215D01*
X513719Y187996D01*
X512937Y188518D01*
X512837Y188538D01*
Y269293D01*
D02*
G37*
G36*
X444095Y200149D02*
Y198031D01*
X446212D01*
X445971Y198616D01*
X445410Y199347D01*
X444678Y199908D01*
X444095Y200149D01*
D02*
G37*
G36*
X441732D02*
X441148Y199908D01*
X440417Y199347D01*
X439856Y198616D01*
X439614Y198031D01*
X441732D01*
Y200149D01*
D02*
G37*
G36*
X446212Y195669D02*
X444095D01*
Y193551D01*
X444678Y193793D01*
X445410Y194354D01*
X445971Y195085D01*
X446212Y195669D01*
D02*
G37*
G36*
X441732D02*
X439614D01*
X439856Y195085D01*
X440417Y194354D01*
X441148Y193793D01*
X441732Y193551D01*
Y195669D01*
D02*
G37*
G36*
X335827Y190307D02*
Y188189D01*
X337945D01*
X337703Y188773D01*
X337142Y189504D01*
X336411Y190065D01*
X335827Y190307D01*
D02*
G37*
G36*
X333465D02*
X332881Y190065D01*
X332149Y189504D01*
X331588Y188773D01*
X331347Y188189D01*
X333465D01*
Y190307D01*
D02*
G37*
G36*
X303000Y205063D02*
X301263Y204891D01*
X299594Y204385D01*
X298055Y203562D01*
X296706Y202455D01*
X295599Y201107D01*
X294776Y199568D01*
X294270Y197898D01*
X294099Y196161D01*
X294270Y194425D01*
X294776Y192755D01*
X295599Y191216D01*
X296706Y189867D01*
X298055Y188760D01*
X299594Y187938D01*
X301263Y187431D01*
X303000Y187260D01*
X304736Y187431D01*
X306406Y187938D01*
X307945Y188760D01*
X309294Y189867D01*
X310401Y191216D01*
X311224Y192755D01*
X311730Y194425D01*
X311901Y196161D01*
X311730Y197898D01*
X311224Y199568D01*
X310401Y201107D01*
X309294Y202455D01*
X307945Y203562D01*
X306406Y204385D01*
X304736Y204891D01*
X303000Y205063D01*
D02*
G37*
G36*
X337945Y185827D02*
X335827D01*
Y183709D01*
X336411Y183951D01*
X337142Y184512D01*
X337703Y185243D01*
X337945Y185827D01*
D02*
G37*
G36*
X333465D02*
X331347D01*
X331588Y185243D01*
X332149Y184512D01*
X332881Y183951D01*
X333465Y183709D01*
Y185827D01*
D02*
G37*
G36*
X473622Y180464D02*
Y178347D01*
X475740D01*
X475498Y178930D01*
X474937Y179662D01*
X474206Y180223D01*
X473622Y180464D01*
D02*
G37*
G36*
X471260D02*
X470676Y180223D01*
X469945Y179662D01*
X469384Y178930D01*
X469142Y178347D01*
X471260D01*
Y180464D01*
D02*
G37*
G36*
X409842Y192659D02*
X408203Y192497D01*
X406625Y192019D01*
X405172Y191242D01*
X403898Y190196D01*
X402853Y188922D01*
X402076Y187469D01*
X401597Y185892D01*
X401436Y184252D01*
X401597Y182612D01*
X402076Y181035D01*
X402853Y179581D01*
X403898Y178308D01*
X405172Y177262D01*
X406625Y176485D01*
X408203Y176007D01*
X409842Y175845D01*
X411483Y176007D01*
X413060Y176485D01*
X414513Y177262D01*
X415787Y178308D01*
X416832Y179581D01*
X417609Y181035D01*
X418088Y182612D01*
X418249Y184252D01*
X418088Y185892D01*
X417609Y187469D01*
X416832Y188922D01*
X415787Y190196D01*
X414513Y191242D01*
X413060Y192019D01*
X411483Y192497D01*
X409842Y192659D01*
D02*
G37*
G36*
X475740Y175984D02*
X473622D01*
Y173866D01*
X474206Y174108D01*
X474937Y174669D01*
X475498Y175400D01*
X475740Y175984D01*
D02*
G37*
G36*
X471260D02*
X469142D01*
X469384Y175400D01*
X469945Y174669D01*
X470676Y174108D01*
X471260Y173866D01*
Y175984D01*
D02*
G37*
G36*
X444095Y160779D02*
Y158661D01*
X446212D01*
X445971Y159245D01*
X445410Y159976D01*
X444678Y160538D01*
X444095Y160779D01*
D02*
G37*
G36*
X441732D02*
X441148Y160538D01*
X440417Y159976D01*
X439856Y159245D01*
X439614Y158661D01*
X441732D01*
Y160779D01*
D02*
G37*
G36*
X365354D02*
Y158661D01*
X367472D01*
X367231Y159245D01*
X366670Y159976D01*
X365938Y160538D01*
X365354Y160779D01*
D02*
G37*
G36*
X362992D02*
X362408Y160538D01*
X361677Y159976D01*
X361116Y159245D01*
X360874Y158661D01*
X362992D01*
Y160779D01*
D02*
G37*
G36*
X335827D02*
Y158661D01*
X337945D01*
X337703Y159245D01*
X337142Y159976D01*
X336411Y160538D01*
X335827Y160779D01*
D02*
G37*
G36*
X333465D02*
X332881Y160538D01*
X332149Y159976D01*
X331588Y159245D01*
X331347Y158661D01*
X333465D01*
Y160779D01*
D02*
G37*
G36*
X446212Y156299D02*
X444095D01*
Y154181D01*
X444678Y154423D01*
X445410Y154984D01*
X445971Y155715D01*
X446212Y156299D01*
D02*
G37*
G36*
X441732D02*
X439614D01*
X439856Y155715D01*
X440417Y154984D01*
X441148Y154423D01*
X441732Y154181D01*
Y156299D01*
D02*
G37*
G36*
X367472D02*
X365354D01*
Y154181D01*
X365938Y154423D01*
X366670Y154984D01*
X367231Y155715D01*
X367472Y156299D01*
D02*
G37*
G36*
X362992D02*
X360874D01*
X361116Y155715D01*
X361677Y154984D01*
X362408Y154423D01*
X362992Y154181D01*
Y156299D01*
D02*
G37*
G36*
X337945D02*
X335827D01*
Y154181D01*
X336411Y154423D01*
X337142Y154984D01*
X337703Y155715D01*
X337945Y156299D01*
D02*
G37*
G36*
X333465D02*
X331347D01*
X331588Y155715D01*
X332149Y154984D01*
X332881Y154423D01*
X333465Y154181D01*
Y156299D01*
D02*
G37*
G36*
X402756Y140285D02*
Y135039D01*
X408002D01*
X407992Y135135D01*
X407620Y136362D01*
X407015Y137494D01*
X406202Y138485D01*
X405210Y139299D01*
X404079Y139903D01*
X402851Y140276D01*
X402756Y140285D01*
D02*
G37*
G36*
X400394D02*
X400298Y140276D01*
X399071Y139903D01*
X397939Y139299D01*
X396948Y138485D01*
X396134Y137494D01*
X395530Y136362D01*
X395157Y135135D01*
X395148Y135039D01*
X400394D01*
Y140285D01*
D02*
G37*
G36*
X408002Y132677D02*
X402756D01*
Y127431D01*
X402851Y127441D01*
X404079Y127813D01*
X405210Y128418D01*
X406202Y129231D01*
X407015Y130223D01*
X407620Y131354D01*
X407992Y132582D01*
X408002Y132677D01*
D02*
G37*
G36*
X400394D02*
X395148D01*
X395157Y132582D01*
X395530Y131354D01*
X396134Y130223D01*
X396948Y129231D01*
X397939Y128418D01*
X399071Y127813D01*
X400298Y127441D01*
X400394Y127431D01*
Y132677D01*
D02*
G37*
G36*
X418110Y141770D02*
X416567Y141618D01*
X415082Y141168D01*
X413715Y140437D01*
X412515Y139453D01*
X411531Y138254D01*
X410800Y136886D01*
X410350Y135402D01*
X410198Y133858D01*
X410350Y132315D01*
X410800Y130830D01*
X411531Y129463D01*
X412515Y128264D01*
X413715Y127280D01*
X415082Y126548D01*
X416567Y126098D01*
X418110Y125946D01*
X419654Y126098D01*
X421138Y126548D01*
X422506Y127280D01*
X423705Y128264D01*
X424689Y129463D01*
X425420Y130830D01*
X425870Y132315D01*
X426022Y133858D01*
X425870Y135402D01*
X425420Y136886D01*
X424689Y138254D01*
X423705Y139453D01*
X422506Y140437D01*
X421138Y141168D01*
X419654Y141618D01*
X418110Y141770D01*
D02*
G37*
G36*
X448032Y125346D02*
Y123228D01*
X450149D01*
X449908Y123812D01*
X449347Y124543D01*
X448616Y125104D01*
X448032Y125346D01*
D02*
G37*
G36*
X445669D02*
X445085Y125104D01*
X444354Y124543D01*
X443793Y123812D01*
X443551Y123228D01*
X445669D01*
Y125346D01*
D02*
G37*
G36*
X450149Y120866D02*
X448032D01*
Y118748D01*
X448616Y118990D01*
X449347Y119551D01*
X449908Y120282D01*
X450149Y120866D01*
D02*
G37*
G36*
X445669D02*
X443551D01*
X443793Y120282D01*
X444354Y119551D01*
X445085Y118990D01*
X445669Y118748D01*
Y120866D01*
D02*
G37*
%LPD*%
G36*
X418082Y390581D02*
X418248Y390451D01*
X418424Y390336D01*
X418609Y390236D01*
X418806Y390152D01*
X419012Y390083D01*
X419229Y390030D01*
X419455Y389991D01*
X419693Y389968D01*
X419940Y389961D01*
Y387992D01*
X419693Y387984D01*
X419455Y387962D01*
X419229Y387923D01*
X419012Y387870D01*
X418806Y387801D01*
X418609Y387717D01*
X418424Y387617D01*
X418248Y387502D01*
X418082Y387372D01*
X417927Y387226D01*
Y390726D01*
X418082Y390581D01*
D02*
G37*
G36*
X441470Y383118D02*
X441654Y382966D01*
X441842Y382833D01*
X442033Y382718D01*
X442227Y382620D01*
X442425Y382541D01*
X442627Y382480D01*
X442833Y382437D01*
X443042Y382412D01*
X443255Y382405D01*
X440780Y379930D01*
X440773Y380143D01*
X440748Y380352D01*
X440705Y380558D01*
X440644Y380760D01*
X440565Y380958D01*
X440467Y381152D01*
X440352Y381344D01*
X440219Y381531D01*
X440067Y381715D01*
X439898Y381895D01*
X441290Y383287D01*
X441470Y383118D01*
D02*
G37*
G36*
X443255Y377406D02*
X443042Y377399D01*
X442833Y377374D01*
X442627Y377331D01*
X442425Y377270D01*
X442227Y377190D01*
X442033Y377093D01*
X441842Y376978D01*
X441654Y376845D01*
X441470Y376693D01*
X441290Y376524D01*
X439898Y377916D01*
X440067Y378096D01*
X440219Y378280D01*
X440352Y378467D01*
X440467Y378659D01*
X440565Y378853D01*
X440644Y379051D01*
X440705Y379253D01*
X440748Y379459D01*
X440773Y379668D01*
X440780Y379880D01*
X443255Y377406D01*
D02*
G37*
G36*
X425205Y337212D02*
X425227Y336975D01*
X425266Y336748D01*
X425319Y336532D01*
X425388Y336325D01*
X425472Y336129D01*
X425572Y335943D01*
X425687Y335768D01*
X425817Y335602D01*
X425963Y335447D01*
X422463D01*
X422608Y335602D01*
X422738Y335768D01*
X422853Y335943D01*
X422953Y336129D01*
X423037Y336325D01*
X423106Y336532D01*
X423159Y336748D01*
X423198Y336975D01*
X423221Y337212D01*
X423228Y337459D01*
X425197D01*
X425205Y337212D01*
D02*
G37*
G36*
X389379Y334632D02*
X389564Y334532D01*
X389756Y334443D01*
X389956Y334366D01*
X390163Y334301D01*
X390378Y334248D01*
X390601Y334207D01*
X390831Y334177D01*
X391068Y334159D01*
X391313Y334154D01*
X391746Y332185D01*
X391496Y332176D01*
X391260Y332150D01*
X391038Y332106D01*
X390831Y332046D01*
X390638Y331967D01*
X390460Y331871D01*
X390296Y331758D01*
X390146Y331627D01*
X390011Y331479D01*
X389890Y331313D01*
X389201Y334744D01*
X389379Y334632D01*
D02*
G37*
G36*
X422739Y331933D02*
X425891Y331808D01*
X425740Y331660D01*
X425606Y331499D01*
X425487Y331328D01*
X425384Y331146D01*
X425297Y330953D01*
X425225Y330749D01*
X425170Y330534D01*
X425130Y330308D01*
X425106Y330071D01*
X425098Y329824D01*
X423130Y329908D01*
X423123Y330155D01*
X423101Y330392D01*
X423064Y330620D01*
X423012Y330838D01*
X422946Y331046D01*
X422865Y331245D01*
X422769Y331435D01*
X422659Y331615D01*
X422567Y331740D01*
X422444Y331807D01*
X422252Y331895D01*
X422052Y331972D01*
X421844Y332037D01*
X421629Y332090D01*
X421407Y332132D01*
X421177Y332161D01*
X420940Y332179D01*
X420695Y332185D01*
X420261Y334154D01*
X420512Y334162D01*
X420748Y334188D01*
X420970Y334232D01*
X421177Y334293D01*
X421370Y334372D01*
X421548Y334468D01*
X421712Y334581D01*
X421862Y334712D01*
X421997Y334860D01*
X422118Y335026D01*
X422739Y331933D01*
D02*
G37*
G36*
X425118Y291949D02*
X425177Y291614D01*
X425276Y291319D01*
X425413Y291063D01*
X425591Y290846D01*
X425807Y290669D01*
X426063Y290531D01*
X426358Y290433D01*
X426693Y290374D01*
X427067Y290354D01*
X424114Y288386D01*
X421161Y290354D01*
X421535Y290374D01*
X421870Y290433D01*
X422165Y290531D01*
X422421Y290669D01*
X422638Y290846D01*
X422815Y291063D01*
X422953Y291319D01*
X423051Y291614D01*
X423110Y291949D01*
X423130Y292323D01*
X425098D01*
X425118Y291949D01*
D02*
G37*
G36*
X458845Y287620D02*
X458689Y287766D01*
X458524Y287896D01*
X458348Y288011D01*
X458162Y288110D01*
X457966Y288194D01*
X457760Y288263D01*
X457543Y288317D01*
X457316Y288355D01*
X457079Y288378D01*
X456832Y288386D01*
Y290354D01*
X457079Y290362D01*
X457316Y290385D01*
X457543Y290423D01*
X457760Y290477D01*
X457966Y290546D01*
X458162Y290630D01*
X458348Y290729D01*
X458524Y290844D01*
X458689Y290975D01*
X458845Y291120D01*
Y287620D01*
D02*
G37*
G36*
X373046Y234555D02*
X373091Y234250D01*
X373166Y233947D01*
X373271Y233645D01*
X373406Y233344D01*
X373570Y233045D01*
X373765Y232747D01*
X373989Y232450D01*
X374243Y232155D01*
X374528Y231861D01*
X369567D01*
X369851Y232155D01*
X370106Y232450D01*
X370330Y232747D01*
X370524Y233045D01*
X370689Y233344D01*
X370824Y233645D01*
X370928Y233947D01*
X371003Y234250D01*
X371048Y234555D01*
X371063Y234861D01*
X373031D01*
X373046Y234555D01*
D02*
G37*
G36*
X360201Y225788D02*
X359792Y225781D01*
X359403Y225752D01*
X359035Y225701D01*
X358687Y225628D01*
X358359Y225532D01*
X358051Y225415D01*
X357763Y225275D01*
X357496Y225114D01*
X357249Y224930D01*
X357022Y224725D01*
X355630Y226116D01*
X355836Y226343D01*
X356019Y226590D01*
X356181Y226858D01*
X356321Y227145D01*
X356438Y227453D01*
X356533Y227781D01*
X356606Y228129D01*
X356657Y228498D01*
X356686Y228886D01*
X356693Y229295D01*
X360201Y225788D01*
D02*
G37*
G36*
X374320Y226612D02*
X374022Y226348D01*
X373756Y226078D01*
X373520Y225802D01*
X373317Y225522D01*
X373144Y225237D01*
X373003Y224946D01*
X372893Y224650D01*
X372815Y224349D01*
X372768Y224043D01*
X372752Y223732D01*
X370783Y223895D01*
X370769Y224194D01*
X370727Y224496D01*
X370657Y224801D01*
X370558Y225108D01*
X370431Y225418D01*
X370276Y225730D01*
X370093Y226045D01*
X369882Y226362D01*
X369643Y226682D01*
X369375Y227004D01*
X374320Y226612D01*
D02*
G37*
G36*
X352482Y196080D02*
X352512Y195744D01*
X352561Y195446D01*
X352630Y195189D01*
X352718Y194971D01*
X352827Y194793D01*
X352955Y194654D01*
X353102Y194555D01*
X353270Y194496D01*
X353457Y194476D01*
X349520D01*
X349707Y194496D01*
X349874Y194555D01*
X350022Y194654D01*
X350150Y194793D01*
X350258Y194971D01*
X350346Y195189D01*
X350415Y195446D01*
X350465Y195744D01*
X350494Y196080D01*
X350504Y196457D01*
X352472D01*
X352482Y196080D01*
D02*
G37*
G36*
X372752Y196327D02*
X372765Y196032D01*
X372806Y195736D01*
X372872Y195438D01*
X372966Y195139D01*
X373087Y194838D01*
X373234Y194536D01*
X373408Y194232D01*
X373609Y193927D01*
X373837Y193620D01*
X374091Y193312D01*
X369284Y193703D01*
X369569Y193955D01*
X369824Y194214D01*
X370049Y194478D01*
X370244Y194748D01*
X370409Y195025D01*
X370544Y195307D01*
X370649Y195595D01*
X370724Y195888D01*
X370768Y196188D01*
X370783Y196494D01*
X372752Y196327D01*
D02*
G37*
G36*
X373628Y188314D02*
X373386Y188031D01*
X373172Y187746D01*
X372986Y187458D01*
X372829Y187169D01*
X372701Y186877D01*
X372601Y186583D01*
X372530Y186286D01*
X372487Y185988D01*
X372473Y185687D01*
X370504D01*
X370490Y185988D01*
X370447Y186286D01*
X370375Y186583D01*
X370276Y186877D01*
X370147Y187169D01*
X369990Y187458D01*
X369805Y187746D01*
X369591Y188031D01*
X369348Y188314D01*
X369077Y188595D01*
X373900D01*
X373628Y188314D01*
D02*
G37*
G36*
X397373Y151945D02*
X396872Y152510D01*
X395899Y153463D01*
X395426Y153850D01*
X394963Y154177D01*
X394509Y154445D01*
X394065Y154653D01*
X393630Y154802D01*
X393204Y154892D01*
X392788Y154921D01*
X392931Y156890D01*
X393319Y156917D01*
X393733Y157000D01*
X394170Y157137D01*
X394633Y157330D01*
X395120Y157578D01*
X395631Y157880D01*
X396167Y158238D01*
X397314Y159119D01*
X397924Y159641D01*
X397373Y151945D01*
D02*
G37*
G36*
X387770Y373878D02*
X387431Y373875D01*
X386818Y373827D01*
X386544Y373783D01*
X386292Y373725D01*
X386061Y373654D01*
X385852Y373569D01*
X385665Y373470D01*
X385500Y373358D01*
X385356Y373232D01*
X384649Y373939D01*
X384775Y374082D01*
X384887Y374248D01*
X384986Y374435D01*
X385071Y374644D01*
X385143Y374874D01*
X385200Y375127D01*
X385245Y375401D01*
X385275Y375696D01*
X385295Y376353D01*
X387770Y373878D01*
D02*
G37*
G36*
X381956Y324280D02*
X382122Y324168D01*
X382309Y324069D01*
X382518Y323984D01*
X382748Y323913D01*
X383001Y323855D01*
X383275Y323811D01*
X383570Y323780D01*
X384227Y323760D01*
X381752Y321285D01*
X381749Y321624D01*
X381701Y322237D01*
X381657Y322511D01*
X381599Y322763D01*
X381528Y322994D01*
X381443Y323203D01*
X381344Y323390D01*
X381232Y323555D01*
X381106Y323699D01*
X381813Y324406D01*
X381956Y324280D01*
D02*
G37*
G36*
X479864Y363313D02*
X479459Y363680D01*
X478358Y364549D01*
X478029Y364762D01*
X477720Y364936D01*
X477429Y365071D01*
X477158Y365168D01*
X476906Y365226D01*
X476672Y365245D01*
X476626Y366245D01*
X476873Y366265D01*
X477132Y366326D01*
X477402Y366427D01*
X477685Y366569D01*
X477981Y366751D01*
X478288Y366973D01*
X478607Y367236D01*
X479283Y367884D01*
X479639Y368268D01*
X479864Y363313D01*
D02*
G37*
G36*
X462377Y368108D02*
X463580Y367073D01*
X463941Y366820D01*
X464283Y366613D01*
X464604Y366452D01*
X464905Y366337D01*
X465187Y366268D01*
X465448Y366245D01*
Y365245D01*
X465187Y365222D01*
X464905Y365153D01*
X464604Y365038D01*
X464283Y364877D01*
X463941Y364670D01*
X463580Y364417D01*
X463199Y364118D01*
X462377Y363382D01*
X461936Y362945D01*
Y368545D01*
X462377Y368108D01*
D02*
G37*
G36*
X461443Y362447D02*
X460407Y361244D01*
X460154Y360883D01*
X460071Y360745D01*
X460154Y360607D01*
X460407Y360245D01*
X460707Y359864D01*
X461443Y359042D01*
X461879Y358601D01*
X456280D01*
X456716Y359042D01*
X457752Y360245D01*
X458005Y360607D01*
X458088Y360745D01*
X458005Y360883D01*
X457752Y361244D01*
X457452Y361625D01*
X456716Y362447D01*
X456280Y362888D01*
X461879D01*
X461443Y362447D01*
D02*
G37*
G36*
X498991Y326240D02*
X498652Y326237D01*
X498038Y326189D01*
X497764Y326145D01*
X497512Y326087D01*
X497282Y326016D01*
X497073Y325931D01*
X496886Y325832D01*
X496720Y325720D01*
X496577Y325594D01*
X495869Y326301D01*
X495996Y326445D01*
X496108Y326610D01*
X496207Y326797D01*
X496292Y327006D01*
X496363Y327237D01*
X496421Y327489D01*
X496465Y327763D01*
X496496Y328059D01*
X496516Y328715D01*
X498991Y326240D01*
D02*
G37*
G36*
X424684Y161378D02*
X424473Y161120D01*
X424286Y160791D01*
X424122Y160389D01*
X423982Y159916D01*
X423864Y159371D01*
X423769Y158754D01*
X423649Y157304D01*
X423622Y155567D01*
X418165Y161023D01*
X419070Y161026D01*
X421352Y161171D01*
X421969Y161265D01*
X422514Y161383D01*
X422988Y161524D01*
X423389Y161688D01*
X423719Y161875D01*
X423977Y162085D01*
X424684Y161378D01*
D02*
G37*
G36*
X379444Y301207D02*
X378898Y301179D01*
X377503Y301011D01*
X377120Y300928D01*
X376778Y300831D01*
X376477Y300721D01*
X376217Y300597D01*
X375998Y300460D01*
X375819Y300309D01*
X375078Y300981D01*
X375238Y301170D01*
X375378Y301396D01*
X375498Y301659D01*
X375597Y301960D01*
X375676Y302297D01*
X375735Y302671D01*
X375774Y303083D01*
X375793Y303531D01*
X375770Y304540D01*
X379444Y301207D01*
D02*
G37*
G36*
X287528Y246565D02*
X287265Y246246D01*
X287062Y245875D01*
X286917Y245450D01*
X286832Y244973D01*
X286806Y244443D01*
X286839Y243860D01*
X286932Y243225D01*
X287083Y242536D01*
X287294Y241794D01*
X287564Y241000D01*
X280103Y244564D01*
X286570Y247021D01*
X287528Y246565D01*
D02*
G37*
G36*
X511704Y262205D02*
X510792D01*
Y264738D01*
X504015D01*
Y265760D01*
X510792D01*
Y268293D01*
X511704D01*
Y262205D01*
D02*
G37*
G36*
X506982Y261583D02*
X507104Y261572D01*
X507237Y261560D01*
X507393Y261538D01*
X507548Y261505D01*
X507904Y261416D01*
X508082Y261360D01*
X508271Y261294D01*
X508448Y261205D01*
X508615Y261105D01*
X508782Y260994D01*
X508937Y260872D01*
X508948Y260860D01*
X508970Y260838D01*
X509004Y260794D01*
X509059Y260738D01*
X509115Y260671D01*
X509182Y260583D01*
X509259Y260483D01*
X509326Y260361D01*
X509404Y260238D01*
X509470Y260094D01*
X509537Y259938D01*
X509593Y259772D01*
X509648Y259594D01*
X509682Y259405D01*
X509704Y259205D01*
X509715Y258994D01*
Y258883D01*
X509704Y258805D01*
X509693Y258716D01*
X509670Y258605D01*
X509648Y258483D01*
X509615Y258338D01*
X509582Y258205D01*
X509526Y258050D01*
X509470Y257905D01*
X509393Y257750D01*
X509304Y257594D01*
X509204Y257438D01*
X509082Y257294D01*
X508948Y257161D01*
X508937Y257150D01*
X508915Y257127D01*
X508871Y257094D01*
X508804Y257050D01*
X508726Y256994D01*
X508637Y256939D01*
X508526Y256872D01*
X508393Y256805D01*
X508248Y256739D01*
X508093Y256672D01*
X507915Y256616D01*
X507726Y256561D01*
X507515Y256516D01*
X507293Y256483D01*
X507060Y256461D01*
X506804Y256450D01*
X506793D01*
X506748D01*
X506671D01*
X506560Y256461D01*
Y260627D01*
X506549D01*
X506515D01*
X506471Y260616D01*
X506404D01*
X506326Y260605D01*
X506237Y260583D01*
X506038Y260549D01*
X505815Y260483D01*
X505571Y260394D01*
X505349Y260272D01*
X505149Y260116D01*
Y260105D01*
X505126Y260094D01*
X505071Y260027D01*
X504993Y259927D01*
X504915Y259794D01*
X504826Y259616D01*
X504749Y259416D01*
X504693Y259194D01*
X504682Y259072D01*
X504671Y258938D01*
Y258850D01*
X504682Y258750D01*
X504704Y258627D01*
X504738Y258494D01*
X504782Y258338D01*
X504849Y258194D01*
X504938Y258050D01*
X504949Y258038D01*
X504993Y257983D01*
X505060Y257916D01*
X505149Y257839D01*
X505271Y257750D01*
X505426Y257650D01*
X505604Y257550D01*
X505815Y257461D01*
X505693Y256483D01*
X505682D01*
X505660Y256494D01*
X505615Y256505D01*
X505549Y256527D01*
X505482Y256561D01*
X505393Y256594D01*
X505204Y256683D01*
X504993Y256794D01*
X504771Y256950D01*
X504560Y257127D01*
X504360Y257350D01*
Y257361D01*
X504338Y257383D01*
X504315Y257416D01*
X504282Y257461D01*
X504249Y257527D01*
X504215Y257594D01*
X504171Y257683D01*
X504127Y257783D01*
X504082Y257894D01*
X504038Y258005D01*
X503971Y258283D01*
X503915Y258594D01*
X503893Y258938D01*
Y259061D01*
X503904Y259138D01*
X503915Y259238D01*
X503938Y259361D01*
X503960Y259494D01*
X503982Y259638D01*
X504071Y259949D01*
X504138Y260116D01*
X504204Y260272D01*
X504293Y260438D01*
X504393Y260594D01*
X504504Y260738D01*
X504638Y260883D01*
X504649Y260894D01*
X504671Y260916D01*
X504715Y260949D01*
X504782Y260994D01*
X504860Y261049D01*
X504949Y261105D01*
X505060Y261172D01*
X505182Y261238D01*
X505326Y261305D01*
X505482Y261371D01*
X505660Y261427D01*
X505849Y261483D01*
X506049Y261527D01*
X506271Y261560D01*
X506504Y261583D01*
X506748Y261594D01*
X506760D01*
X506815D01*
X506882D01*
X506982Y261583D01*
D02*
G37*
G36*
X505626Y255605D02*
X505726Y255594D01*
X505849Y255572D01*
X505971Y255539D01*
X506104Y255494D01*
X506226Y255439D01*
X506237Y255428D01*
X506282Y255405D01*
X506349Y255361D01*
X506426Y255305D01*
X506515Y255239D01*
X506604Y255150D01*
X506693Y255061D01*
X506771Y254950D01*
X506782Y254939D01*
X506804Y254894D01*
X506848Y254839D01*
X506893Y254750D01*
X506937Y254650D01*
X506993Y254528D01*
X507037Y254405D01*
X507082Y254261D01*
Y254250D01*
X507093Y254205D01*
X507115Y254139D01*
X507126Y254050D01*
X507149Y253939D01*
X507171Y253795D01*
X507204Y253628D01*
X507226Y253428D01*
Y253417D01*
X507237Y253372D01*
Y253317D01*
X507248Y253239D01*
X507260Y253150D01*
X507282Y253039D01*
X507293Y252917D01*
X507315Y252783D01*
X507371Y252517D01*
X507426Y252228D01*
X507493Y251972D01*
X507526Y251850D01*
X507559Y251739D01*
X507571D01*
X507593D01*
X507659Y251728D01*
X507737D01*
X507782D01*
X507804D01*
X507815D01*
X507826D01*
X507893D01*
X508004Y251739D01*
X508126Y251761D01*
X508259Y251795D01*
X508393Y251850D01*
X508515Y251917D01*
X508615Y252006D01*
X508626Y252017D01*
X508671Y252072D01*
X508715Y252161D01*
X508782Y252272D01*
X508837Y252428D01*
X508893Y252606D01*
X508926Y252828D01*
X508937Y253083D01*
Y253194D01*
X508926Y253306D01*
X508904Y253461D01*
X508882Y253617D01*
X508837Y253783D01*
X508782Y253939D01*
X508704Y254072D01*
X508693Y254083D01*
X508659Y254128D01*
X508604Y254183D01*
X508515Y254250D01*
X508404Y254317D01*
X508259Y254394D01*
X508082Y254461D01*
X507882Y254528D01*
X508004Y255450D01*
X508015D01*
X508026Y255439D01*
X508060D01*
X508104Y255428D01*
X508204Y255394D01*
X508348Y255350D01*
X508493Y255294D01*
X508648Y255228D01*
X508804Y255139D01*
X508948Y255039D01*
X508959Y255028D01*
X509004Y254983D01*
X509070Y254917D01*
X509159Y254828D01*
X509248Y254706D01*
X509337Y254561D01*
X509437Y254394D01*
X509515Y254205D01*
Y254194D01*
X509526Y254183D01*
X509537Y254150D01*
X509548Y254105D01*
X509582Y253994D01*
X509615Y253839D01*
X509648Y253661D01*
X509682Y253439D01*
X509704Y253206D01*
X509715Y252939D01*
Y252817D01*
X509704Y252695D01*
X509693Y252528D01*
X509670Y252339D01*
X509637Y252150D01*
X509593Y251961D01*
X509537Y251784D01*
X509526Y251761D01*
X509504Y251706D01*
X509470Y251628D01*
X509426Y251528D01*
X509359Y251417D01*
X509293Y251306D01*
X509204Y251206D01*
X509115Y251117D01*
X509104Y251106D01*
X509070Y251084D01*
X509015Y251050D01*
X508948Y251006D01*
X508848Y250950D01*
X508748Y250906D01*
X508626Y250861D01*
X508482Y250828D01*
X508471D01*
X508437Y250817D01*
X508371Y250806D01*
X508282Y250795D01*
X508159D01*
X508015Y250784D01*
X507826Y250773D01*
X507615D01*
X506349D01*
X506337D01*
X506293D01*
X506226D01*
X506137D01*
X506038D01*
X505915D01*
X505649Y250761D01*
X505371D01*
X505093Y250750D01*
X504971Y250739D01*
X504860D01*
X504760Y250728D01*
X504682Y250717D01*
X504671D01*
X504627Y250706D01*
X504560Y250695D01*
X504471Y250661D01*
X504371Y250639D01*
X504260Y250595D01*
X504138Y250539D01*
X504015Y250484D01*
Y251472D01*
X504027Y251484D01*
X504071Y251495D01*
X504127Y251517D01*
X504215Y251550D01*
X504315Y251584D01*
X504438Y251606D01*
X504571Y251628D01*
X504715Y251650D01*
Y251661D01*
X504693Y251672D01*
X504638Y251739D01*
X504560Y251839D01*
X504460Y251972D01*
X504360Y252139D01*
X504249Y252306D01*
X504149Y252484D01*
X504071Y252672D01*
X504060Y252695D01*
X504049Y252761D01*
X504015Y252861D01*
X503982Y252983D01*
X503949Y253139D01*
X503927Y253317D01*
X503904Y253517D01*
X503893Y253717D01*
Y253806D01*
X503904Y253872D01*
Y253950D01*
X503915Y254039D01*
X503949Y254239D01*
X504004Y254461D01*
X504082Y254706D01*
X504193Y254928D01*
X504338Y255128D01*
X504360Y255150D01*
X504415Y255205D01*
X504515Y255283D01*
X504649Y255372D01*
X504815Y255461D01*
X505004Y255539D01*
X505237Y255594D01*
X505349Y255605D01*
X505482Y255616D01*
X505504D01*
X505549D01*
X505626Y255605D01*
D02*
G37*
G36*
X509593Y248484D02*
X508793D01*
X508815Y248473D01*
X508859Y248439D01*
X508937Y248373D01*
X509026Y248295D01*
X509137Y248195D01*
X509248Y248073D01*
X509359Y247939D01*
X509459Y247784D01*
X509470Y247762D01*
X509504Y247706D01*
X509537Y247617D01*
X509593Y247495D01*
X509637Y247351D01*
X509670Y247184D01*
X509704Y246995D01*
X509715Y246795D01*
Y246695D01*
X509704Y246573D01*
X509682Y246440D01*
X509648Y246273D01*
X509604Y246106D01*
X509537Y245940D01*
X509448Y245784D01*
X509437Y245762D01*
X509404Y245718D01*
X509348Y245651D01*
X509259Y245562D01*
X509159Y245473D01*
X509037Y245373D01*
X508893Y245284D01*
X508726Y245217D01*
X508737Y245206D01*
X508771Y245184D01*
X508815Y245151D01*
X508882Y245095D01*
X508959Y245029D01*
X509037Y244951D01*
X509126Y244862D01*
X509226Y244751D01*
X509315Y244629D01*
X509404Y244507D01*
X509482Y244362D01*
X509559Y244207D01*
X509626Y244040D01*
X509670Y243862D01*
X509704Y243684D01*
X509715Y243484D01*
Y243407D01*
X509704Y243351D01*
Y243273D01*
X509693Y243196D01*
X509659Y243007D01*
X509604Y242807D01*
X509515Y242596D01*
X509404Y242385D01*
X509248Y242207D01*
X509226Y242184D01*
X509159Y242140D01*
X509059Y242062D01*
X508982Y242029D01*
X508904Y241985D01*
X508804Y241940D01*
X508704Y241907D01*
X508593Y241862D01*
X508459Y241829D01*
X508326Y241807D01*
X508171Y241785D01*
X508015Y241762D01*
X507837D01*
X504015D01*
Y242707D01*
X507515D01*
X507526D01*
X507537D01*
X507604D01*
X507704D01*
X507826Y242718D01*
X507960Y242729D01*
X508093Y242740D01*
X508226Y242762D01*
X508326Y242796D01*
X508337D01*
X508371Y242818D01*
X508415Y242840D01*
X508471Y242873D01*
X508537Y242918D01*
X508604Y242973D01*
X508671Y243040D01*
X508737Y243129D01*
X508748Y243140D01*
X508759Y243173D01*
X508782Y243218D01*
X508815Y243296D01*
X508848Y243373D01*
X508871Y243473D01*
X508882Y243573D01*
X508893Y243695D01*
Y243751D01*
X508882Y243795D01*
X508871Y243907D01*
X508848Y244040D01*
X508793Y244195D01*
X508726Y244362D01*
X508626Y244529D01*
X508493Y244684D01*
X508471Y244695D01*
X508415Y244740D01*
X508326Y244807D01*
X508193Y244873D01*
X508015Y244951D01*
X507804Y245006D01*
X507548Y245051D01*
X507248Y245073D01*
X504015D01*
Y246018D01*
X507626D01*
X507637D01*
X507659D01*
X507682D01*
X507726D01*
X507848Y246029D01*
X507982Y246051D01*
X508137Y246073D01*
X508293Y246117D01*
X508437Y246173D01*
X508570Y246251D01*
X508582Y246262D01*
X508626Y246295D01*
X508671Y246351D01*
X508737Y246428D01*
X508793Y246529D01*
X508848Y246662D01*
X508882Y246817D01*
X508893Y247006D01*
Y247073D01*
X508882Y247151D01*
X508871Y247240D01*
X508837Y247351D01*
X508804Y247484D01*
X508748Y247606D01*
X508682Y247740D01*
X508671Y247751D01*
X508637Y247795D01*
X508593Y247851D01*
X508526Y247928D01*
X508437Y248006D01*
X508326Y248084D01*
X508204Y248162D01*
X508060Y248228D01*
X508037Y248239D01*
X507982Y248251D01*
X507893Y248273D01*
X507771Y248306D01*
X507604Y248339D01*
X507404Y248362D01*
X507171Y248373D01*
X506904Y248384D01*
X504015D01*
Y249328D01*
X509593D01*
Y248484D01*
D02*
G37*
G36*
X506571Y236641D02*
X506560D01*
X506549D01*
X506515Y236630D01*
X506471D01*
X506371Y236607D01*
X506226Y236574D01*
X506082Y236529D01*
X505915Y236485D01*
X505760Y236407D01*
X505615Y236330D01*
X505604Y236318D01*
X505560Y236285D01*
X505482Y236230D01*
X505404Y236141D01*
X505304Y236030D01*
X505204Y235907D01*
X505104Y235741D01*
X505015Y235563D01*
Y235552D01*
X505004Y235541D01*
X504993Y235507D01*
X504982Y235474D01*
X504949Y235363D01*
X504904Y235219D01*
X504860Y235041D01*
X504826Y234841D01*
X504804Y234619D01*
X504793Y234374D01*
Y234274D01*
X504804Y234163D01*
X504815Y234030D01*
X504838Y233874D01*
X504860Y233697D01*
X504904Y233519D01*
X504960Y233352D01*
X504971Y233330D01*
X504993Y233274D01*
X505038Y233196D01*
X505082Y233097D01*
X505160Y232997D01*
X505237Y232885D01*
X505326Y232774D01*
X505438Y232685D01*
X505449Y232674D01*
X505493Y232652D01*
X505549Y232619D01*
X505638Y232574D01*
X505726Y232530D01*
X505837Y232497D01*
X505960Y232474D01*
X506093Y232463D01*
X506104D01*
X506160D01*
X506226Y232474D01*
X506315Y232486D01*
X506404Y232519D01*
X506515Y232552D01*
X506626Y232608D01*
X506726Y232685D01*
X506737Y232697D01*
X506771Y232730D01*
X506815Y232774D01*
X506882Y232852D01*
X506949Y232941D01*
X507026Y233063D01*
X507104Y233208D01*
X507171Y233374D01*
X507182Y233385D01*
X507193Y233441D01*
X507226Y233530D01*
X507237Y233585D01*
X507260Y233663D01*
X507293Y233741D01*
X507315Y233841D01*
X507348Y233952D01*
X507382Y234085D01*
X507415Y234219D01*
X507459Y234374D01*
X507504Y234552D01*
X507548Y234741D01*
Y234752D01*
X507559Y234785D01*
X507571Y234841D01*
X507593Y234908D01*
X507615Y234996D01*
X507637Y235096D01*
X507704Y235318D01*
X507782Y235563D01*
X507860Y235819D01*
X507937Y236041D01*
X507982Y236141D01*
X508026Y236230D01*
Y236241D01*
X508037Y236252D01*
X508082Y236318D01*
X508137Y236418D01*
X508226Y236529D01*
X508326Y236663D01*
X508448Y236796D01*
X508593Y236929D01*
X508748Y237041D01*
X508771Y237052D01*
X508826Y237085D01*
X508915Y237129D01*
X509026Y237174D01*
X509170Y237218D01*
X509337Y237263D01*
X509515Y237296D01*
X509704Y237307D01*
X509715D01*
X509726D01*
X509759D01*
X509804D01*
X509915Y237285D01*
X510059Y237263D01*
X510226Y237229D01*
X510415Y237174D01*
X510604Y237096D01*
X510792Y236985D01*
X510804D01*
X510815Y236974D01*
X510881Y236918D01*
X510970Y236841D01*
X511081Y236741D01*
X511204Y236607D01*
X511337Y236441D01*
X511459Y236241D01*
X511570Y236018D01*
Y236007D01*
X511581Y235985D01*
X511592Y235952D01*
X511615Y235907D01*
X511637Y235852D01*
X511659Y235774D01*
X511704Y235607D01*
X511748Y235396D01*
X511792Y235152D01*
X511826Y234896D01*
X511837Y234608D01*
Y234463D01*
X511826Y234385D01*
Y234308D01*
X511803Y234096D01*
X511770Y233863D01*
X511715Y233619D01*
X511648Y233352D01*
X511559Y233108D01*
Y233097D01*
X511548Y233074D01*
X511526Y233041D01*
X511504Y232997D01*
X511448Y232885D01*
X511348Y232741D01*
X511237Y232574D01*
X511093Y232408D01*
X510926Y232252D01*
X510737Y232108D01*
X510726D01*
X510715Y232097D01*
X510681Y232074D01*
X510648Y232052D01*
X510537Y231997D01*
X510393Y231930D01*
X510215Y231852D01*
X510004Y231797D01*
X509782Y231741D01*
X509537Y231719D01*
X509459Y232697D01*
X509470D01*
X509493D01*
X509526Y232708D01*
X509582Y232719D01*
X509704Y232752D01*
X509870Y232797D01*
X510048Y232863D01*
X510226Y232963D01*
X510393Y233085D01*
X510548Y233241D01*
X510559Y233263D01*
X510604Y233319D01*
X510670Y233430D01*
X510737Y233574D01*
X510804Y233763D01*
X510870Y233985D01*
X510915Y234263D01*
X510926Y234574D01*
Y234730D01*
X510915Y234796D01*
X510904Y234885D01*
X510881Y235085D01*
X510837Y235307D01*
X510781Y235530D01*
X510693Y235741D01*
X510637Y235830D01*
X510581Y235918D01*
X510570Y235941D01*
X510526Y235985D01*
X510448Y236052D01*
X510359Y236118D01*
X510237Y236196D01*
X510104Y236263D01*
X509948Y236307D01*
X509770Y236330D01*
X509748D01*
X509704D01*
X509626Y236318D01*
X509537Y236296D01*
X509426Y236263D01*
X509315Y236207D01*
X509204Y236141D01*
X509093Y236041D01*
X509082Y236030D01*
X509048Y235974D01*
X509015Y235930D01*
X508993Y235885D01*
X508959Y235819D01*
X508915Y235741D01*
X508882Y235641D01*
X508837Y235530D01*
X508793Y235407D01*
X508737Y235263D01*
X508693Y235107D01*
X508637Y234930D01*
X508593Y234730D01*
X508537Y234507D01*
Y234496D01*
X508526Y234452D01*
X508515Y234385D01*
X508493Y234308D01*
X508471Y234208D01*
X508437Y234085D01*
X508404Y233963D01*
X508371Y233830D01*
X508293Y233541D01*
X508215Y233263D01*
X508171Y233130D01*
X508126Y233008D01*
X508093Y232896D01*
X508048Y232808D01*
Y232797D01*
X508037Y232774D01*
X508015Y232741D01*
X507993Y232697D01*
X507926Y232574D01*
X507837Y232430D01*
X507715Y232263D01*
X507582Y232097D01*
X507426Y231941D01*
X507260Y231808D01*
X507237Y231797D01*
X507182Y231752D01*
X507082Y231708D01*
X506949Y231641D01*
X506793Y231586D01*
X506604Y231530D01*
X506393Y231497D01*
X506171Y231486D01*
X506160D01*
X506149D01*
X506115D01*
X506071D01*
X505949Y231508D01*
X505793Y231530D01*
X505615Y231575D01*
X505426Y231630D01*
X505226Y231719D01*
X505015Y231841D01*
X505004D01*
X504993Y231852D01*
X504926Y231908D01*
X504826Y231985D01*
X504715Y232097D01*
X504582Y232241D01*
X504438Y232419D01*
X504304Y232619D01*
X504182Y232852D01*
Y232863D01*
X504171Y232885D01*
X504160Y232919D01*
X504138Y232963D01*
X504115Y233030D01*
X504082Y233108D01*
X504038Y233285D01*
X503982Y233496D01*
X503927Y233752D01*
X503893Y234030D01*
X503882Y234330D01*
Y234507D01*
X503893Y234596D01*
Y234696D01*
X503904Y234807D01*
X503915Y234941D01*
X503960Y235219D01*
X504004Y235507D01*
X504082Y235796D01*
X504182Y236074D01*
Y236085D01*
X504193Y236107D01*
X504215Y236141D01*
X504238Y236185D01*
X504304Y236318D01*
X504404Y236474D01*
X504538Y236652D01*
X504693Y236841D01*
X504882Y237018D01*
X505093Y237185D01*
X505104D01*
X505126Y237207D01*
X505160Y237218D01*
X505204Y237252D01*
X505260Y237274D01*
X505326Y237307D01*
X505493Y237385D01*
X505704Y237463D01*
X505937Y237529D01*
X506204Y237574D01*
X506482Y237596D01*
X506571Y236641D01*
D02*
G37*
G36*
X509593Y229908D02*
X506371Y229019D01*
X505171Y228708D01*
X505182D01*
X505204Y228697D01*
X505260Y228686D01*
X505293Y228675D01*
X505349Y228664D01*
X505415Y228653D01*
X505493Y228630D01*
X505582Y228608D01*
X505693Y228575D01*
X505815Y228541D01*
X505960Y228508D01*
X506126Y228464D01*
X506315Y228419D01*
X509593Y227530D01*
Y226564D01*
X506349Y225731D01*
X505282Y225453D01*
X506360Y225131D01*
X509593Y224175D01*
Y223253D01*
X504015Y225008D01*
Y225975D01*
X507348Y226864D01*
X508304Y227086D01*
X504015Y228208D01*
Y229208D01*
X509593Y230897D01*
Y229908D01*
D02*
G37*
G36*
X511704Y221509D02*
X510626D01*
Y222453D01*
X511704D01*
Y221509D01*
D02*
G37*
G36*
X509593D02*
X504015D01*
Y222453D01*
X509593D01*
Y221509D01*
D02*
G37*
G36*
Y219220D02*
X508793D01*
X508804Y219209D01*
X508837Y219187D01*
X508882Y219153D01*
X508937Y219109D01*
X509004Y219042D01*
X509082Y218965D01*
X509170Y218876D01*
X509259Y218765D01*
X509337Y218653D01*
X509426Y218520D01*
X509504Y218376D01*
X509570Y218220D01*
X509626Y218042D01*
X509670Y217865D01*
X509704Y217665D01*
X509715Y217454D01*
Y217365D01*
X509704Y217276D01*
X509693Y217154D01*
X509670Y217009D01*
X509637Y216854D01*
X509593Y216687D01*
X509526Y216531D01*
X509515Y216509D01*
X509493Y216465D01*
X509459Y216387D01*
X509404Y216298D01*
X509337Y216187D01*
X509248Y216087D01*
X509159Y215987D01*
X509048Y215898D01*
X509037Y215887D01*
X508993Y215865D01*
X508937Y215832D01*
X508859Y215776D01*
X508748Y215732D01*
X508637Y215687D01*
X508504Y215632D01*
X508359Y215598D01*
X508348D01*
X508304Y215587D01*
X508237Y215576D01*
X508148Y215565D01*
X508015D01*
X507860Y215554D01*
X507671Y215543D01*
X507437D01*
X504015D01*
Y216487D01*
X507393D01*
X507404D01*
X507415D01*
X507493D01*
X507593D01*
X507715Y216498D01*
X507860Y216509D01*
X508004Y216531D01*
X508137Y216565D01*
X508259Y216598D01*
X508271D01*
X508304Y216620D01*
X508359Y216654D01*
X508426Y216687D01*
X508493Y216743D01*
X508570Y216809D01*
X508648Y216898D01*
X508715Y216998D01*
X508726Y217009D01*
X508748Y217043D01*
X508771Y217109D01*
X508804Y217187D01*
X508837Y217276D01*
X508871Y217387D01*
X508882Y217520D01*
X508893Y217654D01*
Y217709D01*
X508882Y217754D01*
X508871Y217865D01*
X508848Y218009D01*
X508793Y218165D01*
X508726Y218342D01*
X508637Y218520D01*
X508504Y218687D01*
X508482Y218709D01*
X508426Y218754D01*
X508382Y218787D01*
X508326Y218820D01*
X508259Y218865D01*
X508182Y218898D01*
X508093Y218942D01*
X507982Y218987D01*
X507860Y219020D01*
X507726Y219054D01*
X507582Y219076D01*
X507426Y219098D01*
X507237Y219120D01*
X507049D01*
X504015D01*
Y220064D01*
X509593D01*
Y219220D01*
D02*
G37*
G36*
X511704Y213165D02*
X508959D01*
X508970Y213154D01*
X508993Y213143D01*
X509026Y213110D01*
X509082Y213054D01*
X509137Y212999D01*
X509204Y212932D01*
X509270Y212843D01*
X509337Y212754D01*
X509482Y212532D01*
X509593Y212276D01*
X509648Y212132D01*
X509682Y211976D01*
X509704Y211810D01*
X509715Y211643D01*
Y211554D01*
X509704Y211454D01*
X509693Y211332D01*
X509659Y211188D01*
X509626Y211021D01*
X509570Y210843D01*
X509504Y210677D01*
X509493Y210654D01*
X509470Y210599D01*
X509415Y210510D01*
X509348Y210410D01*
X509270Y210288D01*
X509170Y210166D01*
X509048Y210032D01*
X508915Y209921D01*
X508904Y209910D01*
X508848Y209877D01*
X508771Y209821D01*
X508671Y209754D01*
X508537Y209677D01*
X508382Y209599D01*
X508204Y209521D01*
X508015Y209454D01*
X508004D01*
X507993Y209443D01*
X507960Y209432D01*
X507926Y209421D01*
X507815Y209399D01*
X507671Y209366D01*
X507504Y209332D01*
X507315Y209299D01*
X507104Y209288D01*
X506882Y209277D01*
X506871D01*
X506815D01*
X506748D01*
X506648Y209288D01*
X506526Y209299D01*
X506393Y209310D01*
X506237Y209332D01*
X506071Y209366D01*
X505715Y209454D01*
X505526Y209510D01*
X505349Y209577D01*
X505160Y209654D01*
X504993Y209754D01*
X504826Y209865D01*
X504671Y209988D01*
X504660Y209999D01*
X504638Y210021D01*
X504604Y210054D01*
X504549Y210110D01*
X504493Y210188D01*
X504426Y210265D01*
X504360Y210354D01*
X504282Y210466D01*
X504215Y210588D01*
X504138Y210710D01*
X504015Y211010D01*
X503960Y211165D01*
X503927Y211332D01*
X503904Y211510D01*
X503893Y211688D01*
Y211732D01*
X503904Y211788D01*
Y211854D01*
X503915Y211932D01*
X503938Y212032D01*
X503993Y212254D01*
X504038Y212376D01*
X504093Y212499D01*
X504160Y212632D01*
X504238Y212754D01*
X504338Y212887D01*
X504449Y213010D01*
X504571Y213121D01*
X504715Y213232D01*
X504015D01*
Y214109D01*
X511704D01*
Y213165D01*
D02*
G37*
G36*
X509593Y207188D02*
X506493D01*
X506482D01*
X506460D01*
X506426D01*
X506371D01*
X506249D01*
X506093Y207177D01*
X505926D01*
X505760Y207166D01*
X505615Y207155D01*
X505493Y207133D01*
X505482D01*
X505438Y207110D01*
X505371Y207088D01*
X505282Y207055D01*
X505193Y206999D01*
X505093Y206932D01*
X505004Y206855D01*
X504915Y206755D01*
X504904Y206744D01*
X504882Y206699D01*
X504849Y206644D01*
X504815Y206555D01*
X504771Y206455D01*
X504738Y206332D01*
X504715Y206199D01*
X504704Y206044D01*
Y205966D01*
X504715Y205888D01*
X504727Y205788D01*
X504760Y205666D01*
X504793Y205533D01*
X504849Y205388D01*
X504915Y205244D01*
X504926Y205222D01*
X504960Y205177D01*
X505004Y205110D01*
X505071Y205033D01*
X505160Y204944D01*
X505260Y204855D01*
X505371Y204777D01*
X505504Y204711D01*
X505526Y204699D01*
X505571Y204688D01*
X505660Y204666D01*
X505782Y204633D01*
X505937Y204599D01*
X506126Y204577D01*
X506349Y204566D01*
X506604Y204555D01*
X509593D01*
Y203611D01*
X504015D01*
Y204455D01*
X504826D01*
X504815Y204466D01*
X504782Y204488D01*
X504738Y204522D01*
X504682Y204577D01*
X504615Y204644D01*
X504527Y204722D01*
X504449Y204811D01*
X504360Y204922D01*
X504271Y205044D01*
X504193Y205177D01*
X504115Y205322D01*
X504038Y205477D01*
X503982Y205655D01*
X503938Y205833D01*
X503904Y206033D01*
X503893Y206233D01*
Y206310D01*
X503904Y206410D01*
X503915Y206533D01*
X503938Y206677D01*
X503971Y206833D01*
X504015Y206988D01*
X504082Y207155D01*
X504093Y207177D01*
X504115Y207221D01*
X504160Y207299D01*
X504215Y207388D01*
X504282Y207499D01*
X504360Y207599D01*
X504449Y207699D01*
X504549Y207788D01*
X504560Y207799D01*
X504604Y207821D01*
X504660Y207855D01*
X504749Y207899D01*
X504849Y207955D01*
X504971Y207999D01*
X505104Y208044D01*
X505249Y208077D01*
X505260D01*
X505304Y208088D01*
X505371Y208099D01*
X505460D01*
X505593Y208110D01*
X505737Y208121D01*
X505926Y208132D01*
X506137D01*
X509593D01*
Y207188D01*
D02*
G37*
G36*
Y201289D02*
X508748D01*
X508759Y201277D01*
X508837Y201233D01*
X508937Y201178D01*
X509059Y201089D01*
X509182Y201000D01*
X509315Y200900D01*
X509426Y200800D01*
X509515Y200700D01*
X509526Y200689D01*
X509548Y200655D01*
X509582Y200589D01*
X509615Y200522D01*
X509648Y200433D01*
X509682Y200322D01*
X509704Y200211D01*
X509715Y200089D01*
Y200011D01*
X509704Y199911D01*
X509682Y199789D01*
X509637Y199644D01*
X509582Y199489D01*
X509504Y199311D01*
X509404Y199122D01*
X508537Y199467D01*
X508548Y199478D01*
X508570Y199522D01*
X508604Y199589D01*
X508637Y199678D01*
X508671Y199778D01*
X508704Y199900D01*
X508726Y200022D01*
X508737Y200144D01*
Y200200D01*
X508726Y200255D01*
X508715Y200333D01*
X508693Y200411D01*
X508659Y200511D01*
X508615Y200611D01*
X508548Y200700D01*
X508537Y200711D01*
X508515Y200744D01*
X508471Y200778D01*
X508415Y200833D01*
X508337Y200889D01*
X508248Y200944D01*
X508148Y201000D01*
X508026Y201044D01*
X508004Y201055D01*
X507937Y201066D01*
X507837Y201089D01*
X507704Y201122D01*
X507537Y201155D01*
X507348Y201178D01*
X507149Y201189D01*
X506926Y201200D01*
X504015D01*
Y202144D01*
X509593D01*
Y201289D01*
D02*
G37*
G36*
Y197711D02*
X508793D01*
X508804Y197700D01*
X508837Y197678D01*
X508882Y197644D01*
X508937Y197600D01*
X509004Y197533D01*
X509082Y197456D01*
X509170Y197367D01*
X509259Y197256D01*
X509337Y197145D01*
X509426Y197011D01*
X509504Y196867D01*
X509570Y196711D01*
X509626Y196534D01*
X509670Y196356D01*
X509704Y196156D01*
X509715Y195945D01*
Y195856D01*
X509704Y195767D01*
X509693Y195645D01*
X509670Y195500D01*
X509637Y195345D01*
X509593Y195178D01*
X509526Y195023D01*
X509515Y195000D01*
X509493Y194956D01*
X509459Y194878D01*
X509404Y194789D01*
X509337Y194678D01*
X509248Y194578D01*
X509159Y194478D01*
X509048Y194389D01*
X509037Y194378D01*
X508993Y194356D01*
X508937Y194323D01*
X508859Y194267D01*
X508748Y194223D01*
X508637Y194178D01*
X508504Y194123D01*
X508359Y194089D01*
X508348D01*
X508304Y194078D01*
X508237Y194067D01*
X508148Y194056D01*
X508015D01*
X507860Y194045D01*
X507671Y194034D01*
X507437D01*
X504015D01*
Y194978D01*
X507393D01*
X507404D01*
X507415D01*
X507493D01*
X507593D01*
X507715Y194989D01*
X507860Y195000D01*
X508004Y195023D01*
X508137Y195056D01*
X508259Y195089D01*
X508271D01*
X508304Y195111D01*
X508359Y195145D01*
X508426Y195178D01*
X508493Y195234D01*
X508570Y195300D01*
X508648Y195389D01*
X508715Y195489D01*
X508726Y195500D01*
X508748Y195534D01*
X508771Y195600D01*
X508804Y195678D01*
X508837Y195767D01*
X508871Y195878D01*
X508882Y196011D01*
X508893Y196145D01*
Y196200D01*
X508882Y196245D01*
X508871Y196356D01*
X508848Y196500D01*
X508793Y196656D01*
X508726Y196834D01*
X508637Y197011D01*
X508504Y197178D01*
X508482Y197200D01*
X508426Y197245D01*
X508382Y197278D01*
X508326Y197311D01*
X508259Y197356D01*
X508182Y197389D01*
X508093Y197433D01*
X507982Y197478D01*
X507860Y197511D01*
X507726Y197545D01*
X507582Y197567D01*
X507426Y197589D01*
X507237Y197611D01*
X507049D01*
X504015D01*
Y198556D01*
X509593D01*
Y197711D01*
D02*
G37*
G36*
X506982Y192889D02*
X507104Y192878D01*
X507237Y192867D01*
X507393Y192845D01*
X507548Y192812D01*
X507904Y192723D01*
X508082Y192667D01*
X508271Y192601D01*
X508448Y192512D01*
X508615Y192412D01*
X508782Y192301D01*
X508937Y192178D01*
X508948Y192167D01*
X508970Y192145D01*
X509004Y192101D01*
X509059Y192045D01*
X509115Y191978D01*
X509182Y191890D01*
X509259Y191790D01*
X509326Y191667D01*
X509404Y191545D01*
X509470Y191401D01*
X509537Y191245D01*
X509593Y191078D01*
X509648Y190901D01*
X509682Y190712D01*
X509704Y190512D01*
X509715Y190301D01*
Y190190D01*
X509704Y190112D01*
X509693Y190023D01*
X509670Y189912D01*
X509648Y189790D01*
X509615Y189645D01*
X509582Y189512D01*
X509526Y189357D01*
X509470Y189212D01*
X509393Y189057D01*
X509304Y188901D01*
X509204Y188745D01*
X509082Y188601D01*
X508948Y188468D01*
X508937Y188456D01*
X508915Y188434D01*
X508871Y188401D01*
X508804Y188357D01*
X508726Y188301D01*
X508637Y188245D01*
X508526Y188179D01*
X508393Y188112D01*
X508248Y188046D01*
X508093Y187979D01*
X507915Y187923D01*
X507726Y187868D01*
X507515Y187823D01*
X507293Y187790D01*
X507060Y187768D01*
X506804Y187757D01*
X506793D01*
X506748D01*
X506671D01*
X506560Y187768D01*
Y191934D01*
X506549D01*
X506515D01*
X506471Y191923D01*
X506404D01*
X506326Y191912D01*
X506237Y191890D01*
X506038Y191856D01*
X505815Y191790D01*
X505571Y191701D01*
X505349Y191578D01*
X505149Y191423D01*
Y191412D01*
X505126Y191401D01*
X505071Y191334D01*
X504993Y191234D01*
X504915Y191101D01*
X504826Y190923D01*
X504749Y190723D01*
X504693Y190501D01*
X504682Y190379D01*
X504671Y190245D01*
Y190156D01*
X504682Y190056D01*
X504704Y189934D01*
X504738Y189801D01*
X504782Y189645D01*
X504849Y189501D01*
X504938Y189357D01*
X504949Y189345D01*
X504993Y189290D01*
X505060Y189223D01*
X505149Y189145D01*
X505271Y189057D01*
X505426Y188956D01*
X505604Y188856D01*
X505815Y188768D01*
X505693Y187790D01*
X505682D01*
X505660Y187801D01*
X505615Y187812D01*
X505549Y187834D01*
X505482Y187868D01*
X505393Y187901D01*
X505204Y187990D01*
X504993Y188101D01*
X504771Y188257D01*
X504560Y188434D01*
X504360Y188656D01*
Y188668D01*
X504338Y188690D01*
X504315Y188723D01*
X504282Y188768D01*
X504249Y188834D01*
X504215Y188901D01*
X504171Y188990D01*
X504127Y189090D01*
X504082Y189201D01*
X504038Y189312D01*
X503971Y189590D01*
X503915Y189901D01*
X503893Y190245D01*
Y190367D01*
X503904Y190445D01*
X503915Y190545D01*
X503938Y190667D01*
X503960Y190801D01*
X503982Y190945D01*
X504071Y191256D01*
X504138Y191423D01*
X504204Y191578D01*
X504293Y191745D01*
X504393Y191901D01*
X504504Y192045D01*
X504638Y192190D01*
X504649Y192201D01*
X504671Y192223D01*
X504715Y192256D01*
X504782Y192301D01*
X504860Y192356D01*
X504949Y192412D01*
X505060Y192478D01*
X505182Y192545D01*
X505326Y192612D01*
X505482Y192678D01*
X505660Y192734D01*
X505849Y192789D01*
X506049Y192834D01*
X506271Y192867D01*
X506504Y192889D01*
X506748Y192901D01*
X506760D01*
X506815D01*
X506882D01*
X506982Y192889D01*
D02*
G37*
G36*
X503000Y221260D02*
X502468D01*
Y223697D01*
X501082D01*
Y221591D01*
X500550D01*
Y223697D01*
X498515D01*
Y224293D01*
X503000D01*
Y221260D01*
D02*
G37*
G36*
X500226Y220761D02*
X500291D01*
X500362Y220755D01*
X500453Y220742D01*
X500544Y220729D01*
X500647Y220703D01*
X500751Y220677D01*
X500861Y220645D01*
X500978Y220606D01*
X501088Y220554D01*
X501192Y220502D01*
X501295Y220431D01*
X501393Y220360D01*
X501477Y220269D01*
X501483Y220262D01*
X501490Y220250D01*
X501509Y220224D01*
X501535Y220191D01*
X501561Y220152D01*
X501593Y220100D01*
X501626Y220049D01*
X501658Y219984D01*
X501691Y219913D01*
X501723Y219835D01*
X501781Y219660D01*
X501827Y219459D01*
X501833Y219355D01*
X501840Y219245D01*
Y219180D01*
X501833Y219135D01*
X501827Y219077D01*
X501814Y219012D01*
X501801Y218940D01*
X501788Y218856D01*
X501729Y218681D01*
X501697Y218591D01*
X501652Y218500D01*
X501606Y218409D01*
X501542Y218318D01*
X501477Y218234D01*
X501399Y218150D01*
X501393Y218144D01*
X501380Y218130D01*
X501354Y218111D01*
X501321Y218085D01*
X501276Y218053D01*
X501218Y218014D01*
X501153Y217975D01*
X501082Y217936D01*
X501004Y217897D01*
X500907Y217858D01*
X500809Y217819D01*
X500699Y217787D01*
X500583Y217761D01*
X500459Y217742D01*
X500330Y217729D01*
X500187Y217722D01*
X500181D01*
X500161D01*
X500129D01*
X500084D01*
X500032Y217729D01*
X499967Y217735D01*
X499902D01*
X499831Y217748D01*
X499669Y217768D01*
X499507Y217807D01*
X499345Y217852D01*
X499196Y217917D01*
X499189D01*
X499183Y217923D01*
X499163Y217936D01*
X499137Y217949D01*
X499073Y217994D01*
X498995Y218053D01*
X498904Y218130D01*
X498813Y218228D01*
X498723Y218338D01*
X498639Y218467D01*
Y218474D01*
X498632Y218480D01*
X498619Y218500D01*
X498606Y218532D01*
X498593Y218565D01*
X498580Y218604D01*
X498541Y218701D01*
X498509Y218811D01*
X498477Y218947D01*
X498451Y219090D01*
X498444Y219245D01*
Y219310D01*
X498451Y219362D01*
X498457Y219420D01*
X498470Y219485D01*
X498483Y219563D01*
X498496Y219640D01*
X498548Y219815D01*
X498587Y219913D01*
X498626Y220003D01*
X498677Y220094D01*
X498736Y220185D01*
X498801Y220269D01*
X498878Y220353D01*
X498885Y220360D01*
X498898Y220373D01*
X498924Y220392D01*
X498963Y220418D01*
X499008Y220450D01*
X499060Y220483D01*
X499125Y220522D01*
X499202Y220561D01*
X499287Y220599D01*
X499384Y220638D01*
X499487Y220671D01*
X499598Y220703D01*
X499721Y220729D01*
X499850Y220748D01*
X499993Y220761D01*
X500142Y220768D01*
X500155D01*
X500181D01*
X500226Y220761D01*
D02*
G37*
G36*
X501768Y216582D02*
X501276D01*
X501282Y216575D01*
X501328Y216549D01*
X501386Y216517D01*
X501457Y216465D01*
X501529Y216413D01*
X501606Y216355D01*
X501671Y216297D01*
X501723Y216238D01*
X501729Y216232D01*
X501743Y216212D01*
X501762Y216174D01*
X501781Y216135D01*
X501801Y216083D01*
X501820Y216018D01*
X501833Y215953D01*
X501840Y215882D01*
Y215837D01*
X501833Y215778D01*
X501820Y215707D01*
X501794Y215623D01*
X501762Y215532D01*
X501717Y215428D01*
X501658Y215318D01*
X501153Y215519D01*
X501159Y215526D01*
X501172Y215551D01*
X501192Y215590D01*
X501211Y215642D01*
X501231Y215701D01*
X501250Y215772D01*
X501263Y215843D01*
X501269Y215914D01*
Y215947D01*
X501263Y215979D01*
X501257Y216024D01*
X501243Y216070D01*
X501224Y216128D01*
X501198Y216186D01*
X501159Y216238D01*
X501153Y216245D01*
X501140Y216264D01*
X501114Y216284D01*
X501082Y216316D01*
X501036Y216349D01*
X500984Y216381D01*
X500926Y216413D01*
X500855Y216439D01*
X500842Y216446D01*
X500803Y216452D01*
X500745Y216465D01*
X500667Y216485D01*
X500570Y216504D01*
X500459Y216517D01*
X500343Y216524D01*
X500213Y216530D01*
X498515D01*
Y217081D01*
X501768D01*
Y216582D01*
D02*
G37*
G36*
Y214502D02*
X501302D01*
X501315Y214495D01*
X501341Y214476D01*
X501386Y214437D01*
X501438Y214392D01*
X501503Y214333D01*
X501568Y214262D01*
X501632Y214184D01*
X501691Y214093D01*
X501697Y214081D01*
X501717Y214048D01*
X501736Y213996D01*
X501768Y213925D01*
X501794Y213841D01*
X501814Y213744D01*
X501833Y213633D01*
X501840Y213517D01*
Y213458D01*
X501833Y213387D01*
X501820Y213309D01*
X501801Y213212D01*
X501775Y213115D01*
X501736Y213018D01*
X501684Y212927D01*
X501678Y212914D01*
X501658Y212888D01*
X501626Y212849D01*
X501574Y212797D01*
X501516Y212746D01*
X501444Y212687D01*
X501360Y212635D01*
X501263Y212597D01*
X501269Y212590D01*
X501289Y212577D01*
X501315Y212558D01*
X501354Y212525D01*
X501399Y212487D01*
X501444Y212441D01*
X501496Y212389D01*
X501555Y212324D01*
X501606Y212253D01*
X501658Y212182D01*
X501704Y212098D01*
X501749Y212007D01*
X501788Y211910D01*
X501814Y211806D01*
X501833Y211702D01*
X501840Y211586D01*
Y211540D01*
X501833Y211508D01*
Y211463D01*
X501827Y211417D01*
X501807Y211307D01*
X501775Y211191D01*
X501723Y211067D01*
X501658Y210944D01*
X501568Y210841D01*
X501555Y210828D01*
X501516Y210802D01*
X501457Y210756D01*
X501412Y210737D01*
X501367Y210711D01*
X501308Y210685D01*
X501250Y210666D01*
X501185Y210640D01*
X501107Y210620D01*
X501030Y210607D01*
X500939Y210594D01*
X500848Y210581D01*
X500745D01*
X498515D01*
Y211132D01*
X500557D01*
X500563D01*
X500570D01*
X500608D01*
X500667D01*
X500738Y211139D01*
X500816Y211145D01*
X500894Y211152D01*
X500971Y211164D01*
X501030Y211184D01*
X501036D01*
X501056Y211197D01*
X501082Y211210D01*
X501114Y211229D01*
X501153Y211255D01*
X501192Y211288D01*
X501231Y211327D01*
X501269Y211378D01*
X501276Y211385D01*
X501282Y211404D01*
X501295Y211430D01*
X501315Y211476D01*
X501334Y211521D01*
X501347Y211579D01*
X501354Y211638D01*
X501360Y211709D01*
Y211741D01*
X501354Y211767D01*
X501347Y211832D01*
X501334Y211910D01*
X501302Y212000D01*
X501263Y212098D01*
X501205Y212195D01*
X501127Y212286D01*
X501114Y212292D01*
X501082Y212318D01*
X501030Y212357D01*
X500952Y212396D01*
X500848Y212441D01*
X500725Y212474D01*
X500576Y212499D01*
X500401Y212512D01*
X498515D01*
Y213063D01*
X500621D01*
X500628D01*
X500641D01*
X500654D01*
X500680D01*
X500751Y213070D01*
X500829Y213083D01*
X500919Y213096D01*
X501010Y213122D01*
X501094Y213154D01*
X501172Y213199D01*
X501179Y213206D01*
X501205Y213225D01*
X501231Y213258D01*
X501269Y213303D01*
X501302Y213361D01*
X501334Y213439D01*
X501354Y213530D01*
X501360Y213640D01*
Y213679D01*
X501354Y213724D01*
X501347Y213776D01*
X501328Y213841D01*
X501308Y213918D01*
X501276Y213990D01*
X501237Y214068D01*
X501231Y214074D01*
X501211Y214100D01*
X501185Y214132D01*
X501146Y214178D01*
X501094Y214223D01*
X501030Y214268D01*
X500958Y214314D01*
X500874Y214353D01*
X500861Y214359D01*
X500829Y214366D01*
X500777Y214379D01*
X500706Y214398D01*
X500608Y214418D01*
X500492Y214430D01*
X500356Y214437D01*
X500200Y214443D01*
X498515D01*
Y214994D01*
X501768D01*
Y214502D01*
D02*
G37*
G36*
Y209227D02*
X499961D01*
X499954D01*
X499941D01*
X499922D01*
X499889D01*
X499818D01*
X499727Y209221D01*
X499630D01*
X499533Y209214D01*
X499449Y209208D01*
X499377Y209195D01*
X499371D01*
X499345Y209182D01*
X499306Y209169D01*
X499254Y209149D01*
X499202Y209117D01*
X499144Y209078D01*
X499092Y209033D01*
X499040Y208974D01*
X499034Y208968D01*
X499021Y208942D01*
X499001Y208910D01*
X498982Y208858D01*
X498956Y208799D01*
X498937Y208728D01*
X498924Y208650D01*
X498917Y208560D01*
Y208514D01*
X498924Y208469D01*
X498930Y208411D01*
X498950Y208339D01*
X498969Y208261D01*
X499001Y208177D01*
X499040Y208093D01*
X499047Y208080D01*
X499066Y208054D01*
X499092Y208015D01*
X499131Y207970D01*
X499183Y207918D01*
X499241Y207866D01*
X499306Y207821D01*
X499384Y207782D01*
X499397Y207775D01*
X499423Y207769D01*
X499474Y207756D01*
X499546Y207737D01*
X499637Y207717D01*
X499747Y207704D01*
X499876Y207698D01*
X500025Y207691D01*
X501768D01*
Y207140D01*
X498515D01*
Y207633D01*
X498988D01*
X498982Y207639D01*
X498963Y207652D01*
X498937Y207672D01*
X498904Y207704D01*
X498865Y207743D01*
X498813Y207788D01*
X498768Y207840D01*
X498716Y207905D01*
X498665Y207976D01*
X498619Y208054D01*
X498574Y208138D01*
X498528Y208229D01*
X498496Y208333D01*
X498470Y208436D01*
X498451Y208553D01*
X498444Y208670D01*
Y208715D01*
X498451Y208773D01*
X498457Y208845D01*
X498470Y208929D01*
X498490Y209020D01*
X498515Y209110D01*
X498554Y209208D01*
X498561Y209221D01*
X498574Y209246D01*
X498600Y209292D01*
X498632Y209344D01*
X498671Y209408D01*
X498716Y209467D01*
X498768Y209525D01*
X498827Y209577D01*
X498833Y209583D01*
X498859Y209596D01*
X498891Y209616D01*
X498943Y209642D01*
X499001Y209674D01*
X499073Y209700D01*
X499151Y209726D01*
X499235Y209745D01*
X499241D01*
X499267Y209752D01*
X499306Y209758D01*
X499358D01*
X499436Y209765D01*
X499520Y209771D01*
X499630Y209778D01*
X499753D01*
X501768D01*
Y209227D01*
D02*
G37*
G36*
X503000Y205741D02*
X498515D01*
Y206292D01*
X503000D01*
Y205741D01*
D02*
G37*
G36*
X499455Y205067D02*
X499513Y205060D01*
X499585Y205047D01*
X499656Y205028D01*
X499734Y205002D01*
X499805Y204970D01*
X499811Y204963D01*
X499837Y204950D01*
X499876Y204924D01*
X499922Y204892D01*
X499973Y204853D01*
X500025Y204801D01*
X500077Y204749D01*
X500122Y204684D01*
X500129Y204678D01*
X500142Y204652D01*
X500168Y204620D01*
X500194Y204568D01*
X500220Y204510D01*
X500252Y204438D01*
X500278Y204367D01*
X500304Y204283D01*
Y204276D01*
X500310Y204250D01*
X500323Y204211D01*
X500330Y204160D01*
X500343Y204095D01*
X500356Y204011D01*
X500375Y203913D01*
X500388Y203797D01*
Y203790D01*
X500395Y203764D01*
Y203732D01*
X500401Y203687D01*
X500408Y203635D01*
X500421Y203570D01*
X500427Y203499D01*
X500440Y203421D01*
X500472Y203265D01*
X500505Y203097D01*
X500544Y202948D01*
X500563Y202877D01*
X500583Y202812D01*
X500589D01*
X500602D01*
X500641Y202805D01*
X500686D01*
X500712D01*
X500725D01*
X500732D01*
X500738D01*
X500777D01*
X500842Y202812D01*
X500913Y202825D01*
X500991Y202844D01*
X501069Y202877D01*
X501140Y202916D01*
X501198Y202967D01*
X501205Y202974D01*
X501231Y203006D01*
X501257Y203058D01*
X501295Y203123D01*
X501328Y203214D01*
X501360Y203317D01*
X501380Y203447D01*
X501386Y203596D01*
Y203661D01*
X501380Y203726D01*
X501367Y203816D01*
X501354Y203907D01*
X501328Y204004D01*
X501295Y204095D01*
X501250Y204173D01*
X501243Y204179D01*
X501224Y204205D01*
X501192Y204237D01*
X501140Y204276D01*
X501075Y204315D01*
X500991Y204361D01*
X500887Y204399D01*
X500771Y204438D01*
X500842Y204976D01*
X500848D01*
X500855Y204970D01*
X500874D01*
X500900Y204963D01*
X500958Y204944D01*
X501043Y204918D01*
X501127Y204885D01*
X501218Y204847D01*
X501308Y204795D01*
X501393Y204736D01*
X501399Y204730D01*
X501425Y204704D01*
X501464Y204665D01*
X501516Y204613D01*
X501568Y204542D01*
X501619Y204458D01*
X501678Y204361D01*
X501723Y204250D01*
Y204244D01*
X501729Y204237D01*
X501736Y204218D01*
X501743Y204192D01*
X501762Y204127D01*
X501781Y204036D01*
X501801Y203933D01*
X501820Y203803D01*
X501833Y203667D01*
X501840Y203512D01*
Y203440D01*
X501833Y203369D01*
X501827Y203272D01*
X501814Y203162D01*
X501794Y203052D01*
X501768Y202941D01*
X501736Y202838D01*
X501729Y202825D01*
X501717Y202792D01*
X501697Y202747D01*
X501671Y202689D01*
X501632Y202624D01*
X501593Y202559D01*
X501542Y202501D01*
X501490Y202449D01*
X501483Y202443D01*
X501464Y202430D01*
X501431Y202410D01*
X501393Y202384D01*
X501334Y202352D01*
X501276Y202326D01*
X501205Y202300D01*
X501120Y202280D01*
X501114D01*
X501094Y202274D01*
X501056Y202268D01*
X501004Y202261D01*
X500933D01*
X500848Y202255D01*
X500738Y202248D01*
X500615D01*
X499876D01*
X499870D01*
X499844D01*
X499805D01*
X499753D01*
X499695D01*
X499623D01*
X499468Y202242D01*
X499306D01*
X499144Y202235D01*
X499073Y202229D01*
X499008D01*
X498950Y202222D01*
X498904Y202216D01*
X498898D01*
X498872Y202209D01*
X498833Y202203D01*
X498781Y202183D01*
X498723Y202170D01*
X498658Y202144D01*
X498587Y202112D01*
X498515Y202080D01*
Y202656D01*
X498522Y202663D01*
X498548Y202669D01*
X498580Y202682D01*
X498632Y202702D01*
X498690Y202721D01*
X498762Y202734D01*
X498839Y202747D01*
X498924Y202760D01*
Y202766D01*
X498911Y202773D01*
X498878Y202812D01*
X498833Y202870D01*
X498775Y202948D01*
X498716Y203045D01*
X498652Y203142D01*
X498593Y203246D01*
X498548Y203356D01*
X498541Y203369D01*
X498535Y203408D01*
X498515Y203466D01*
X498496Y203538D01*
X498477Y203628D01*
X498464Y203732D01*
X498451Y203849D01*
X498444Y203965D01*
Y204017D01*
X498451Y204056D01*
Y204101D01*
X498457Y204153D01*
X498477Y204270D01*
X498509Y204399D01*
X498554Y204542D01*
X498619Y204672D01*
X498703Y204788D01*
X498716Y204801D01*
X498749Y204834D01*
X498807Y204879D01*
X498885Y204931D01*
X498982Y204983D01*
X499092Y205028D01*
X499228Y205060D01*
X499293Y205067D01*
X499371Y205073D01*
X499384D01*
X499410D01*
X499455Y205067D01*
D02*
G37*
G36*
X500006Y199228D02*
X499999D01*
X499993D01*
X499973Y199222D01*
X499948D01*
X499889Y199209D01*
X499805Y199189D01*
X499721Y199164D01*
X499623Y199138D01*
X499533Y199092D01*
X499449Y199047D01*
X499442Y199040D01*
X499416Y199021D01*
X499371Y198989D01*
X499325Y198937D01*
X499267Y198872D01*
X499209Y198801D01*
X499151Y198704D01*
X499099Y198600D01*
Y198593D01*
X499092Y198587D01*
X499086Y198567D01*
X499079Y198548D01*
X499060Y198483D01*
X499034Y198399D01*
X499008Y198295D01*
X498988Y198179D01*
X498976Y198049D01*
X498969Y197906D01*
Y197848D01*
X498976Y197783D01*
X498982Y197706D01*
X498995Y197615D01*
X499008Y197511D01*
X499034Y197407D01*
X499066Y197310D01*
X499073Y197297D01*
X499086Y197265D01*
X499112Y197220D01*
X499137Y197161D01*
X499183Y197103D01*
X499228Y197038D01*
X499280Y196973D01*
X499345Y196922D01*
X499351Y196915D01*
X499377Y196902D01*
X499410Y196883D01*
X499462Y196857D01*
X499513Y196831D01*
X499578Y196811D01*
X499649Y196798D01*
X499727Y196792D01*
X499734D01*
X499766D01*
X499805Y196798D01*
X499857Y196805D01*
X499909Y196824D01*
X499973Y196844D01*
X500038Y196876D01*
X500097Y196922D01*
X500103Y196928D01*
X500122Y196947D01*
X500148Y196973D01*
X500187Y197019D01*
X500226Y197071D01*
X500272Y197142D01*
X500317Y197226D01*
X500356Y197323D01*
X500362Y197330D01*
X500369Y197362D01*
X500388Y197414D01*
X500395Y197446D01*
X500408Y197492D01*
X500427Y197537D01*
X500440Y197595D01*
X500459Y197660D01*
X500479Y197738D01*
X500498Y197816D01*
X500524Y197906D01*
X500550Y198010D01*
X500576Y198120D01*
Y198127D01*
X500583Y198146D01*
X500589Y198179D01*
X500602Y198217D01*
X500615Y198269D01*
X500628Y198328D01*
X500667Y198457D01*
X500712Y198600D01*
X500758Y198749D01*
X500803Y198878D01*
X500829Y198937D01*
X500855Y198989D01*
Y198995D01*
X500861Y199002D01*
X500887Y199040D01*
X500919Y199099D01*
X500971Y199164D01*
X501030Y199241D01*
X501101Y199319D01*
X501185Y199397D01*
X501276Y199462D01*
X501289Y199468D01*
X501321Y199488D01*
X501373Y199513D01*
X501438Y199539D01*
X501522Y199565D01*
X501619Y199591D01*
X501723Y199611D01*
X501833Y199617D01*
X501840D01*
X501846D01*
X501866D01*
X501892D01*
X501956Y199604D01*
X502041Y199591D01*
X502138Y199572D01*
X502248Y199539D01*
X502358Y199494D01*
X502468Y199429D01*
X502475D01*
X502481Y199423D01*
X502520Y199390D01*
X502572Y199345D01*
X502637Y199287D01*
X502708Y199209D01*
X502786Y199112D01*
X502857Y198995D01*
X502922Y198865D01*
Y198859D01*
X502928Y198846D01*
X502935Y198827D01*
X502948Y198801D01*
X502961Y198768D01*
X502974Y198723D01*
X503000Y198626D01*
X503025Y198503D01*
X503051Y198360D01*
X503071Y198211D01*
X503077Y198043D01*
Y197958D01*
X503071Y197913D01*
Y197868D01*
X503058Y197745D01*
X503039Y197608D01*
X503006Y197466D01*
X502967Y197310D01*
X502915Y197168D01*
Y197161D01*
X502909Y197148D01*
X502896Y197129D01*
X502883Y197103D01*
X502851Y197038D01*
X502792Y196954D01*
X502727Y196857D01*
X502643Y196759D01*
X502546Y196669D01*
X502436Y196584D01*
X502429D01*
X502423Y196578D01*
X502403Y196565D01*
X502384Y196552D01*
X502319Y196520D01*
X502235Y196481D01*
X502131Y196435D01*
X502008Y196403D01*
X501879Y196371D01*
X501736Y196358D01*
X501691Y196928D01*
X501697D01*
X501710D01*
X501729Y196934D01*
X501762Y196941D01*
X501833Y196960D01*
X501930Y196986D01*
X502034Y197025D01*
X502138Y197083D01*
X502235Y197155D01*
X502326Y197246D01*
X502332Y197258D01*
X502358Y197291D01*
X502397Y197356D01*
X502436Y197440D01*
X502475Y197550D01*
X502514Y197680D01*
X502539Y197842D01*
X502546Y198023D01*
Y198114D01*
X502539Y198153D01*
X502533Y198205D01*
X502520Y198321D01*
X502494Y198451D01*
X502462Y198580D01*
X502410Y198704D01*
X502378Y198755D01*
X502345Y198807D01*
X502339Y198820D01*
X502313Y198846D01*
X502267Y198885D01*
X502215Y198924D01*
X502144Y198969D01*
X502067Y199008D01*
X501976Y199034D01*
X501872Y199047D01*
X501859D01*
X501833D01*
X501788Y199040D01*
X501736Y199028D01*
X501671Y199008D01*
X501606Y198976D01*
X501542Y198937D01*
X501477Y198878D01*
X501470Y198872D01*
X501451Y198840D01*
X501431Y198814D01*
X501418Y198788D01*
X501399Y198749D01*
X501373Y198704D01*
X501354Y198645D01*
X501328Y198580D01*
X501302Y198509D01*
X501269Y198425D01*
X501243Y198334D01*
X501211Y198230D01*
X501185Y198114D01*
X501153Y197984D01*
Y197978D01*
X501146Y197952D01*
X501140Y197913D01*
X501127Y197868D01*
X501114Y197809D01*
X501094Y197738D01*
X501075Y197667D01*
X501056Y197589D01*
X501010Y197421D01*
X500965Y197258D01*
X500939Y197181D01*
X500913Y197109D01*
X500894Y197045D01*
X500868Y196993D01*
Y196986D01*
X500861Y196973D01*
X500848Y196954D01*
X500835Y196928D01*
X500796Y196857D01*
X500745Y196773D01*
X500673Y196675D01*
X500596Y196578D01*
X500505Y196487D01*
X500408Y196410D01*
X500395Y196403D01*
X500362Y196377D01*
X500304Y196351D01*
X500226Y196312D01*
X500135Y196280D01*
X500025Y196248D01*
X499902Y196228D01*
X499773Y196222D01*
X499766D01*
X499760D01*
X499740D01*
X499714D01*
X499643Y196235D01*
X499552Y196248D01*
X499449Y196274D01*
X499338Y196306D01*
X499222Y196358D01*
X499099Y196429D01*
X499092D01*
X499086Y196435D01*
X499047Y196468D01*
X498988Y196513D01*
X498924Y196578D01*
X498846Y196662D01*
X498762Y196766D01*
X498684Y196883D01*
X498613Y197019D01*
Y197025D01*
X498606Y197038D01*
X498600Y197058D01*
X498587Y197083D01*
X498574Y197122D01*
X498554Y197168D01*
X498528Y197271D01*
X498496Y197395D01*
X498464Y197544D01*
X498444Y197706D01*
X498438Y197880D01*
Y197984D01*
X498444Y198036D01*
Y198094D01*
X498451Y198159D01*
X498457Y198237D01*
X498483Y198399D01*
X498509Y198567D01*
X498554Y198736D01*
X498613Y198898D01*
Y198904D01*
X498619Y198917D01*
X498632Y198937D01*
X498645Y198963D01*
X498684Y199040D01*
X498742Y199131D01*
X498820Y199235D01*
X498911Y199345D01*
X499021Y199449D01*
X499144Y199546D01*
X499151D01*
X499163Y199559D01*
X499183Y199565D01*
X499209Y199585D01*
X499241Y199598D01*
X499280Y199617D01*
X499377Y199662D01*
X499500Y199708D01*
X499637Y199747D01*
X499792Y199773D01*
X499954Y199786D01*
X500006Y199228D01*
D02*
G37*
G36*
X503000Y194187D02*
Y193539D01*
X498515Y191705D01*
Y192379D01*
X499876Y192904D01*
Y194783D01*
X498515Y195269D01*
Y195898D01*
X503000Y194187D01*
D02*
G37*
G36*
Y187973D02*
X502468D01*
Y190623D01*
X501101D01*
Y188141D01*
X500570D01*
Y190623D01*
X499047D01*
Y187869D01*
X498515D01*
Y191219D01*
X503000D01*
Y187973D01*
D02*
G37*
G36*
X495781Y197625D02*
X495778D01*
X495770D01*
X495744D01*
X495715D01*
X495704D01*
X495696D01*
X495692D01*
X495678D01*
X495655Y197621D01*
X495626Y197617D01*
X495589Y197610D01*
X495548Y197603D01*
X495507Y197588D01*
X495463Y197569D01*
X495459Y197566D01*
X495445Y197558D01*
X495422Y197543D01*
X495397Y197529D01*
X495367Y197503D01*
X495337Y197477D01*
X495308Y197447D01*
X495282Y197410D01*
X495278Y197406D01*
X495274Y197392D01*
X495263Y197373D01*
X495252Y197347D01*
X495241Y197314D01*
X495234Y197277D01*
X495226Y197236D01*
X495223Y197196D01*
Y197170D01*
X495226Y197140D01*
X495234Y197103D01*
X495249Y197059D01*
X495263Y197011D01*
X495289Y196955D01*
X495323Y196900D01*
X495326Y196892D01*
X495341Y196874D01*
X495363Y196844D01*
X495397Y196811D01*
X495437Y196770D01*
X495489Y196729D01*
X495548Y196689D01*
X495615Y196652D01*
X495618D01*
X495622Y196648D01*
X495633Y196644D01*
X495648Y196637D01*
X495689Y196622D01*
X495737Y196604D01*
X495796Y196585D01*
X495863Y196570D01*
X495933Y196559D01*
X496003Y196555D01*
X496007D01*
X496014D01*
X496026D01*
X496040Y196559D01*
X496077Y196563D01*
X496125Y196570D01*
X496181Y196589D01*
X496240Y196611D01*
X496296Y196641D01*
X496347Y196685D01*
X496355Y196692D01*
X496370Y196707D01*
X496388Y196737D01*
X496414Y196774D01*
X496436Y196822D01*
X496458Y196877D01*
X496473Y196944D01*
X496477Y197018D01*
Y197040D01*
X496473Y197066D01*
X496469Y197103D01*
X496462Y197144D01*
X496447Y197188D01*
X496432Y197233D01*
X496410Y197281D01*
X496407Y197284D01*
X496399Y197303D01*
X496381Y197325D01*
X496362Y197355D01*
X496333Y197388D01*
X496299Y197429D01*
X496259Y197466D01*
X496214Y197506D01*
X496233Y197780D01*
X497542Y197395D01*
Y196145D01*
X497254Y196204D01*
Y197181D01*
X496599Y197373D01*
X496603Y197370D01*
X496610Y197355D01*
X496625Y197333D01*
X496643Y197303D01*
X496662Y197270D01*
X496680Y197233D01*
X496717Y197151D01*
X496721Y197148D01*
X496725Y197133D01*
X496732Y197107D01*
X496740Y197077D01*
X496747Y197044D01*
X496751Y197003D01*
X496758Y196959D01*
Y196885D01*
X496754Y196866D01*
X496751Y196840D01*
X496747Y196811D01*
X496732Y196744D01*
X496710Y196670D01*
X496677Y196589D01*
X496655Y196548D01*
X496629Y196507D01*
X496595Y196470D01*
X496562Y196433D01*
X496558Y196430D01*
X496555Y196426D01*
X496544Y196415D01*
X496525Y196404D01*
X496507Y196389D01*
X496484Y196374D01*
X496455Y196356D01*
X496425Y196337D01*
X496388Y196319D01*
X496347Y196300D01*
X496303Y196285D01*
X496255Y196271D01*
X496203Y196259D01*
X496151Y196248D01*
X496092Y196245D01*
X496029Y196241D01*
X496026D01*
X496018D01*
X496000D01*
X495981Y196245D01*
X495955D01*
X495922Y196248D01*
X495889Y196252D01*
X495852Y196256D01*
X495766Y196274D01*
X495678Y196297D01*
X495581Y196326D01*
X495485Y196370D01*
X495482D01*
X495474Y196378D01*
X495463Y196385D01*
X495445Y196393D01*
X495400Y196422D01*
X495345Y196463D01*
X495282Y196515D01*
X495219Y196578D01*
X495160Y196648D01*
X495104Y196729D01*
Y196733D01*
X495097Y196740D01*
X495093Y196752D01*
X495082Y196770D01*
X495075Y196789D01*
X495063Y196815D01*
X495038Y196874D01*
X495012Y196948D01*
X494993Y197029D01*
X494978Y197122D01*
X494971Y197218D01*
Y197255D01*
X494975Y197295D01*
X494982Y197347D01*
X494993Y197410D01*
X495012Y197473D01*
X495034Y197540D01*
X495067Y197606D01*
X495071Y197614D01*
X495086Y197636D01*
X495108Y197666D01*
X495138Y197703D01*
X495178Y197743D01*
X495226Y197784D01*
X495278Y197825D01*
X495341Y197862D01*
X495345D01*
X495348Y197865D01*
X495371Y197873D01*
X495408Y197888D01*
X495452Y197902D01*
X495504Y197917D01*
X495563Y197932D01*
X495626Y197939D01*
X495692Y197943D01*
X495696D01*
X495707D01*
X495722D01*
X495748D01*
X495781Y197625D01*
D02*
G37*
G36*
X497576Y195545D02*
Y195231D01*
X495985Y195564D01*
X496873Y194635D01*
Y194217D01*
X496177Y195013D01*
X495015Y194532D01*
Y194879D01*
X495970Y195249D01*
X495637Y195638D01*
X495015Y195767D01*
Y196082D01*
X497576Y195545D01*
D02*
G37*
G36*
Y193614D02*
X496307Y193559D01*
X496303D01*
X496288D01*
X496273D01*
X496259Y193555D01*
X496236D01*
X496210D01*
X496181D01*
X496148D01*
X496107Y193551D01*
X496063D01*
X496011Y193547D01*
X495952D01*
X495885D01*
X495815Y193544D01*
X495811D01*
X495796D01*
X495778D01*
X495755Y193540D01*
X495704D01*
X495678Y193536D01*
X495659D01*
X495652D01*
X495641D01*
X495626D01*
X495604D01*
X495574D01*
X495533D01*
X495485D01*
X495489Y193533D01*
X495504Y193525D01*
X495526Y193518D01*
X495556Y193503D01*
X495593Y193484D01*
X495633Y193466D01*
X495678Y193444D01*
X495726Y193418D01*
X495826Y193370D01*
X495929Y193318D01*
X495977Y193292D01*
X496022Y193270D01*
X496063Y193248D01*
X496100Y193229D01*
X497576Y192448D01*
Y192097D01*
X496077Y192012D01*
X496074D01*
X496066D01*
X496051D01*
X496033Y192008D01*
X496007D01*
X495977D01*
X495944Y192005D01*
X495903D01*
X495863Y192001D01*
X495815D01*
X495763Y191997D01*
X495707D01*
X495589Y191993D01*
X495459Y191990D01*
X495463D01*
X495478Y191982D01*
X495496Y191975D01*
X495526Y191964D01*
X495563Y191949D01*
X495607Y191930D01*
X495659Y191908D01*
X495722Y191879D01*
X495726D01*
X495733Y191871D01*
X495748Y191868D01*
X495770Y191857D01*
X495792Y191845D01*
X495818Y191834D01*
X495881Y191805D01*
X495948Y191775D01*
X496014Y191745D01*
X496077Y191716D01*
X496103Y191701D01*
X496129Y191690D01*
X497576Y190957D01*
Y190610D01*
X495015Y191912D01*
Y192278D01*
X496566Y192367D01*
X496569D01*
X496577D01*
X496588D01*
X496603D01*
X496621Y192371D01*
X496643D01*
X496673D01*
X496703Y192375D01*
X496773Y192378D01*
X496858Y192382D01*
X496954Y192386D01*
X497058Y192389D01*
X497054D01*
X497047Y192393D01*
X497036Y192400D01*
X497017Y192408D01*
X496973Y192426D01*
X496917Y192452D01*
X496858Y192478D01*
X496795Y192508D01*
X496732Y192537D01*
X496677Y192567D01*
X495015Y193455D01*
Y193806D01*
X497576Y193962D01*
Y193614D01*
D02*
G37*
G36*
Y189263D02*
X496048Y188967D01*
X496044D01*
X496029Y188963D01*
X496007Y188959D01*
X495977Y188956D01*
X495944Y188948D01*
X495903Y188941D01*
X495859Y188934D01*
X495807Y188922D01*
X495704Y188908D01*
X495589Y188889D01*
X495482Y188874D01*
X495426Y188867D01*
X495378Y188859D01*
X495382Y188856D01*
X495393Y188852D01*
X495408Y188845D01*
X495434Y188834D01*
X495459Y188819D01*
X495493Y188804D01*
X495567Y188763D01*
X495648Y188723D01*
X495733Y188678D01*
X495818Y188634D01*
X495896Y188593D01*
X497576Y187683D01*
Y187328D01*
X495015Y188734D01*
Y189104D01*
X497576Y189592D01*
Y189263D01*
D02*
G37*
G36*
X495811Y187461D02*
X495837D01*
X495870Y187457D01*
X495907Y187453D01*
X495948Y187446D01*
X496037Y187431D01*
X496137Y187405D01*
X496240Y187372D01*
X496347Y187324D01*
X496351D01*
X496358Y187317D01*
X496373Y187309D01*
X496395Y187298D01*
X496418Y187283D01*
X496444Y187268D01*
X496507Y187224D01*
X496577Y187172D01*
X496647Y187113D01*
X496714Y187039D01*
X496773Y186961D01*
Y186958D01*
X496780Y186950D01*
X496788Y186939D01*
X496795Y186921D01*
X496806Y186902D01*
X496817Y186876D01*
X496843Y186817D01*
X496869Y186743D01*
X496891Y186662D01*
X496906Y186573D01*
X496913Y186477D01*
Y186443D01*
X496910Y186421D01*
X496906Y186392D01*
X496902Y186362D01*
X496895Y186325D01*
X496888Y186284D01*
X496862Y186199D01*
X496825Y186110D01*
X496803Y186066D01*
X496777Y186025D01*
X496743Y185981D01*
X496706Y185944D01*
X496703Y185940D01*
X496695Y185936D01*
X496684Y185925D01*
X496669Y185914D01*
X496647Y185896D01*
X496621Y185881D01*
X496592Y185863D01*
X496558Y185844D01*
X496521Y185826D01*
X496477Y185807D01*
X496432Y185789D01*
X496381Y185774D01*
X496329Y185763D01*
X496270Y185751D01*
X496210Y185748D01*
X496144Y185744D01*
X496137D01*
X496122D01*
X496092D01*
X496059Y185748D01*
X496014Y185751D01*
X495970Y185755D01*
X495866Y185770D01*
Y187139D01*
X495863D01*
X495859D01*
X495833Y187143D01*
X495800Y187146D01*
X495766D01*
X495763D01*
X495755D01*
X495741D01*
X495726Y187143D01*
X495704D01*
X495678Y187139D01*
X495618Y187132D01*
X495556Y187117D01*
X495489Y187095D01*
X495426Y187069D01*
X495371Y187028D01*
X495363Y187021D01*
X495348Y187006D01*
X495326Y186980D01*
X495304Y186947D01*
X495278Y186902D01*
X495256Y186850D01*
X495241Y186795D01*
X495234Y186732D01*
Y186702D01*
X495241Y186673D01*
X495249Y186632D01*
X495260Y186584D01*
X495278Y186529D01*
X495304Y186473D01*
X495337Y186414D01*
Y186410D01*
X495341Y186406D01*
X495356Y186388D01*
X495382Y186358D01*
X495415Y186321D01*
X495459Y186284D01*
X495511Y186244D01*
X495574Y186203D01*
X495644Y186166D01*
X495615Y185859D01*
X495611D01*
X495604Y185863D01*
X495593Y185866D01*
X495574Y185874D01*
X495556Y185881D01*
X495530Y185892D01*
X495474Y185922D01*
X495408Y185962D01*
X495334Y186018D01*
X495297Y186047D01*
X495256Y186084D01*
X495219Y186121D01*
X495178Y186166D01*
X495175Y186170D01*
X495171Y186177D01*
X495160Y186188D01*
X495145Y186207D01*
X495130Y186232D01*
X495115Y186258D01*
X495097Y186292D01*
X495078Y186325D01*
X495056Y186366D01*
X495038Y186410D01*
X495008Y186506D01*
X494982Y186617D01*
X494978Y186673D01*
X494975Y186736D01*
Y186769D01*
X494978Y186810D01*
X494986Y186862D01*
X494997Y186921D01*
X495015Y186984D01*
X495038Y187050D01*
X495067Y187117D01*
X495071Y187124D01*
X495086Y187146D01*
X495108Y187176D01*
X495138Y187213D01*
X495178Y187254D01*
X495226Y187298D01*
X495282Y187339D01*
X495345Y187376D01*
X495348D01*
X495352Y187380D01*
X495363Y187383D01*
X495378Y187391D01*
X495415Y187405D01*
X495463Y187420D01*
X495526Y187435D01*
X495596Y187450D01*
X495674Y187461D01*
X495759Y187465D01*
X495763D01*
X495774D01*
X495789D01*
X495811Y187461D01*
D02*
G37*
G36*
X496873Y185148D02*
Y184867D01*
X496493Y184948D01*
X496492Y184949D01*
X496488D01*
X496493Y184948D01*
X496499Y184941D01*
X496510Y184934D01*
X496525Y184923D01*
X496562Y184897D01*
X496610Y184860D01*
X496662Y184815D01*
X496717Y184767D01*
X496766Y184719D01*
X496810Y184667D01*
X496814Y184660D01*
X496825Y184645D01*
X496843Y184616D01*
X496862Y184582D01*
X496880Y184538D01*
X496899Y184490D01*
X496910Y184438D01*
X496913Y184386D01*
Y184368D01*
X496910Y184349D01*
X496906Y184323D01*
X496895Y184290D01*
X496884Y184249D01*
X496865Y184205D01*
X496843Y184153D01*
X496551Y184283D01*
X496555Y184286D01*
X496562Y184297D01*
X496569Y184312D01*
X496581Y184334D01*
X496592Y184364D01*
X496603Y184394D01*
X496606Y184427D01*
X496610Y184464D01*
Y184471D01*
X496606Y184494D01*
X496599Y184527D01*
X496588Y184567D01*
X496566Y184619D01*
X496532Y184678D01*
X496510Y184712D01*
X496484Y184741D01*
X496455Y184775D01*
X496421Y184808D01*
X496418Y184812D01*
X496414Y184815D01*
X496403Y184823D01*
X496384Y184838D01*
X496362Y184852D01*
X496336Y184867D01*
X496307Y184886D01*
X496270Y184908D01*
X496225Y184930D01*
X496177Y184952D01*
X496125Y184975D01*
X496063Y184997D01*
X495996Y185019D01*
X495926Y185041D01*
X495844Y185063D01*
X495759Y185082D01*
X495015Y185237D01*
Y185537D01*
X496873Y185148D01*
D02*
G37*
G36*
X495374Y184186D02*
Y183827D01*
X495015Y183905D01*
Y184264D01*
X495374Y184186D01*
D02*
G37*
G36*
X496902Y181892D02*
Y181889D01*
X496906Y181881D01*
X496913Y181870D01*
X496921Y181852D01*
X496928Y181830D01*
X496939Y181804D01*
X496969Y181744D01*
X497002Y181674D01*
X497043Y181596D01*
X497091Y181511D01*
X497147Y181426D01*
X497150Y181422D01*
X497154Y181415D01*
X497161Y181404D01*
X497172Y181389D01*
X497202Y181349D01*
X497239Y181297D01*
X497280Y181241D01*
X497324Y181182D01*
X497369Y181126D01*
X497413Y181078D01*
X497417Y181075D01*
X497424Y181067D01*
X497443Y181052D01*
X497461Y181038D01*
X497487Y181019D01*
X497517Y180997D01*
X497550Y180971D01*
X497587Y180949D01*
Y180764D01*
X495015Y181300D01*
Y181615D01*
X496947Y181212D01*
X496943Y181215D01*
X496939Y181223D01*
X496928Y181237D01*
X496913Y181260D01*
X496895Y181286D01*
X496876Y181319D01*
X496851Y181360D01*
X496828Y181404D01*
X496803Y181452D01*
X496777Y181508D01*
X496747Y181567D01*
X496721Y181633D01*
X496692Y181707D01*
X496666Y181781D01*
X496640Y181863D01*
X496618Y181952D01*
X496902Y181892D01*
D02*
G37*
G36*
X493402Y207531D02*
Y207528D01*
X493406Y207520D01*
X493413Y207509D01*
X493421Y207491D01*
X493428Y207469D01*
X493439Y207443D01*
X493469Y207383D01*
X493502Y207313D01*
X493543Y207235D01*
X493591Y207150D01*
X493647Y207065D01*
X493650Y207062D01*
X493654Y207054D01*
X493661Y207043D01*
X493673Y207028D01*
X493702Y206988D01*
X493739Y206936D01*
X493780Y206880D01*
X493824Y206821D01*
X493869Y206766D01*
X493913Y206717D01*
X493917Y206714D01*
X493924Y206706D01*
X493943Y206692D01*
X493961Y206677D01*
X493987Y206658D01*
X494017Y206636D01*
X494050Y206610D01*
X494087Y206588D01*
Y206403D01*
X491515Y206939D01*
Y207254D01*
X493447Y206851D01*
X493443Y206854D01*
X493439Y206862D01*
X493428Y206876D01*
X493413Y206899D01*
X493395Y206925D01*
X493376Y206958D01*
X493351Y206999D01*
X493328Y207043D01*
X493302Y207091D01*
X493277Y207147D01*
X493247Y207206D01*
X493221Y207272D01*
X493191Y207346D01*
X493166Y207420D01*
X493140Y207502D01*
X493118Y207591D01*
X493402Y207531D01*
D02*
G37*
G36*
X492130Y205589D02*
X492126D01*
X492119D01*
X492111Y205585D01*
X492096Y205581D01*
X492056Y205574D01*
X492011Y205563D01*
X491959Y205544D01*
X491911Y205526D01*
X491863Y205500D01*
X491822Y205467D01*
X491819Y205463D01*
X491808Y205452D01*
X491793Y205430D01*
X491778Y205404D01*
X491763Y205371D01*
X491749Y205334D01*
X491737Y205293D01*
X491734Y205245D01*
Y205237D01*
X491737Y205215D01*
X491741Y205178D01*
X491752Y205134D01*
X491771Y205082D01*
X491800Y205027D01*
X491837Y204967D01*
X491889Y204908D01*
X491893Y204904D01*
X491900Y204897D01*
X491915Y204886D01*
X491933Y204871D01*
X491956Y204853D01*
X491985Y204830D01*
X492019Y204804D01*
X492059Y204779D01*
X492104Y204753D01*
X492152Y204727D01*
X492207Y204697D01*
X492267Y204668D01*
X492329Y204642D01*
X492400Y204616D01*
X492474Y204594D01*
X492551Y204571D01*
X492548Y204579D01*
X492533Y204597D01*
X492511Y204627D01*
X492485Y204668D01*
X492459Y204712D01*
X492429Y204760D01*
X492403Y204808D01*
X492381Y204856D01*
X492378Y204860D01*
X492374Y204878D01*
X492366Y204901D01*
X492359Y204934D01*
X492348Y204971D01*
X492341Y205015D01*
X492337Y205060D01*
X492333Y205108D01*
Y205130D01*
X492337Y205149D01*
Y205167D01*
X492341Y205193D01*
X492352Y205248D01*
X492370Y205311D01*
X492400Y205382D01*
X492437Y205456D01*
X492488Y205526D01*
X492492Y205530D01*
X492500Y205537D01*
X492511Y205548D01*
X492525Y205563D01*
X492548Y205581D01*
X492574Y205604D01*
X492603Y205626D01*
X492640Y205648D01*
X492677Y205670D01*
X492722Y205693D01*
X492770Y205715D01*
X492822Y205733D01*
X492881Y205748D01*
X492940Y205759D01*
X493007Y205767D01*
X493077Y205770D01*
X493081D01*
X493095D01*
X493118Y205767D01*
X493151D01*
X493188Y205763D01*
X493228Y205755D01*
X493280Y205748D01*
X493332Y205733D01*
X493388Y205718D01*
X493450Y205700D01*
X493510Y205678D01*
X493573Y205652D01*
X493636Y205619D01*
X493698Y205581D01*
X493761Y205537D01*
X493820Y205489D01*
X493824Y205485D01*
X493832Y205478D01*
X493846Y205463D01*
X493861Y205445D01*
X493883Y205422D01*
X493906Y205393D01*
X493928Y205360D01*
X493954Y205323D01*
X493980Y205282D01*
X494002Y205237D01*
X494024Y205186D01*
X494046Y205134D01*
X494061Y205078D01*
X494076Y205019D01*
X494083Y204956D01*
X494087Y204893D01*
Y204864D01*
X494083Y204841D01*
X494079Y204812D01*
X494076Y204782D01*
X494068Y204745D01*
X494057Y204708D01*
X494028Y204623D01*
X494009Y204579D01*
X493987Y204534D01*
X493961Y204490D01*
X493928Y204446D01*
X493891Y204405D01*
X493850Y204364D01*
X493846Y204361D01*
X493839Y204357D01*
X493824Y204346D01*
X493806Y204331D01*
X493784Y204316D01*
X493754Y204298D01*
X493717Y204279D01*
X493680Y204257D01*
X493632Y204238D01*
X493584Y204220D01*
X493528Y204201D01*
X493469Y204187D01*
X493406Y204172D01*
X493336Y204161D01*
X493262Y204157D01*
X493184Y204153D01*
X493180D01*
X493166D01*
X493143D01*
X493114Y204157D01*
X493073D01*
X493029Y204161D01*
X492981Y204164D01*
X492925Y204172D01*
X492862Y204179D01*
X492799Y204187D01*
X492659Y204212D01*
X492511Y204246D01*
X492359Y204294D01*
X492355D01*
X492337Y204301D01*
X492315Y204312D01*
X492281Y204324D01*
X492241Y204342D01*
X492196Y204361D01*
X492144Y204386D01*
X492093Y204412D01*
X491978Y204479D01*
X491859Y204553D01*
X491804Y204597D01*
X491752Y204645D01*
X491700Y204694D01*
X491656Y204745D01*
X491652Y204749D01*
X491649Y204756D01*
X491638Y204767D01*
X491626Y204786D01*
X491612Y204808D01*
X491597Y204834D01*
X491582Y204864D01*
X491564Y204897D01*
X491530Y204971D01*
X491501Y205060D01*
X491478Y205160D01*
X491475Y205211D01*
X491471Y205263D01*
Y205289D01*
X491475Y205308D01*
Y205330D01*
X491478Y205356D01*
X491493Y205419D01*
X491512Y205485D01*
X491541Y205559D01*
X491582Y205633D01*
X491604Y205667D01*
X491634Y205700D01*
X491638D01*
X491641Y205707D01*
X491652Y205715D01*
X491663Y205726D01*
X491682Y205741D01*
X491704Y205752D01*
X491756Y205785D01*
X491822Y205818D01*
X491900Y205848D01*
X491993Y205870D01*
X492100Y205885D01*
X492130Y205589D01*
D02*
G37*
G36*
X494120Y202940D02*
Y202666D01*
X491475Y204042D01*
Y204316D01*
X494120Y202940D01*
D02*
G37*
G36*
X493402Y202555D02*
Y202551D01*
X493406Y202544D01*
X493413Y202533D01*
X493421Y202514D01*
X493428Y202492D01*
X493439Y202466D01*
X493469Y202407D01*
X493502Y202337D01*
X493543Y202259D01*
X493591Y202174D01*
X493647Y202089D01*
X493650Y202085D01*
X493654Y202078D01*
X493661Y202066D01*
X493673Y202052D01*
X493702Y202011D01*
X493739Y201959D01*
X493780Y201904D01*
X493824Y201845D01*
X493869Y201789D01*
X493913Y201741D01*
X493917Y201737D01*
X493924Y201730D01*
X493943Y201715D01*
X493961Y201700D01*
X493987Y201682D01*
X494017Y201659D01*
X494050Y201634D01*
X494087Y201611D01*
Y201426D01*
X491515Y201963D01*
Y202277D01*
X493447Y201874D01*
X493443Y201878D01*
X493439Y201885D01*
X493428Y201900D01*
X493413Y201922D01*
X493395Y201948D01*
X493376Y201981D01*
X493351Y202022D01*
X493328Y202066D01*
X493302Y202115D01*
X493277Y202170D01*
X493247Y202229D01*
X493221Y202296D01*
X493191Y202370D01*
X493166Y202444D01*
X493140Y202525D01*
X493118Y202614D01*
X493402Y202555D01*
D02*
G37*
G36*
X491527Y200934D02*
X491538D01*
X491552Y200931D01*
X491597Y200920D01*
X491649Y200905D01*
X491708Y200883D01*
X491771Y200860D01*
X491837Y200834D01*
X491896Y200805D01*
X491904Y200801D01*
X491922Y200790D01*
X491952Y200768D01*
X491993Y200742D01*
X492037Y200709D01*
X492085Y200672D01*
X492137Y200627D01*
X492189Y200575D01*
X492196Y200568D01*
X492204Y200561D01*
X492215Y200546D01*
X492233Y200531D01*
X492252Y200509D01*
X492274Y200483D01*
X492300Y200453D01*
X492329Y200416D01*
X492363Y200376D01*
X492403Y200331D01*
X492444Y200279D01*
X492492Y200224D01*
X492540Y200161D01*
X492596Y200094D01*
X492655Y200020D01*
X492659Y200017D01*
X492662Y200009D01*
X492673Y199998D01*
X492688Y199980D01*
X492722Y199939D01*
X492766Y199883D01*
X492814Y199828D01*
X492862Y199773D01*
X492907Y199724D01*
X492929Y199702D01*
X492947Y199684D01*
X492955Y199676D01*
X492970Y199662D01*
X492999Y199639D01*
X493032Y199610D01*
X493073Y199576D01*
X493118Y199547D01*
X493169Y199517D01*
X493217Y199491D01*
X493221Y199488D01*
X493232Y199484D01*
X493251Y199477D01*
X493277Y199469D01*
X493302Y199462D01*
X493336Y199458D01*
X493373Y199451D01*
X493410D01*
X493413D01*
X493417D01*
X493439D01*
X493473Y199458D01*
X493513Y199465D01*
X493562Y199480D01*
X493610Y199502D01*
X493661Y199536D01*
X493710Y199576D01*
X493713Y199584D01*
X493728Y199599D01*
X493750Y199625D01*
X493772Y199662D01*
X493795Y199706D01*
X493817Y199758D01*
X493832Y199817D01*
X493835Y199883D01*
Y199913D01*
X493828Y199946D01*
X493820Y199991D01*
X493806Y200039D01*
X493784Y200091D01*
X493750Y200146D01*
X493710Y200198D01*
X493702Y200205D01*
X493687Y200220D01*
X493654Y200242D01*
X493613Y200272D01*
X493554Y200302D01*
X493488Y200335D01*
X493402Y200361D01*
X493306Y200387D01*
X493351Y200697D01*
X493354D01*
X493365Y200694D01*
X493384Y200690D01*
X493406Y200686D01*
X493436Y200679D01*
X493469Y200672D01*
X493506Y200660D01*
X493547Y200649D01*
X493632Y200612D01*
X493721Y200568D01*
X493809Y200509D01*
X493850Y200472D01*
X493887Y200435D01*
X493891Y200431D01*
X493894Y200424D01*
X493906Y200413D01*
X493917Y200394D01*
X493935Y200376D01*
X493950Y200350D01*
X493968Y200320D01*
X493987Y200283D01*
X494005Y200246D01*
X494024Y200205D01*
X494057Y200113D01*
X494079Y200006D01*
X494083Y199946D01*
X494087Y199887D01*
Y199850D01*
X494083Y199810D01*
X494076Y199758D01*
X494065Y199695D01*
X494046Y199628D01*
X494024Y199562D01*
X493994Y199495D01*
Y199491D01*
X493991Y199488D01*
X493976Y199465D01*
X493957Y199436D01*
X493928Y199395D01*
X493891Y199351D01*
X493846Y199306D01*
X493798Y199266D01*
X493739Y199229D01*
X493732Y199225D01*
X493710Y199214D01*
X493680Y199199D01*
X493636Y199180D01*
X493584Y199166D01*
X493528Y199151D01*
X493465Y199140D01*
X493399Y199136D01*
X493395D01*
X493388D01*
X493373D01*
X493354Y199140D01*
X493332D01*
X493306Y199147D01*
X493243Y199158D01*
X493169Y199180D01*
X493088Y199214D01*
X493044Y199236D01*
X492999Y199258D01*
X492955Y199288D01*
X492910Y199321D01*
X492903Y199328D01*
X492896Y199336D01*
X492881Y199347D01*
X492862Y199362D01*
X492840Y199384D01*
X492814Y199410D01*
X492781Y199443D01*
X492744Y199484D01*
X492703Y199528D01*
X492655Y199584D01*
X492603Y199643D01*
X492544Y199713D01*
X492477Y199791D01*
X492407Y199880D01*
X492329Y199976D01*
X492326Y199980D01*
X492322Y199987D01*
X492311Y199998D01*
X492300Y200013D01*
X492267Y200057D01*
X492222Y200109D01*
X492174Y200165D01*
X492122Y200224D01*
X492074Y200279D01*
X492026Y200327D01*
X492022Y200331D01*
X492007Y200346D01*
X491982Y200364D01*
X491956Y200390D01*
X491919Y200416D01*
X491882Y200446D01*
X491845Y200472D01*
X491804Y200498D01*
Y199351D01*
X491515Y199414D01*
Y200938D01*
X491519D01*
X491527Y200934D01*
D02*
G37*
G36*
X494120Y197963D02*
Y197689D01*
X491475Y199066D01*
Y199340D01*
X494120Y197963D01*
D02*
G37*
G36*
X493402Y197578D02*
Y197575D01*
X493406Y197567D01*
X493413Y197556D01*
X493421Y197538D01*
X493428Y197515D01*
X493439Y197490D01*
X493469Y197430D01*
X493502Y197360D01*
X493543Y197282D01*
X493591Y197197D01*
X493647Y197112D01*
X493650Y197108D01*
X493654Y197101D01*
X493661Y197090D01*
X493673Y197075D01*
X493702Y197035D01*
X493739Y196983D01*
X493780Y196927D01*
X493824Y196868D01*
X493869Y196812D01*
X493913Y196764D01*
X493917Y196761D01*
X493924Y196753D01*
X493943Y196739D01*
X493961Y196724D01*
X493987Y196705D01*
X494017Y196683D01*
X494050Y196657D01*
X494087Y196635D01*
Y196450D01*
X491515Y196986D01*
Y197301D01*
X493447Y196898D01*
X493443Y196901D01*
X493439Y196909D01*
X493428Y196923D01*
X493413Y196946D01*
X493395Y196972D01*
X493376Y197005D01*
X493351Y197046D01*
X493328Y197090D01*
X493302Y197138D01*
X493277Y197194D01*
X493247Y197253D01*
X493221Y197319D01*
X493191Y197393D01*
X493166Y197467D01*
X493140Y197549D01*
X493118Y197638D01*
X493402Y197578D01*
D02*
G37*
G36*
X492130Y195636D02*
X492126D01*
X492119D01*
X492111Y195632D01*
X492096Y195628D01*
X492056Y195621D01*
X492011Y195610D01*
X491959Y195591D01*
X491911Y195573D01*
X491863Y195547D01*
X491822Y195514D01*
X491819Y195510D01*
X491808Y195499D01*
X491793Y195477D01*
X491778Y195451D01*
X491763Y195418D01*
X491749Y195381D01*
X491737Y195340D01*
X491734Y195292D01*
Y195284D01*
X491737Y195262D01*
X491741Y195225D01*
X491752Y195181D01*
X491771Y195129D01*
X491800Y195073D01*
X491837Y195014D01*
X491889Y194955D01*
X491893Y194951D01*
X491900Y194944D01*
X491915Y194933D01*
X491933Y194918D01*
X491956Y194900D01*
X491985Y194877D01*
X492019Y194852D01*
X492059Y194826D01*
X492104Y194800D01*
X492152Y194774D01*
X492207Y194744D01*
X492267Y194715D01*
X492329Y194689D01*
X492400Y194663D01*
X492474Y194641D01*
X492551Y194618D01*
X492548Y194626D01*
X492533Y194644D01*
X492511Y194674D01*
X492485Y194715D01*
X492459Y194759D01*
X492429Y194807D01*
X492403Y194855D01*
X492381Y194903D01*
X492378Y194907D01*
X492374Y194925D01*
X492366Y194948D01*
X492359Y194981D01*
X492348Y195018D01*
X492341Y195062D01*
X492337Y195107D01*
X492333Y195155D01*
Y195177D01*
X492337Y195196D01*
Y195214D01*
X492341Y195240D01*
X492352Y195296D01*
X492370Y195358D01*
X492400Y195429D01*
X492437Y195503D01*
X492488Y195573D01*
X492492Y195577D01*
X492500Y195584D01*
X492511Y195595D01*
X492525Y195610D01*
X492548Y195628D01*
X492574Y195651D01*
X492603Y195673D01*
X492640Y195695D01*
X492677Y195717D01*
X492722Y195739D01*
X492770Y195762D01*
X492822Y195780D01*
X492881Y195795D01*
X492940Y195806D01*
X493007Y195814D01*
X493077Y195817D01*
X493081D01*
X493095D01*
X493118Y195814D01*
X493151D01*
X493188Y195810D01*
X493228Y195802D01*
X493280Y195795D01*
X493332Y195780D01*
X493388Y195765D01*
X493450Y195747D01*
X493510Y195725D01*
X493573Y195699D01*
X493636Y195666D01*
X493698Y195628D01*
X493761Y195584D01*
X493820Y195536D01*
X493824Y195532D01*
X493832Y195525D01*
X493846Y195510D01*
X493861Y195492D01*
X493883Y195469D01*
X493906Y195440D01*
X493928Y195406D01*
X493954Y195370D01*
X493980Y195329D01*
X494002Y195284D01*
X494024Y195233D01*
X494046Y195181D01*
X494061Y195125D01*
X494076Y195066D01*
X494083Y195003D01*
X494087Y194940D01*
Y194911D01*
X494083Y194888D01*
X494079Y194859D01*
X494076Y194829D01*
X494068Y194792D01*
X494057Y194755D01*
X494028Y194670D01*
X494009Y194626D01*
X493987Y194581D01*
X493961Y194537D01*
X493928Y194493D01*
X493891Y194452D01*
X493850Y194411D01*
X493846Y194407D01*
X493839Y194404D01*
X493824Y194393D01*
X493806Y194378D01*
X493784Y194363D01*
X493754Y194345D01*
X493717Y194326D01*
X493680Y194304D01*
X493632Y194285D01*
X493584Y194267D01*
X493528Y194248D01*
X493469Y194234D01*
X493406Y194219D01*
X493336Y194208D01*
X493262Y194204D01*
X493184Y194200D01*
X493180D01*
X493166D01*
X493143D01*
X493114Y194204D01*
X493073D01*
X493029Y194208D01*
X492981Y194211D01*
X492925Y194219D01*
X492862Y194226D01*
X492799Y194234D01*
X492659Y194260D01*
X492511Y194293D01*
X492359Y194341D01*
X492355D01*
X492337Y194348D01*
X492315Y194359D01*
X492281Y194370D01*
X492241Y194389D01*
X492196Y194407D01*
X492144Y194433D01*
X492093Y194459D01*
X491978Y194526D01*
X491859Y194600D01*
X491804Y194644D01*
X491752Y194692D01*
X491700Y194740D01*
X491656Y194792D01*
X491652Y194796D01*
X491649Y194803D01*
X491638Y194815D01*
X491626Y194833D01*
X491612Y194855D01*
X491597Y194881D01*
X491582Y194911D01*
X491564Y194944D01*
X491530Y195018D01*
X491501Y195107D01*
X491478Y195207D01*
X491475Y195258D01*
X491471Y195310D01*
Y195336D01*
X491475Y195355D01*
Y195377D01*
X491478Y195403D01*
X491493Y195466D01*
X491512Y195532D01*
X491541Y195606D01*
X491582Y195680D01*
X491604Y195714D01*
X491634Y195747D01*
X491638D01*
X491641Y195754D01*
X491652Y195762D01*
X491663Y195773D01*
X491682Y195788D01*
X491704Y195799D01*
X491756Y195832D01*
X491822Y195865D01*
X491900Y195895D01*
X491993Y195917D01*
X492100Y195932D01*
X492130Y195636D01*
D02*
G37*
G36*
X492599Y192953D02*
Y191991D01*
X492285Y192054D01*
Y193020D01*
X492599Y192953D01*
D02*
G37*
G36*
X494076Y190308D02*
Y189198D01*
X494072Y189172D01*
Y189146D01*
X494068Y189087D01*
X494061Y189020D01*
X494046Y188950D01*
X494031Y188883D01*
X494009Y188828D01*
X494005Y188821D01*
X493998Y188806D01*
X493980Y188780D01*
X493957Y188747D01*
X493928Y188709D01*
X493891Y188669D01*
X493846Y188632D01*
X493791Y188595D01*
X493784Y188591D01*
X493765Y188580D01*
X493732Y188565D01*
X493691Y188547D01*
X493639Y188532D01*
X493584Y188517D01*
X493517Y188506D01*
X493447Y188502D01*
X493439D01*
X493421D01*
X493388Y188506D01*
X493347Y188510D01*
X493299Y188517D01*
X493243Y188532D01*
X493184Y188547D01*
X493121Y188569D01*
X493114Y188573D01*
X493095Y188580D01*
X493066Y188595D01*
X493025Y188613D01*
X492984Y188636D01*
X492940Y188665D01*
X492892Y188695D01*
X492851Y188732D01*
X492847Y188735D01*
X492833Y188750D01*
X492814Y188769D01*
X492792Y188795D01*
X492766Y188824D01*
X492736Y188861D01*
X492710Y188898D01*
X492688Y188935D01*
X492685Y188939D01*
X492681Y188954D01*
X492670Y188972D01*
X492659Y188998D01*
X492648Y189031D01*
X492633Y189068D01*
X492611Y189150D01*
Y189154D01*
X492607Y189161D01*
Y189176D01*
X492603Y189190D01*
X492599Y189213D01*
X492592Y189239D01*
X492585Y189302D01*
X492574Y189379D01*
X492562Y189461D01*
X492559Y189553D01*
X492555Y189646D01*
Y190289D01*
X491515Y190508D01*
Y190844D01*
X494076Y190308D01*
D02*
G37*
G36*
X491874Y188332D02*
Y187973D01*
X491515Y188051D01*
Y188410D01*
X491874Y188332D01*
D02*
G37*
G36*
X494076Y186904D02*
Y186478D01*
X492415Y186238D01*
X492411D01*
X492400Y186234D01*
X492381D01*
X492359Y186231D01*
X492329Y186227D01*
X492296Y186223D01*
X492255Y186219D01*
X492215Y186212D01*
X492119Y186205D01*
X492011Y186194D01*
X491900Y186186D01*
X491789Y186179D01*
X491793D01*
X491800Y186175D01*
X491815Y186168D01*
X491837Y186160D01*
X491859Y186145D01*
X491893Y186134D01*
X491930Y186116D01*
X491970Y186094D01*
X492019Y186071D01*
X492070Y186046D01*
X492130Y186016D01*
X492189Y185986D01*
X492259Y185949D01*
X492329Y185912D01*
X492407Y185868D01*
X492488Y185824D01*
X494076Y184924D01*
Y184499D01*
X491515Y185035D01*
Y185372D01*
X492759Y185102D01*
X492762D01*
X492777Y185098D01*
X492803Y185091D01*
X492836Y185083D01*
X492877Y185076D01*
X492925Y185065D01*
X492981Y185050D01*
X493044Y185035D01*
X493110Y185017D01*
X493184Y184998D01*
X493265Y184976D01*
X493351Y184950D01*
X493439Y184928D01*
X493532Y184898D01*
X493719Y184842D01*
X493717Y184843D01*
X493702Y184850D01*
X493684Y184858D01*
X493661Y184869D01*
X493636Y184884D01*
X493602Y184898D01*
X493569Y184917D01*
X493488Y184958D01*
X493395Y185002D01*
X493295Y185054D01*
X493188Y185113D01*
X491515Y186064D01*
Y186397D01*
X493158Y186634D01*
X493162D01*
X493169D01*
X493180Y186637D01*
X493199D01*
X493221Y186641D01*
X493247Y186645D01*
X493277Y186649D01*
X493310Y186652D01*
X493388Y186660D01*
X493476Y186667D01*
X493576Y186674D01*
X493684Y186678D01*
X493680D01*
X493669Y186682D01*
X493650D01*
X493628Y186686D01*
X493599Y186689D01*
X493565Y186693D01*
X493528Y186700D01*
X493488Y186704D01*
X493402Y186719D01*
X493310Y186734D01*
X493225Y186749D01*
X493143Y186767D01*
X491515Y187104D01*
Y187440D01*
X494076Y186904D01*
D02*
G37*
G36*
X491874Y184355D02*
Y183996D01*
X491515Y184073D01*
Y184432D01*
X491874Y184355D01*
D02*
G37*
G36*
X492636Y183311D02*
X492685Y183308D01*
X492744Y183304D01*
X492814Y183293D01*
X492888Y183282D01*
X492973Y183263D01*
X493062Y183241D01*
X493154Y183215D01*
X493247Y183182D01*
X493343Y183141D01*
X493439Y183093D01*
X493536Y183037D01*
X493624Y182975D01*
X493713Y182901D01*
X493717Y182897D01*
X493732Y182882D01*
X493750Y182863D01*
X493776Y182834D01*
X493809Y182797D01*
X493843Y182753D01*
X493880Y182704D01*
X493917Y182645D01*
X493954Y182582D01*
X493991Y182512D01*
X494028Y182438D01*
X494057Y182357D01*
X494083Y182268D01*
X494102Y182175D01*
X494116Y182079D01*
X494120Y181979D01*
Y181939D01*
X494116Y181913D01*
X494113Y181876D01*
X494109Y181839D01*
X494102Y181794D01*
X494094Y181742D01*
X494065Y181639D01*
X494050Y181583D01*
X494028Y181528D01*
X494002Y181476D01*
X493972Y181421D01*
X493939Y181369D01*
X493898Y181321D01*
X493894Y181317D01*
X493887Y181309D01*
X493876Y181298D01*
X493857Y181280D01*
X493835Y181261D01*
X493809Y181239D01*
X493780Y181213D01*
X493743Y181187D01*
X493702Y181161D01*
X493661Y181136D01*
X493613Y181110D01*
X493558Y181088D01*
X493502Y181065D01*
X493443Y181051D01*
X493380Y181036D01*
X493314Y181025D01*
X493284Y181343D01*
X493288D01*
X493295Y181346D01*
X493310Y181350D01*
X493328Y181354D01*
X493354Y181361D01*
X493380Y181369D01*
X493439Y181391D01*
X493506Y181421D01*
X493576Y181457D01*
X493643Y181502D01*
X493698Y181557D01*
X493706Y181565D01*
X493721Y181587D01*
X493743Y181620D01*
X493769Y181665D01*
X493795Y181724D01*
X493817Y181794D01*
X493832Y181876D01*
X493839Y181964D01*
Y181987D01*
X493835Y182009D01*
X493832Y182042D01*
X493828Y182083D01*
X493817Y182127D01*
X493802Y182179D01*
X493787Y182235D01*
X493765Y182294D01*
X493735Y182357D01*
X493702Y182420D01*
X493661Y182482D01*
X493613Y182549D01*
X493558Y182608D01*
X493491Y182671D01*
X493417Y182727D01*
X493413Y182730D01*
X493402Y182738D01*
X493380Y182749D01*
X493354Y182764D01*
X493317Y182786D01*
X493277Y182804D01*
X493228Y182826D01*
X493177Y182849D01*
X493118Y182875D01*
X493051Y182897D01*
X492981Y182915D01*
X492907Y182934D01*
X492825Y182952D01*
X492740Y182963D01*
X492655Y182971D01*
X492562Y182975D01*
X492559D01*
X492544D01*
X492525D01*
X492496Y182971D01*
X492466Y182967D01*
X492426Y182963D01*
X492385Y182960D01*
X492341Y182949D01*
X492241Y182926D01*
X492141Y182893D01*
X492093Y182871D01*
X492044Y182845D01*
X492000Y182815D01*
X491959Y182782D01*
X491956Y182778D01*
X491952Y182775D01*
X491941Y182764D01*
X491926Y182745D01*
X491911Y182727D01*
X491893Y182704D01*
X491874Y182675D01*
X491856Y182645D01*
X491819Y182571D01*
X491785Y182486D01*
X491760Y182386D01*
X491756Y182331D01*
X491752Y182275D01*
Y182249D01*
X491756Y182231D01*
Y182205D01*
X491763Y182179D01*
X491774Y182116D01*
X491797Y182042D01*
X491826Y181961D01*
X491871Y181876D01*
X491896Y181835D01*
X491926Y181794D01*
X491930Y181790D01*
X491933Y181783D01*
X491945Y181772D01*
X491959Y181757D01*
X491978Y181742D01*
X491996Y181720D01*
X492022Y181698D01*
X492052Y181676D01*
X492085Y181650D01*
X492122Y181624D01*
X492207Y181572D01*
X492307Y181520D01*
X492418Y181480D01*
X492370Y181139D01*
X492366D01*
X492352Y181147D01*
X492326Y181158D01*
X492296Y181169D01*
X492259Y181187D01*
X492218Y181206D01*
X492170Y181232D01*
X492119Y181258D01*
X492007Y181328D01*
X491896Y181409D01*
X491789Y181502D01*
X491741Y181557D01*
X491697Y181613D01*
X491693Y181617D01*
X491686Y181628D01*
X491675Y181642D01*
X491663Y181668D01*
X491645Y181694D01*
X491626Y181731D01*
X491604Y181768D01*
X491586Y181813D01*
X491564Y181865D01*
X491541Y181916D01*
X491523Y181972D01*
X491508Y182031D01*
X491493Y182098D01*
X491482Y182160D01*
X491475Y182231D01*
X491471Y182301D01*
Y182323D01*
X491475Y182345D01*
Y182379D01*
X491478Y182416D01*
X491486Y182464D01*
X491493Y182512D01*
X491508Y182568D01*
X491523Y182627D01*
X491541Y182686D01*
X491564Y182749D01*
X491589Y182808D01*
X491623Y182871D01*
X491660Y182930D01*
X491704Y182989D01*
X491752Y183041D01*
X491756Y183045D01*
X491767Y183052D01*
X491782Y183067D01*
X491804Y183086D01*
X491834Y183104D01*
X491871Y183126D01*
X491911Y183152D01*
X491963Y183178D01*
X492015Y183204D01*
X492078Y183230D01*
X492144Y183252D01*
X492218Y183271D01*
X492296Y183289D01*
X492381Y183304D01*
X492474Y183311D01*
X492570Y183315D01*
X492574D01*
X492577D01*
X492588D01*
X492599D01*
X492636Y183311D01*
D02*
G37*
%LPC*%
G36*
X507337Y260572D02*
Y257450D01*
X507348D01*
X507371D01*
X507404Y257461D01*
X507448D01*
X507582Y257483D01*
X507726Y257516D01*
X507904Y257572D01*
X508071Y257627D01*
X508237Y257716D01*
X508382Y257816D01*
X508393D01*
X508404Y257839D01*
X508471Y257894D01*
X508559Y257994D01*
X508659Y258127D01*
X508759Y258294D01*
X508848Y258494D01*
X508915Y258727D01*
X508926Y258850D01*
X508937Y258983D01*
Y259050D01*
X508926Y259094D01*
X508915Y259216D01*
X508882Y259361D01*
X508826Y259538D01*
X508748Y259727D01*
X508637Y259905D01*
X508493Y260083D01*
X508471Y260105D01*
X508415Y260149D01*
X508315Y260227D01*
X508182Y260305D01*
X508026Y260394D01*
X507826Y260472D01*
X507593Y260538D01*
X507337Y260572D01*
D02*
G37*
G36*
X505515Y254606D02*
X505504D01*
X505449D01*
X505382Y254594D01*
X505293Y254572D01*
X505193Y254539D01*
X505093Y254483D01*
X504982Y254417D01*
X504882Y254328D01*
X504871Y254317D01*
X504849Y254272D01*
X504804Y254205D01*
X504760Y254117D01*
X504715Y253994D01*
X504671Y253850D01*
X504649Y253683D01*
X504638Y253483D01*
Y253395D01*
X504649Y253283D01*
X504671Y253161D01*
X504693Y253006D01*
X504738Y252850D01*
X504793Y252683D01*
X504871Y252517D01*
X504882Y252495D01*
X504915Y252450D01*
X504971Y252372D01*
X505049Y252284D01*
X505138Y252184D01*
X505249Y252072D01*
X505382Y251983D01*
X505526Y251895D01*
X505538Y251884D01*
X505582Y251872D01*
X505660Y251850D01*
X505760Y251817D01*
X505893Y251784D01*
X506049Y251761D01*
X506237Y251750D01*
X506460Y251739D01*
X506815Y251728D01*
Y251739D01*
X506804Y251750D01*
X506793Y251784D01*
X506782Y251828D01*
X506760Y251884D01*
X506737Y251950D01*
X506715Y252028D01*
X506693Y252117D01*
X506660Y252217D01*
X506637Y252339D01*
X506604Y252461D01*
X506571Y252606D01*
X506537Y252761D01*
X506504Y252917D01*
X506482Y253095D01*
X506449Y253283D01*
Y253306D01*
X506437Y253372D01*
X506415Y253483D01*
X506393Y253606D01*
X506371Y253739D01*
X506337Y253872D01*
X506304Y253994D01*
X506260Y254105D01*
Y254117D01*
X506237Y254150D01*
X506215Y254194D01*
X506182Y254239D01*
X506093Y254372D01*
X505960Y254483D01*
X505949D01*
X505926Y254505D01*
X505882Y254517D01*
X505826Y254539D01*
X505760Y254561D01*
X505693Y254583D01*
X505604Y254594D01*
X505515Y254606D01*
D02*
G37*
G36*
X507026Y213243D02*
X506837D01*
X506826D01*
X506793D01*
X506737D01*
X506671D01*
X506593Y213232D01*
X506493D01*
X506282Y213210D01*
X506049Y213176D01*
X505804Y213132D01*
X505582Y213065D01*
X505482Y213021D01*
X505393Y212976D01*
X505382D01*
X505360Y212954D01*
X505326Y212932D01*
X505282Y212898D01*
X505160Y212799D01*
X505038Y212654D01*
X504904Y212488D01*
X504782Y212276D01*
X504738Y212165D01*
X504704Y212032D01*
X504682Y211910D01*
X504671Y211765D01*
Y211710D01*
X504682Y211665D01*
X504704Y211543D01*
X504738Y211399D01*
X504804Y211232D01*
X504893Y211054D01*
X505026Y210876D01*
X505115Y210788D01*
X505204Y210699D01*
X505215D01*
X505226Y210677D01*
X505260Y210654D01*
X505304Y210632D01*
X505360Y210588D01*
X505426Y210554D01*
X505515Y210510D01*
X505604Y210466D01*
X505715Y210432D01*
X505826Y210388D01*
X505960Y210343D01*
X506104Y210310D01*
X506260Y210288D01*
X506426Y210265D01*
X506615Y210243D01*
X506804D01*
X506815D01*
X506848D01*
X506904D01*
X506982Y210254D01*
X507071D01*
X507182Y210265D01*
X507415Y210299D01*
X507671Y210343D01*
X507948Y210421D01*
X508193Y210532D01*
X508315Y210599D01*
X508415Y210677D01*
X508426D01*
X508437Y210699D01*
X508493Y210754D01*
X508582Y210843D01*
X508682Y210965D01*
X508771Y211121D01*
X508859Y211299D01*
X508915Y211510D01*
X508937Y211621D01*
Y211788D01*
X508926Y211832D01*
X508904Y211954D01*
X508871Y212099D01*
X508804Y212265D01*
X508704Y212443D01*
X508648Y212532D01*
X508570Y212621D01*
X508493Y212710D01*
X508393Y212799D01*
X508382D01*
X508371Y212821D01*
X508337Y212843D01*
X508293Y212865D01*
X508237Y212898D01*
X508171Y212943D01*
X508093Y212976D01*
X508004Y213021D01*
X507893Y213065D01*
X507782Y213099D01*
X507648Y213143D01*
X507515Y213176D01*
X507360Y213198D01*
X507193Y213221D01*
X507026Y213243D01*
D02*
G37*
G36*
X507337Y191878D02*
Y188757D01*
X507348D01*
X507371D01*
X507404Y188768D01*
X507448D01*
X507582Y188790D01*
X507726Y188823D01*
X507904Y188879D01*
X508071Y188934D01*
X508237Y189023D01*
X508382Y189123D01*
X508393D01*
X508404Y189145D01*
X508471Y189201D01*
X508559Y189301D01*
X508659Y189434D01*
X508759Y189601D01*
X508848Y189801D01*
X508915Y190034D01*
X508926Y190156D01*
X508937Y190290D01*
Y190356D01*
X508926Y190401D01*
X508915Y190523D01*
X508882Y190667D01*
X508826Y190845D01*
X508748Y191034D01*
X508637Y191212D01*
X508493Y191390D01*
X508471Y191412D01*
X508415Y191456D01*
X508315Y191534D01*
X508182Y191612D01*
X508026Y191701D01*
X507826Y191778D01*
X507593Y191845D01*
X507337Y191878D01*
D02*
G37*
G36*
X500142Y220204D02*
X500135D01*
X500116D01*
X500084D01*
X500038Y220198D01*
X499986D01*
X499928Y220191D01*
X499792Y220172D01*
X499637Y220139D01*
X499481Y220088D01*
X499332Y220023D01*
X499267Y219977D01*
X499202Y219932D01*
Y219925D01*
X499189Y219919D01*
X499157Y219880D01*
X499105Y219822D01*
X499053Y219744D01*
X498995Y219647D01*
X498943Y219530D01*
X498911Y219394D01*
X498904Y219323D01*
X498898Y219245D01*
Y219206D01*
X498904Y219174D01*
X498917Y219103D01*
X498937Y219005D01*
X498976Y218902D01*
X499027Y218785D01*
X499105Y218675D01*
X499157Y218617D01*
X499209Y218565D01*
X499215Y218558D01*
X499222Y218552D01*
X499241Y218539D01*
X499267Y218519D01*
X499299Y218500D01*
X499338Y218474D01*
X499390Y218448D01*
X499442Y218422D01*
X499507Y218396D01*
X499578Y218377D01*
X499656Y218351D01*
X499740Y218331D01*
X499837Y218312D01*
X499935Y218299D01*
X500045Y218286D01*
X500161D01*
X500168D01*
X500187D01*
X500220D01*
X500259Y218292D01*
X500310D01*
X500369Y218299D01*
X500505Y218318D01*
X500647Y218351D01*
X500803Y218403D01*
X500945Y218474D01*
X501017Y218513D01*
X501075Y218565D01*
X501082D01*
X501088Y218578D01*
X501127Y218617D01*
X501172Y218675D01*
X501231Y218753D01*
X501289Y218850D01*
X501341Y218966D01*
X501373Y219096D01*
X501380Y219167D01*
X501386Y219245D01*
Y219284D01*
X501380Y219316D01*
X501373Y219388D01*
X501347Y219485D01*
X501308Y219595D01*
X501257Y219712D01*
X501179Y219822D01*
X501127Y219880D01*
X501075Y219932D01*
X501069D01*
X501062Y219945D01*
X501043Y219958D01*
X501017Y219977D01*
X500984Y219997D01*
X500945Y220016D01*
X500894Y220042D01*
X500842Y220068D01*
X500777Y220094D01*
X500712Y220120D01*
X500634Y220139D01*
X500550Y220159D01*
X500459Y220178D01*
X500362Y220191D01*
X500252Y220198D01*
X500142Y220204D01*
D02*
G37*
G36*
X499390Y204484D02*
X499384D01*
X499351D01*
X499312Y204477D01*
X499261Y204464D01*
X499202Y204445D01*
X499144Y204412D01*
X499079Y204374D01*
X499021Y204322D01*
X499014Y204315D01*
X499001Y204289D01*
X498976Y204250D01*
X498950Y204199D01*
X498924Y204127D01*
X498898Y204043D01*
X498885Y203946D01*
X498878Y203829D01*
Y203777D01*
X498885Y203713D01*
X498898Y203641D01*
X498911Y203551D01*
X498937Y203460D01*
X498969Y203363D01*
X499014Y203265D01*
X499021Y203252D01*
X499040Y203226D01*
X499073Y203181D01*
X499118Y203129D01*
X499170Y203071D01*
X499235Y203006D01*
X499312Y202954D01*
X499397Y202903D01*
X499403Y202896D01*
X499429Y202890D01*
X499474Y202877D01*
X499533Y202857D01*
X499611Y202838D01*
X499701Y202825D01*
X499811Y202818D01*
X499941Y202812D01*
X500148Y202805D01*
Y202812D01*
X500142Y202818D01*
X500135Y202838D01*
X500129Y202864D01*
X500116Y202896D01*
X500103Y202935D01*
X500090Y202980D01*
X500077Y203032D01*
X500058Y203091D01*
X500045Y203162D01*
X500025Y203233D01*
X500006Y203317D01*
X499986Y203408D01*
X499967Y203499D01*
X499954Y203602D01*
X499935Y203713D01*
Y203726D01*
X499928Y203764D01*
X499915Y203829D01*
X499902Y203901D01*
X499889Y203978D01*
X499870Y204056D01*
X499850Y204127D01*
X499824Y204192D01*
Y204199D01*
X499811Y204218D01*
X499798Y204244D01*
X499779Y204270D01*
X499727Y204348D01*
X499649Y204412D01*
X499643D01*
X499630Y204425D01*
X499604Y204432D01*
X499572Y204445D01*
X499533Y204458D01*
X499494Y204471D01*
X499442Y204477D01*
X499390Y204484D01*
D02*
G37*
G36*
X500362Y194608D02*
Y193092D01*
X501593Y193558D01*
X501600D01*
X501619Y193565D01*
X501652Y193578D01*
X501691Y193591D01*
X501736Y193610D01*
X501794Y193630D01*
X501859Y193649D01*
X501924Y193675D01*
X502073Y193727D01*
X502228Y193779D01*
X502384Y193831D01*
X502533Y193876D01*
X502527D01*
X502514Y193882D01*
X502488D01*
X502462Y193895D01*
X502416Y193902D01*
X502371Y193915D01*
X502261Y193941D01*
X502131Y193973D01*
X501989Y194018D01*
X501833Y194064D01*
X501671Y194122D01*
X500362Y194608D01*
D02*
G37*
G36*
X496111Y187091D02*
Y186044D01*
X496114D01*
X496118D01*
X496137Y186040D01*
X496159D01*
X496177D01*
X496181D01*
X496188D01*
X496199D01*
X496218D01*
X496259Y186047D01*
X496310Y186055D01*
X496370Y186070D01*
X496429Y186092D01*
X496488Y186121D01*
X496540Y186162D01*
X496547Y186166D01*
X496562Y186184D01*
X496581Y186210D01*
X496606Y186244D01*
X496629Y186288D01*
X496651Y186340D01*
X496666Y186403D01*
X496669Y186469D01*
Y186488D01*
X496666Y186503D01*
X496662Y186543D01*
X496651Y186591D01*
X496636Y186651D01*
X496610Y186710D01*
X496577Y186776D01*
X496529Y186839D01*
X496521Y186847D01*
X496503Y186865D01*
X496469Y186895D01*
X496425Y186932D01*
X496366Y186972D01*
X496292Y187017D01*
X496207Y187054D01*
X496111Y187091D01*
D02*
G37*
G36*
X493114Y205463D02*
X493110D01*
X493103D01*
X493092D01*
X493073Y205459D01*
X493055D01*
X493029Y205456D01*
X492973Y205448D01*
X492910Y205434D01*
X492847Y205411D01*
X492785Y205378D01*
X492725Y205337D01*
X492718Y205330D01*
X492703Y205315D01*
X492681Y205286D01*
X492655Y205248D01*
X492629Y205204D01*
X492607Y205152D01*
X492592Y205093D01*
X492585Y205030D01*
Y205008D01*
X492588Y204982D01*
X492596Y204949D01*
X492607Y204908D01*
X492622Y204867D01*
X492644Y204819D01*
X492673Y204771D01*
X492677Y204764D01*
X492692Y204749D01*
X492710Y204727D01*
X492740Y204694D01*
X492777Y204660D01*
X492825Y204623D01*
X492877Y204586D01*
X492940Y204549D01*
X492944D01*
X492947Y204545D01*
X492970Y204534D01*
X493007Y204520D01*
X493051Y204501D01*
X493106Y204483D01*
X493169Y204468D01*
X493236Y204457D01*
X493306Y204453D01*
X493314D01*
X493332D01*
X493358Y204457D01*
X493395Y204460D01*
X493439Y204468D01*
X493484Y204479D01*
X493532Y204494D01*
X493580Y204516D01*
X493587Y204520D01*
X493602Y204527D01*
X493624Y204542D01*
X493650Y204560D01*
X493680Y204586D01*
X493713Y204616D01*
X493743Y204649D01*
X493769Y204686D01*
X493772Y204690D01*
X493780Y204705D01*
X493791Y204723D01*
X493802Y204753D01*
X493813Y204782D01*
X493824Y204819D01*
X493832Y204856D01*
X493835Y204897D01*
Y204915D01*
X493832Y204938D01*
X493828Y204964D01*
X493820Y204993D01*
X493809Y205030D01*
X493795Y205067D01*
X493776Y205104D01*
X493772Y205108D01*
X493765Y205123D01*
X493754Y205141D01*
X493735Y205163D01*
X493710Y205193D01*
X493684Y205226D01*
X493650Y205260D01*
X493610Y205293D01*
X493606Y205297D01*
X493591Y205308D01*
X493569Y205323D01*
X493539Y205341D01*
X493502Y205363D01*
X493462Y205382D01*
X493413Y205404D01*
X493362Y205422D01*
X493354D01*
X493339Y205430D01*
X493310Y205434D01*
X493277Y205441D01*
X493240Y205448D01*
X493199Y205456D01*
X493154Y205459D01*
X493114Y205463D01*
D02*
G37*
G36*
Y195510D02*
X493110D01*
X493103D01*
X493092D01*
X493073Y195506D01*
X493055D01*
X493029Y195503D01*
X492973Y195495D01*
X492910Y195481D01*
X492847Y195458D01*
X492785Y195425D01*
X492725Y195384D01*
X492718Y195377D01*
X492703Y195362D01*
X492681Y195333D01*
X492655Y195296D01*
X492629Y195251D01*
X492607Y195199D01*
X492592Y195140D01*
X492585Y195077D01*
Y195055D01*
X492588Y195029D01*
X492596Y194996D01*
X492607Y194955D01*
X492622Y194914D01*
X492644Y194866D01*
X492673Y194818D01*
X492677Y194811D01*
X492692Y194796D01*
X492710Y194774D01*
X492740Y194740D01*
X492777Y194707D01*
X492825Y194670D01*
X492877Y194633D01*
X492940Y194596D01*
X492944D01*
X492947Y194592D01*
X492970Y194581D01*
X493007Y194567D01*
X493051Y194548D01*
X493106Y194530D01*
X493169Y194515D01*
X493236Y194504D01*
X493306Y194500D01*
X493314D01*
X493332D01*
X493358Y194504D01*
X493395Y194507D01*
X493439Y194515D01*
X493484Y194526D01*
X493532Y194541D01*
X493580Y194563D01*
X493587Y194567D01*
X493602Y194574D01*
X493624Y194589D01*
X493650Y194607D01*
X493680Y194633D01*
X493713Y194663D01*
X493743Y194696D01*
X493769Y194733D01*
X493772Y194737D01*
X493780Y194752D01*
X493791Y194770D01*
X493802Y194800D01*
X493813Y194829D01*
X493824Y194866D01*
X493832Y194903D01*
X493835Y194944D01*
Y194963D01*
X493832Y194985D01*
X493828Y195011D01*
X493820Y195040D01*
X493809Y195077D01*
X493795Y195114D01*
X493776Y195151D01*
X493772Y195155D01*
X493765Y195170D01*
X493754Y195188D01*
X493735Y195210D01*
X493710Y195240D01*
X493684Y195273D01*
X493650Y195307D01*
X493610Y195340D01*
X493606Y195344D01*
X493591Y195355D01*
X493569Y195370D01*
X493539Y195388D01*
X493502Y195410D01*
X493462Y195429D01*
X493413Y195451D01*
X493362Y195469D01*
X493354D01*
X493339Y195477D01*
X493310Y195481D01*
X493277Y195488D01*
X493240Y195495D01*
X493199Y195503D01*
X493154Y195506D01*
X493114Y195510D01*
D02*
G37*
G36*
X492844Y190226D02*
Y189605D01*
X492847Y189579D01*
Y189549D01*
X492851Y189475D01*
X492862Y189398D01*
X492873Y189320D01*
X492892Y189242D01*
X492903Y189209D01*
X492914Y189179D01*
X492918Y189172D01*
X492929Y189154D01*
X492944Y189124D01*
X492966Y189091D01*
X492999Y189050D01*
X493036Y189009D01*
X493077Y188969D01*
X493129Y188932D01*
X493136Y188928D01*
X493154Y188917D01*
X493184Y188902D01*
X493221Y188883D01*
X493265Y188865D01*
X493321Y188850D01*
X493376Y188839D01*
X493436Y188835D01*
X493443D01*
X493458D01*
X493480Y188839D01*
X493510Y188843D01*
X493576Y188857D01*
X493610Y188869D01*
X493639Y188887D01*
X493643Y188891D01*
X493654Y188894D01*
X493669Y188906D01*
X493684Y188920D01*
X493706Y188943D01*
X493724Y188965D01*
X493743Y188991D01*
X493758Y189024D01*
X493761Y189028D01*
X493765Y189042D01*
X493772Y189065D01*
X493780Y189102D01*
X493787Y189146D01*
X493791Y189205D01*
X493798Y189279D01*
Y190027D01*
X492844Y190226D01*
D02*
G37*
G36*
X493719Y184842D02*
X493724Y184839D01*
X493728D01*
X493719Y184842D01*
D02*
G37*
%LPD*%
D10*
X458661Y269685D02*
X494095Y305118D01*
X458661Y196063D02*
Y269685D01*
X418110Y155512D02*
X458661Y196063D01*
X378937Y304134D02*
Y305118D01*
X322835Y248031D02*
X378937Y304134D01*
X288287Y248031D02*
X322835D01*
X282016Y241760D02*
X288287Y248031D01*
X378740Y367323D02*
X387795Y376378D01*
X378740Y326772D02*
Y367323D01*
Y326772D02*
X384252Y321260D01*
X494095Y305118D02*
Y323819D01*
X499016Y328740D01*
X459080Y365745D02*
X482119D01*
X482279Y365905D01*
X459080Y355745D02*
Y365745D01*
D12*
X505265Y183793D02*
D03*
D40*
X248031Y403543D02*
D03*
X501968D02*
D03*
Y127953D02*
D03*
X248031D02*
D03*
D41*
X482279Y365905D02*
D03*
X421260Y281496D02*
D03*
X483268Y306102D02*
D03*
X379307Y304748D02*
D03*
X383858Y229331D02*
D03*
X372047D02*
D03*
X360236D02*
D03*
D42*
X459080Y365745D02*
D03*
Y355745D02*
D03*
Y345745D02*
D03*
D43*
X258000Y265216D02*
D03*
X303000Y196161D02*
D03*
Y334272D02*
D03*
X307016Y291535D02*
D03*
Y274016D02*
D03*
Y256496D02*
D03*
Y238976D02*
D03*
Y221457D02*
D03*
X282016D02*
D03*
Y238976D02*
D03*
Y256496D02*
D03*
Y274016D02*
D03*
Y291535D02*
D03*
Y309055D02*
D03*
D44*
X307016D02*
D03*
D45*
X371488Y191055D02*
D03*
X361488D02*
D03*
D46*
X351488D02*
D03*
D47*
X409842Y184252D02*
D03*
D48*
X418110Y133858D02*
D03*
Y155512D02*
D03*
X401575Y133858D02*
D03*
Y155512D02*
D03*
D49*
X446850Y122047D02*
D03*
X442913Y393701D02*
D03*
X472441D02*
D03*
X511811Y344488D02*
D03*
Y295276D02*
D03*
X472441Y255906D02*
D03*
Y216535D02*
D03*
Y177165D02*
D03*
X442913Y157480D02*
D03*
Y196850D02*
D03*
Y236221D02*
D03*
X393701Y255906D02*
D03*
Y216535D02*
D03*
X334646Y187008D02*
D03*
X364173Y157480D02*
D03*
X334646D02*
D03*
X342126Y312205D02*
D03*
X416142Y388976D02*
D03*
X387795Y376378D02*
D03*
X384252Y321260D02*
D03*
X387795Y332677D02*
D03*
X443280Y379906D02*
D03*
X499016Y328740D02*
D03*
X415354Y317913D02*
D03*
X424213Y333661D02*
D03*
X460630Y289370D02*
D03*
X499016Y318898D02*
D03*
X476378Y297244D02*
D03*
X366642Y388476D02*
D03*
Y380602D02*
D03*
Y372728D02*
D03*
X358768D02*
D03*
Y380602D02*
D03*
Y388476D02*
D03*
X350894D02*
D03*
Y380602D02*
D03*
Y372728D02*
D03*
X410779Y376905D02*
D03*
X398280Y341406D02*
D03*
D50*
X389370Y155905D02*
X401181D01*
X371488Y173787D02*
X389370Y155905D01*
X371488Y173787D02*
Y191055D01*
X401181Y155905D02*
X401575Y155512D01*
X424114Y289370D02*
Y333563D01*
X434209Y388976D02*
X443280Y379906D01*
X416142Y388976D02*
X434209D01*
X424114Y333563D02*
X424213Y333661D01*
X423721Y333169D02*
X424114Y333563D01*
X388287Y333169D02*
X423721D01*
X387795Y332677D02*
X388287Y333169D01*
X393701Y289370D02*
X424114D01*
X372047Y267717D02*
X393701Y289370D01*
X372047Y229331D02*
Y267717D01*
X371768Y229051D02*
X372047Y229331D01*
X371768Y191335D02*
Y229051D01*
X371488Y191055D02*
X371768Y191335D01*
X424114Y289370D02*
X460630D01*
X424213Y333661D02*
Y360839D01*
X443280Y379906D01*
X351488Y191055D02*
Y220583D01*
X360236Y229331D01*
M02*
