G04*
G04 #@! TF.GenerationSoftware,Altium Limited,Altium Designer,19.1.8 (144)*
G04*
G04 Layer_Color=16711935*
%FSLAX25Y25*%
%MOIN*%
G70*
G01*
G75*
%ADD10C,0.01000*%
%ADD51C,0.00394*%
D10*
X443204Y130362D02*
Y140992D01*
X450290D01*
Y130362D02*
Y140992D01*
X443204Y130362D02*
X450290D01*
X384149Y358709D02*
X391235D01*
Y369338D01*
X384149D02*
X391235D01*
X384149Y358709D02*
Y369338D01*
X397441Y385039D02*
Y392126D01*
Y385039D02*
X408071D01*
Y392126D01*
X397441D02*
X408071D01*
X384252Y349803D02*
X391339D01*
X384252Y339173D02*
Y349803D01*
Y339173D02*
X391339D01*
Y349803D01*
X411811Y324409D02*
X418898D01*
Y335039D01*
X411811D02*
X418898D01*
X411811Y324409D02*
Y335039D01*
X329606Y323701D02*
X373307D01*
X329606D02*
Y362283D01*
X373307D01*
Y323701D02*
Y362283D01*
X439736Y362090D02*
X446823D01*
Y372720D01*
X439736D02*
X446823D01*
X439736Y362090D02*
Y372720D01*
X478736Y338591D02*
X485823D01*
Y349220D01*
X478736D02*
X485823D01*
X478736Y338591D02*
Y349220D01*
X397779Y372161D02*
X433779D01*
Y345697D02*
Y372161D01*
X397779Y345697D02*
X433779D01*
X397779D02*
Y372161D01*
X435047Y333071D02*
X471047D01*
Y306606D02*
Y333071D01*
X435047Y306606D02*
X471047D01*
X435047D02*
Y333071D01*
X491535Y325197D02*
Y332283D01*
X480905D02*
X491535D01*
X480905Y325197D02*
Y332283D01*
Y325197D02*
X491535D01*
Y315354D02*
Y322441D01*
X480905D02*
X491535D01*
X480905Y315354D02*
Y322441D01*
Y315354D02*
X491535D01*
X469638Y293598D02*
Y300684D01*
X459008D02*
X469638D01*
X459008Y293598D02*
Y300684D01*
Y293598D02*
X469638D01*
X444441D02*
Y300684D01*
X433811D02*
X444441D01*
X433811Y293598D02*
Y300684D01*
Y293598D02*
X444441D01*
X398031Y313386D02*
X405118D01*
X398031Y302756D02*
Y313386D01*
Y302756D02*
X405118D01*
Y313386D01*
X360520Y180098D02*
X375874D01*
Y173012D02*
Y180098D01*
X360520Y173012D02*
X375874D01*
X360520D02*
Y180098D01*
X354016Y172909D02*
Y179995D01*
X343386D02*
X354016D01*
X343386Y172909D02*
Y179995D01*
Y172909D02*
X354016D01*
X354457Y267874D02*
Y296614D01*
X330835Y267874D02*
X354457D01*
X330835D02*
Y296614D01*
X354457D01*
X349913Y226949D02*
Y250571D01*
X333378Y226949D02*
X349913D01*
X333378D02*
Y250571D01*
X349913D01*
X337709Y216646D02*
X384953D01*
Y183181D02*
Y216646D01*
X337709Y183181D02*
X384953D01*
X337709D02*
Y216646D01*
D51*
X408043Y327016D02*
Y332527D01*
X396134Y327016D02*
X408043D01*
X396134Y332527D02*
X408043D01*
X396134Y327016D02*
Y332527D01*
M02*
