G04*
G04 #@! TF.GenerationSoftware,Altium Limited,Altium Designer,19.1.8 (144)*
G04*
G04 Layer_Color=255*
%FSLAX25Y25*%
%MOIN*%
G70*
G01*
G75*
%ADD40C,0.30709*%
%ADD41C,0.07087*%
%ADD42C,0.08000*%
%ADD43C,0.11811*%
%ADD44R,0.11811X0.11811*%
%ADD45C,0.06890*%
%ADD46R,0.06890X0.06890*%
%ADD47C,0.06000*%
%ADD48C,0.11024*%
D40*
X248031Y403543D02*
D03*
X501968D02*
D03*
Y127953D02*
D03*
X248031D02*
D03*
D41*
X482279Y365905D02*
D03*
X421260Y281496D02*
D03*
X483268Y306102D02*
D03*
X379307Y304748D02*
D03*
X383858Y229331D02*
D03*
X372047D02*
D03*
X360236D02*
D03*
D42*
X459080Y365745D02*
D03*
Y355745D02*
D03*
Y345745D02*
D03*
D43*
X258000Y265216D02*
D03*
X303000Y196161D02*
D03*
Y334272D02*
D03*
X307016Y291535D02*
D03*
Y274016D02*
D03*
Y256496D02*
D03*
Y238976D02*
D03*
Y221457D02*
D03*
X282016D02*
D03*
Y238976D02*
D03*
Y256496D02*
D03*
Y274016D02*
D03*
Y291535D02*
D03*
Y309055D02*
D03*
D44*
X307016D02*
D03*
D45*
X371488Y191055D02*
D03*
X361488D02*
D03*
D46*
X351488D02*
D03*
D47*
X409842Y184252D02*
D03*
D48*
X418110Y133858D02*
D03*
Y155512D02*
D03*
X401575Y133858D02*
D03*
Y155512D02*
D03*
M02*
