G04*
G04 #@! TF.GenerationSoftware,Altium Limited,Altium Designer,19.1.8 (144)*
G04*
G04 Layer_Color=255*
%FSLAX25Y25*%
%MOIN*%
G70*
G01*
G75*
G04:AMPARAMS|DCode=13|XSize=51.18mil|YSize=59.06mil|CornerRadius=12.8mil|HoleSize=0mil|Usage=FLASHONLY|Rotation=90.000|XOffset=0mil|YOffset=0mil|HoleType=Round|Shape=RoundedRectangle|*
%AMROUNDEDRECTD13*
21,1,0.05118,0.03347,0,0,90.0*
21,1,0.02559,0.05906,0,0,90.0*
1,1,0.02559,0.01674,0.01280*
1,1,0.02559,0.01674,-0.01280*
1,1,0.02559,-0.01674,-0.01280*
1,1,0.02559,-0.01674,0.01280*
%
%ADD13ROUNDEDRECTD13*%
G04:AMPARAMS|DCode=14|XSize=51.18mil|YSize=59.06mil|CornerRadius=12.8mil|HoleSize=0mil|Usage=FLASHONLY|Rotation=0.000|XOffset=0mil|YOffset=0mil|HoleType=Round|Shape=RoundedRectangle|*
%AMROUNDEDRECTD14*
21,1,0.05118,0.03347,0,0,0.0*
21,1,0.02559,0.05906,0,0,0.0*
1,1,0.02559,0.01280,-0.01674*
1,1,0.02559,-0.01280,-0.01674*
1,1,0.02559,-0.01280,0.01674*
1,1,0.02559,0.01280,0.01674*
%
%ADD14ROUNDEDRECTD14*%
G04:AMPARAMS|DCode=15|XSize=31.5mil|YSize=35.43mil|CornerRadius=7.87mil|HoleSize=0mil|Usage=FLASHONLY|Rotation=180.000|XOffset=0mil|YOffset=0mil|HoleType=Round|Shape=RoundedRectangle|*
%AMROUNDEDRECTD15*
21,1,0.03150,0.01968,0,0,180.0*
21,1,0.01575,0.03543,0,0,180.0*
1,1,0.01575,-0.00787,0.00984*
1,1,0.01575,0.00787,0.00984*
1,1,0.01575,0.00787,-0.00984*
1,1,0.01575,-0.00787,-0.00984*
%
%ADD15ROUNDEDRECTD15*%
G04:AMPARAMS|DCode=16|XSize=106.3mil|YSize=106.3mil|CornerRadius=26.57mil|HoleSize=0mil|Usage=FLASHONLY|Rotation=180.000|XOffset=0mil|YOffset=0mil|HoleType=Round|Shape=RoundedRectangle|*
%AMROUNDEDRECTD16*
21,1,0.10630,0.05315,0,0,180.0*
21,1,0.05315,0.10630,0,0,180.0*
1,1,0.05315,-0.02657,0.02657*
1,1,0.05315,0.02657,0.02657*
1,1,0.05315,0.02657,-0.02657*
1,1,0.05315,-0.02657,-0.02657*
%
%ADD16ROUNDEDRECTD16*%
%ADD17O,0.02200X0.05200*%
G04:AMPARAMS|DCode=18|XSize=70.87mil|YSize=55.12mil|CornerRadius=13.78mil|HoleSize=0mil|Usage=FLASHONLY|Rotation=0.000|XOffset=0mil|YOffset=0mil|HoleType=Round|Shape=RoundedRectangle|*
%AMROUNDEDRECTD18*
21,1,0.07087,0.02756,0,0,0.0*
21,1,0.04331,0.05512,0,0,0.0*
1,1,0.02756,0.02165,-0.01378*
1,1,0.02756,-0.02165,-0.01378*
1,1,0.02756,-0.02165,0.01378*
1,1,0.02756,0.02165,0.01378*
%
%ADD18ROUNDEDRECTD18*%
G04:AMPARAMS|DCode=19|XSize=90.55mil|YSize=220.47mil|CornerRadius=22.64mil|HoleSize=0mil|Usage=FLASHONLY|Rotation=270.000|XOffset=0mil|YOffset=0mil|HoleType=Round|Shape=RoundedRectangle|*
%AMROUNDEDRECTD19*
21,1,0.09055,0.17520,0,0,270.0*
21,1,0.04528,0.22047,0,0,270.0*
1,1,0.04528,-0.08760,-0.02264*
1,1,0.04528,-0.08760,0.02264*
1,1,0.04528,0.08760,0.02264*
1,1,0.04528,0.08760,-0.02264*
%
%ADD19ROUNDEDRECTD19*%
G04:AMPARAMS|DCode=20|XSize=98.43mil|YSize=98.43mil|CornerRadius=24.61mil|HoleSize=0mil|Usage=FLASHONLY|Rotation=270.000|XOffset=0mil|YOffset=0mil|HoleType=Round|Shape=RoundedRectangle|*
%AMROUNDEDRECTD20*
21,1,0.09843,0.04921,0,0,270.0*
21,1,0.04921,0.09843,0,0,270.0*
1,1,0.04921,-0.02461,-0.02461*
1,1,0.04921,-0.02461,0.02461*
1,1,0.04921,0.02461,0.02461*
1,1,0.04921,0.02461,-0.02461*
%
%ADD20ROUNDEDRECTD20*%
%ADD40C,0.30709*%
%ADD41C,0.07087*%
%ADD42C,0.08000*%
%ADD43C,0.11811*%
%ADD44R,0.11811X0.11811*%
%ADD45C,0.06890*%
%ADD46R,0.06890X0.06890*%
%ADD47C,0.06000*%
%ADD48C,0.11024*%
D13*
X446850Y139370D02*
D03*
Y131890D02*
D03*
X387795Y360236D02*
D03*
Y367716D02*
D03*
X387692Y348275D02*
D03*
Y340795D02*
D03*
X415457Y325937D02*
D03*
Y333417D02*
D03*
X443383Y363618D02*
D03*
Y371098D02*
D03*
X482383Y340118D02*
D03*
Y347598D02*
D03*
X401472Y311858D02*
D03*
Y304378D02*
D03*
D14*
X398969Y388479D02*
D03*
X406449D02*
D03*
X490008Y328843D02*
D03*
X482528D02*
D03*
X490008Y319001D02*
D03*
X482528D02*
D03*
X468110Y297244D02*
D03*
X460630D02*
D03*
X442913D02*
D03*
X435433D02*
D03*
X352488Y176555D02*
D03*
X345008D02*
D03*
D15*
X402039Y326031D02*
D03*
X398299Y333906D02*
D03*
X405780D02*
D03*
D16*
X336614Y355197D02*
D03*
X366614D02*
D03*
Y330709D02*
D03*
X336614D02*
D03*
D17*
X400779Y369406D02*
D03*
X405780D02*
D03*
X410779D02*
D03*
X415779D02*
D03*
X420780D02*
D03*
X425779D02*
D03*
X430780D02*
D03*
Y348933D02*
D03*
X425779D02*
D03*
X420780D02*
D03*
X415779D02*
D03*
X410779D02*
D03*
X405780D02*
D03*
X400779D02*
D03*
X438047Y330315D02*
D03*
X443047D02*
D03*
X448047D02*
D03*
X453047D02*
D03*
X458047D02*
D03*
X463047D02*
D03*
X468047D02*
D03*
Y309842D02*
D03*
X463047D02*
D03*
X458047D02*
D03*
X453047D02*
D03*
X448047D02*
D03*
X443047D02*
D03*
X438047D02*
D03*
D18*
X362488Y176555D02*
D03*
X373512D02*
D03*
D19*
X342646Y267874D02*
D03*
Y296614D02*
D03*
D20*
X341646Y229114D02*
D03*
Y247618D02*
D03*
D40*
X248031Y403543D02*
D03*
X501968D02*
D03*
Y127953D02*
D03*
X248031D02*
D03*
D41*
X482279Y365905D02*
D03*
X421260Y281496D02*
D03*
X483268Y306102D02*
D03*
X379307Y304748D02*
D03*
X383858Y229331D02*
D03*
X372047D02*
D03*
X360236D02*
D03*
D42*
X459080Y365745D02*
D03*
Y355745D02*
D03*
Y345745D02*
D03*
D43*
X258000Y265216D02*
D03*
X303000Y196161D02*
D03*
Y334272D02*
D03*
X307016Y291535D02*
D03*
Y274016D02*
D03*
Y256496D02*
D03*
Y238976D02*
D03*
Y221457D02*
D03*
X282016D02*
D03*
Y238976D02*
D03*
Y256496D02*
D03*
Y274016D02*
D03*
Y291535D02*
D03*
Y309055D02*
D03*
D44*
X307016D02*
D03*
D45*
X371488Y191055D02*
D03*
X361488D02*
D03*
D46*
X351488D02*
D03*
D47*
X409842Y184252D02*
D03*
D48*
X418110Y133858D02*
D03*
Y155512D02*
D03*
X401575Y133858D02*
D03*
Y155512D02*
D03*
M02*
