G04*
G04 #@! TF.GenerationSoftware,Altium Limited,Altium Designer,19.1.8 (144)*
G04*
G04 Layer_Color=32768*
%FSLAX25Y25*%
%MOIN*%
G70*
G01*
G75*
%ADD10C,0.01000*%
D10*
X443204Y128393D02*
X450290D01*
Y142764D01*
X443204D02*
X450290D01*
X443204Y128393D02*
Y142764D01*
X384149Y356740D02*
Y371110D01*
X391235D01*
Y356740D02*
Y371110D01*
X384149Y356740D02*
X391235D01*
X395472Y392126D02*
X409842D01*
Y385039D02*
Y392126D01*
X395472Y385039D02*
X409842D01*
X395472D02*
Y392126D01*
X391339Y337402D02*
Y351772D01*
X384252Y337402D02*
X391339D01*
X384252D02*
Y351772D01*
X391339D01*
X408929Y323079D02*
Y336858D01*
X395150Y323079D02*
X408929D01*
X395150D02*
Y336858D01*
X408929D01*
X411811Y322441D02*
Y336811D01*
X418898D01*
Y322441D02*
Y336811D01*
X411811Y322441D02*
X418898D01*
X373307Y323701D02*
Y362283D01*
X329606D02*
X373307D01*
X329606Y323701D02*
Y362283D01*
Y323701D02*
X373307D01*
X439736Y360122D02*
Y374492D01*
X446823D01*
Y360122D02*
Y374492D01*
X439736Y360122D02*
X446823D01*
X478736Y336622D02*
Y350992D01*
X485823D01*
Y336622D02*
Y350992D01*
X478736Y336622D02*
X485823D01*
X397779Y366697D02*
X433779D01*
Y351697D02*
Y366697D01*
X397779Y351697D02*
X433779D01*
X397779D02*
Y366697D01*
X435047Y327606D02*
X471047D01*
Y312606D02*
Y327606D01*
X435047Y312606D02*
X471047D01*
X435047D02*
Y327606D01*
X479134Y325197D02*
X493504D01*
X479134D02*
Y332283D01*
X493504D01*
Y325197D02*
Y332283D01*
X479134Y315354D02*
X493504D01*
X479134D02*
Y322441D01*
X493504D01*
Y315354D02*
Y322441D01*
X457236Y293598D02*
X471606D01*
X457236D02*
Y300684D01*
X471606D01*
Y293598D02*
Y300684D01*
X432039Y293598D02*
X446410D01*
X432039D02*
Y300684D01*
X446410D01*
Y293598D02*
Y300684D01*
X405118Y300984D02*
Y315354D01*
X398031Y300984D02*
X405118D01*
X398031D02*
Y315354D01*
X405118D01*
X358157Y180098D02*
X377449D01*
Y173012D02*
Y180098D01*
X358157Y173012D02*
X377449D01*
X358157D02*
Y180098D01*
X341614Y172909D02*
X355984D01*
X341614D02*
Y179995D01*
X355984D01*
Y172909D02*
Y179995D01*
X354457Y261181D02*
Y302126D01*
X330835Y261181D02*
X354457D01*
X330835D02*
Y302126D01*
X354457D01*
X349913Y223012D02*
Y253524D01*
X333378Y223012D02*
X349913D01*
X333378D02*
Y253524D01*
X349913D01*
X337709Y216646D02*
X384953D01*
Y183181D02*
Y216646D01*
X337709Y183181D02*
X384953D01*
X337709D02*
Y216646D01*
M02*
