G04*
G04 #@! TF.GenerationSoftware,Altium Limited,Altium Designer,19.1.8 (144)*
G04*
G04 Layer_Color=16711935*
%FSLAX25Y25*%
%MOIN*%
G70*
G01*
G75*
%ADD29C,0.31509*%
%ADD30C,0.07887*%
%ADD31C,0.08800*%
%ADD32C,0.12611*%
%ADD33R,0.12611X0.12611*%
%ADD34C,0.07690*%
%ADD35R,0.07690X0.07690*%
%ADD36C,0.06800*%
%ADD37C,0.11824*%
%ADD38C,0.05800*%
D29*
X248031Y403543D02*
D03*
X501968D02*
D03*
Y127953D02*
D03*
X248031D02*
D03*
D30*
X482279Y365905D02*
D03*
X421260Y281496D02*
D03*
X483268Y306102D02*
D03*
X379307Y304748D02*
D03*
X383858Y229331D02*
D03*
X372047D02*
D03*
X360236D02*
D03*
D31*
X459080Y365745D02*
D03*
Y355745D02*
D03*
Y345745D02*
D03*
D32*
X258000Y265216D02*
D03*
X303000Y196161D02*
D03*
Y334272D02*
D03*
X307016Y291535D02*
D03*
Y274016D02*
D03*
Y256496D02*
D03*
Y238976D02*
D03*
Y221457D02*
D03*
X282016D02*
D03*
Y238976D02*
D03*
Y256496D02*
D03*
Y274016D02*
D03*
Y291535D02*
D03*
Y309055D02*
D03*
D33*
X307016D02*
D03*
D34*
X371488Y191055D02*
D03*
X361488D02*
D03*
D35*
X351488D02*
D03*
D36*
X409842Y184252D02*
D03*
D37*
X418110Y133858D02*
D03*
Y155512D02*
D03*
X401575Y133858D02*
D03*
Y155512D02*
D03*
D38*
X446850Y122047D02*
D03*
X442913Y393701D02*
D03*
X472441D02*
D03*
X511811Y344488D02*
D03*
Y295276D02*
D03*
X472441Y255906D02*
D03*
Y216535D02*
D03*
Y177165D02*
D03*
X442913Y157480D02*
D03*
Y196850D02*
D03*
Y236221D02*
D03*
X393701Y255906D02*
D03*
Y216535D02*
D03*
X334646Y187008D02*
D03*
X364173Y157480D02*
D03*
X334646D02*
D03*
X342126Y312205D02*
D03*
X416142Y388976D02*
D03*
X387795Y376378D02*
D03*
X384252Y321260D02*
D03*
X387795Y332677D02*
D03*
X443280Y379906D02*
D03*
X499016Y328740D02*
D03*
X415354Y317913D02*
D03*
X424213Y333661D02*
D03*
X460630Y289370D02*
D03*
X499016Y318898D02*
D03*
X476378Y297244D02*
D03*
X366642Y388476D02*
D03*
Y380602D02*
D03*
Y372728D02*
D03*
X358768D02*
D03*
Y380602D02*
D03*
Y388476D02*
D03*
X350894D02*
D03*
Y380602D02*
D03*
Y372728D02*
D03*
X410779Y376905D02*
D03*
X398280Y341406D02*
D03*
M02*
